%FSLAX45Y45*%
G04 Gerber Fmt 4.5, Leading zero omitted, Abs format (unit mm)*
G04 Created by KiCad (PCBNEW 6.0.2+dfsg-1) date 2022-08-15 18:10:56*
%MOMM*%
%LPD*%
G01*
G04 APERTURE LIST*
%TA.AperFunction,Profile*%
%ADD10C,0.100000*%
%TD*%
%ADD11C,0.200000*%
%ADD12C,0.040000*%
%ADD13C,0.070000*%
%ADD14C,0.080000*%
%ADD15C,0.100000*%
G04 APERTURE END LIST*
D10*
X12000000Y-5900000D02*
X12000000Y-3900000D01*
X12000000Y-3900000D02*
X16800000Y-3900000D01*
X16800000Y-5900000D02*
X12000000Y-5900000D01*
X16800000Y-3900000D02*
X16800000Y-5900000D01*
D11*
D12*
X14080000Y-4855000D02*
X14120000Y-4895000D01*
X14120000Y-4855000D02*
X14080000Y-4895000D01*
X14132500Y-4418500D02*
X14172500Y-4458500D01*
X14172500Y-4418500D02*
X14132500Y-4458500D01*
X14305000Y-4280000D02*
X14345000Y-4320000D01*
X14345000Y-4280000D02*
X14305000Y-4320000D01*
X14702500Y-4730000D02*
X14742500Y-4770000D01*
X14742500Y-4730000D02*
X14702500Y-4770000D01*
X16005000Y-4197500D02*
X16045000Y-4237500D01*
X16045000Y-4197500D02*
X16005000Y-4237500D01*
X16005000Y-4362500D02*
X16045000Y-4402500D01*
X16045000Y-4362500D02*
X16005000Y-4402500D01*
X16555000Y-5212500D02*
X16595000Y-5252500D01*
X16595000Y-5212500D02*
X16555000Y-5252500D01*
X16562500Y-5605000D02*
X16602500Y-5645000D01*
X16602500Y-5605000D02*
X16562500Y-5645000D01*
D13*
X12281000Y-4400000D02*
G75*
G03*
X12281000Y-4400000I-35000J0D01*
G01*
X12535000Y-4146000D02*
G75*
G03*
X12535000Y-4146000I-35000J0D01*
G01*
X12535000Y-4654000D02*
G75*
G03*
X12535000Y-4654000I-35000J0D01*
G01*
X12789000Y-4400000D02*
G75*
G03*
X12789000Y-4400000I-35000J0D01*
G01*
D14*
X13744500Y-5427500D02*
X13744500Y-5507500D01*
X13704500Y-5467500D02*
X13784500Y-5467500D01*
X13998500Y-5173500D02*
X13998500Y-5253500D01*
X13958500Y-5213500D02*
X14038500Y-5213500D01*
X14252500Y-5427500D02*
X14252500Y-5507500D01*
X14212500Y-5467500D02*
X14292500Y-5467500D01*
X14519500Y-5427500D02*
X14519500Y-5507500D01*
X14479500Y-5467500D02*
X14559500Y-5467500D01*
X14773500Y-5173500D02*
X14773500Y-5253500D01*
X14733500Y-5213500D02*
X14813500Y-5213500D01*
X15027500Y-5427500D02*
X15027500Y-5507500D01*
X14987500Y-5467500D02*
X15067500Y-5467500D01*
D15*
X12277856Y-5285356D02*
X12277856Y-5214644D01*
X12207144Y-5214644D01*
X12207144Y-5285356D01*
X12277856Y-5285356D01*
X12277856Y-5685356D02*
X12277856Y-5614644D01*
X12207144Y-5614644D01*
X12207144Y-5685356D01*
X12277856Y-5685356D01*
X12531856Y-5285356D02*
X12531856Y-5214644D01*
X12461144Y-5214644D01*
X12461144Y-5285356D01*
X12531856Y-5285356D01*
X12531856Y-5685356D02*
X12531856Y-5614644D01*
X12461144Y-5614644D01*
X12461144Y-5685356D01*
X12531856Y-5685356D01*
X12785856Y-5285356D02*
X12785856Y-5214644D01*
X12715144Y-5214644D01*
X12715144Y-5285356D01*
X12785856Y-5285356D01*
X12785856Y-5685356D02*
X12785856Y-5614644D01*
X12715144Y-5614644D01*
X12715144Y-5685356D01*
X12785856Y-5685356D01*
X13039856Y-5285356D02*
X13039856Y-5214644D01*
X12969144Y-5214644D01*
X12969144Y-5285356D01*
X13039856Y-5285356D01*
X13039856Y-5685356D02*
X13039856Y-5614644D01*
X12969144Y-5614644D01*
X12969144Y-5685356D01*
X13039856Y-5685356D01*
X13235356Y-4208356D02*
X13235356Y-4137644D01*
X13164644Y-4137644D01*
X13164644Y-4208356D01*
X13235356Y-4208356D01*
X13235356Y-4462356D02*
X13235356Y-4391644D01*
X13164644Y-4391644D01*
X13164644Y-4462356D01*
X13235356Y-4462356D01*
X13293856Y-5685356D02*
X13293856Y-5614644D01*
X13223144Y-5614644D01*
X13223144Y-5685356D01*
X13293856Y-5685356D01*
X13633356Y-4335356D02*
X13633356Y-4264644D01*
X13562644Y-4264644D01*
X13562644Y-4335356D01*
X13633356Y-4335356D01*
X13887356Y-4335356D02*
X13887356Y-4264644D01*
X13816644Y-4264644D01*
X13816644Y-4335356D01*
X13887356Y-4335356D01*
X14983356Y-4335356D02*
X14983356Y-4264644D01*
X14912644Y-4264644D01*
X14912644Y-4335356D01*
X14983356Y-4335356D01*
X15237356Y-4335356D02*
X15237356Y-4264644D01*
X15166644Y-4264644D01*
X15166644Y-4335356D01*
X15237356Y-4335356D01*
X15558356Y-4335356D02*
X15558356Y-4264644D01*
X15487644Y-4264644D01*
X15487644Y-4335356D01*
X15558356Y-4335356D01*
X15812356Y-4335356D02*
X15812356Y-4264644D01*
X15741644Y-4264644D01*
X15741644Y-4335356D01*
X15812356Y-4335356D01*
X16358356Y-4210356D02*
X16358356Y-4139644D01*
X16287644Y-4139644D01*
X16287644Y-4210356D01*
X16358356Y-4210356D01*
X16358356Y-4760356D02*
X16358356Y-4689644D01*
X16287644Y-4689644D01*
X16287644Y-4760356D01*
X16358356Y-4760356D01*
X16612356Y-4210356D02*
X16612356Y-4139644D01*
X16541644Y-4139644D01*
X16541644Y-4210356D01*
X16612356Y-4210356D01*
X16612356Y-4760356D02*
X16612356Y-4689644D01*
X16541644Y-4689644D01*
X16541644Y-4760356D01*
X16612356Y-4760356D01*
D11*
X12252619Y-6215476D02*
X12252619Y-6015476D01*
X12300238Y-6015476D01*
X12328809Y-6025000D01*
X12347857Y-6044048D01*
X12357381Y-6063095D01*
X12366905Y-6101190D01*
X12366905Y-6129762D01*
X12357381Y-6167857D01*
X12347857Y-6186905D01*
X12328809Y-6205952D01*
X12300238Y-6215476D01*
X12252619Y-6215476D01*
X12452619Y-6215476D02*
X12452619Y-6082143D01*
X12452619Y-6120238D02*
X12462143Y-6101190D01*
X12471667Y-6091667D01*
X12490714Y-6082143D01*
X12509762Y-6082143D01*
X12576428Y-6215476D02*
X12576428Y-6082143D01*
X12576428Y-6015476D02*
X12566905Y-6025000D01*
X12576428Y-6034524D01*
X12585952Y-6025000D01*
X12576428Y-6015476D01*
X12576428Y-6034524D01*
X12700238Y-6215476D02*
X12681190Y-6205952D01*
X12671667Y-6186905D01*
X12671667Y-6015476D01*
X12805000Y-6215476D02*
X12785952Y-6205952D01*
X12776428Y-6186905D01*
X12776428Y-6015476D01*
X13033571Y-6215476D02*
X13033571Y-6015476D01*
X13100238Y-6158333D01*
X13166905Y-6015476D01*
X13166905Y-6215476D01*
X13347857Y-6215476D02*
X13347857Y-6110714D01*
X13338333Y-6091667D01*
X13319286Y-6082143D01*
X13281190Y-6082143D01*
X13262143Y-6091667D01*
X13347857Y-6205952D02*
X13328809Y-6215476D01*
X13281190Y-6215476D01*
X13262143Y-6205952D01*
X13252619Y-6186905D01*
X13252619Y-6167857D01*
X13262143Y-6148809D01*
X13281190Y-6139286D01*
X13328809Y-6139286D01*
X13347857Y-6129762D01*
X13443095Y-6082143D02*
X13443095Y-6282143D01*
X13443095Y-6091667D02*
X13462143Y-6082143D01*
X13500238Y-6082143D01*
X13519286Y-6091667D01*
X13528809Y-6101190D01*
X13538333Y-6120238D01*
X13538333Y-6177381D01*
X13528809Y-6196428D01*
X13519286Y-6205952D01*
X13500238Y-6215476D01*
X13462143Y-6215476D01*
X13443095Y-6205952D01*
X13624048Y-6196428D02*
X13633571Y-6205952D01*
X13624048Y-6215476D01*
X13614524Y-6205952D01*
X13624048Y-6196428D01*
X13624048Y-6215476D01*
X13624048Y-6091667D02*
X13633571Y-6101190D01*
X13624048Y-6110714D01*
X13614524Y-6101190D01*
X13624048Y-6091667D01*
X13624048Y-6110714D01*
D12*
X11955000Y-6525000D02*
X11995000Y-6565000D01*
X11995000Y-6525000D02*
X11955000Y-6565000D01*
D11*
X12290714Y-6435476D02*
X12309762Y-6435476D01*
X12328809Y-6445000D01*
X12338333Y-6454524D01*
X12347857Y-6473571D01*
X12357381Y-6511667D01*
X12357381Y-6559286D01*
X12347857Y-6597381D01*
X12338333Y-6616428D01*
X12328809Y-6625952D01*
X12309762Y-6635476D01*
X12290714Y-6635476D01*
X12271667Y-6625952D01*
X12262143Y-6616428D01*
X12252619Y-6597381D01*
X12243095Y-6559286D01*
X12243095Y-6511667D01*
X12252619Y-6473571D01*
X12262143Y-6454524D01*
X12271667Y-6445000D01*
X12290714Y-6435476D01*
X12443095Y-6616428D02*
X12452619Y-6625952D01*
X12443095Y-6635476D01*
X12433571Y-6625952D01*
X12443095Y-6616428D01*
X12443095Y-6635476D01*
X12624048Y-6502143D02*
X12624048Y-6635476D01*
X12576428Y-6425952D02*
X12528809Y-6568809D01*
X12652619Y-6568809D01*
X12766905Y-6435476D02*
X12785952Y-6435476D01*
X12805000Y-6445000D01*
X12814524Y-6454524D01*
X12824048Y-6473571D01*
X12833571Y-6511667D01*
X12833571Y-6559286D01*
X12824048Y-6597381D01*
X12814524Y-6616428D01*
X12805000Y-6625952D01*
X12785952Y-6635476D01*
X12766905Y-6635476D01*
X12747857Y-6625952D01*
X12738333Y-6616428D01*
X12728809Y-6597381D01*
X12719286Y-6559286D01*
X12719286Y-6511667D01*
X12728809Y-6473571D01*
X12738333Y-6454524D01*
X12747857Y-6445000D01*
X12766905Y-6435476D01*
X12957381Y-6435476D02*
X12976428Y-6435476D01*
X12995476Y-6445000D01*
X13005000Y-6454524D01*
X13014524Y-6473571D01*
X13024048Y-6511667D01*
X13024048Y-6559286D01*
X13014524Y-6597381D01*
X13005000Y-6616428D01*
X12995476Y-6625952D01*
X12976428Y-6635476D01*
X12957381Y-6635476D01*
X12938333Y-6625952D01*
X12928809Y-6616428D01*
X12919286Y-6597381D01*
X12909762Y-6559286D01*
X12909762Y-6511667D01*
X12919286Y-6473571D01*
X12928809Y-6454524D01*
X12938333Y-6445000D01*
X12957381Y-6435476D01*
X13109762Y-6635476D02*
X13109762Y-6502143D01*
X13109762Y-6521190D02*
X13119286Y-6511667D01*
X13138333Y-6502143D01*
X13166905Y-6502143D01*
X13185952Y-6511667D01*
X13195476Y-6530714D01*
X13195476Y-6635476D01*
X13195476Y-6530714D02*
X13205000Y-6511667D01*
X13224048Y-6502143D01*
X13252619Y-6502143D01*
X13271667Y-6511667D01*
X13281190Y-6530714D01*
X13281190Y-6635476D01*
X13376428Y-6635476D02*
X13376428Y-6502143D01*
X13376428Y-6521190D02*
X13385952Y-6511667D01*
X13405000Y-6502143D01*
X13433571Y-6502143D01*
X13452619Y-6511667D01*
X13462143Y-6530714D01*
X13462143Y-6635476D01*
X13462143Y-6530714D02*
X13471667Y-6511667D01*
X13490714Y-6502143D01*
X13519286Y-6502143D01*
X13538333Y-6511667D01*
X13547857Y-6530714D01*
X13547857Y-6635476D01*
X13938333Y-6425952D02*
X13766905Y-6683095D01*
X14195476Y-6435476D02*
X14214524Y-6435476D01*
X14233571Y-6445000D01*
X14243095Y-6454524D01*
X14252619Y-6473571D01*
X14262143Y-6511667D01*
X14262143Y-6559286D01*
X14252619Y-6597381D01*
X14243095Y-6616428D01*
X14233571Y-6625952D01*
X14214524Y-6635476D01*
X14195476Y-6635476D01*
X14176428Y-6625952D01*
X14166905Y-6616428D01*
X14157381Y-6597381D01*
X14147857Y-6559286D01*
X14147857Y-6511667D01*
X14157381Y-6473571D01*
X14166905Y-6454524D01*
X14176428Y-6445000D01*
X14195476Y-6435476D01*
X14347857Y-6616428D02*
X14357381Y-6625952D01*
X14347857Y-6635476D01*
X14338333Y-6625952D01*
X14347857Y-6616428D01*
X14347857Y-6635476D01*
X14481190Y-6435476D02*
X14500238Y-6435476D01*
X14519286Y-6445000D01*
X14528809Y-6454524D01*
X14538333Y-6473571D01*
X14547857Y-6511667D01*
X14547857Y-6559286D01*
X14538333Y-6597381D01*
X14528809Y-6616428D01*
X14519286Y-6625952D01*
X14500238Y-6635476D01*
X14481190Y-6635476D01*
X14462143Y-6625952D01*
X14452619Y-6616428D01*
X14443095Y-6597381D01*
X14433571Y-6559286D01*
X14433571Y-6511667D01*
X14443095Y-6473571D01*
X14452619Y-6454524D01*
X14462143Y-6445000D01*
X14481190Y-6435476D01*
X14738333Y-6635476D02*
X14624048Y-6635476D01*
X14681190Y-6635476D02*
X14681190Y-6435476D01*
X14662143Y-6464048D01*
X14643095Y-6483095D01*
X14624048Y-6492619D01*
X14919286Y-6435476D02*
X14824048Y-6435476D01*
X14814524Y-6530714D01*
X14824048Y-6521190D01*
X14843095Y-6511667D01*
X14890714Y-6511667D01*
X14909762Y-6521190D01*
X14919286Y-6530714D01*
X14928809Y-6549762D01*
X14928809Y-6597381D01*
X14919286Y-6616428D01*
X14909762Y-6625952D01*
X14890714Y-6635476D01*
X14843095Y-6635476D01*
X14824048Y-6625952D01*
X14814524Y-6616428D01*
X14995476Y-6435476D02*
X15128809Y-6435476D01*
X15043095Y-6635476D01*
X15195476Y-6435476D02*
X15195476Y-6473571D01*
X15271667Y-6435476D02*
X15271667Y-6473571D01*
X15566905Y-6711667D02*
X15557381Y-6702143D01*
X15538333Y-6673571D01*
X15528809Y-6654524D01*
X15519286Y-6625952D01*
X15509762Y-6578333D01*
X15509762Y-6540238D01*
X15519286Y-6492619D01*
X15528809Y-6464048D01*
X15538333Y-6445000D01*
X15557381Y-6416428D01*
X15566905Y-6406905D01*
X15671667Y-6521190D02*
X15652619Y-6511667D01*
X15643095Y-6502143D01*
X15633571Y-6483095D01*
X15633571Y-6473571D01*
X15643095Y-6454524D01*
X15652619Y-6445000D01*
X15671667Y-6435476D01*
X15709762Y-6435476D01*
X15728809Y-6445000D01*
X15738333Y-6454524D01*
X15747857Y-6473571D01*
X15747857Y-6483095D01*
X15738333Y-6502143D01*
X15728809Y-6511667D01*
X15709762Y-6521190D01*
X15671667Y-6521190D01*
X15652619Y-6530714D01*
X15643095Y-6540238D01*
X15633571Y-6559286D01*
X15633571Y-6597381D01*
X15643095Y-6616428D01*
X15652619Y-6625952D01*
X15671667Y-6635476D01*
X15709762Y-6635476D01*
X15728809Y-6625952D01*
X15738333Y-6616428D01*
X15747857Y-6597381D01*
X15747857Y-6559286D01*
X15738333Y-6540238D01*
X15728809Y-6530714D01*
X15709762Y-6521190D01*
X15985952Y-6635476D02*
X15985952Y-6435476D01*
X16071667Y-6635476D02*
X16071667Y-6530714D01*
X16062143Y-6511667D01*
X16043095Y-6502143D01*
X16014524Y-6502143D01*
X15995476Y-6511667D01*
X15985952Y-6521190D01*
X16195476Y-6635476D02*
X16176428Y-6625952D01*
X16166905Y-6616428D01*
X16157381Y-6597381D01*
X16157381Y-6540238D01*
X16166905Y-6521190D01*
X16176428Y-6511667D01*
X16195476Y-6502143D01*
X16224048Y-6502143D01*
X16243095Y-6511667D01*
X16252619Y-6521190D01*
X16262143Y-6540238D01*
X16262143Y-6597381D01*
X16252619Y-6616428D01*
X16243095Y-6625952D01*
X16224048Y-6635476D01*
X16195476Y-6635476D01*
X16376428Y-6635476D02*
X16357381Y-6625952D01*
X16347857Y-6606905D01*
X16347857Y-6435476D01*
X16528809Y-6625952D02*
X16509762Y-6635476D01*
X16471667Y-6635476D01*
X16452619Y-6625952D01*
X16443095Y-6606905D01*
X16443095Y-6530714D01*
X16452619Y-6511667D01*
X16471667Y-6502143D01*
X16509762Y-6502143D01*
X16528809Y-6511667D01*
X16538333Y-6530714D01*
X16538333Y-6549762D01*
X16443095Y-6568809D01*
X16614524Y-6625952D02*
X16633571Y-6635476D01*
X16671667Y-6635476D01*
X16690714Y-6625952D01*
X16700238Y-6606905D01*
X16700238Y-6597381D01*
X16690714Y-6578333D01*
X16671667Y-6568809D01*
X16643095Y-6568809D01*
X16624048Y-6559286D01*
X16614524Y-6540238D01*
X16614524Y-6530714D01*
X16624048Y-6511667D01*
X16643095Y-6502143D01*
X16671667Y-6502143D01*
X16690714Y-6511667D01*
X16766905Y-6711667D02*
X16776428Y-6702143D01*
X16795476Y-6673571D01*
X16805000Y-6654524D01*
X16814524Y-6625952D01*
X16824048Y-6578333D01*
X16824048Y-6540238D01*
X16814524Y-6492619D01*
X16805000Y-6464048D01*
X16795476Y-6445000D01*
X16776428Y-6416428D01*
X16766905Y-6406905D01*
D13*
X11995000Y-6809000D02*
G75*
G03*
X11995000Y-6809000I-35000J0D01*
G01*
D11*
X12290714Y-6699476D02*
X12309762Y-6699476D01*
X12328809Y-6709000D01*
X12338333Y-6718524D01*
X12347857Y-6737571D01*
X12357381Y-6775667D01*
X12357381Y-6823286D01*
X12347857Y-6861381D01*
X12338333Y-6880428D01*
X12328809Y-6889952D01*
X12309762Y-6899476D01*
X12290714Y-6899476D01*
X12271667Y-6889952D01*
X12262143Y-6880428D01*
X12252619Y-6861381D01*
X12243095Y-6823286D01*
X12243095Y-6775667D01*
X12252619Y-6737571D01*
X12262143Y-6718524D01*
X12271667Y-6709000D01*
X12290714Y-6699476D01*
X12443095Y-6880428D02*
X12452619Y-6889952D01*
X12443095Y-6899476D01*
X12433571Y-6889952D01*
X12443095Y-6880428D01*
X12443095Y-6899476D01*
X12519286Y-6699476D02*
X12652619Y-6699476D01*
X12566905Y-6899476D01*
X12766905Y-6699476D02*
X12785952Y-6699476D01*
X12805000Y-6709000D01*
X12814524Y-6718524D01*
X12824048Y-6737571D01*
X12833571Y-6775667D01*
X12833571Y-6823286D01*
X12824048Y-6861381D01*
X12814524Y-6880428D01*
X12805000Y-6889952D01*
X12785952Y-6899476D01*
X12766905Y-6899476D01*
X12747857Y-6889952D01*
X12738333Y-6880428D01*
X12728809Y-6861381D01*
X12719286Y-6823286D01*
X12719286Y-6775667D01*
X12728809Y-6737571D01*
X12738333Y-6718524D01*
X12747857Y-6709000D01*
X12766905Y-6699476D01*
X12957381Y-6699476D02*
X12976428Y-6699476D01*
X12995476Y-6709000D01*
X13005000Y-6718524D01*
X13014524Y-6737571D01*
X13024048Y-6775667D01*
X13024048Y-6823286D01*
X13014524Y-6861381D01*
X13005000Y-6880428D01*
X12995476Y-6889952D01*
X12976428Y-6899476D01*
X12957381Y-6899476D01*
X12938333Y-6889952D01*
X12928809Y-6880428D01*
X12919286Y-6861381D01*
X12909762Y-6823286D01*
X12909762Y-6775667D01*
X12919286Y-6737571D01*
X12928809Y-6718524D01*
X12938333Y-6709000D01*
X12957381Y-6699476D01*
X13109762Y-6899476D02*
X13109762Y-6766143D01*
X13109762Y-6785190D02*
X13119286Y-6775667D01*
X13138333Y-6766143D01*
X13166905Y-6766143D01*
X13185952Y-6775667D01*
X13195476Y-6794714D01*
X13195476Y-6899476D01*
X13195476Y-6794714D02*
X13205000Y-6775667D01*
X13224048Y-6766143D01*
X13252619Y-6766143D01*
X13271667Y-6775667D01*
X13281190Y-6794714D01*
X13281190Y-6899476D01*
X13376428Y-6899476D02*
X13376428Y-6766143D01*
X13376428Y-6785190D02*
X13385952Y-6775667D01*
X13405000Y-6766143D01*
X13433571Y-6766143D01*
X13452619Y-6775667D01*
X13462143Y-6794714D01*
X13462143Y-6899476D01*
X13462143Y-6794714D02*
X13471667Y-6775667D01*
X13490714Y-6766143D01*
X13519286Y-6766143D01*
X13538333Y-6775667D01*
X13547857Y-6794714D01*
X13547857Y-6899476D01*
X13938333Y-6689952D02*
X13766905Y-6947095D01*
X14195476Y-6699476D02*
X14214524Y-6699476D01*
X14233571Y-6709000D01*
X14243095Y-6718524D01*
X14252619Y-6737571D01*
X14262143Y-6775667D01*
X14262143Y-6823286D01*
X14252619Y-6861381D01*
X14243095Y-6880428D01*
X14233571Y-6889952D01*
X14214524Y-6899476D01*
X14195476Y-6899476D01*
X14176428Y-6889952D01*
X14166905Y-6880428D01*
X14157381Y-6861381D01*
X14147857Y-6823286D01*
X14147857Y-6775667D01*
X14157381Y-6737571D01*
X14166905Y-6718524D01*
X14176428Y-6709000D01*
X14195476Y-6699476D01*
X14347857Y-6880428D02*
X14357381Y-6889952D01*
X14347857Y-6899476D01*
X14338333Y-6889952D01*
X14347857Y-6880428D01*
X14347857Y-6899476D01*
X14481190Y-6699476D02*
X14500238Y-6699476D01*
X14519286Y-6709000D01*
X14528809Y-6718524D01*
X14538333Y-6737571D01*
X14547857Y-6775667D01*
X14547857Y-6823286D01*
X14538333Y-6861381D01*
X14528809Y-6880428D01*
X14519286Y-6889952D01*
X14500238Y-6899476D01*
X14481190Y-6899476D01*
X14462143Y-6889952D01*
X14452619Y-6880428D01*
X14443095Y-6861381D01*
X14433571Y-6823286D01*
X14433571Y-6775667D01*
X14443095Y-6737571D01*
X14452619Y-6718524D01*
X14462143Y-6709000D01*
X14481190Y-6699476D01*
X14624048Y-6718524D02*
X14633571Y-6709000D01*
X14652619Y-6699476D01*
X14700238Y-6699476D01*
X14719286Y-6709000D01*
X14728809Y-6718524D01*
X14738333Y-6737571D01*
X14738333Y-6756619D01*
X14728809Y-6785190D01*
X14614524Y-6899476D01*
X14738333Y-6899476D01*
X14805000Y-6699476D02*
X14938333Y-6699476D01*
X14852619Y-6899476D01*
X15100238Y-6699476D02*
X15062143Y-6699476D01*
X15043095Y-6709000D01*
X15033571Y-6718524D01*
X15014524Y-6747095D01*
X15005000Y-6785190D01*
X15005000Y-6861381D01*
X15014524Y-6880428D01*
X15024048Y-6889952D01*
X15043095Y-6899476D01*
X15081190Y-6899476D01*
X15100238Y-6889952D01*
X15109762Y-6880428D01*
X15119286Y-6861381D01*
X15119286Y-6813762D01*
X15109762Y-6794714D01*
X15100238Y-6785190D01*
X15081190Y-6775667D01*
X15043095Y-6775667D01*
X15024048Y-6785190D01*
X15014524Y-6794714D01*
X15005000Y-6813762D01*
X15195476Y-6699476D02*
X15195476Y-6737571D01*
X15271667Y-6699476D02*
X15271667Y-6737571D01*
X15566905Y-6975667D02*
X15557381Y-6966143D01*
X15538333Y-6937571D01*
X15528809Y-6918524D01*
X15519286Y-6889952D01*
X15509762Y-6842333D01*
X15509762Y-6804238D01*
X15519286Y-6756619D01*
X15528809Y-6728048D01*
X15538333Y-6709000D01*
X15557381Y-6680428D01*
X15566905Y-6670905D01*
X15728809Y-6766143D02*
X15728809Y-6899476D01*
X15681190Y-6689952D02*
X15633571Y-6832809D01*
X15757381Y-6832809D01*
X15985952Y-6899476D02*
X15985952Y-6699476D01*
X16071667Y-6899476D02*
X16071667Y-6794714D01*
X16062143Y-6775667D01*
X16043095Y-6766143D01*
X16014524Y-6766143D01*
X15995476Y-6775667D01*
X15985952Y-6785190D01*
X16195476Y-6899476D02*
X16176428Y-6889952D01*
X16166905Y-6880428D01*
X16157381Y-6861381D01*
X16157381Y-6804238D01*
X16166905Y-6785190D01*
X16176428Y-6775667D01*
X16195476Y-6766143D01*
X16224048Y-6766143D01*
X16243095Y-6775667D01*
X16252619Y-6785190D01*
X16262143Y-6804238D01*
X16262143Y-6861381D01*
X16252619Y-6880428D01*
X16243095Y-6889952D01*
X16224048Y-6899476D01*
X16195476Y-6899476D01*
X16376428Y-6899476D02*
X16357381Y-6889952D01*
X16347857Y-6870905D01*
X16347857Y-6699476D01*
X16528809Y-6889952D02*
X16509762Y-6899476D01*
X16471667Y-6899476D01*
X16452619Y-6889952D01*
X16443095Y-6870905D01*
X16443095Y-6794714D01*
X16452619Y-6775667D01*
X16471667Y-6766143D01*
X16509762Y-6766143D01*
X16528809Y-6775667D01*
X16538333Y-6794714D01*
X16538333Y-6813762D01*
X16443095Y-6832809D01*
X16614524Y-6889952D02*
X16633571Y-6899476D01*
X16671667Y-6899476D01*
X16690714Y-6889952D01*
X16700238Y-6870905D01*
X16700238Y-6861381D01*
X16690714Y-6842333D01*
X16671667Y-6832809D01*
X16643095Y-6832809D01*
X16624048Y-6823286D01*
X16614524Y-6804238D01*
X16614524Y-6794714D01*
X16624048Y-6775667D01*
X16643095Y-6766143D01*
X16671667Y-6766143D01*
X16690714Y-6775667D01*
X16766905Y-6975667D02*
X16776428Y-6966143D01*
X16795476Y-6937571D01*
X16805000Y-6918524D01*
X16814524Y-6889952D01*
X16824048Y-6842333D01*
X16824048Y-6804238D01*
X16814524Y-6756619D01*
X16805000Y-6728048D01*
X16795476Y-6709000D01*
X16776428Y-6680428D01*
X16766905Y-6670905D01*
D14*
X11955000Y-7033000D02*
X11955000Y-7113000D01*
X11915000Y-7073000D02*
X11995000Y-7073000D01*
D11*
X12290714Y-6963476D02*
X12309762Y-6963476D01*
X12328809Y-6973000D01*
X12338333Y-6982524D01*
X12347857Y-7001571D01*
X12357381Y-7039667D01*
X12357381Y-7087286D01*
X12347857Y-7125381D01*
X12338333Y-7144428D01*
X12328809Y-7153952D01*
X12309762Y-7163476D01*
X12290714Y-7163476D01*
X12271667Y-7153952D01*
X12262143Y-7144428D01*
X12252619Y-7125381D01*
X12243095Y-7087286D01*
X12243095Y-7039667D01*
X12252619Y-7001571D01*
X12262143Y-6982524D01*
X12271667Y-6973000D01*
X12290714Y-6963476D01*
X12443095Y-7144428D02*
X12452619Y-7153952D01*
X12443095Y-7163476D01*
X12433571Y-7153952D01*
X12443095Y-7144428D01*
X12443095Y-7163476D01*
X12566905Y-7049190D02*
X12547857Y-7039667D01*
X12538333Y-7030143D01*
X12528809Y-7011095D01*
X12528809Y-7001571D01*
X12538333Y-6982524D01*
X12547857Y-6973000D01*
X12566905Y-6963476D01*
X12605000Y-6963476D01*
X12624048Y-6973000D01*
X12633571Y-6982524D01*
X12643095Y-7001571D01*
X12643095Y-7011095D01*
X12633571Y-7030143D01*
X12624048Y-7039667D01*
X12605000Y-7049190D01*
X12566905Y-7049190D01*
X12547857Y-7058714D01*
X12538333Y-7068238D01*
X12528809Y-7087286D01*
X12528809Y-7125381D01*
X12538333Y-7144428D01*
X12547857Y-7153952D01*
X12566905Y-7163476D01*
X12605000Y-7163476D01*
X12624048Y-7153952D01*
X12633571Y-7144428D01*
X12643095Y-7125381D01*
X12643095Y-7087286D01*
X12633571Y-7068238D01*
X12624048Y-7058714D01*
X12605000Y-7049190D01*
X12766905Y-6963476D02*
X12785952Y-6963476D01*
X12805000Y-6973000D01*
X12814524Y-6982524D01*
X12824048Y-7001571D01*
X12833571Y-7039667D01*
X12833571Y-7087286D01*
X12824048Y-7125381D01*
X12814524Y-7144428D01*
X12805000Y-7153952D01*
X12785952Y-7163476D01*
X12766905Y-7163476D01*
X12747857Y-7153952D01*
X12738333Y-7144428D01*
X12728809Y-7125381D01*
X12719286Y-7087286D01*
X12719286Y-7039667D01*
X12728809Y-7001571D01*
X12738333Y-6982524D01*
X12747857Y-6973000D01*
X12766905Y-6963476D01*
X12957381Y-6963476D02*
X12976428Y-6963476D01*
X12995476Y-6973000D01*
X13005000Y-6982524D01*
X13014524Y-7001571D01*
X13024048Y-7039667D01*
X13024048Y-7087286D01*
X13014524Y-7125381D01*
X13005000Y-7144428D01*
X12995476Y-7153952D01*
X12976428Y-7163476D01*
X12957381Y-7163476D01*
X12938333Y-7153952D01*
X12928809Y-7144428D01*
X12919286Y-7125381D01*
X12909762Y-7087286D01*
X12909762Y-7039667D01*
X12919286Y-7001571D01*
X12928809Y-6982524D01*
X12938333Y-6973000D01*
X12957381Y-6963476D01*
X13109762Y-7163476D02*
X13109762Y-7030143D01*
X13109762Y-7049190D02*
X13119286Y-7039667D01*
X13138333Y-7030143D01*
X13166905Y-7030143D01*
X13185952Y-7039667D01*
X13195476Y-7058714D01*
X13195476Y-7163476D01*
X13195476Y-7058714D02*
X13205000Y-7039667D01*
X13224048Y-7030143D01*
X13252619Y-7030143D01*
X13271667Y-7039667D01*
X13281190Y-7058714D01*
X13281190Y-7163476D01*
X13376428Y-7163476D02*
X13376428Y-7030143D01*
X13376428Y-7049190D02*
X13385952Y-7039667D01*
X13405000Y-7030143D01*
X13433571Y-7030143D01*
X13452619Y-7039667D01*
X13462143Y-7058714D01*
X13462143Y-7163476D01*
X13462143Y-7058714D02*
X13471667Y-7039667D01*
X13490714Y-7030143D01*
X13519286Y-7030143D01*
X13538333Y-7039667D01*
X13547857Y-7058714D01*
X13547857Y-7163476D01*
X13938333Y-6953952D02*
X13766905Y-7211095D01*
X14195476Y-6963476D02*
X14214524Y-6963476D01*
X14233571Y-6973000D01*
X14243095Y-6982524D01*
X14252619Y-7001571D01*
X14262143Y-7039667D01*
X14262143Y-7087286D01*
X14252619Y-7125381D01*
X14243095Y-7144428D01*
X14233571Y-7153952D01*
X14214524Y-7163476D01*
X14195476Y-7163476D01*
X14176428Y-7153952D01*
X14166905Y-7144428D01*
X14157381Y-7125381D01*
X14147857Y-7087286D01*
X14147857Y-7039667D01*
X14157381Y-7001571D01*
X14166905Y-6982524D01*
X14176428Y-6973000D01*
X14195476Y-6963476D01*
X14347857Y-7144428D02*
X14357381Y-7153952D01*
X14347857Y-7163476D01*
X14338333Y-7153952D01*
X14347857Y-7144428D01*
X14347857Y-7163476D01*
X14481190Y-6963476D02*
X14500238Y-6963476D01*
X14519286Y-6973000D01*
X14528809Y-6982524D01*
X14538333Y-7001571D01*
X14547857Y-7039667D01*
X14547857Y-7087286D01*
X14538333Y-7125381D01*
X14528809Y-7144428D01*
X14519286Y-7153952D01*
X14500238Y-7163476D01*
X14481190Y-7163476D01*
X14462143Y-7153952D01*
X14452619Y-7144428D01*
X14443095Y-7125381D01*
X14433571Y-7087286D01*
X14433571Y-7039667D01*
X14443095Y-7001571D01*
X14452619Y-6982524D01*
X14462143Y-6973000D01*
X14481190Y-6963476D01*
X14614524Y-6963476D02*
X14738333Y-6963476D01*
X14671667Y-7039667D01*
X14700238Y-7039667D01*
X14719286Y-7049190D01*
X14728809Y-7058714D01*
X14738333Y-7077762D01*
X14738333Y-7125381D01*
X14728809Y-7144428D01*
X14719286Y-7153952D01*
X14700238Y-7163476D01*
X14643095Y-7163476D01*
X14624048Y-7153952D01*
X14614524Y-7144428D01*
X14928809Y-7163476D02*
X14814524Y-7163476D01*
X14871667Y-7163476D02*
X14871667Y-6963476D01*
X14852619Y-6992048D01*
X14833571Y-7011095D01*
X14814524Y-7020619D01*
X15109762Y-6963476D02*
X15014524Y-6963476D01*
X15005000Y-7058714D01*
X15014524Y-7049190D01*
X15033571Y-7039667D01*
X15081190Y-7039667D01*
X15100238Y-7049190D01*
X15109762Y-7058714D01*
X15119286Y-7077762D01*
X15119286Y-7125381D01*
X15109762Y-7144428D01*
X15100238Y-7153952D01*
X15081190Y-7163476D01*
X15033571Y-7163476D01*
X15014524Y-7153952D01*
X15005000Y-7144428D01*
X15195476Y-6963476D02*
X15195476Y-7001571D01*
X15271667Y-6963476D02*
X15271667Y-7001571D01*
X15566905Y-7239667D02*
X15557381Y-7230143D01*
X15538333Y-7201571D01*
X15528809Y-7182524D01*
X15519286Y-7153952D01*
X15509762Y-7106333D01*
X15509762Y-7068238D01*
X15519286Y-7020619D01*
X15528809Y-6992048D01*
X15538333Y-6973000D01*
X15557381Y-6944428D01*
X15566905Y-6934905D01*
X15728809Y-6963476D02*
X15690714Y-6963476D01*
X15671667Y-6973000D01*
X15662143Y-6982524D01*
X15643095Y-7011095D01*
X15633571Y-7049190D01*
X15633571Y-7125381D01*
X15643095Y-7144428D01*
X15652619Y-7153952D01*
X15671667Y-7163476D01*
X15709762Y-7163476D01*
X15728809Y-7153952D01*
X15738333Y-7144428D01*
X15747857Y-7125381D01*
X15747857Y-7077762D01*
X15738333Y-7058714D01*
X15728809Y-7049190D01*
X15709762Y-7039667D01*
X15671667Y-7039667D01*
X15652619Y-7049190D01*
X15643095Y-7058714D01*
X15633571Y-7077762D01*
X15985952Y-7163476D02*
X15985952Y-6963476D01*
X16071667Y-7163476D02*
X16071667Y-7058714D01*
X16062143Y-7039667D01*
X16043095Y-7030143D01*
X16014524Y-7030143D01*
X15995476Y-7039667D01*
X15985952Y-7049190D01*
X16195476Y-7163476D02*
X16176428Y-7153952D01*
X16166905Y-7144428D01*
X16157381Y-7125381D01*
X16157381Y-7068238D01*
X16166905Y-7049190D01*
X16176428Y-7039667D01*
X16195476Y-7030143D01*
X16224048Y-7030143D01*
X16243095Y-7039667D01*
X16252619Y-7049190D01*
X16262143Y-7068238D01*
X16262143Y-7125381D01*
X16252619Y-7144428D01*
X16243095Y-7153952D01*
X16224048Y-7163476D01*
X16195476Y-7163476D01*
X16376428Y-7163476D02*
X16357381Y-7153952D01*
X16347857Y-7134905D01*
X16347857Y-6963476D01*
X16528809Y-7153952D02*
X16509762Y-7163476D01*
X16471667Y-7163476D01*
X16452619Y-7153952D01*
X16443095Y-7134905D01*
X16443095Y-7058714D01*
X16452619Y-7039667D01*
X16471667Y-7030143D01*
X16509762Y-7030143D01*
X16528809Y-7039667D01*
X16538333Y-7058714D01*
X16538333Y-7077762D01*
X16443095Y-7096809D01*
X16614524Y-7153952D02*
X16633571Y-7163476D01*
X16671667Y-7163476D01*
X16690714Y-7153952D01*
X16700238Y-7134905D01*
X16700238Y-7125381D01*
X16690714Y-7106333D01*
X16671667Y-7096809D01*
X16643095Y-7096809D01*
X16624048Y-7087286D01*
X16614524Y-7068238D01*
X16614524Y-7058714D01*
X16624048Y-7039667D01*
X16643095Y-7030143D01*
X16671667Y-7030143D01*
X16690714Y-7039667D01*
X16766905Y-7239667D02*
X16776428Y-7230143D01*
X16795476Y-7201571D01*
X16805000Y-7182524D01*
X16814524Y-7153952D01*
X16824048Y-7106333D01*
X16824048Y-7068238D01*
X16814524Y-7020619D01*
X16805000Y-6992048D01*
X16795476Y-6973000D01*
X16776428Y-6944428D01*
X16766905Y-6934905D01*
D15*
X11980356Y-7372356D02*
X11980356Y-7301644D01*
X11909644Y-7301644D01*
X11909644Y-7372356D01*
X11980356Y-7372356D01*
D11*
X12357381Y-7427476D02*
X12243095Y-7427476D01*
X12300238Y-7427476D02*
X12300238Y-7227476D01*
X12281190Y-7256048D01*
X12262143Y-7275095D01*
X12243095Y-7284619D01*
X12443095Y-7408428D02*
X12452619Y-7417952D01*
X12443095Y-7427476D01*
X12433571Y-7417952D01*
X12443095Y-7408428D01*
X12443095Y-7427476D01*
X12576428Y-7227476D02*
X12595476Y-7227476D01*
X12614524Y-7237000D01*
X12624048Y-7246524D01*
X12633571Y-7265571D01*
X12643095Y-7303667D01*
X12643095Y-7351286D01*
X12633571Y-7389381D01*
X12624048Y-7408428D01*
X12614524Y-7417952D01*
X12595476Y-7427476D01*
X12576428Y-7427476D01*
X12557381Y-7417952D01*
X12547857Y-7408428D01*
X12538333Y-7389381D01*
X12528809Y-7351286D01*
X12528809Y-7303667D01*
X12538333Y-7265571D01*
X12547857Y-7246524D01*
X12557381Y-7237000D01*
X12576428Y-7227476D01*
X12766905Y-7227476D02*
X12785952Y-7227476D01*
X12805000Y-7237000D01*
X12814524Y-7246524D01*
X12824048Y-7265571D01*
X12833571Y-7303667D01*
X12833571Y-7351286D01*
X12824048Y-7389381D01*
X12814524Y-7408428D01*
X12805000Y-7417952D01*
X12785952Y-7427476D01*
X12766905Y-7427476D01*
X12747857Y-7417952D01*
X12738333Y-7408428D01*
X12728809Y-7389381D01*
X12719286Y-7351286D01*
X12719286Y-7303667D01*
X12728809Y-7265571D01*
X12738333Y-7246524D01*
X12747857Y-7237000D01*
X12766905Y-7227476D01*
X12957381Y-7227476D02*
X12976428Y-7227476D01*
X12995476Y-7237000D01*
X13005000Y-7246524D01*
X13014524Y-7265571D01*
X13024048Y-7303667D01*
X13024048Y-7351286D01*
X13014524Y-7389381D01*
X13005000Y-7408428D01*
X12995476Y-7417952D01*
X12976428Y-7427476D01*
X12957381Y-7427476D01*
X12938333Y-7417952D01*
X12928809Y-7408428D01*
X12919286Y-7389381D01*
X12909762Y-7351286D01*
X12909762Y-7303667D01*
X12919286Y-7265571D01*
X12928809Y-7246524D01*
X12938333Y-7237000D01*
X12957381Y-7227476D01*
X13109762Y-7427476D02*
X13109762Y-7294143D01*
X13109762Y-7313190D02*
X13119286Y-7303667D01*
X13138333Y-7294143D01*
X13166905Y-7294143D01*
X13185952Y-7303667D01*
X13195476Y-7322714D01*
X13195476Y-7427476D01*
X13195476Y-7322714D02*
X13205000Y-7303667D01*
X13224048Y-7294143D01*
X13252619Y-7294143D01*
X13271667Y-7303667D01*
X13281190Y-7322714D01*
X13281190Y-7427476D01*
X13376428Y-7427476D02*
X13376428Y-7294143D01*
X13376428Y-7313190D02*
X13385952Y-7303667D01*
X13405000Y-7294143D01*
X13433571Y-7294143D01*
X13452619Y-7303667D01*
X13462143Y-7322714D01*
X13462143Y-7427476D01*
X13462143Y-7322714D02*
X13471667Y-7303667D01*
X13490714Y-7294143D01*
X13519286Y-7294143D01*
X13538333Y-7303667D01*
X13547857Y-7322714D01*
X13547857Y-7427476D01*
X13938333Y-7217952D02*
X13766905Y-7475095D01*
X14195476Y-7227476D02*
X14214524Y-7227476D01*
X14233571Y-7237000D01*
X14243095Y-7246524D01*
X14252619Y-7265571D01*
X14262143Y-7303667D01*
X14262143Y-7351286D01*
X14252619Y-7389381D01*
X14243095Y-7408428D01*
X14233571Y-7417952D01*
X14214524Y-7427476D01*
X14195476Y-7427476D01*
X14176428Y-7417952D01*
X14166905Y-7408428D01*
X14157381Y-7389381D01*
X14147857Y-7351286D01*
X14147857Y-7303667D01*
X14157381Y-7265571D01*
X14166905Y-7246524D01*
X14176428Y-7237000D01*
X14195476Y-7227476D01*
X14347857Y-7408428D02*
X14357381Y-7417952D01*
X14347857Y-7427476D01*
X14338333Y-7417952D01*
X14347857Y-7408428D01*
X14347857Y-7427476D01*
X14481190Y-7227476D02*
X14500238Y-7227476D01*
X14519286Y-7237000D01*
X14528809Y-7246524D01*
X14538333Y-7265571D01*
X14547857Y-7303667D01*
X14547857Y-7351286D01*
X14538333Y-7389381D01*
X14528809Y-7408428D01*
X14519286Y-7417952D01*
X14500238Y-7427476D01*
X14481190Y-7427476D01*
X14462143Y-7417952D01*
X14452619Y-7408428D01*
X14443095Y-7389381D01*
X14433571Y-7351286D01*
X14433571Y-7303667D01*
X14443095Y-7265571D01*
X14452619Y-7246524D01*
X14462143Y-7237000D01*
X14481190Y-7227476D01*
X14614524Y-7227476D02*
X14738333Y-7227476D01*
X14671667Y-7303667D01*
X14700238Y-7303667D01*
X14719286Y-7313190D01*
X14728809Y-7322714D01*
X14738333Y-7341762D01*
X14738333Y-7389381D01*
X14728809Y-7408428D01*
X14719286Y-7417952D01*
X14700238Y-7427476D01*
X14643095Y-7427476D01*
X14624048Y-7417952D01*
X14614524Y-7408428D01*
X14833571Y-7427476D02*
X14871667Y-7427476D01*
X14890714Y-7417952D01*
X14900238Y-7408428D01*
X14919286Y-7379857D01*
X14928809Y-7341762D01*
X14928809Y-7265571D01*
X14919286Y-7246524D01*
X14909762Y-7237000D01*
X14890714Y-7227476D01*
X14852619Y-7227476D01*
X14833571Y-7237000D01*
X14824048Y-7246524D01*
X14814524Y-7265571D01*
X14814524Y-7313190D01*
X14824048Y-7332238D01*
X14833571Y-7341762D01*
X14852619Y-7351286D01*
X14890714Y-7351286D01*
X14909762Y-7341762D01*
X14919286Y-7332238D01*
X14928809Y-7313190D01*
X15100238Y-7294143D02*
X15100238Y-7427476D01*
X15052619Y-7217952D02*
X15005000Y-7360809D01*
X15128809Y-7360809D01*
X15195476Y-7227476D02*
X15195476Y-7265571D01*
X15271667Y-7227476D02*
X15271667Y-7265571D01*
X15566905Y-7503667D02*
X15557381Y-7494143D01*
X15538333Y-7465571D01*
X15528809Y-7446524D01*
X15519286Y-7417952D01*
X15509762Y-7370333D01*
X15509762Y-7332238D01*
X15519286Y-7284619D01*
X15528809Y-7256048D01*
X15538333Y-7237000D01*
X15557381Y-7208428D01*
X15566905Y-7198905D01*
X15633571Y-7246524D02*
X15643095Y-7237000D01*
X15662143Y-7227476D01*
X15709762Y-7227476D01*
X15728809Y-7237000D01*
X15738333Y-7246524D01*
X15747857Y-7265571D01*
X15747857Y-7284619D01*
X15738333Y-7313190D01*
X15624048Y-7427476D01*
X15747857Y-7427476D01*
X15938333Y-7427476D02*
X15824048Y-7427476D01*
X15881190Y-7427476D02*
X15881190Y-7227476D01*
X15862143Y-7256048D01*
X15843095Y-7275095D01*
X15824048Y-7284619D01*
X16176428Y-7427476D02*
X16176428Y-7227476D01*
X16262143Y-7427476D02*
X16262143Y-7322714D01*
X16252619Y-7303667D01*
X16233571Y-7294143D01*
X16205000Y-7294143D01*
X16185952Y-7303667D01*
X16176428Y-7313190D01*
X16385952Y-7427476D02*
X16366905Y-7417952D01*
X16357381Y-7408428D01*
X16347857Y-7389381D01*
X16347857Y-7332238D01*
X16357381Y-7313190D01*
X16366905Y-7303667D01*
X16385952Y-7294143D01*
X16414524Y-7294143D01*
X16433571Y-7303667D01*
X16443095Y-7313190D01*
X16452619Y-7332238D01*
X16452619Y-7389381D01*
X16443095Y-7408428D01*
X16433571Y-7417952D01*
X16414524Y-7427476D01*
X16385952Y-7427476D01*
X16566905Y-7427476D02*
X16547857Y-7417952D01*
X16538333Y-7398905D01*
X16538333Y-7227476D01*
X16719286Y-7417952D02*
X16700238Y-7427476D01*
X16662143Y-7427476D01*
X16643095Y-7417952D01*
X16633571Y-7398905D01*
X16633571Y-7322714D01*
X16643095Y-7303667D01*
X16662143Y-7294143D01*
X16700238Y-7294143D01*
X16719286Y-7303667D01*
X16728809Y-7322714D01*
X16728809Y-7341762D01*
X16633571Y-7360809D01*
X16805000Y-7417952D02*
X16824048Y-7427476D01*
X16862143Y-7427476D01*
X16881190Y-7417952D01*
X16890714Y-7398905D01*
X16890714Y-7389381D01*
X16881190Y-7370333D01*
X16862143Y-7360809D01*
X16833571Y-7360809D01*
X16814524Y-7351286D01*
X16805000Y-7332238D01*
X16805000Y-7322714D01*
X16814524Y-7303667D01*
X16833571Y-7294143D01*
X16862143Y-7294143D01*
X16881190Y-7303667D01*
X16957381Y-7503667D02*
X16966905Y-7494143D01*
X16985952Y-7465571D01*
X16995476Y-7446524D01*
X17005000Y-7417952D01*
X17014524Y-7370333D01*
X17014524Y-7332238D01*
X17005000Y-7284619D01*
X16995476Y-7256048D01*
X16985952Y-7237000D01*
X16966905Y-7208428D01*
X16957381Y-7198905D01*
M02*
