%TF.GenerationSoftware,KiCad,Pcbnew,6.0.2+dfsg-1*%
%TF.CreationDate,2022-08-15T18:10:51-04:00*%
%TF.ProjectId,titan_wheel,74697461-6e5f-4776-9865-656c2e6b6963,1*%
%TF.SameCoordinates,Original*%
%TF.FileFunction,Copper,L2,Bot*%
%TF.FilePolarity,Positive*%
%FSLAX46Y46*%
G04 Gerber Fmt 4.6, Leading zero omitted, Abs format (unit mm)*
G04 Created by KiCad (PCBNEW 6.0.2+dfsg-1) date 2022-08-15 18:10:51*
%MOMM*%
%LPD*%
G01*
G04 APERTURE LIST*
%TA.AperFunction,ComponentPad*%
%ADD10C,2.000000*%
%TD*%
%TA.AperFunction,ComponentPad*%
%ADD11C,1.440000*%
%TD*%
%TA.AperFunction,ComponentPad*%
%ADD12R,1.700000X1.700000*%
%TD*%
%TA.AperFunction,ComponentPad*%
%ADD13O,1.700000X1.700000*%
%TD*%
%TA.AperFunction,ComponentPad*%
%ADD14C,1.500000*%
%TD*%
%TA.AperFunction,ComponentPad*%
%ADD15O,1.600000X1.200000*%
%TD*%
%TA.AperFunction,ComponentPad*%
%ADD16O,1.200000X1.200000*%
%TD*%
%TA.AperFunction,ViaPad*%
%ADD17C,0.800000*%
%TD*%
%TA.AperFunction,Conductor*%
%ADD18C,0.250000*%
%TD*%
G04 APERTURE END LIST*
D10*
X157770000Y-43000000D03*
X155230000Y-43000000D03*
D11*
X150275000Y-54675000D03*
X147735000Y-52135000D03*
X145195000Y-54675000D03*
D12*
X122425000Y-56500000D03*
D13*
X124965000Y-56500000D03*
X127505000Y-56500000D03*
X130045000Y-56500000D03*
X132585000Y-56500000D03*
D10*
X132000000Y-41730000D03*
X132000000Y-44270000D03*
D11*
X142525000Y-54675000D03*
X139985000Y-52135000D03*
X137445000Y-54675000D03*
D10*
X135980000Y-43000000D03*
X138520000Y-43000000D03*
X152020000Y-43000000D03*
X149480000Y-43000000D03*
D12*
X122425000Y-52500000D03*
D13*
X124965000Y-52500000D03*
X127505000Y-52500000D03*
X130045000Y-52500000D03*
D14*
X165770000Y-41750000D03*
X163230000Y-41750000D03*
X165770000Y-47250000D03*
X163230000Y-47250000D03*
D15*
X127540000Y-44000000D03*
D16*
X125000000Y-46540000D03*
X122460000Y-44000000D03*
X125000000Y-41460000D03*
D17*
X141525000Y-44385000D03*
X165750000Y-52325000D03*
X165825000Y-56250000D03*
X160250000Y-43825000D03*
X147225000Y-47500000D03*
X143250000Y-43000000D03*
X160250000Y-42175000D03*
X141000000Y-48750000D03*
D18*
X139905000Y-44385000D02*
X141525000Y-44385000D01*
X142525000Y-45385000D02*
X141525000Y-44385000D01*
X135980000Y-43000000D02*
X138520000Y-43000000D01*
X138520000Y-43000000D02*
X139905000Y-44385000D01*
X142525000Y-54675000D02*
X142525000Y-45385000D01*
X165825000Y-56250000D02*
X165825000Y-52400000D01*
X165825000Y-52400000D02*
X165750000Y-52325000D01*
X164304511Y-45784511D02*
X164304511Y-43907090D01*
X143250000Y-43000000D02*
X145250000Y-41000000D01*
X159075000Y-41000000D02*
X157000000Y-41000000D01*
X145250000Y-41000000D02*
X157000000Y-41000000D01*
X165770000Y-47250000D02*
X164304511Y-45784511D01*
X160899511Y-42824511D02*
X160250000Y-42175000D01*
X163221932Y-42824511D02*
X160899511Y-42824511D01*
X160250000Y-42175000D02*
X159075000Y-41000000D01*
X164304511Y-43907090D02*
X163221932Y-42824511D01*
X137445000Y-52305000D02*
X141000000Y-48750000D01*
X137445000Y-54675000D02*
X137445000Y-52305000D01*
%TA.AperFunction,Conductor*%
G36*
X167434121Y-39528002D02*
G01*
X167480614Y-39581658D01*
X167492000Y-39634000D01*
X167492000Y-42881766D01*
X167471998Y-42949887D01*
X167418342Y-42996380D01*
X167348068Y-43006484D01*
X167300635Y-42989485D01*
X167204578Y-42931196D01*
X167204574Y-42931194D01*
X167200581Y-42928771D01*
X166959545Y-42827697D01*
X166785572Y-42783513D01*
X166724470Y-42747358D01*
X166692616Y-42683909D01*
X166700121Y-42613310D01*
X166727492Y-42572295D01*
X166737749Y-42562038D01*
X166752737Y-42540634D01*
X166860899Y-42386162D01*
X166860900Y-42386160D01*
X166864056Y-42381653D01*
X166866379Y-42376671D01*
X166866382Y-42376666D01*
X166947751Y-42202167D01*
X166957120Y-42182076D01*
X167014115Y-41969371D01*
X167033307Y-41750000D01*
X167014115Y-41530629D01*
X166957120Y-41317924D01*
X166912868Y-41223026D01*
X166866382Y-41123334D01*
X166866379Y-41123329D01*
X166864056Y-41118347D01*
X166814526Y-41047611D01*
X166740908Y-40942473D01*
X166740906Y-40942470D01*
X166737749Y-40937962D01*
X166582038Y-40782251D01*
X166401654Y-40655944D01*
X166202076Y-40562880D01*
X165989371Y-40505885D01*
X165770000Y-40486693D01*
X165550629Y-40505885D01*
X165337924Y-40562880D01*
X165255099Y-40601502D01*
X165143334Y-40653618D01*
X165143329Y-40653621D01*
X165138347Y-40655944D01*
X165133840Y-40659100D01*
X165133838Y-40659101D01*
X164962473Y-40779092D01*
X164962470Y-40779094D01*
X164957962Y-40782251D01*
X164802251Y-40937962D01*
X164799094Y-40942470D01*
X164799092Y-40942473D01*
X164725474Y-41047611D01*
X164675944Y-41118347D01*
X164673621Y-41123329D01*
X164673618Y-41123334D01*
X164630728Y-41215313D01*
X164616187Y-41246498D01*
X164614195Y-41250769D01*
X164567278Y-41304054D01*
X164499001Y-41323515D01*
X164431041Y-41302973D01*
X164385805Y-41250769D01*
X164383814Y-41246498D01*
X164369272Y-41215313D01*
X164326382Y-41123334D01*
X164326379Y-41123329D01*
X164324056Y-41118347D01*
X164274526Y-41047611D01*
X164200908Y-40942473D01*
X164200906Y-40942470D01*
X164197749Y-40937962D01*
X164042038Y-40782251D01*
X163861654Y-40655944D01*
X163662076Y-40562880D01*
X163449371Y-40505885D01*
X163230000Y-40486693D01*
X163010629Y-40505885D01*
X162797924Y-40562880D01*
X162715099Y-40601502D01*
X162603334Y-40653618D01*
X162603329Y-40653621D01*
X162598347Y-40655944D01*
X162593840Y-40659100D01*
X162593838Y-40659101D01*
X162422473Y-40779092D01*
X162422470Y-40779094D01*
X162417962Y-40782251D01*
X162262251Y-40937962D01*
X162259094Y-40942470D01*
X162259092Y-40942473D01*
X162185474Y-41047611D01*
X162135944Y-41118347D01*
X162133621Y-41123329D01*
X162133618Y-41123334D01*
X162087132Y-41223026D01*
X162042880Y-41317924D01*
X161985885Y-41530629D01*
X161966693Y-41750000D01*
X161985885Y-41969371D01*
X161987308Y-41974681D01*
X161987310Y-41974691D01*
X162002773Y-42032399D01*
X162001084Y-42103375D01*
X161961291Y-42162171D01*
X161896027Y-42190120D01*
X161881067Y-42191011D01*
X161278638Y-42191011D01*
X161210517Y-42171009D01*
X161164024Y-42117353D01*
X161153328Y-42078181D01*
X161152842Y-42073552D01*
X161143542Y-41985072D01*
X161084527Y-41803444D01*
X161070435Y-41779035D01*
X160992341Y-41643774D01*
X160989040Y-41638056D01*
X160980331Y-41628383D01*
X160865675Y-41501045D01*
X160865674Y-41501044D01*
X160861253Y-41496134D01*
X160706752Y-41383882D01*
X160700724Y-41381198D01*
X160700722Y-41381197D01*
X160538319Y-41308891D01*
X160538318Y-41308891D01*
X160532288Y-41306206D01*
X160438888Y-41286353D01*
X160351944Y-41267872D01*
X160351939Y-41267872D01*
X160345487Y-41266500D01*
X160289595Y-41266500D01*
X160221474Y-41246498D01*
X160200499Y-41229595D01*
X159578647Y-40607742D01*
X159571113Y-40599463D01*
X159567000Y-40592982D01*
X159517348Y-40546356D01*
X159514507Y-40543602D01*
X159494770Y-40523865D01*
X159491573Y-40521385D01*
X159482551Y-40513680D01*
X159477605Y-40509035D01*
X159450321Y-40483414D01*
X159443375Y-40479595D01*
X159443372Y-40479593D01*
X159432566Y-40473652D01*
X159416047Y-40462801D01*
X159415583Y-40462441D01*
X159400041Y-40450386D01*
X159392772Y-40447241D01*
X159392768Y-40447238D01*
X159359463Y-40432826D01*
X159348813Y-40427609D01*
X159310060Y-40406305D01*
X159290437Y-40401267D01*
X159271734Y-40394863D01*
X159260420Y-40389967D01*
X159260419Y-40389967D01*
X159253145Y-40386819D01*
X159245322Y-40385580D01*
X159245312Y-40385577D01*
X159209476Y-40379901D01*
X159197856Y-40377495D01*
X159162711Y-40368472D01*
X159162710Y-40368472D01*
X159155030Y-40366500D01*
X159134776Y-40366500D01*
X159115065Y-40364949D01*
X159102886Y-40363020D01*
X159095057Y-40361780D01*
X159065786Y-40364547D01*
X159051039Y-40365941D01*
X159039181Y-40366500D01*
X145328767Y-40366500D01*
X145317584Y-40365973D01*
X145310091Y-40364298D01*
X145302165Y-40364547D01*
X145302164Y-40364547D01*
X145242014Y-40366438D01*
X145238055Y-40366500D01*
X145210144Y-40366500D01*
X145206210Y-40366997D01*
X145206209Y-40366997D01*
X145206144Y-40367005D01*
X145194307Y-40367938D01*
X145162490Y-40368938D01*
X145158029Y-40369078D01*
X145150110Y-40369327D01*
X145132454Y-40374456D01*
X145130658Y-40374978D01*
X145111306Y-40378986D01*
X145104350Y-40379865D01*
X145091203Y-40381526D01*
X145083834Y-40384443D01*
X145083832Y-40384444D01*
X145050097Y-40397800D01*
X145038869Y-40401645D01*
X144996407Y-40413982D01*
X144989584Y-40418017D01*
X144989582Y-40418018D01*
X144978972Y-40424293D01*
X144961224Y-40432988D01*
X144942383Y-40440448D01*
X144935967Y-40445110D01*
X144935966Y-40445110D01*
X144906613Y-40466436D01*
X144896693Y-40472952D01*
X144865465Y-40491420D01*
X144865462Y-40491422D01*
X144858638Y-40495458D01*
X144844317Y-40509779D01*
X144829284Y-40522619D01*
X144812893Y-40534528D01*
X144792348Y-40559363D01*
X144784702Y-40568605D01*
X144776712Y-40577384D01*
X143299500Y-42054595D01*
X143237188Y-42088621D01*
X143210405Y-42091500D01*
X143154513Y-42091500D01*
X143148061Y-42092872D01*
X143148056Y-42092872D01*
X143064730Y-42110584D01*
X142967712Y-42131206D01*
X142961682Y-42133891D01*
X142961681Y-42133891D01*
X142799278Y-42206197D01*
X142799276Y-42206198D01*
X142793248Y-42208882D01*
X142638747Y-42321134D01*
X142634326Y-42326044D01*
X142634325Y-42326045D01*
X142531160Y-42440622D01*
X142510960Y-42463056D01*
X142466170Y-42540634D01*
X142424211Y-42613310D01*
X142415473Y-42628444D01*
X142356458Y-42810072D01*
X142355768Y-42816633D01*
X142355768Y-42816635D01*
X142343610Y-42932314D01*
X142336496Y-43000000D01*
X142356458Y-43189928D01*
X142415473Y-43371556D01*
X142418776Y-43377278D01*
X142418777Y-43377279D01*
X142442406Y-43418206D01*
X142510960Y-43536944D01*
X142515378Y-43541851D01*
X142515379Y-43541852D01*
X142596552Y-43632004D01*
X142638747Y-43678866D01*
X142793248Y-43791118D01*
X142799276Y-43793802D01*
X142799278Y-43793803D01*
X142911691Y-43843852D01*
X142967712Y-43868794D01*
X143061112Y-43888647D01*
X143148056Y-43907128D01*
X143148061Y-43907128D01*
X143154513Y-43908500D01*
X143345487Y-43908500D01*
X143351939Y-43907128D01*
X143351944Y-43907128D01*
X143438888Y-43888647D01*
X143532288Y-43868794D01*
X143588309Y-43843852D01*
X143700722Y-43793803D01*
X143700724Y-43793802D01*
X143706752Y-43791118D01*
X143861253Y-43678866D01*
X143903448Y-43632004D01*
X143984621Y-43541852D01*
X143984622Y-43541851D01*
X143989040Y-43536944D01*
X144057594Y-43418206D01*
X144081223Y-43377279D01*
X144081224Y-43377278D01*
X144084527Y-43371556D01*
X144143542Y-43189928D01*
X144160907Y-43024706D01*
X144187920Y-42959050D01*
X144197122Y-42948782D01*
X145475500Y-41670405D01*
X145537812Y-41636379D01*
X145564595Y-41633500D01*
X148415686Y-41633500D01*
X148483807Y-41653502D01*
X148530300Y-41707158D01*
X148540404Y-41777432D01*
X148510910Y-41842012D01*
X148497516Y-41855311D01*
X148413792Y-41926818D01*
X148413787Y-41926823D01*
X148410031Y-41930031D01*
X148255824Y-42110584D01*
X148253245Y-42114792D01*
X148253241Y-42114798D01*
X148169852Y-42250877D01*
X148131760Y-42313037D01*
X148129867Y-42317607D01*
X148129865Y-42317611D01*
X148047490Y-42516483D01*
X148040895Y-42532406D01*
X148031655Y-42570894D01*
X147986976Y-42756997D01*
X147985465Y-42763289D01*
X147966835Y-43000000D01*
X147985465Y-43236711D01*
X147986619Y-43241518D01*
X147986620Y-43241524D01*
X148016329Y-43365271D01*
X148040895Y-43467594D01*
X148042788Y-43472165D01*
X148042789Y-43472167D01*
X148111258Y-43637466D01*
X148131760Y-43686963D01*
X148134346Y-43691183D01*
X148253241Y-43885202D01*
X148253245Y-43885208D01*
X148255824Y-43889416D01*
X148410031Y-44069969D01*
X148590584Y-44224176D01*
X148594792Y-44226755D01*
X148594798Y-44226759D01*
X148782352Y-44341692D01*
X148793037Y-44348240D01*
X148797607Y-44350133D01*
X148797611Y-44350135D01*
X148958945Y-44416961D01*
X149012406Y-44439105D01*
X149090601Y-44457878D01*
X149238476Y-44493380D01*
X149238482Y-44493381D01*
X149243289Y-44494535D01*
X149480000Y-44513165D01*
X149716711Y-44494535D01*
X149721518Y-44493381D01*
X149721524Y-44493380D01*
X149869399Y-44457878D01*
X149947594Y-44439105D01*
X150001055Y-44416961D01*
X150162389Y-44350135D01*
X150162393Y-44350133D01*
X150166963Y-44348240D01*
X150177648Y-44341692D01*
X150365202Y-44226759D01*
X150365208Y-44226755D01*
X150369416Y-44224176D01*
X150549969Y-44069969D01*
X150553177Y-44066213D01*
X150553182Y-44066208D01*
X150654189Y-43947944D01*
X150713639Y-43909134D01*
X150784634Y-43908628D01*
X150845811Y-43947944D01*
X150946818Y-44066208D01*
X150946823Y-44066213D01*
X150950031Y-44069969D01*
X151130584Y-44224176D01*
X151134792Y-44226755D01*
X151134798Y-44226759D01*
X151322352Y-44341692D01*
X151333037Y-44348240D01*
X151337607Y-44350133D01*
X151337611Y-44350135D01*
X151498945Y-44416961D01*
X151552406Y-44439105D01*
X151630601Y-44457878D01*
X151778476Y-44493380D01*
X151778482Y-44493381D01*
X151783289Y-44494535D01*
X152020000Y-44513165D01*
X152256711Y-44494535D01*
X152261518Y-44493381D01*
X152261524Y-44493380D01*
X152409399Y-44457878D01*
X152487594Y-44439105D01*
X152541055Y-44416961D01*
X152702389Y-44350135D01*
X152702393Y-44350133D01*
X152706963Y-44348240D01*
X152717648Y-44341692D01*
X152905202Y-44226759D01*
X152905208Y-44226755D01*
X152909416Y-44224176D01*
X153089969Y-44069969D01*
X153244176Y-43889416D01*
X153246755Y-43885208D01*
X153246759Y-43885202D01*
X153365654Y-43691183D01*
X153368240Y-43686963D01*
X153388743Y-43637466D01*
X153457211Y-43472167D01*
X153457212Y-43472165D01*
X153459105Y-43467594D01*
X153502481Y-43286920D01*
X153537833Y-43225351D01*
X153600860Y-43192668D01*
X153671551Y-43199249D01*
X153727462Y-43243003D01*
X153747519Y-43286920D01*
X153790895Y-43467594D01*
X153792788Y-43472165D01*
X153792789Y-43472167D01*
X153861258Y-43637466D01*
X153881760Y-43686963D01*
X153884346Y-43691183D01*
X154003241Y-43885202D01*
X154003245Y-43885208D01*
X154005824Y-43889416D01*
X154160031Y-44069969D01*
X154340584Y-44224176D01*
X154344792Y-44226755D01*
X154344798Y-44226759D01*
X154532352Y-44341692D01*
X154543037Y-44348240D01*
X154547607Y-44350133D01*
X154547611Y-44350135D01*
X154708945Y-44416961D01*
X154762406Y-44439105D01*
X154840601Y-44457878D01*
X154988476Y-44493380D01*
X154988482Y-44493381D01*
X154993289Y-44494535D01*
X155230000Y-44513165D01*
X155466711Y-44494535D01*
X155471518Y-44493381D01*
X155471524Y-44493380D01*
X155619399Y-44457878D01*
X155697594Y-44439105D01*
X155751055Y-44416961D01*
X155912389Y-44350135D01*
X155912393Y-44350133D01*
X155916963Y-44348240D01*
X155927648Y-44341692D01*
X156115202Y-44226759D01*
X156115208Y-44226755D01*
X156119416Y-44224176D01*
X156299969Y-44069969D01*
X156303177Y-44066213D01*
X156303182Y-44066208D01*
X156404189Y-43947944D01*
X156463639Y-43909134D01*
X156534634Y-43908628D01*
X156595811Y-43947944D01*
X156696818Y-44066208D01*
X156696823Y-44066213D01*
X156700031Y-44069969D01*
X156880584Y-44224176D01*
X156884792Y-44226755D01*
X156884798Y-44226759D01*
X157072352Y-44341692D01*
X157083037Y-44348240D01*
X157087607Y-44350133D01*
X157087611Y-44350135D01*
X157248945Y-44416961D01*
X157302406Y-44439105D01*
X157380601Y-44457878D01*
X157528476Y-44493380D01*
X157528482Y-44493381D01*
X157533289Y-44494535D01*
X157770000Y-44513165D01*
X158006711Y-44494535D01*
X158011518Y-44493381D01*
X158011524Y-44493380D01*
X158159399Y-44457878D01*
X158237594Y-44439105D01*
X158291055Y-44416961D01*
X158452389Y-44350135D01*
X158452393Y-44350133D01*
X158456963Y-44348240D01*
X158467648Y-44341692D01*
X158655202Y-44226759D01*
X158655208Y-44226755D01*
X158659416Y-44224176D01*
X158839969Y-44069969D01*
X158994176Y-43889416D01*
X158996755Y-43885208D01*
X158996759Y-43885202D01*
X159115654Y-43691183D01*
X159118240Y-43686963D01*
X159138743Y-43637466D01*
X159207211Y-43472167D01*
X159207212Y-43472165D01*
X159209105Y-43467594D01*
X159233671Y-43365271D01*
X159263380Y-43241524D01*
X159263381Y-43241518D01*
X159264535Y-43236711D01*
X159283165Y-43000000D01*
X159264652Y-42764777D01*
X159279248Y-42695298D01*
X159329090Y-42644739D01*
X159398355Y-42629152D01*
X159465051Y-42653487D01*
X159499383Y-42691892D01*
X159510960Y-42711944D01*
X159515378Y-42716851D01*
X159515379Y-42716852D01*
X159554241Y-42760013D01*
X159638747Y-42853866D01*
X159710473Y-42905978D01*
X159749810Y-42934558D01*
X159793248Y-42966118D01*
X159799276Y-42968802D01*
X159799278Y-42968803D01*
X159926881Y-43025615D01*
X159967712Y-43043794D01*
X160044877Y-43060196D01*
X160148056Y-43082128D01*
X160148061Y-43082128D01*
X160154513Y-43083500D01*
X160210406Y-43083500D01*
X160278527Y-43103502D01*
X160299501Y-43120405D01*
X160395854Y-43216758D01*
X160403398Y-43225048D01*
X160407511Y-43231529D01*
X160413288Y-43236954D01*
X160457178Y-43278169D01*
X160460020Y-43280924D01*
X160479741Y-43300645D01*
X160482936Y-43303123D01*
X160491958Y-43310829D01*
X160524190Y-43341097D01*
X160531139Y-43344917D01*
X160541943Y-43350857D01*
X160558467Y-43361710D01*
X160574470Y-43374124D01*
X160615054Y-43391687D01*
X160625684Y-43396894D01*
X160664451Y-43418206D01*
X160672128Y-43420177D01*
X160672133Y-43420179D01*
X160684069Y-43423243D01*
X160702777Y-43429648D01*
X160721366Y-43437692D01*
X160729194Y-43438932D01*
X160729201Y-43438934D01*
X160765035Y-43444610D01*
X160776655Y-43447016D01*
X160811800Y-43456039D01*
X160819481Y-43458011D01*
X160839735Y-43458011D01*
X160859445Y-43459562D01*
X160879454Y-43462731D01*
X160887346Y-43461985D01*
X160923472Y-43458570D01*
X160935330Y-43458011D01*
X160950434Y-43458011D01*
X161018555Y-43478013D01*
X161065048Y-43531669D01*
X161075152Y-43601943D01*
X161063440Y-43639739D01*
X160977190Y-43814638D01*
X160964975Y-43839407D01*
X160885293Y-44088335D01*
X160843279Y-44346307D01*
X160843218Y-44350980D01*
X160840618Y-44549632D01*
X160839858Y-44607655D01*
X160875104Y-44866638D01*
X160876412Y-44871124D01*
X160876412Y-44871126D01*
X160893502Y-44929758D01*
X160948243Y-45117567D01*
X161057668Y-45354928D01*
X161060231Y-45358837D01*
X161198410Y-45569596D01*
X161198414Y-45569601D01*
X161200976Y-45573509D01*
X161375018Y-45768506D01*
X161575970Y-45935637D01*
X161605740Y-45953702D01*
X161795422Y-46068804D01*
X161795426Y-46068806D01*
X161799419Y-46071229D01*
X162040455Y-46172303D01*
X162044983Y-46173453D01*
X162214428Y-46216487D01*
X162275530Y-46252642D01*
X162307384Y-46316091D01*
X162299879Y-46386690D01*
X162272508Y-46427705D01*
X162262251Y-46437962D01*
X162259094Y-46442470D01*
X162259092Y-46442473D01*
X162152603Y-46594555D01*
X162135944Y-46618347D01*
X162133621Y-46623329D01*
X162133618Y-46623334D01*
X162093960Y-46708383D01*
X162042880Y-46817924D01*
X161985885Y-47030629D01*
X161966693Y-47250000D01*
X161985885Y-47469371D01*
X162042880Y-47682076D01*
X162045205Y-47687061D01*
X162133618Y-47876666D01*
X162133621Y-47876671D01*
X162135944Y-47881653D01*
X162139100Y-47886160D01*
X162139101Y-47886162D01*
X162179060Y-47943229D01*
X162201748Y-48010503D01*
X162184463Y-48079364D01*
X162132693Y-48127948D01*
X162075847Y-48141500D01*
X162000231Y-48141500D01*
X161997175Y-48141800D01*
X161997168Y-48141800D01*
X161938660Y-48147537D01*
X161853167Y-48155920D01*
X161847266Y-48157702D01*
X161847264Y-48157702D01*
X161810662Y-48168753D01*
X161663831Y-48213084D01*
X161489204Y-48305934D01*
X161407315Y-48372721D01*
X161340713Y-48427040D01*
X161340710Y-48427043D01*
X161335938Y-48430935D01*
X161332011Y-48435682D01*
X161332009Y-48435684D01*
X161213799Y-48578575D01*
X161213797Y-48578579D01*
X161209870Y-48583325D01*
X161115802Y-48757299D01*
X161057318Y-48946232D01*
X161036645Y-49142925D01*
X161054570Y-49339888D01*
X161110410Y-49529619D01*
X161113263Y-49535077D01*
X161113265Y-49535081D01*
X161155626Y-49616109D01*
X161202040Y-49704890D01*
X161325968Y-49859025D01*
X161330692Y-49862989D01*
X161337933Y-49869065D01*
X161477474Y-49986154D01*
X161482872Y-49989121D01*
X161482877Y-49989125D01*
X161626180Y-50067905D01*
X161650787Y-50081433D01*
X161656654Y-50083294D01*
X161656656Y-50083295D01*
X161833436Y-50139373D01*
X161839306Y-50141235D01*
X161993227Y-50158500D01*
X162099769Y-50158500D01*
X162102825Y-50158200D01*
X162102832Y-50158200D01*
X162161340Y-50152463D01*
X162246833Y-50144080D01*
X162252734Y-50142298D01*
X162252736Y-50142298D01*
X162326053Y-50120162D01*
X162436169Y-50086916D01*
X162610796Y-49994066D01*
X162697062Y-49923709D01*
X162759287Y-49872960D01*
X162759290Y-49872957D01*
X162764062Y-49869065D01*
X162776344Y-49854219D01*
X162886201Y-49721425D01*
X162886203Y-49721421D01*
X162890130Y-49716675D01*
X162984198Y-49542701D01*
X163042682Y-49353768D01*
X163045778Y-49324311D01*
X163062711Y-49163204D01*
X163062711Y-49163202D01*
X163063355Y-49157075D01*
X163045430Y-48960112D01*
X163041340Y-48946213D01*
X162991330Y-48776294D01*
X162989590Y-48770381D01*
X162986735Y-48764920D01*
X162986733Y-48764915D01*
X162943856Y-48682899D01*
X162930022Y-48613264D01*
X162956032Y-48547203D01*
X163013628Y-48505691D01*
X163066499Y-48499003D01*
X163224525Y-48512828D01*
X163230000Y-48513307D01*
X163449371Y-48494115D01*
X163662076Y-48437120D01*
X163861654Y-48344056D01*
X164042038Y-48217749D01*
X164197749Y-48062038D01*
X164212814Y-48040524D01*
X164320899Y-47886162D01*
X164320900Y-47886160D01*
X164324056Y-47881653D01*
X164326379Y-47876671D01*
X164326382Y-47876666D01*
X164385805Y-47749231D01*
X164432722Y-47695946D01*
X164500999Y-47676485D01*
X164568959Y-47697027D01*
X164614195Y-47749231D01*
X164673618Y-47876666D01*
X164673621Y-47876671D01*
X164675944Y-47881653D01*
X164679100Y-47886160D01*
X164679101Y-47886162D01*
X164787187Y-48040524D01*
X164802251Y-48062038D01*
X164957962Y-48217749D01*
X165138346Y-48344056D01*
X165337924Y-48437120D01*
X165550629Y-48494115D01*
X165770000Y-48513307D01*
X165989371Y-48494115D01*
X166202076Y-48437120D01*
X166401654Y-48344056D01*
X166582038Y-48217749D01*
X166737749Y-48062038D01*
X166752814Y-48040524D01*
X166860899Y-47886162D01*
X166860900Y-47886160D01*
X166864056Y-47881653D01*
X166866379Y-47876671D01*
X166866382Y-47876666D01*
X166954795Y-47687061D01*
X166957120Y-47682076D01*
X167014115Y-47469371D01*
X167033307Y-47250000D01*
X167014115Y-47030629D01*
X166957120Y-46817924D01*
X166906040Y-46708383D01*
X166866382Y-46623334D01*
X166866379Y-46623329D01*
X166864056Y-46618347D01*
X166847397Y-46594555D01*
X166740908Y-46442473D01*
X166740906Y-46442470D01*
X166737749Y-46437962D01*
X166726963Y-46427176D01*
X166692937Y-46364864D01*
X166698002Y-46294049D01*
X166740549Y-46237213D01*
X166788249Y-46215189D01*
X166915577Y-46186377D01*
X166919931Y-46184684D01*
X167154824Y-46093340D01*
X167154827Y-46093339D01*
X167159177Y-46091647D01*
X167191736Y-46073038D01*
X167303477Y-46009173D01*
X167372545Y-45992736D01*
X167439534Y-46016249D01*
X167483178Y-46072248D01*
X167492000Y-46118566D01*
X167492000Y-58366000D01*
X167471998Y-58434121D01*
X167418342Y-58480614D01*
X167366000Y-58492000D01*
X120634000Y-58492000D01*
X120565879Y-58471998D01*
X120519386Y-58418342D01*
X120508000Y-58366000D01*
X120508000Y-57398134D01*
X121066500Y-57398134D01*
X121073255Y-57460316D01*
X121124385Y-57596705D01*
X121211739Y-57713261D01*
X121328295Y-57800615D01*
X121464684Y-57851745D01*
X121526866Y-57858500D01*
X123323134Y-57858500D01*
X123385316Y-57851745D01*
X123521705Y-57800615D01*
X123638261Y-57713261D01*
X123725615Y-57596705D01*
X123747799Y-57537529D01*
X123769598Y-57479382D01*
X123812240Y-57422618D01*
X123878802Y-57397918D01*
X123948150Y-57413126D01*
X123982817Y-57441114D01*
X124011250Y-57473938D01*
X124183126Y-57616632D01*
X124376000Y-57729338D01*
X124584692Y-57809030D01*
X124589760Y-57810061D01*
X124589763Y-57810062D01*
X124697017Y-57831883D01*
X124803597Y-57853567D01*
X124808772Y-57853757D01*
X124808774Y-57853757D01*
X125021673Y-57861564D01*
X125021677Y-57861564D01*
X125026837Y-57861753D01*
X125031957Y-57861097D01*
X125031959Y-57861097D01*
X125243288Y-57834025D01*
X125243289Y-57834025D01*
X125248416Y-57833368D01*
X125253366Y-57831883D01*
X125457429Y-57770661D01*
X125457434Y-57770659D01*
X125462384Y-57769174D01*
X125662994Y-57670896D01*
X125844860Y-57541173D01*
X126003096Y-57383489D01*
X126133453Y-57202077D01*
X126134776Y-57203028D01*
X126181645Y-57159857D01*
X126251580Y-57147625D01*
X126317026Y-57175144D01*
X126344875Y-57206994D01*
X126404987Y-57305088D01*
X126551250Y-57473938D01*
X126723126Y-57616632D01*
X126916000Y-57729338D01*
X127124692Y-57809030D01*
X127129760Y-57810061D01*
X127129763Y-57810062D01*
X127237017Y-57831883D01*
X127343597Y-57853567D01*
X127348772Y-57853757D01*
X127348774Y-57853757D01*
X127561673Y-57861564D01*
X127561677Y-57861564D01*
X127566837Y-57861753D01*
X127571957Y-57861097D01*
X127571959Y-57861097D01*
X127783288Y-57834025D01*
X127783289Y-57834025D01*
X127788416Y-57833368D01*
X127793366Y-57831883D01*
X127997429Y-57770661D01*
X127997434Y-57770659D01*
X128002384Y-57769174D01*
X128202994Y-57670896D01*
X128384860Y-57541173D01*
X128543096Y-57383489D01*
X128673453Y-57202077D01*
X128674776Y-57203028D01*
X128721645Y-57159857D01*
X128791580Y-57147625D01*
X128857026Y-57175144D01*
X128884875Y-57206994D01*
X128944987Y-57305088D01*
X129091250Y-57473938D01*
X129263126Y-57616632D01*
X129456000Y-57729338D01*
X129664692Y-57809030D01*
X129669760Y-57810061D01*
X129669763Y-57810062D01*
X129777017Y-57831883D01*
X129883597Y-57853567D01*
X129888772Y-57853757D01*
X129888774Y-57853757D01*
X130101673Y-57861564D01*
X130101677Y-57861564D01*
X130106837Y-57861753D01*
X130111957Y-57861097D01*
X130111959Y-57861097D01*
X130323288Y-57834025D01*
X130323289Y-57834025D01*
X130328416Y-57833368D01*
X130333366Y-57831883D01*
X130537429Y-57770661D01*
X130537434Y-57770659D01*
X130542384Y-57769174D01*
X130742994Y-57670896D01*
X130924860Y-57541173D01*
X131083096Y-57383489D01*
X131213453Y-57202077D01*
X131234320Y-57159857D01*
X131310136Y-57006453D01*
X131310137Y-57006451D01*
X131312430Y-57001811D01*
X131377370Y-56788069D01*
X131406529Y-56566590D01*
X131408156Y-56500000D01*
X131389852Y-56277361D01*
X131335431Y-56060702D01*
X131246354Y-55855840D01*
X131125014Y-55668277D01*
X130974670Y-55503051D01*
X130970619Y-55499852D01*
X130970615Y-55499848D01*
X130803414Y-55367800D01*
X130803410Y-55367798D01*
X130799359Y-55364598D01*
X130603789Y-55256638D01*
X130598920Y-55254914D01*
X130598916Y-55254912D01*
X130398087Y-55183795D01*
X130398083Y-55183794D01*
X130393212Y-55182069D01*
X130388119Y-55181162D01*
X130388116Y-55181161D01*
X130178373Y-55143800D01*
X130178367Y-55143799D01*
X130173284Y-55142894D01*
X130099452Y-55141992D01*
X129955081Y-55140228D01*
X129955079Y-55140228D01*
X129949911Y-55140165D01*
X129729091Y-55173955D01*
X129516756Y-55243357D01*
X129318607Y-55346507D01*
X129314474Y-55349610D01*
X129314471Y-55349612D01*
X129157218Y-55467681D01*
X129139965Y-55480635D01*
X129136393Y-55484373D01*
X129004071Y-55622840D01*
X128985629Y-55642138D01*
X128878201Y-55799621D01*
X128823293Y-55844621D01*
X128752768Y-55852792D01*
X128689021Y-55821538D01*
X128668324Y-55797054D01*
X128587822Y-55672617D01*
X128587820Y-55672614D01*
X128585014Y-55668277D01*
X128434670Y-55503051D01*
X128430619Y-55499852D01*
X128430615Y-55499848D01*
X128263414Y-55367800D01*
X128263410Y-55367798D01*
X128259359Y-55364598D01*
X128063789Y-55256638D01*
X128058920Y-55254914D01*
X128058916Y-55254912D01*
X127858087Y-55183795D01*
X127858083Y-55183794D01*
X127853212Y-55182069D01*
X127848119Y-55181162D01*
X127848116Y-55181161D01*
X127638373Y-55143800D01*
X127638367Y-55143799D01*
X127633284Y-55142894D01*
X127559452Y-55141992D01*
X127415081Y-55140228D01*
X127415079Y-55140228D01*
X127409911Y-55140165D01*
X127189091Y-55173955D01*
X126976756Y-55243357D01*
X126778607Y-55346507D01*
X126774474Y-55349610D01*
X126774471Y-55349612D01*
X126617218Y-55467681D01*
X126599965Y-55480635D01*
X126596393Y-55484373D01*
X126464071Y-55622840D01*
X126445629Y-55642138D01*
X126338201Y-55799621D01*
X126283293Y-55844621D01*
X126212768Y-55852792D01*
X126149021Y-55821538D01*
X126128324Y-55797054D01*
X126047822Y-55672617D01*
X126047820Y-55672614D01*
X126045014Y-55668277D01*
X125894670Y-55503051D01*
X125890619Y-55499852D01*
X125890615Y-55499848D01*
X125723414Y-55367800D01*
X125723410Y-55367798D01*
X125719359Y-55364598D01*
X125523789Y-55256638D01*
X125518920Y-55254914D01*
X125518916Y-55254912D01*
X125318087Y-55183795D01*
X125318083Y-55183794D01*
X125313212Y-55182069D01*
X125308119Y-55181162D01*
X125308116Y-55181161D01*
X125098373Y-55143800D01*
X125098367Y-55143799D01*
X125093284Y-55142894D01*
X125019452Y-55141992D01*
X124875081Y-55140228D01*
X124875079Y-55140228D01*
X124869911Y-55140165D01*
X124649091Y-55173955D01*
X124436756Y-55243357D01*
X124238607Y-55346507D01*
X124234474Y-55349610D01*
X124234471Y-55349612D01*
X124077218Y-55467681D01*
X124059965Y-55480635D01*
X124003537Y-55539684D01*
X123979283Y-55565064D01*
X123917759Y-55600494D01*
X123846846Y-55597037D01*
X123789060Y-55555791D01*
X123770207Y-55522243D01*
X123728767Y-55411703D01*
X123725615Y-55403295D01*
X123638261Y-55286739D01*
X123521705Y-55199385D01*
X123385316Y-55148255D01*
X123323134Y-55141500D01*
X121526866Y-55141500D01*
X121464684Y-55148255D01*
X121328295Y-55199385D01*
X121211739Y-55286739D01*
X121124385Y-55403295D01*
X121073255Y-55539684D01*
X121066500Y-55601866D01*
X121066500Y-57398134D01*
X120508000Y-57398134D01*
X120508000Y-53398134D01*
X121066500Y-53398134D01*
X121073255Y-53460316D01*
X121124385Y-53596705D01*
X121211739Y-53713261D01*
X121328295Y-53800615D01*
X121464684Y-53851745D01*
X121526866Y-53858500D01*
X123323134Y-53858500D01*
X123385316Y-53851745D01*
X123521705Y-53800615D01*
X123638261Y-53713261D01*
X123725615Y-53596705D01*
X123730346Y-53584086D01*
X123769598Y-53479382D01*
X123812240Y-53422618D01*
X123878802Y-53397918D01*
X123948150Y-53413126D01*
X123982817Y-53441114D01*
X124011250Y-53473938D01*
X124183126Y-53616632D01*
X124376000Y-53729338D01*
X124584692Y-53809030D01*
X124589760Y-53810061D01*
X124589763Y-53810062D01*
X124697017Y-53831883D01*
X124803597Y-53853567D01*
X124808772Y-53853757D01*
X124808774Y-53853757D01*
X125021673Y-53861564D01*
X125021677Y-53861564D01*
X125026837Y-53861753D01*
X125031957Y-53861097D01*
X125031959Y-53861097D01*
X125243288Y-53834025D01*
X125243289Y-53834025D01*
X125248416Y-53833368D01*
X125253366Y-53831883D01*
X125457429Y-53770661D01*
X125457434Y-53770659D01*
X125462384Y-53769174D01*
X125662994Y-53670896D01*
X125844860Y-53541173D01*
X125867612Y-53518501D01*
X125988616Y-53397918D01*
X126003096Y-53383489D01*
X126014432Y-53367714D01*
X126133453Y-53202077D01*
X126134776Y-53203028D01*
X126181645Y-53159857D01*
X126251580Y-53147625D01*
X126317026Y-53175144D01*
X126344875Y-53206994D01*
X126404987Y-53305088D01*
X126551250Y-53473938D01*
X126723126Y-53616632D01*
X126916000Y-53729338D01*
X127124692Y-53809030D01*
X127129760Y-53810061D01*
X127129763Y-53810062D01*
X127237017Y-53831883D01*
X127343597Y-53853567D01*
X127348772Y-53853757D01*
X127348774Y-53853757D01*
X127561673Y-53861564D01*
X127561677Y-53861564D01*
X127566837Y-53861753D01*
X127571957Y-53861097D01*
X127571959Y-53861097D01*
X127783288Y-53834025D01*
X127783289Y-53834025D01*
X127788416Y-53833368D01*
X127793366Y-53831883D01*
X127997429Y-53770661D01*
X127997434Y-53770659D01*
X128002384Y-53769174D01*
X128202994Y-53670896D01*
X128384860Y-53541173D01*
X128407612Y-53518501D01*
X128528616Y-53397918D01*
X128543096Y-53383489D01*
X128554432Y-53367714D01*
X128670435Y-53206277D01*
X128673453Y-53202077D01*
X128694320Y-53159857D01*
X128770136Y-53006453D01*
X128770137Y-53006451D01*
X128772430Y-53001811D01*
X128837370Y-52788069D01*
X128866529Y-52566590D01*
X128866769Y-52556777D01*
X128868074Y-52503365D01*
X128868074Y-52503361D01*
X128868156Y-52500000D01*
X128849852Y-52277361D01*
X128795431Y-52060702D01*
X128706354Y-51855840D01*
X128585014Y-51668277D01*
X128434670Y-51503051D01*
X128430619Y-51499852D01*
X128430615Y-51499848D01*
X128263414Y-51367800D01*
X128263410Y-51367798D01*
X128259359Y-51364598D01*
X128219001Y-51342319D01*
X128207136Y-51335769D01*
X128063789Y-51256638D01*
X128058920Y-51254914D01*
X128058916Y-51254912D01*
X127858087Y-51183795D01*
X127858083Y-51183794D01*
X127853212Y-51182069D01*
X127848119Y-51181162D01*
X127848116Y-51181161D01*
X127638373Y-51143800D01*
X127638367Y-51143799D01*
X127633284Y-51142894D01*
X127559452Y-51141992D01*
X127415081Y-51140228D01*
X127415079Y-51140228D01*
X127409911Y-51140165D01*
X127189091Y-51173955D01*
X126976756Y-51243357D01*
X126778607Y-51346507D01*
X126774474Y-51349610D01*
X126774471Y-51349612D01*
X126604100Y-51477530D01*
X126599965Y-51480635D01*
X126596393Y-51484373D01*
X126488729Y-51597037D01*
X126445629Y-51642138D01*
X126338201Y-51799621D01*
X126283293Y-51844621D01*
X126212768Y-51852792D01*
X126149021Y-51821538D01*
X126128324Y-51797054D01*
X126047822Y-51672617D01*
X126047820Y-51672614D01*
X126045014Y-51668277D01*
X125894670Y-51503051D01*
X125890619Y-51499852D01*
X125890615Y-51499848D01*
X125723414Y-51367800D01*
X125723410Y-51367798D01*
X125719359Y-51364598D01*
X125679001Y-51342319D01*
X125667136Y-51335769D01*
X125523789Y-51256638D01*
X125518920Y-51254914D01*
X125518916Y-51254912D01*
X125318087Y-51183795D01*
X125318083Y-51183794D01*
X125313212Y-51182069D01*
X125308119Y-51181162D01*
X125308116Y-51181161D01*
X125098373Y-51143800D01*
X125098367Y-51143799D01*
X125093284Y-51142894D01*
X125019452Y-51141992D01*
X124875081Y-51140228D01*
X124875079Y-51140228D01*
X124869911Y-51140165D01*
X124649091Y-51173955D01*
X124436756Y-51243357D01*
X124238607Y-51346507D01*
X124234474Y-51349610D01*
X124234471Y-51349612D01*
X124064100Y-51477530D01*
X124059965Y-51480635D01*
X124003537Y-51539684D01*
X123979283Y-51565064D01*
X123917759Y-51600494D01*
X123846846Y-51597037D01*
X123789060Y-51555791D01*
X123770207Y-51522243D01*
X123728767Y-51411703D01*
X123725615Y-51403295D01*
X123638261Y-51286739D01*
X123521705Y-51199385D01*
X123385316Y-51148255D01*
X123323134Y-51141500D01*
X121526866Y-51141500D01*
X121464684Y-51148255D01*
X121328295Y-51199385D01*
X121211739Y-51286739D01*
X121124385Y-51403295D01*
X121073255Y-51539684D01*
X121066500Y-51601866D01*
X121066500Y-53398134D01*
X120508000Y-53398134D01*
X120508000Y-49132703D01*
X131390743Y-49132703D01*
X131391302Y-49136947D01*
X131391302Y-49136951D01*
X131407810Y-49262340D01*
X131428268Y-49417734D01*
X131429401Y-49421874D01*
X131429401Y-49421876D01*
X131432376Y-49432749D01*
X131504129Y-49695036D01*
X131505813Y-49698984D01*
X131580021Y-49872960D01*
X131616923Y-49959476D01*
X131634668Y-49989125D01*
X131725704Y-50141235D01*
X131764561Y-50206161D01*
X131944313Y-50430528D01*
X132152851Y-50628423D01*
X132386317Y-50796186D01*
X132390112Y-50798195D01*
X132390113Y-50798196D01*
X132411869Y-50809715D01*
X132640392Y-50930712D01*
X132910373Y-51029511D01*
X133191264Y-51090755D01*
X133219841Y-51093004D01*
X133414282Y-51108307D01*
X133414291Y-51108307D01*
X133416739Y-51108500D01*
X133572271Y-51108500D01*
X133574407Y-51108354D01*
X133574418Y-51108354D01*
X133782548Y-51094165D01*
X133782554Y-51094164D01*
X133786825Y-51093873D01*
X133791020Y-51093004D01*
X133791022Y-51093004D01*
X133927692Y-51064701D01*
X134068342Y-51035574D01*
X134339343Y-50939607D01*
X134594812Y-50807750D01*
X134598313Y-50805289D01*
X134598317Y-50805287D01*
X134760418Y-50691360D01*
X134830023Y-50642441D01*
X135040622Y-50446740D01*
X135222713Y-50224268D01*
X135372927Y-49979142D01*
X135488483Y-49715898D01*
X135493174Y-49699432D01*
X135537820Y-49542701D01*
X135567244Y-49439406D01*
X135607751Y-49154784D01*
X135607814Y-49142925D01*
X135609235Y-48871583D01*
X135609235Y-48871576D01*
X135609257Y-48867297D01*
X135600558Y-48801217D01*
X135590562Y-48725292D01*
X135571732Y-48582266D01*
X135565661Y-48560072D01*
X135529267Y-48427040D01*
X135495871Y-48304964D01*
X135454575Y-48208148D01*
X135384763Y-48044476D01*
X135384761Y-48044472D01*
X135383077Y-48040524D01*
X135235439Y-47793839D01*
X135055687Y-47569472D01*
X134932289Y-47452372D01*
X134850258Y-47374527D01*
X134850255Y-47374525D01*
X134847149Y-47371577D01*
X134613683Y-47203814D01*
X134591843Y-47192250D01*
X134541328Y-47165504D01*
X134359608Y-47069288D01*
X134089627Y-46970489D01*
X133808736Y-46909245D01*
X133777685Y-46906801D01*
X133585718Y-46891693D01*
X133585709Y-46891693D01*
X133583261Y-46891500D01*
X133427729Y-46891500D01*
X133425593Y-46891646D01*
X133425582Y-46891646D01*
X133217452Y-46905835D01*
X133217446Y-46905836D01*
X133213175Y-46906127D01*
X133208980Y-46906996D01*
X133208978Y-46906996D01*
X133072417Y-46935276D01*
X132931658Y-46964426D01*
X132660657Y-47060393D01*
X132656848Y-47062359D01*
X132457008Y-47165504D01*
X132405188Y-47192250D01*
X132401687Y-47194711D01*
X132401683Y-47194713D01*
X132391594Y-47201804D01*
X132169977Y-47357559D01*
X132154892Y-47371577D01*
X131994501Y-47520622D01*
X131959378Y-47553260D01*
X131777287Y-47775732D01*
X131627073Y-48020858D01*
X131625347Y-48024791D01*
X131625346Y-48024792D01*
X131542704Y-48213056D01*
X131511517Y-48284102D01*
X131432756Y-48560594D01*
X131392249Y-48845216D01*
X131392227Y-48849505D01*
X131392226Y-48849512D01*
X131390801Y-49121556D01*
X131390743Y-49132703D01*
X120508000Y-49132703D01*
X120508000Y-46510859D01*
X123887132Y-46510859D01*
X123900457Y-46714151D01*
X123950605Y-46911610D01*
X124035898Y-47096624D01*
X124153479Y-47262997D01*
X124299410Y-47405157D01*
X124304206Y-47408362D01*
X124304209Y-47408364D01*
X124372149Y-47453760D01*
X124468803Y-47518342D01*
X124474106Y-47520620D01*
X124474109Y-47520622D01*
X124595589Y-47572814D01*
X124655987Y-47598763D01*
X124728817Y-47615243D01*
X124849055Y-47642450D01*
X124849060Y-47642451D01*
X124854692Y-47643725D01*
X124860463Y-47643952D01*
X124860465Y-47643952D01*
X124923470Y-47646427D01*
X125058263Y-47651723D01*
X125259883Y-47622490D01*
X125265347Y-47620635D01*
X125265352Y-47620634D01*
X125447327Y-47558862D01*
X125447332Y-47558860D01*
X125452799Y-47557004D01*
X125459485Y-47553260D01*
X125599797Y-47474681D01*
X125630551Y-47457458D01*
X125787186Y-47327186D01*
X125917458Y-47170551D01*
X126017004Y-46992799D01*
X126018860Y-46987332D01*
X126018862Y-46987327D01*
X126080634Y-46805352D01*
X126080635Y-46805347D01*
X126082490Y-46799883D01*
X126111723Y-46598263D01*
X126113249Y-46540000D01*
X126094608Y-46337126D01*
X126093040Y-46331566D01*
X126040875Y-46146606D01*
X126040874Y-46146604D01*
X126039307Y-46141047D01*
X126028680Y-46119496D01*
X125951756Y-45963510D01*
X125949201Y-45958329D01*
X125930796Y-45933681D01*
X125830758Y-45799715D01*
X125830758Y-45799714D01*
X125827305Y-45795091D01*
X125723997Y-45699594D01*
X125681943Y-45660719D01*
X125681940Y-45660717D01*
X125677703Y-45656800D01*
X125551229Y-45577001D01*
X125510288Y-45551169D01*
X125510283Y-45551167D01*
X125505404Y-45548088D01*
X125316180Y-45472595D01*
X125116366Y-45432849D01*
X125110592Y-45432773D01*
X125110588Y-45432773D01*
X125007452Y-45431424D01*
X124912655Y-45430183D01*
X124906958Y-45431162D01*
X124906957Y-45431162D01*
X124717567Y-45463705D01*
X124711870Y-45464684D01*
X124520734Y-45535198D01*
X124345649Y-45639363D01*
X124192478Y-45773690D01*
X124188911Y-45778215D01*
X124188906Y-45778220D01*
X124159972Y-45814923D01*
X124066351Y-45933681D01*
X124063662Y-45938792D01*
X124063660Y-45938795D01*
X124026633Y-46009173D01*
X123971492Y-46113978D01*
X123939662Y-46216487D01*
X123915579Y-46294049D01*
X123911078Y-46308543D01*
X123887132Y-46510859D01*
X120508000Y-46510859D01*
X120508000Y-43945604D01*
X126227787Y-43945604D01*
X126237567Y-44156899D01*
X126287125Y-44362534D01*
X126289607Y-44367992D01*
X126289608Y-44367996D01*
X126333053Y-44463546D01*
X126374674Y-44555087D01*
X126497054Y-44727611D01*
X126649850Y-44873881D01*
X126827548Y-44988620D01*
X126868438Y-45005099D01*
X127018168Y-45065442D01*
X127018171Y-45065443D01*
X127023737Y-45067686D01*
X127231337Y-45108228D01*
X127236899Y-45108500D01*
X127792846Y-45108500D01*
X127950566Y-45093452D01*
X128153534Y-45033908D01*
X128174286Y-45023220D01*
X128336249Y-44939804D01*
X128336252Y-44939802D01*
X128341580Y-44937058D01*
X128507920Y-44806396D01*
X128511852Y-44801865D01*
X128511855Y-44801862D01*
X128642621Y-44651167D01*
X128646552Y-44646637D01*
X128649552Y-44641451D01*
X128649555Y-44641447D01*
X128749467Y-44468742D01*
X128752473Y-44463546D01*
X128819683Y-44270000D01*
X130486835Y-44270000D01*
X130505465Y-44506711D01*
X130506619Y-44511518D01*
X130506620Y-44511524D01*
X130529699Y-44607655D01*
X130560895Y-44737594D01*
X130562788Y-44742165D01*
X130562789Y-44742167D01*
X130644653Y-44939804D01*
X130651760Y-44956963D01*
X130654346Y-44961183D01*
X130773241Y-45155202D01*
X130773245Y-45155208D01*
X130775824Y-45159416D01*
X130930031Y-45339969D01*
X131110584Y-45494176D01*
X131114792Y-45496755D01*
X131114798Y-45496759D01*
X131240043Y-45573509D01*
X131313037Y-45618240D01*
X131317607Y-45620133D01*
X131317611Y-45620135D01*
X131509444Y-45699594D01*
X131532406Y-45709105D01*
X131612609Y-45728360D01*
X131758476Y-45763380D01*
X131758482Y-45763381D01*
X131763289Y-45764535D01*
X132000000Y-45783165D01*
X132236711Y-45764535D01*
X132241518Y-45763381D01*
X132241524Y-45763380D01*
X132387391Y-45728360D01*
X132467594Y-45709105D01*
X132490556Y-45699594D01*
X132682389Y-45620135D01*
X132682393Y-45620133D01*
X132686963Y-45618240D01*
X132759957Y-45573509D01*
X132885202Y-45496759D01*
X132885208Y-45496755D01*
X132889416Y-45494176D01*
X133069969Y-45339969D01*
X133224176Y-45159416D01*
X133226755Y-45155208D01*
X133226759Y-45155202D01*
X133345654Y-44961183D01*
X133348240Y-44956963D01*
X133355348Y-44939804D01*
X133437211Y-44742167D01*
X133437212Y-44742165D01*
X133439105Y-44737594D01*
X133470301Y-44607655D01*
X133493380Y-44511524D01*
X133493381Y-44511518D01*
X133494535Y-44506711D01*
X133513165Y-44270000D01*
X133494535Y-44033289D01*
X133474924Y-43951601D01*
X133450313Y-43849091D01*
X133439105Y-43802406D01*
X133435542Y-43793803D01*
X133350135Y-43587611D01*
X133350133Y-43587607D01*
X133348240Y-43583037D01*
X133319694Y-43536454D01*
X133226759Y-43384798D01*
X133226755Y-43384792D01*
X133224176Y-43380584D01*
X133069969Y-43200031D01*
X133066213Y-43196823D01*
X133066208Y-43196818D01*
X132947944Y-43095811D01*
X132909134Y-43036361D01*
X132908875Y-43000000D01*
X134466835Y-43000000D01*
X134485465Y-43236711D01*
X134486619Y-43241518D01*
X134486620Y-43241524D01*
X134516329Y-43365271D01*
X134540895Y-43467594D01*
X134542788Y-43472165D01*
X134542789Y-43472167D01*
X134611258Y-43637466D01*
X134631760Y-43686963D01*
X134634346Y-43691183D01*
X134753241Y-43885202D01*
X134753245Y-43885208D01*
X134755824Y-43889416D01*
X134910031Y-44069969D01*
X135090584Y-44224176D01*
X135094792Y-44226755D01*
X135094798Y-44226759D01*
X135282352Y-44341692D01*
X135293037Y-44348240D01*
X135297607Y-44350133D01*
X135297611Y-44350135D01*
X135458945Y-44416961D01*
X135512406Y-44439105D01*
X135590601Y-44457878D01*
X135738476Y-44493380D01*
X135738482Y-44493381D01*
X135743289Y-44494535D01*
X135980000Y-44513165D01*
X136216711Y-44494535D01*
X136221518Y-44493381D01*
X136221524Y-44493380D01*
X136369399Y-44457878D01*
X136447594Y-44439105D01*
X136501055Y-44416961D01*
X136662389Y-44350135D01*
X136662393Y-44350133D01*
X136666963Y-44348240D01*
X136677648Y-44341692D01*
X136865202Y-44226759D01*
X136865208Y-44226755D01*
X136869416Y-44224176D01*
X137049969Y-44069969D01*
X137053177Y-44066213D01*
X137053182Y-44066208D01*
X137154189Y-43947944D01*
X137213639Y-43909134D01*
X137284634Y-43908628D01*
X137345811Y-43947944D01*
X137446818Y-44066208D01*
X137446823Y-44066213D01*
X137450031Y-44069969D01*
X137630584Y-44224176D01*
X137634792Y-44226755D01*
X137634798Y-44226759D01*
X137822352Y-44341692D01*
X137833037Y-44348240D01*
X137837607Y-44350133D01*
X137837611Y-44350135D01*
X137998945Y-44416961D01*
X138052406Y-44439105D01*
X138130601Y-44457878D01*
X138278476Y-44493380D01*
X138278482Y-44493381D01*
X138283289Y-44494535D01*
X138520000Y-44513165D01*
X138756711Y-44494535D01*
X138761518Y-44493381D01*
X138761524Y-44493380D01*
X138965176Y-44444487D01*
X138979951Y-44440940D01*
X139050858Y-44444487D01*
X139098459Y-44474364D01*
X139401348Y-44777253D01*
X139408888Y-44785539D01*
X139413000Y-44792018D01*
X139418777Y-44797443D01*
X139462651Y-44838643D01*
X139465493Y-44841398D01*
X139485230Y-44861135D01*
X139488427Y-44863615D01*
X139497447Y-44871318D01*
X139529679Y-44901586D01*
X139536625Y-44905405D01*
X139536628Y-44905407D01*
X139547434Y-44911348D01*
X139563953Y-44922199D01*
X139579959Y-44934614D01*
X139587228Y-44937759D01*
X139587232Y-44937762D01*
X139620537Y-44952174D01*
X139631187Y-44957391D01*
X139669940Y-44978695D01*
X139677615Y-44980666D01*
X139677616Y-44980666D01*
X139689562Y-44983733D01*
X139708266Y-44990137D01*
X139716357Y-44993638D01*
X139726855Y-44998181D01*
X139734678Y-44999420D01*
X139734688Y-44999423D01*
X139770524Y-45005099D01*
X139782144Y-45007505D01*
X139817289Y-45016528D01*
X139824970Y-45018500D01*
X139845224Y-45018500D01*
X139864934Y-45020051D01*
X139884943Y-45023220D01*
X139892835Y-45022474D01*
X139928961Y-45019059D01*
X139940819Y-45018500D01*
X140816800Y-45018500D01*
X140884921Y-45038502D01*
X140904147Y-45054843D01*
X140904420Y-45054540D01*
X140909332Y-45058963D01*
X140913747Y-45063866D01*
X140919086Y-45067745D01*
X141050434Y-45163175D01*
X141068248Y-45176118D01*
X141074276Y-45178802D01*
X141074278Y-45178803D01*
X141164183Y-45218831D01*
X141242712Y-45253794D01*
X141336112Y-45273647D01*
X141423056Y-45292128D01*
X141423061Y-45292128D01*
X141429513Y-45293500D01*
X141485406Y-45293500D01*
X141553527Y-45313502D01*
X141574501Y-45330405D01*
X141854595Y-45610499D01*
X141888621Y-45672811D01*
X141891500Y-45699594D01*
X141891500Y-48054139D01*
X141871498Y-48122260D01*
X141817842Y-48168753D01*
X141747568Y-48178857D01*
X141682988Y-48149363D01*
X141671869Y-48138454D01*
X141611253Y-48071134D01*
X141456752Y-47958882D01*
X141450724Y-47956198D01*
X141450722Y-47956197D01*
X141288319Y-47883891D01*
X141288318Y-47883891D01*
X141282288Y-47881206D01*
X141188888Y-47861353D01*
X141101944Y-47842872D01*
X141101939Y-47842872D01*
X141095487Y-47841500D01*
X140904513Y-47841500D01*
X140898061Y-47842872D01*
X140898056Y-47842872D01*
X140811113Y-47861353D01*
X140717712Y-47881206D01*
X140711682Y-47883891D01*
X140711681Y-47883891D01*
X140549278Y-47956197D01*
X140549276Y-47956198D01*
X140543248Y-47958882D01*
X140388747Y-48071134D01*
X140384329Y-48076041D01*
X140384325Y-48076045D01*
X140300851Y-48168753D01*
X140260960Y-48213056D01*
X140165473Y-48378444D01*
X140106458Y-48560072D01*
X140105768Y-48566633D01*
X140105768Y-48566635D01*
X140089093Y-48725292D01*
X140062080Y-48790949D01*
X140052878Y-48801217D01*
X137052747Y-51801348D01*
X137044461Y-51808888D01*
X137037982Y-51813000D01*
X137032557Y-51818777D01*
X136991357Y-51862651D01*
X136988602Y-51865493D01*
X136968865Y-51885230D01*
X136966385Y-51888427D01*
X136958682Y-51897447D01*
X136928414Y-51929679D01*
X136924595Y-51936625D01*
X136924593Y-51936628D01*
X136918652Y-51947434D01*
X136907801Y-51963953D01*
X136895386Y-51979959D01*
X136892241Y-51987228D01*
X136892238Y-51987232D01*
X136877826Y-52020537D01*
X136872609Y-52031187D01*
X136851305Y-52069940D01*
X136849334Y-52077615D01*
X136849334Y-52077616D01*
X136846267Y-52089562D01*
X136839863Y-52108266D01*
X136835595Y-52118130D01*
X136831819Y-52126855D01*
X136830580Y-52134678D01*
X136830577Y-52134688D01*
X136824901Y-52170524D01*
X136822495Y-52182144D01*
X136813472Y-52217289D01*
X136811500Y-52224970D01*
X136811500Y-52245224D01*
X136809949Y-52264934D01*
X136806780Y-52284943D01*
X136807526Y-52292835D01*
X136810941Y-52328961D01*
X136811500Y-52340819D01*
X136811500Y-53553269D01*
X136791498Y-53621390D01*
X136757770Y-53656482D01*
X136652319Y-53730319D01*
X136500319Y-53882319D01*
X136377024Y-54058404D01*
X136286178Y-54253223D01*
X136230542Y-54460858D01*
X136211807Y-54675000D01*
X136230542Y-54889142D01*
X136286178Y-55096777D01*
X136288500Y-55101757D01*
X136288501Y-55101759D01*
X136360723Y-55256638D01*
X136377024Y-55291596D01*
X136500319Y-55467681D01*
X136652319Y-55619681D01*
X136828403Y-55742976D01*
X136833381Y-55745297D01*
X136833384Y-55745299D01*
X136949872Y-55799618D01*
X137023223Y-55833822D01*
X137028531Y-55835244D01*
X137028533Y-55835245D01*
X137225543Y-55888034D01*
X137225545Y-55888034D01*
X137230858Y-55889458D01*
X137445000Y-55908193D01*
X137659142Y-55889458D01*
X137664455Y-55888034D01*
X137664457Y-55888034D01*
X137861467Y-55835245D01*
X137861469Y-55835244D01*
X137866777Y-55833822D01*
X137940128Y-55799618D01*
X138056616Y-55745299D01*
X138056619Y-55745297D01*
X138061597Y-55742976D01*
X138237681Y-55619681D01*
X138389681Y-55467681D01*
X138512976Y-55291596D01*
X138529278Y-55256638D01*
X138601499Y-55101759D01*
X138601500Y-55101757D01*
X138603822Y-55096777D01*
X138659458Y-54889142D01*
X138678193Y-54675000D01*
X138659458Y-54460858D01*
X138603822Y-54253223D01*
X138512976Y-54058404D01*
X138389681Y-53882319D01*
X138237681Y-53730319D01*
X138132230Y-53656482D01*
X138087901Y-53601025D01*
X138078500Y-53553269D01*
X138078500Y-52619594D01*
X138098502Y-52551473D01*
X138115405Y-52530499D01*
X138541360Y-52104544D01*
X138603672Y-52070518D01*
X138674487Y-52075583D01*
X138731323Y-52118130D01*
X138755976Y-52182657D01*
X138770542Y-52349142D01*
X138771966Y-52354455D01*
X138771966Y-52354457D01*
X138810965Y-52500000D01*
X138826178Y-52556777D01*
X138917024Y-52751596D01*
X139040319Y-52927681D01*
X139192319Y-53079681D01*
X139368403Y-53202976D01*
X139373381Y-53205297D01*
X139373384Y-53205299D01*
X139558241Y-53291499D01*
X139563223Y-53293822D01*
X139568531Y-53295244D01*
X139568533Y-53295245D01*
X139765543Y-53348034D01*
X139765545Y-53348034D01*
X139770858Y-53349458D01*
X139985000Y-53368193D01*
X140199142Y-53349458D01*
X140204455Y-53348034D01*
X140204457Y-53348034D01*
X140401467Y-53295245D01*
X140401469Y-53295244D01*
X140406777Y-53293822D01*
X140411759Y-53291499D01*
X140596616Y-53205299D01*
X140596619Y-53205297D01*
X140601597Y-53202976D01*
X140777681Y-53079681D01*
X140929681Y-52927681D01*
X141052976Y-52751596D01*
X141143822Y-52556777D01*
X141159036Y-52500000D01*
X141198034Y-52354457D01*
X141198034Y-52354455D01*
X141199458Y-52349142D01*
X141218193Y-52135000D01*
X141199458Y-51920858D01*
X141190749Y-51888356D01*
X141145245Y-51718533D01*
X141145244Y-51718531D01*
X141143822Y-51713223D01*
X141112663Y-51646403D01*
X141055299Y-51523385D01*
X141055297Y-51523382D01*
X141052976Y-51518404D01*
X140929681Y-51342319D01*
X140777681Y-51190319D01*
X140601597Y-51067024D01*
X140596619Y-51064703D01*
X140596616Y-51064701D01*
X140411759Y-50978501D01*
X140411758Y-50978500D01*
X140406777Y-50976178D01*
X140401469Y-50974756D01*
X140401467Y-50974755D01*
X140204457Y-50921966D01*
X140204455Y-50921966D01*
X140199142Y-50920542D01*
X140114057Y-50913098D01*
X140032657Y-50905976D01*
X139966539Y-50880112D01*
X139924899Y-50822609D01*
X139920959Y-50751721D01*
X139954544Y-50691360D01*
X140950499Y-49695405D01*
X141012811Y-49661379D01*
X141039594Y-49658500D01*
X141095487Y-49658500D01*
X141101939Y-49657128D01*
X141101944Y-49657128D01*
X141188888Y-49638647D01*
X141282288Y-49618794D01*
X141288319Y-49616109D01*
X141450722Y-49543803D01*
X141450724Y-49543802D01*
X141456752Y-49541118D01*
X141480718Y-49523706D01*
X141602591Y-49435159D01*
X141611253Y-49428866D01*
X141671865Y-49361549D01*
X141732310Y-49324311D01*
X141803294Y-49325663D01*
X141862278Y-49365177D01*
X141890536Y-49430307D01*
X141891500Y-49445861D01*
X141891500Y-53553269D01*
X141871498Y-53621390D01*
X141837770Y-53656482D01*
X141732319Y-53730319D01*
X141580319Y-53882319D01*
X141457024Y-54058404D01*
X141366178Y-54253223D01*
X141310542Y-54460858D01*
X141291807Y-54675000D01*
X141310542Y-54889142D01*
X141366178Y-55096777D01*
X141368500Y-55101757D01*
X141368501Y-55101759D01*
X141440723Y-55256638D01*
X141457024Y-55291596D01*
X141580319Y-55467681D01*
X141732319Y-55619681D01*
X141908403Y-55742976D01*
X141913381Y-55745297D01*
X141913384Y-55745299D01*
X142029872Y-55799618D01*
X142103223Y-55833822D01*
X142108531Y-55835244D01*
X142108533Y-55835245D01*
X142305543Y-55888034D01*
X142305545Y-55888034D01*
X142310858Y-55889458D01*
X142525000Y-55908193D01*
X142739142Y-55889458D01*
X142744455Y-55888034D01*
X142744457Y-55888034D01*
X142941467Y-55835245D01*
X142941469Y-55835244D01*
X142946777Y-55833822D01*
X143020128Y-55799618D01*
X143136616Y-55745299D01*
X143136619Y-55745297D01*
X143141597Y-55742976D01*
X143317681Y-55619681D01*
X143469681Y-55467681D01*
X143592976Y-55291596D01*
X143609278Y-55256638D01*
X143681499Y-55101759D01*
X143681500Y-55101757D01*
X143683822Y-55096777D01*
X143738293Y-54893490D01*
X143775245Y-54832867D01*
X143839106Y-54801846D01*
X143909600Y-54810274D01*
X143964347Y-54855477D01*
X143981707Y-54893490D01*
X144036178Y-55096777D01*
X144038500Y-55101757D01*
X144038501Y-55101759D01*
X144110723Y-55256638D01*
X144127024Y-55291596D01*
X144250319Y-55467681D01*
X144402319Y-55619681D01*
X144578403Y-55742976D01*
X144583381Y-55745297D01*
X144583384Y-55745299D01*
X144699872Y-55799618D01*
X144773223Y-55833822D01*
X144778531Y-55835244D01*
X144778533Y-55835245D01*
X144975543Y-55888034D01*
X144975545Y-55888034D01*
X144980858Y-55889458D01*
X145195000Y-55908193D01*
X145409142Y-55889458D01*
X145414455Y-55888034D01*
X145414457Y-55888034D01*
X145611467Y-55835245D01*
X145611469Y-55835244D01*
X145616777Y-55833822D01*
X145690128Y-55799618D01*
X145806616Y-55745299D01*
X145806619Y-55745297D01*
X145811597Y-55742976D01*
X145987681Y-55619681D01*
X146139681Y-55467681D01*
X146262976Y-55291596D01*
X146279278Y-55256638D01*
X146351499Y-55101759D01*
X146351500Y-55101757D01*
X146353822Y-55096777D01*
X146409458Y-54889142D01*
X146428193Y-54675000D01*
X146409458Y-54460858D01*
X146353822Y-54253223D01*
X146262976Y-54058404D01*
X146139681Y-53882319D01*
X145987681Y-53730319D01*
X145811597Y-53607024D01*
X145806619Y-53604703D01*
X145806616Y-53604701D01*
X145621759Y-53518501D01*
X145621758Y-53518500D01*
X145616777Y-53516178D01*
X145611469Y-53514756D01*
X145611467Y-53514755D01*
X145414457Y-53461966D01*
X145414455Y-53461966D01*
X145409142Y-53460542D01*
X145195000Y-53441807D01*
X144980858Y-53460542D01*
X144975545Y-53461966D01*
X144975543Y-53461966D01*
X144778533Y-53514755D01*
X144778531Y-53514756D01*
X144773223Y-53516178D01*
X144768243Y-53518500D01*
X144768241Y-53518501D01*
X144583385Y-53604701D01*
X144583382Y-53604703D01*
X144578404Y-53607024D01*
X144402319Y-53730319D01*
X144250319Y-53882319D01*
X144127024Y-54058404D01*
X144036178Y-54253223D01*
X144034756Y-54258531D01*
X144034755Y-54258533D01*
X143981707Y-54456510D01*
X143944755Y-54517133D01*
X143880894Y-54548154D01*
X143810400Y-54539726D01*
X143755653Y-54494523D01*
X143738293Y-54456510D01*
X143685245Y-54258533D01*
X143685244Y-54258531D01*
X143683822Y-54253223D01*
X143592976Y-54058404D01*
X143469681Y-53882319D01*
X143317681Y-53730319D01*
X143212230Y-53656482D01*
X143167901Y-53601025D01*
X143158500Y-53553269D01*
X143158500Y-52135000D01*
X146501807Y-52135000D01*
X146520542Y-52349142D01*
X146521966Y-52354455D01*
X146521966Y-52354457D01*
X146560965Y-52500000D01*
X146576178Y-52556777D01*
X146667024Y-52751596D01*
X146790319Y-52927681D01*
X146942319Y-53079681D01*
X147118403Y-53202976D01*
X147123381Y-53205297D01*
X147123384Y-53205299D01*
X147308241Y-53291499D01*
X147313223Y-53293822D01*
X147318531Y-53295244D01*
X147318533Y-53295245D01*
X147515543Y-53348034D01*
X147515545Y-53348034D01*
X147520858Y-53349458D01*
X147735000Y-53368193D01*
X147949142Y-53349458D01*
X147954455Y-53348034D01*
X147954457Y-53348034D01*
X148151467Y-53295245D01*
X148151469Y-53295244D01*
X148156777Y-53293822D01*
X148161759Y-53291499D01*
X148346616Y-53205299D01*
X148346619Y-53205297D01*
X148351597Y-53202976D01*
X148527681Y-53079681D01*
X148679681Y-52927681D01*
X148802976Y-52751596D01*
X148893822Y-52556777D01*
X148909036Y-52500000D01*
X148948034Y-52354457D01*
X148948034Y-52354455D01*
X148949458Y-52349142D01*
X148968193Y-52135000D01*
X148949458Y-51920858D01*
X148940749Y-51888356D01*
X148895245Y-51718533D01*
X148895244Y-51718531D01*
X148893822Y-51713223D01*
X148862663Y-51646403D01*
X148805299Y-51523385D01*
X148805297Y-51523382D01*
X148802976Y-51518404D01*
X148679681Y-51342319D01*
X148527681Y-51190319D01*
X148351597Y-51067024D01*
X148346619Y-51064703D01*
X148346616Y-51064701D01*
X148161759Y-50978501D01*
X148161758Y-50978500D01*
X148156777Y-50976178D01*
X148151469Y-50974756D01*
X148151467Y-50974755D01*
X147954457Y-50921966D01*
X147954455Y-50921966D01*
X147949142Y-50920542D01*
X147735000Y-50901807D01*
X147520858Y-50920542D01*
X147515545Y-50921966D01*
X147515543Y-50921966D01*
X147318533Y-50974755D01*
X147318531Y-50974756D01*
X147313223Y-50976178D01*
X147308243Y-50978500D01*
X147308241Y-50978501D01*
X147123385Y-51064701D01*
X147123382Y-51064703D01*
X147118404Y-51067024D01*
X146942319Y-51190319D01*
X146790319Y-51342319D01*
X146667024Y-51518404D01*
X146664703Y-51523382D01*
X146664701Y-51523385D01*
X146607337Y-51646403D01*
X146576178Y-51713223D01*
X146574756Y-51718531D01*
X146574755Y-51718533D01*
X146529251Y-51888356D01*
X146520542Y-51920858D01*
X146501807Y-52135000D01*
X143158500Y-52135000D01*
X143158500Y-49132703D01*
X152390743Y-49132703D01*
X152391302Y-49136947D01*
X152391302Y-49136951D01*
X152407810Y-49262340D01*
X152428268Y-49417734D01*
X152429401Y-49421874D01*
X152429401Y-49421876D01*
X152432376Y-49432749D01*
X152504129Y-49695036D01*
X152505813Y-49698984D01*
X152580021Y-49872960D01*
X152616923Y-49959476D01*
X152634668Y-49989125D01*
X152725704Y-50141235D01*
X152764561Y-50206161D01*
X152944313Y-50430528D01*
X153152851Y-50628423D01*
X153386317Y-50796186D01*
X153390112Y-50798195D01*
X153390113Y-50798196D01*
X153411869Y-50809715D01*
X153640392Y-50930712D01*
X153910373Y-51029511D01*
X154191264Y-51090755D01*
X154219841Y-51093004D01*
X154414282Y-51108307D01*
X154414291Y-51108307D01*
X154416739Y-51108500D01*
X154572271Y-51108500D01*
X154574407Y-51108354D01*
X154574418Y-51108354D01*
X154782548Y-51094165D01*
X154782554Y-51094164D01*
X154786825Y-51093873D01*
X154791020Y-51093004D01*
X154791022Y-51093004D01*
X154927692Y-51064701D01*
X155068342Y-51035574D01*
X155339343Y-50939607D01*
X155594812Y-50807750D01*
X155598313Y-50805289D01*
X155598317Y-50805287D01*
X155760418Y-50691360D01*
X155830023Y-50642441D01*
X156040622Y-50446740D01*
X156222713Y-50224268D01*
X156372927Y-49979142D01*
X156488483Y-49715898D01*
X156493174Y-49699432D01*
X156537820Y-49542701D01*
X156567244Y-49439406D01*
X156607751Y-49154784D01*
X156607814Y-49142925D01*
X156609235Y-48871583D01*
X156609235Y-48871576D01*
X156609257Y-48867297D01*
X156600558Y-48801217D01*
X156590562Y-48725292D01*
X156571732Y-48582266D01*
X156565661Y-48560072D01*
X156529267Y-48427040D01*
X156495871Y-48304964D01*
X156454575Y-48208148D01*
X156384763Y-48044476D01*
X156384761Y-48044472D01*
X156383077Y-48040524D01*
X156235439Y-47793839D01*
X156055687Y-47569472D01*
X155932289Y-47452372D01*
X155850258Y-47374527D01*
X155850255Y-47374525D01*
X155847149Y-47371577D01*
X155613683Y-47203814D01*
X155591843Y-47192250D01*
X155541328Y-47165504D01*
X155359608Y-47069288D01*
X155089627Y-46970489D01*
X154808736Y-46909245D01*
X154777685Y-46906801D01*
X154585718Y-46891693D01*
X154585709Y-46891693D01*
X154583261Y-46891500D01*
X154427729Y-46891500D01*
X154425593Y-46891646D01*
X154425582Y-46891646D01*
X154217452Y-46905835D01*
X154217446Y-46905836D01*
X154213175Y-46906127D01*
X154208980Y-46906996D01*
X154208978Y-46906996D01*
X154072417Y-46935276D01*
X153931658Y-46964426D01*
X153660657Y-47060393D01*
X153656848Y-47062359D01*
X153457008Y-47165504D01*
X153405188Y-47192250D01*
X153401687Y-47194711D01*
X153401683Y-47194713D01*
X153391594Y-47201804D01*
X153169977Y-47357559D01*
X153154892Y-47371577D01*
X152994501Y-47520622D01*
X152959378Y-47553260D01*
X152777287Y-47775732D01*
X152627073Y-48020858D01*
X152625347Y-48024791D01*
X152625346Y-48024792D01*
X152542704Y-48213056D01*
X152511517Y-48284102D01*
X152432756Y-48560594D01*
X152392249Y-48845216D01*
X152392227Y-48849505D01*
X152392226Y-48849512D01*
X152390801Y-49121556D01*
X152390743Y-49132703D01*
X143158500Y-49132703D01*
X143158500Y-45463768D01*
X143159027Y-45452585D01*
X143160702Y-45445092D01*
X143160234Y-45430183D01*
X143158562Y-45377002D01*
X143158500Y-45373044D01*
X143158500Y-45345144D01*
X143157996Y-45341153D01*
X143157063Y-45329311D01*
X143155923Y-45293036D01*
X143155674Y-45285111D01*
X143150021Y-45265652D01*
X143146012Y-45246293D01*
X143145846Y-45244983D01*
X143143474Y-45226203D01*
X143140558Y-45218837D01*
X143140556Y-45218831D01*
X143127200Y-45185098D01*
X143123355Y-45173868D01*
X143113230Y-45139017D01*
X143113230Y-45139016D01*
X143111019Y-45131407D01*
X143100705Y-45113966D01*
X143092008Y-45096213D01*
X143087472Y-45084758D01*
X143084552Y-45077383D01*
X143058563Y-45041612D01*
X143052047Y-45031692D01*
X143047037Y-45023220D01*
X143029542Y-44993638D01*
X143015221Y-44979317D01*
X143002380Y-44964283D01*
X142997376Y-44957396D01*
X142990472Y-44947893D01*
X142956395Y-44919702D01*
X142947616Y-44911712D01*
X142472122Y-44436218D01*
X142438096Y-44373906D01*
X142435907Y-44360293D01*
X142435530Y-44356701D01*
X142425134Y-44257792D01*
X142419232Y-44201635D01*
X142419232Y-44201633D01*
X142418542Y-44195072D01*
X142359527Y-44013444D01*
X142264040Y-43848056D01*
X142256253Y-43839407D01*
X142140675Y-43711045D01*
X142140674Y-43711044D01*
X142136253Y-43706134D01*
X141992847Y-43601943D01*
X141987094Y-43597763D01*
X141987093Y-43597762D01*
X141981752Y-43593882D01*
X141975724Y-43591198D01*
X141975722Y-43591197D01*
X141813319Y-43518891D01*
X141813318Y-43518891D01*
X141807288Y-43516206D01*
X141713888Y-43496353D01*
X141626944Y-43477872D01*
X141626939Y-43477872D01*
X141620487Y-43476500D01*
X141429513Y-43476500D01*
X141423061Y-43477872D01*
X141423056Y-43477872D01*
X141336112Y-43496353D01*
X141242712Y-43516206D01*
X141236682Y-43518891D01*
X141236681Y-43518891D01*
X141074278Y-43591197D01*
X141074276Y-43591198D01*
X141068248Y-43593882D01*
X141062907Y-43597762D01*
X141062906Y-43597763D01*
X140958037Y-43673955D01*
X140913747Y-43706134D01*
X140909332Y-43711037D01*
X140904420Y-43715460D01*
X140903295Y-43714211D01*
X140849986Y-43747051D01*
X140816800Y-43751500D01*
X140219594Y-43751500D01*
X140151473Y-43731498D01*
X140130499Y-43714595D01*
X139994364Y-43578460D01*
X139960338Y-43516148D01*
X139960940Y-43459951D01*
X140013380Y-43241524D01*
X140013381Y-43241518D01*
X140014535Y-43236711D01*
X140033165Y-43000000D01*
X140014535Y-42763289D01*
X140013025Y-42756997D01*
X139968345Y-42570894D01*
X139959105Y-42532406D01*
X139952510Y-42516483D01*
X139870135Y-42317611D01*
X139870133Y-42317607D01*
X139868240Y-42313037D01*
X139830148Y-42250877D01*
X139746759Y-42114798D01*
X139746755Y-42114792D01*
X139744176Y-42110584D01*
X139589969Y-41930031D01*
X139409416Y-41775824D01*
X139405208Y-41773245D01*
X139405202Y-41773241D01*
X139211183Y-41654346D01*
X139206963Y-41651760D01*
X139202393Y-41649867D01*
X139202389Y-41649865D01*
X138992167Y-41562789D01*
X138992165Y-41562788D01*
X138987594Y-41560895D01*
X138907391Y-41541640D01*
X138761524Y-41506620D01*
X138761518Y-41506619D01*
X138756711Y-41505465D01*
X138520000Y-41486835D01*
X138283289Y-41505465D01*
X138278482Y-41506619D01*
X138278476Y-41506620D01*
X138132609Y-41541640D01*
X138052406Y-41560895D01*
X138047835Y-41562788D01*
X138047833Y-41562789D01*
X137837611Y-41649865D01*
X137837607Y-41649867D01*
X137833037Y-41651760D01*
X137828817Y-41654346D01*
X137634798Y-41773241D01*
X137634792Y-41773245D01*
X137630584Y-41775824D01*
X137450031Y-41930031D01*
X137446823Y-41933787D01*
X137446818Y-41933792D01*
X137345811Y-42052056D01*
X137286361Y-42090866D01*
X137215366Y-42091372D01*
X137154189Y-42052056D01*
X137053182Y-41933792D01*
X137053177Y-41933787D01*
X137049969Y-41930031D01*
X136869416Y-41775824D01*
X136865208Y-41773245D01*
X136865202Y-41773241D01*
X136671183Y-41654346D01*
X136666963Y-41651760D01*
X136662393Y-41649867D01*
X136662389Y-41649865D01*
X136452167Y-41562789D01*
X136452165Y-41562788D01*
X136447594Y-41560895D01*
X136367391Y-41541640D01*
X136221524Y-41506620D01*
X136221518Y-41506619D01*
X136216711Y-41505465D01*
X135980000Y-41486835D01*
X135743289Y-41505465D01*
X135738482Y-41506619D01*
X135738476Y-41506620D01*
X135592609Y-41541640D01*
X135512406Y-41560895D01*
X135507835Y-41562788D01*
X135507833Y-41562789D01*
X135297611Y-41649865D01*
X135297607Y-41649867D01*
X135293037Y-41651760D01*
X135288817Y-41654346D01*
X135094798Y-41773241D01*
X135094792Y-41773245D01*
X135090584Y-41775824D01*
X134910031Y-41930031D01*
X134755824Y-42110584D01*
X134753245Y-42114792D01*
X134753241Y-42114798D01*
X134669852Y-42250877D01*
X134631760Y-42313037D01*
X134629867Y-42317607D01*
X134629865Y-42317611D01*
X134547490Y-42516483D01*
X134540895Y-42532406D01*
X134531655Y-42570894D01*
X134486976Y-42756997D01*
X134485465Y-42763289D01*
X134466835Y-43000000D01*
X132908875Y-43000000D01*
X132908628Y-42965366D01*
X132947944Y-42904189D01*
X133066208Y-42803182D01*
X133066213Y-42803177D01*
X133069969Y-42799969D01*
X133224176Y-42619416D01*
X133226755Y-42615208D01*
X133226759Y-42615202D01*
X133345654Y-42421183D01*
X133348240Y-42416963D01*
X133364604Y-42377458D01*
X133437211Y-42202167D01*
X133437212Y-42202165D01*
X133439105Y-42197594D01*
X133463736Y-42094997D01*
X133493380Y-41971524D01*
X133493381Y-41971518D01*
X133494535Y-41966711D01*
X133513165Y-41730000D01*
X133494535Y-41493289D01*
X133487433Y-41463704D01*
X133440260Y-41267218D01*
X133439105Y-41262406D01*
X133427455Y-41234280D01*
X133350135Y-41047611D01*
X133350133Y-41047607D01*
X133348240Y-41043037D01*
X133281462Y-40934065D01*
X133226759Y-40844798D01*
X133226755Y-40844792D01*
X133224176Y-40840584D01*
X133069969Y-40660031D01*
X132889416Y-40505824D01*
X132885208Y-40503245D01*
X132885202Y-40503241D01*
X132691183Y-40384346D01*
X132686963Y-40381760D01*
X132682393Y-40379867D01*
X132682389Y-40379865D01*
X132472167Y-40292789D01*
X132472165Y-40292788D01*
X132467594Y-40290895D01*
X132387391Y-40271640D01*
X132241524Y-40236620D01*
X132241518Y-40236619D01*
X132236711Y-40235465D01*
X132000000Y-40216835D01*
X131763289Y-40235465D01*
X131758482Y-40236619D01*
X131758476Y-40236620D01*
X131612609Y-40271640D01*
X131532406Y-40290895D01*
X131527835Y-40292788D01*
X131527833Y-40292789D01*
X131317611Y-40379865D01*
X131317607Y-40379867D01*
X131313037Y-40381760D01*
X131308817Y-40384346D01*
X131114798Y-40503241D01*
X131114792Y-40503245D01*
X131110584Y-40505824D01*
X130930031Y-40660031D01*
X130775824Y-40840584D01*
X130773245Y-40844792D01*
X130773241Y-40844798D01*
X130718538Y-40934065D01*
X130651760Y-41043037D01*
X130649867Y-41047607D01*
X130649865Y-41047611D01*
X130572545Y-41234280D01*
X130560895Y-41262406D01*
X130559740Y-41267218D01*
X130512568Y-41463704D01*
X130505465Y-41493289D01*
X130486835Y-41730000D01*
X130505465Y-41966711D01*
X130506619Y-41971518D01*
X130506620Y-41971524D01*
X130536264Y-42094997D01*
X130560895Y-42197594D01*
X130562788Y-42202165D01*
X130562789Y-42202167D01*
X130635397Y-42377458D01*
X130651760Y-42416963D01*
X130654346Y-42421183D01*
X130773241Y-42615202D01*
X130773245Y-42615208D01*
X130775824Y-42619416D01*
X130930031Y-42799969D01*
X130933787Y-42803177D01*
X130933792Y-42803182D01*
X131052056Y-42904189D01*
X131090866Y-42963639D01*
X131091372Y-43034634D01*
X131052056Y-43095811D01*
X130933792Y-43196818D01*
X130933787Y-43196823D01*
X130930031Y-43200031D01*
X130775824Y-43380584D01*
X130773245Y-43384792D01*
X130773241Y-43384798D01*
X130680306Y-43536454D01*
X130651760Y-43583037D01*
X130649867Y-43587607D01*
X130649865Y-43587611D01*
X130564458Y-43793803D01*
X130560895Y-43802406D01*
X130549687Y-43849091D01*
X130525077Y-43951601D01*
X130505465Y-44033289D01*
X130486835Y-44270000D01*
X128819683Y-44270000D01*
X128821861Y-44263729D01*
X128822722Y-44257792D01*
X128851352Y-44060336D01*
X128851352Y-44060333D01*
X128852213Y-44054396D01*
X128842433Y-43843101D01*
X128803788Y-43682749D01*
X128794281Y-43643299D01*
X128794280Y-43643297D01*
X128792875Y-43637466D01*
X128778110Y-43604991D01*
X128720376Y-43478013D01*
X128705326Y-43444913D01*
X128582946Y-43272389D01*
X128430150Y-43126119D01*
X128252452Y-43011380D01*
X128182516Y-42983195D01*
X128061832Y-42934558D01*
X128061829Y-42934557D01*
X128056263Y-42932314D01*
X127848663Y-42891772D01*
X127843101Y-42891500D01*
X127287154Y-42891500D01*
X127129434Y-42906548D01*
X126926466Y-42966092D01*
X126921139Y-42968836D01*
X126921138Y-42968836D01*
X126743751Y-43060196D01*
X126743748Y-43060198D01*
X126738420Y-43062942D01*
X126572080Y-43193604D01*
X126568148Y-43198135D01*
X126568145Y-43198138D01*
X126499474Y-43277275D01*
X126433448Y-43353363D01*
X126430448Y-43358549D01*
X126430445Y-43358553D01*
X126339517Y-43515728D01*
X126327527Y-43536454D01*
X126258139Y-43736271D01*
X126257278Y-43742206D01*
X126257278Y-43742208D01*
X126250187Y-43791118D01*
X126227787Y-43945604D01*
X120508000Y-43945604D01*
X120508000Y-41430859D01*
X123887132Y-41430859D01*
X123900457Y-41634151D01*
X123950605Y-41831610D01*
X124035898Y-42016624D01*
X124153479Y-42182997D01*
X124180051Y-42208882D01*
X124282637Y-42308817D01*
X124299410Y-42325157D01*
X124304206Y-42328362D01*
X124304209Y-42328364D01*
X124377684Y-42377458D01*
X124468803Y-42438342D01*
X124474106Y-42440620D01*
X124474109Y-42440622D01*
X124563115Y-42478862D01*
X124655987Y-42518763D01*
X124716281Y-42532406D01*
X124849055Y-42562450D01*
X124849060Y-42562451D01*
X124854692Y-42563725D01*
X124860463Y-42563952D01*
X124860465Y-42563952D01*
X124923470Y-42566427D01*
X125058263Y-42571723D01*
X125259883Y-42542490D01*
X125265347Y-42540635D01*
X125265352Y-42540634D01*
X125447327Y-42478862D01*
X125447332Y-42478860D01*
X125452799Y-42477004D01*
X125630551Y-42377458D01*
X125787186Y-42247186D01*
X125917458Y-42090551D01*
X126017004Y-41912799D01*
X126018860Y-41907332D01*
X126018862Y-41907327D01*
X126080634Y-41725352D01*
X126080635Y-41725347D01*
X126082490Y-41719883D01*
X126111723Y-41518263D01*
X126113249Y-41460000D01*
X126099736Y-41312939D01*
X126095137Y-41262880D01*
X126095136Y-41262877D01*
X126094608Y-41257126D01*
X126039307Y-41061047D01*
X126032682Y-41047611D01*
X125951756Y-40883510D01*
X125949201Y-40878329D01*
X125930796Y-40853681D01*
X125830758Y-40719715D01*
X125830758Y-40719714D01*
X125827305Y-40715091D01*
X125711176Y-40607742D01*
X125681943Y-40580719D01*
X125681940Y-40580717D01*
X125677703Y-40576800D01*
X125610706Y-40534528D01*
X125510288Y-40471169D01*
X125510283Y-40471167D01*
X125505404Y-40468088D01*
X125338864Y-40401645D01*
X125321549Y-40394737D01*
X125316180Y-40392595D01*
X125116366Y-40352849D01*
X125110592Y-40352773D01*
X125110588Y-40352773D01*
X125007452Y-40351424D01*
X124912655Y-40350183D01*
X124906958Y-40351162D01*
X124906957Y-40351162D01*
X124717567Y-40383705D01*
X124711870Y-40384684D01*
X124520734Y-40455198D01*
X124515773Y-40458150D01*
X124515772Y-40458150D01*
X124377130Y-40540634D01*
X124345649Y-40559363D01*
X124192478Y-40693690D01*
X124188911Y-40698215D01*
X124188906Y-40698220D01*
X124125152Y-40779092D01*
X124066351Y-40853681D01*
X124063662Y-40858792D01*
X124063660Y-40858795D01*
X124019635Y-40942473D01*
X123971492Y-41033978D01*
X123911078Y-41228543D01*
X123887132Y-41430859D01*
X120508000Y-41430859D01*
X120508000Y-39634000D01*
X120528002Y-39565879D01*
X120581658Y-39519386D01*
X120634000Y-39508000D01*
X167366000Y-39508000D01*
X167434121Y-39528002D01*
G37*
%TD.AperFunction*%
M02*
