%TF.GenerationSoftware,KiCad,Pcbnew,6.0.2+dfsg-1*%
%TF.CreationDate,2022-08-15T18:10:52-04:00*%
%TF.ProjectId,titan_wheel,74697461-6e5f-4776-9865-656c2e6b6963,1*%
%TF.SameCoordinates,Original*%
%TF.FileFunction,Soldermask,Top*%
%TF.FilePolarity,Negative*%
%FSLAX46Y46*%
G04 Gerber Fmt 4.6, Leading zero omitted, Abs format (unit mm)*
G04 Created by KiCad (PCBNEW 6.0.2+dfsg-1) date 2022-08-15 18:10:52*
%MOMM*%
%LPD*%
G01*
G04 APERTURE LIST*
G04 Aperture macros list*
%AMRoundRect*
0 Rectangle with rounded corners*
0 $1 Rounding radius*
0 $2 $3 $4 $5 $6 $7 $8 $9 X,Y pos of 4 corners*
0 Add a 4 corners polygon primitive as box body*
4,1,4,$2,$3,$4,$5,$6,$7,$8,$9,$2,$3,0*
0 Add four circle primitives for the rounded corners*
1,1,$1+$1,$2,$3*
1,1,$1+$1,$4,$5*
1,1,$1+$1,$6,$7*
1,1,$1+$1,$8,$9*
0 Add four rect primitives between the rounded corners*
20,1,$1+$1,$2,$3,$4,$5,0*
20,1,$1+$1,$4,$5,$6,$7,0*
20,1,$1+$1,$6,$7,$8,$9,0*
20,1,$1+$1,$8,$9,$2,$3,0*%
G04 Aperture macros list end*
%ADD10RoundRect,0.200000X0.275000X-0.200000X0.275000X0.200000X-0.275000X0.200000X-0.275000X-0.200000X0*%
%ADD11C,2.000000*%
%ADD12RoundRect,0.150000X0.825000X0.150000X-0.825000X0.150000X-0.825000X-0.150000X0.825000X-0.150000X0*%
%ADD13RoundRect,0.200000X0.200000X0.275000X-0.200000X0.275000X-0.200000X-0.275000X0.200000X-0.275000X0*%
%ADD14C,1.440000*%
%ADD15R,1.700000X1.700000*%
%ADD16O,1.700000X1.700000*%
%ADD17C,3.200000*%
%ADD18RoundRect,0.225000X-0.225000X-0.250000X0.225000X-0.250000X0.225000X0.250000X-0.225000X0.250000X0*%
%ADD19RoundRect,0.225000X0.225000X0.250000X-0.225000X0.250000X-0.225000X-0.250000X0.225000X-0.250000X0*%
%ADD20RoundRect,0.243750X-0.243750X-0.456250X0.243750X-0.456250X0.243750X0.456250X-0.243750X0.456250X0*%
%ADD21C,2.500000*%
%ADD22C,1.000000*%
%ADD23C,1.500000*%
%ADD24O,1.600000X1.200000*%
%ADD25O,1.200000X1.200000*%
G04 APERTURE END LIST*
D10*
X160250000Y-43825000D03*
X160250000Y-42175000D03*
D11*
X157770000Y-43000000D03*
X155230000Y-43000000D03*
D12*
X146475000Y-45655000D03*
X146475000Y-44385000D03*
X146475000Y-43115000D03*
X146475000Y-41845000D03*
X141525000Y-41845000D03*
X141525000Y-43115000D03*
X141525000Y-44385000D03*
X141525000Y-45655000D03*
D13*
X165825000Y-56250000D03*
X164175000Y-56250000D03*
D14*
X150275000Y-54675000D03*
X147735000Y-52135000D03*
X145195000Y-54675000D03*
D15*
X122425000Y-56500000D03*
D16*
X124965000Y-56500000D03*
X127505000Y-56500000D03*
X130045000Y-56500000D03*
X132585000Y-56500000D03*
D17*
X154500000Y-49000000D03*
D11*
X132000000Y-41730000D03*
X132000000Y-44270000D03*
D18*
X147225000Y-47500000D03*
X148775000Y-47500000D03*
D14*
X142525000Y-54675000D03*
X139985000Y-52135000D03*
X137445000Y-54675000D03*
D11*
X135980000Y-43000000D03*
X138520000Y-43000000D03*
D17*
X133500000Y-49000000D03*
D10*
X165750000Y-52325000D03*
X165750000Y-50675000D03*
D19*
X140775000Y-47500000D03*
X139225000Y-47500000D03*
D20*
X160237500Y-56250000D03*
X162112500Y-56250000D03*
D11*
X152020000Y-43000000D03*
X149480000Y-43000000D03*
D15*
X122425000Y-52500000D03*
D16*
X124965000Y-52500000D03*
X127505000Y-52500000D03*
X130045000Y-52500000D03*
D21*
X166400000Y-44500000D03*
D22*
X162050000Y-49150000D03*
D21*
X162600000Y-44500000D03*
D23*
X165770000Y-41750000D03*
X163230000Y-41750000D03*
X165770000Y-47250000D03*
X163230000Y-47250000D03*
D24*
X127540000Y-44000000D03*
D25*
X125000000Y-46540000D03*
X122460000Y-44000000D03*
X125000000Y-41460000D03*
M02*
