M48
; DRILL file {KiCad 6.0.2+dfsg-1} date Mon 15 Aug 2022 06:10:55 PM
; FORMAT={-:-/ absolute / metric / decimal}
; #@! TF.CreationDate,2022-08-15T18:10:55-04:00
; #@! TF.GenerationSoftware,Kicad,Pcbnew,6.0.2+dfsg-1
; #@! TF.FileFunction,Plated,1,2,PTH
FMAT,2
METRIC
; #@! TA.AperFunction,Plated,PTH,ViaDrill
T1C0.400
; #@! TA.AperFunction,Plated,PTH,ComponentDrill
T2C0.700
; #@! TA.AperFunction,Plated,PTH,ComponentDrill
T3C0.800
; #@! TA.AperFunction,Plated,PTH,ComponentDrill
T4C1.000
%
G90
G05
T1
X141.0Y-48.75
X141.525Y-44.385
X143.25Y-43.0
X147.225Y-47.5
X160.25Y-42.175
X160.25Y-43.825
X165.75Y-52.325
X165.825Y-56.25
T2
X122.46Y-44.0
X125.0Y-41.46
X125.0Y-46.54
X127.54Y-44.0
T3
X137.445Y-54.675
X139.985Y-52.135
X142.525Y-54.675
X145.195Y-54.675
X147.735Y-52.135
X150.275Y-54.675
T4
X122.425Y-52.5
X122.425Y-56.5
X124.965Y-52.5
X124.965Y-56.5
X127.505Y-52.5
X127.505Y-56.5
X130.045Y-52.5
X130.045Y-56.5
X132.0Y-41.73
X132.0Y-44.27
X132.585Y-56.5
X135.98Y-43.0
X138.52Y-43.0
X149.48Y-43.0
X152.02Y-43.0
X155.23Y-43.0
X157.77Y-43.0
X163.23Y-41.75
X163.23Y-47.25
X165.77Y-41.75
X165.77Y-47.25
T0
M30
