%FSLAX45Y45*%
G04 Gerber Fmt 4.5, Leading zero omitted, Abs format (unit mm)*
G04 Created by KiCad (PCBNEW 6.0.2+dfsg-1) date 2022-08-15 18:10:56*
%MOMM*%
%LPD*%
G01*
G04 APERTURE LIST*
%TA.AperFunction,Profile*%
%ADD10C,0.100000*%
%TD*%
%ADD11C,0.200000*%
%ADD12C,0.100000*%
%ADD13C,0.250000*%
%ADD14C,0.320000*%
G04 APERTURE END LIST*
D10*
X12000000Y-5900000D02*
X12000000Y-3900000D01*
X12000000Y-3900000D02*
X16800000Y-3900000D01*
X16800000Y-5900000D02*
X12000000Y-5900000D01*
X16800000Y-3900000D02*
X16800000Y-5900000D01*
D11*
D12*
X16155000Y-4865000D02*
X16255000Y-4965000D01*
X16255000Y-4865000D02*
X16155000Y-4965000D01*
D13*
X16385000Y-4450000D02*
G75*
G03*
X16385000Y-4450000I-125000J0D01*
G01*
X16765000Y-4450000D02*
G75*
G03*
X16765000Y-4450000I-125000J0D01*
G01*
D14*
X13350000Y-4740000D02*
X13350000Y-5060000D01*
X13190000Y-4900000D02*
X13510000Y-4900000D01*
X15450000Y-4740000D02*
X15450000Y-5060000D01*
X15290000Y-4900000D02*
X15610000Y-4900000D01*
D11*
X12252619Y-6215476D02*
X12252619Y-6015476D01*
X12300238Y-6015476D01*
X12328809Y-6025000D01*
X12347857Y-6044048D01*
X12357381Y-6063095D01*
X12366905Y-6101190D01*
X12366905Y-6129762D01*
X12357381Y-6167857D01*
X12347857Y-6186905D01*
X12328809Y-6205952D01*
X12300238Y-6215476D01*
X12252619Y-6215476D01*
X12452619Y-6215476D02*
X12452619Y-6082143D01*
X12452619Y-6120238D02*
X12462143Y-6101190D01*
X12471667Y-6091667D01*
X12490714Y-6082143D01*
X12509762Y-6082143D01*
X12576428Y-6215476D02*
X12576428Y-6082143D01*
X12576428Y-6015476D02*
X12566905Y-6025000D01*
X12576428Y-6034524D01*
X12585952Y-6025000D01*
X12576428Y-6015476D01*
X12576428Y-6034524D01*
X12700238Y-6215476D02*
X12681190Y-6205952D01*
X12671667Y-6186905D01*
X12671667Y-6015476D01*
X12805000Y-6215476D02*
X12785952Y-6205952D01*
X12776428Y-6186905D01*
X12776428Y-6015476D01*
X13033571Y-6215476D02*
X13033571Y-6015476D01*
X13100238Y-6158333D01*
X13166905Y-6015476D01*
X13166905Y-6215476D01*
X13347857Y-6215476D02*
X13347857Y-6110714D01*
X13338333Y-6091667D01*
X13319286Y-6082143D01*
X13281190Y-6082143D01*
X13262143Y-6091667D01*
X13347857Y-6205952D02*
X13328809Y-6215476D01*
X13281190Y-6215476D01*
X13262143Y-6205952D01*
X13252619Y-6186905D01*
X13252619Y-6167857D01*
X13262143Y-6148809D01*
X13281190Y-6139286D01*
X13328809Y-6139286D01*
X13347857Y-6129762D01*
X13443095Y-6082143D02*
X13443095Y-6282143D01*
X13443095Y-6091667D02*
X13462143Y-6082143D01*
X13500238Y-6082143D01*
X13519286Y-6091667D01*
X13528809Y-6101190D01*
X13538333Y-6120238D01*
X13538333Y-6177381D01*
X13528809Y-6196428D01*
X13519286Y-6205952D01*
X13500238Y-6215476D01*
X13462143Y-6215476D01*
X13443095Y-6205952D01*
X13624048Y-6196428D02*
X13633571Y-6205952D01*
X13624048Y-6215476D01*
X13614524Y-6205952D01*
X13624048Y-6196428D01*
X13624048Y-6215476D01*
X13624048Y-6091667D02*
X13633571Y-6101190D01*
X13624048Y-6110714D01*
X13614524Y-6101190D01*
X13624048Y-6091667D01*
X13624048Y-6110714D01*
D12*
X11895000Y-6495000D02*
X11995000Y-6595000D01*
X11995000Y-6495000D02*
X11895000Y-6595000D01*
D11*
X12357381Y-6635476D02*
X12243095Y-6635476D01*
X12300238Y-6635476D02*
X12300238Y-6435476D01*
X12281190Y-6464048D01*
X12262143Y-6483095D01*
X12243095Y-6492619D01*
X12443095Y-6616428D02*
X12452619Y-6625952D01*
X12443095Y-6635476D01*
X12433571Y-6625952D01*
X12443095Y-6616428D01*
X12443095Y-6635476D01*
X12576428Y-6435476D02*
X12595476Y-6435476D01*
X12614524Y-6445000D01*
X12624048Y-6454524D01*
X12633571Y-6473571D01*
X12643095Y-6511667D01*
X12643095Y-6559286D01*
X12633571Y-6597381D01*
X12624048Y-6616428D01*
X12614524Y-6625952D01*
X12595476Y-6635476D01*
X12576428Y-6635476D01*
X12557381Y-6625952D01*
X12547857Y-6616428D01*
X12538333Y-6597381D01*
X12528809Y-6559286D01*
X12528809Y-6511667D01*
X12538333Y-6473571D01*
X12547857Y-6454524D01*
X12557381Y-6445000D01*
X12576428Y-6435476D01*
X12766905Y-6435476D02*
X12785952Y-6435476D01*
X12805000Y-6445000D01*
X12814524Y-6454524D01*
X12824048Y-6473571D01*
X12833571Y-6511667D01*
X12833571Y-6559286D01*
X12824048Y-6597381D01*
X12814524Y-6616428D01*
X12805000Y-6625952D01*
X12785952Y-6635476D01*
X12766905Y-6635476D01*
X12747857Y-6625952D01*
X12738333Y-6616428D01*
X12728809Y-6597381D01*
X12719286Y-6559286D01*
X12719286Y-6511667D01*
X12728809Y-6473571D01*
X12738333Y-6454524D01*
X12747857Y-6445000D01*
X12766905Y-6435476D01*
X12957381Y-6435476D02*
X12976428Y-6435476D01*
X12995476Y-6445000D01*
X13005000Y-6454524D01*
X13014524Y-6473571D01*
X13024048Y-6511667D01*
X13024048Y-6559286D01*
X13014524Y-6597381D01*
X13005000Y-6616428D01*
X12995476Y-6625952D01*
X12976428Y-6635476D01*
X12957381Y-6635476D01*
X12938333Y-6625952D01*
X12928809Y-6616428D01*
X12919286Y-6597381D01*
X12909762Y-6559286D01*
X12909762Y-6511667D01*
X12919286Y-6473571D01*
X12928809Y-6454524D01*
X12938333Y-6445000D01*
X12957381Y-6435476D01*
X13109762Y-6635476D02*
X13109762Y-6502143D01*
X13109762Y-6521190D02*
X13119286Y-6511667D01*
X13138333Y-6502143D01*
X13166905Y-6502143D01*
X13185952Y-6511667D01*
X13195476Y-6530714D01*
X13195476Y-6635476D01*
X13195476Y-6530714D02*
X13205000Y-6511667D01*
X13224048Y-6502143D01*
X13252619Y-6502143D01*
X13271667Y-6511667D01*
X13281190Y-6530714D01*
X13281190Y-6635476D01*
X13376428Y-6635476D02*
X13376428Y-6502143D01*
X13376428Y-6521190D02*
X13385952Y-6511667D01*
X13405000Y-6502143D01*
X13433571Y-6502143D01*
X13452619Y-6511667D01*
X13462143Y-6530714D01*
X13462143Y-6635476D01*
X13462143Y-6530714D02*
X13471667Y-6511667D01*
X13490714Y-6502143D01*
X13519286Y-6502143D01*
X13538333Y-6511667D01*
X13547857Y-6530714D01*
X13547857Y-6635476D01*
X13938333Y-6425952D02*
X13766905Y-6683095D01*
X14195476Y-6435476D02*
X14214524Y-6435476D01*
X14233571Y-6445000D01*
X14243095Y-6454524D01*
X14252619Y-6473571D01*
X14262143Y-6511667D01*
X14262143Y-6559286D01*
X14252619Y-6597381D01*
X14243095Y-6616428D01*
X14233571Y-6625952D01*
X14214524Y-6635476D01*
X14195476Y-6635476D01*
X14176428Y-6625952D01*
X14166905Y-6616428D01*
X14157381Y-6597381D01*
X14147857Y-6559286D01*
X14147857Y-6511667D01*
X14157381Y-6473571D01*
X14166905Y-6454524D01*
X14176428Y-6445000D01*
X14195476Y-6435476D01*
X14347857Y-6616428D02*
X14357381Y-6625952D01*
X14347857Y-6635476D01*
X14338333Y-6625952D01*
X14347857Y-6616428D01*
X14347857Y-6635476D01*
X14481190Y-6435476D02*
X14500238Y-6435476D01*
X14519286Y-6445000D01*
X14528809Y-6454524D01*
X14538333Y-6473571D01*
X14547857Y-6511667D01*
X14547857Y-6559286D01*
X14538333Y-6597381D01*
X14528809Y-6616428D01*
X14519286Y-6625952D01*
X14500238Y-6635476D01*
X14481190Y-6635476D01*
X14462143Y-6625952D01*
X14452619Y-6616428D01*
X14443095Y-6597381D01*
X14433571Y-6559286D01*
X14433571Y-6511667D01*
X14443095Y-6473571D01*
X14452619Y-6454524D01*
X14462143Y-6445000D01*
X14481190Y-6435476D01*
X14614524Y-6435476D02*
X14738333Y-6435476D01*
X14671667Y-6511667D01*
X14700238Y-6511667D01*
X14719286Y-6521190D01*
X14728809Y-6530714D01*
X14738333Y-6549762D01*
X14738333Y-6597381D01*
X14728809Y-6616428D01*
X14719286Y-6625952D01*
X14700238Y-6635476D01*
X14643095Y-6635476D01*
X14624048Y-6625952D01*
X14614524Y-6616428D01*
X14833571Y-6635476D02*
X14871667Y-6635476D01*
X14890714Y-6625952D01*
X14900238Y-6616428D01*
X14919286Y-6587857D01*
X14928809Y-6549762D01*
X14928809Y-6473571D01*
X14919286Y-6454524D01*
X14909762Y-6445000D01*
X14890714Y-6435476D01*
X14852619Y-6435476D01*
X14833571Y-6445000D01*
X14824048Y-6454524D01*
X14814524Y-6473571D01*
X14814524Y-6521190D01*
X14824048Y-6540238D01*
X14833571Y-6549762D01*
X14852619Y-6559286D01*
X14890714Y-6559286D01*
X14909762Y-6549762D01*
X14919286Y-6540238D01*
X14928809Y-6521190D01*
X15100238Y-6502143D02*
X15100238Y-6635476D01*
X15052619Y-6425952D02*
X15005000Y-6568809D01*
X15128809Y-6568809D01*
X15195476Y-6435476D02*
X15195476Y-6473571D01*
X15271667Y-6435476D02*
X15271667Y-6473571D01*
X15566905Y-6711667D02*
X15557381Y-6702143D01*
X15538333Y-6673571D01*
X15528809Y-6654524D01*
X15519286Y-6625952D01*
X15509762Y-6578333D01*
X15509762Y-6540238D01*
X15519286Y-6492619D01*
X15528809Y-6464048D01*
X15538333Y-6445000D01*
X15557381Y-6416428D01*
X15566905Y-6406905D01*
X15747857Y-6635476D02*
X15633571Y-6635476D01*
X15690714Y-6635476D02*
X15690714Y-6435476D01*
X15671667Y-6464048D01*
X15652619Y-6483095D01*
X15633571Y-6492619D01*
X15985952Y-6635476D02*
X15985952Y-6435476D01*
X16071667Y-6635476D02*
X16071667Y-6530714D01*
X16062143Y-6511667D01*
X16043095Y-6502143D01*
X16014524Y-6502143D01*
X15995476Y-6511667D01*
X15985952Y-6521190D01*
X16195476Y-6635476D02*
X16176428Y-6625952D01*
X16166905Y-6616428D01*
X16157381Y-6597381D01*
X16157381Y-6540238D01*
X16166905Y-6521190D01*
X16176428Y-6511667D01*
X16195476Y-6502143D01*
X16224048Y-6502143D01*
X16243095Y-6511667D01*
X16252619Y-6521190D01*
X16262143Y-6540238D01*
X16262143Y-6597381D01*
X16252619Y-6616428D01*
X16243095Y-6625952D01*
X16224048Y-6635476D01*
X16195476Y-6635476D01*
X16376428Y-6635476D02*
X16357381Y-6625952D01*
X16347857Y-6606905D01*
X16347857Y-6435476D01*
X16528809Y-6625952D02*
X16509762Y-6635476D01*
X16471667Y-6635476D01*
X16452619Y-6625952D01*
X16443095Y-6606905D01*
X16443095Y-6530714D01*
X16452619Y-6511667D01*
X16471667Y-6502143D01*
X16509762Y-6502143D01*
X16528809Y-6511667D01*
X16538333Y-6530714D01*
X16538333Y-6549762D01*
X16443095Y-6568809D01*
X16605000Y-6711667D02*
X16614524Y-6702143D01*
X16633571Y-6673571D01*
X16643095Y-6654524D01*
X16652619Y-6625952D01*
X16662143Y-6578333D01*
X16662143Y-6540238D01*
X16652619Y-6492619D01*
X16643095Y-6464048D01*
X16633571Y-6445000D01*
X16614524Y-6416428D01*
X16605000Y-6406905D01*
X16966905Y-6711667D02*
X16957381Y-6702143D01*
X16938333Y-6673571D01*
X16928810Y-6654524D01*
X16919286Y-6625952D01*
X16909762Y-6578333D01*
X16909762Y-6540238D01*
X16919286Y-6492619D01*
X16928810Y-6464048D01*
X16938333Y-6445000D01*
X16957381Y-6416428D01*
X16966905Y-6406905D01*
X17043095Y-6502143D02*
X17043095Y-6635476D01*
X17043095Y-6521190D02*
X17052619Y-6511667D01*
X17071667Y-6502143D01*
X17100238Y-6502143D01*
X17119286Y-6511667D01*
X17128810Y-6530714D01*
X17128810Y-6635476D01*
X17252619Y-6635476D02*
X17233571Y-6625952D01*
X17224048Y-6616428D01*
X17214524Y-6597381D01*
X17214524Y-6540238D01*
X17224048Y-6521190D01*
X17233571Y-6511667D01*
X17252619Y-6502143D01*
X17281190Y-6502143D01*
X17300238Y-6511667D01*
X17309762Y-6521190D01*
X17319286Y-6540238D01*
X17319286Y-6597381D01*
X17309762Y-6616428D01*
X17300238Y-6625952D01*
X17281190Y-6635476D01*
X17252619Y-6635476D01*
X17376429Y-6502143D02*
X17452619Y-6502143D01*
X17405000Y-6435476D02*
X17405000Y-6606905D01*
X17414524Y-6625952D01*
X17433571Y-6635476D01*
X17452619Y-6635476D01*
X17671667Y-6502143D02*
X17671667Y-6702143D01*
X17671667Y-6511667D02*
X17690714Y-6502143D01*
X17728810Y-6502143D01*
X17747857Y-6511667D01*
X17757381Y-6521190D01*
X17766905Y-6540238D01*
X17766905Y-6597381D01*
X17757381Y-6616428D01*
X17747857Y-6625952D01*
X17728810Y-6635476D01*
X17690714Y-6635476D01*
X17671667Y-6625952D01*
X17881190Y-6635476D02*
X17862143Y-6625952D01*
X17852619Y-6606905D01*
X17852619Y-6435476D01*
X18043095Y-6635476D02*
X18043095Y-6530714D01*
X18033571Y-6511667D01*
X18014524Y-6502143D01*
X17976429Y-6502143D01*
X17957381Y-6511667D01*
X18043095Y-6625952D02*
X18024048Y-6635476D01*
X17976429Y-6635476D01*
X17957381Y-6625952D01*
X17947857Y-6606905D01*
X17947857Y-6587857D01*
X17957381Y-6568809D01*
X17976429Y-6559286D01*
X18024048Y-6559286D01*
X18043095Y-6549762D01*
X18109762Y-6502143D02*
X18185952Y-6502143D01*
X18138333Y-6435476D02*
X18138333Y-6606905D01*
X18147857Y-6625952D01*
X18166905Y-6635476D01*
X18185952Y-6635476D01*
X18328810Y-6625952D02*
X18309762Y-6635476D01*
X18271667Y-6635476D01*
X18252619Y-6625952D01*
X18243095Y-6606905D01*
X18243095Y-6530714D01*
X18252619Y-6511667D01*
X18271667Y-6502143D01*
X18309762Y-6502143D01*
X18328810Y-6511667D01*
X18338333Y-6530714D01*
X18338333Y-6549762D01*
X18243095Y-6568809D01*
X18509762Y-6635476D02*
X18509762Y-6435476D01*
X18509762Y-6625952D02*
X18490714Y-6635476D01*
X18452619Y-6635476D01*
X18433571Y-6625952D01*
X18424048Y-6616428D01*
X18414524Y-6597381D01*
X18414524Y-6540238D01*
X18424048Y-6521190D01*
X18433571Y-6511667D01*
X18452619Y-6502143D01*
X18490714Y-6502143D01*
X18509762Y-6511667D01*
X18585952Y-6711667D02*
X18595476Y-6702143D01*
X18614524Y-6673571D01*
X18624048Y-6654524D01*
X18633571Y-6625952D01*
X18643095Y-6578333D01*
X18643095Y-6540238D01*
X18633571Y-6492619D01*
X18624048Y-6464048D01*
X18614524Y-6445000D01*
X18595476Y-6416428D01*
X18585952Y-6406905D01*
X11995000Y-6809000D02*
G75*
G03*
X11995000Y-6809000I-100000J0D01*
G01*
X12243095Y-6718524D02*
X12252619Y-6709000D01*
X12271667Y-6699476D01*
X12319286Y-6699476D01*
X12338333Y-6709000D01*
X12347857Y-6718524D01*
X12357381Y-6737571D01*
X12357381Y-6756619D01*
X12347857Y-6785190D01*
X12233571Y-6899476D01*
X12357381Y-6899476D01*
X12443095Y-6880428D02*
X12452619Y-6889952D01*
X12443095Y-6899476D01*
X12433571Y-6889952D01*
X12443095Y-6880428D01*
X12443095Y-6899476D01*
X12633571Y-6699476D02*
X12538333Y-6699476D01*
X12528809Y-6794714D01*
X12538333Y-6785190D01*
X12557381Y-6775667D01*
X12605000Y-6775667D01*
X12624048Y-6785190D01*
X12633571Y-6794714D01*
X12643095Y-6813762D01*
X12643095Y-6861381D01*
X12633571Y-6880428D01*
X12624048Y-6889952D01*
X12605000Y-6899476D01*
X12557381Y-6899476D01*
X12538333Y-6889952D01*
X12528809Y-6880428D01*
X12766905Y-6699476D02*
X12785952Y-6699476D01*
X12805000Y-6709000D01*
X12814524Y-6718524D01*
X12824048Y-6737571D01*
X12833571Y-6775667D01*
X12833571Y-6823286D01*
X12824048Y-6861381D01*
X12814524Y-6880428D01*
X12805000Y-6889952D01*
X12785952Y-6899476D01*
X12766905Y-6899476D01*
X12747857Y-6889952D01*
X12738333Y-6880428D01*
X12728809Y-6861381D01*
X12719286Y-6823286D01*
X12719286Y-6775667D01*
X12728809Y-6737571D01*
X12738333Y-6718524D01*
X12747857Y-6709000D01*
X12766905Y-6699476D01*
X12957381Y-6699476D02*
X12976428Y-6699476D01*
X12995476Y-6709000D01*
X13005000Y-6718524D01*
X13014524Y-6737571D01*
X13024048Y-6775667D01*
X13024048Y-6823286D01*
X13014524Y-6861381D01*
X13005000Y-6880428D01*
X12995476Y-6889952D01*
X12976428Y-6899476D01*
X12957381Y-6899476D01*
X12938333Y-6889952D01*
X12928809Y-6880428D01*
X12919286Y-6861381D01*
X12909762Y-6823286D01*
X12909762Y-6775667D01*
X12919286Y-6737571D01*
X12928809Y-6718524D01*
X12938333Y-6709000D01*
X12957381Y-6699476D01*
X13109762Y-6899476D02*
X13109762Y-6766143D01*
X13109762Y-6785190D02*
X13119286Y-6775667D01*
X13138333Y-6766143D01*
X13166905Y-6766143D01*
X13185952Y-6775667D01*
X13195476Y-6794714D01*
X13195476Y-6899476D01*
X13195476Y-6794714D02*
X13205000Y-6775667D01*
X13224048Y-6766143D01*
X13252619Y-6766143D01*
X13271667Y-6775667D01*
X13281190Y-6794714D01*
X13281190Y-6899476D01*
X13376428Y-6899476D02*
X13376428Y-6766143D01*
X13376428Y-6785190D02*
X13385952Y-6775667D01*
X13405000Y-6766143D01*
X13433571Y-6766143D01*
X13452619Y-6775667D01*
X13462143Y-6794714D01*
X13462143Y-6899476D01*
X13462143Y-6794714D02*
X13471667Y-6775667D01*
X13490714Y-6766143D01*
X13519286Y-6766143D01*
X13538333Y-6775667D01*
X13547857Y-6794714D01*
X13547857Y-6899476D01*
X13938333Y-6689952D02*
X13766905Y-6947095D01*
X14195476Y-6699476D02*
X14214524Y-6699476D01*
X14233571Y-6709000D01*
X14243095Y-6718524D01*
X14252619Y-6737571D01*
X14262143Y-6775667D01*
X14262143Y-6823286D01*
X14252619Y-6861381D01*
X14243095Y-6880428D01*
X14233571Y-6889952D01*
X14214524Y-6899476D01*
X14195476Y-6899476D01*
X14176428Y-6889952D01*
X14166905Y-6880428D01*
X14157381Y-6861381D01*
X14147857Y-6823286D01*
X14147857Y-6775667D01*
X14157381Y-6737571D01*
X14166905Y-6718524D01*
X14176428Y-6709000D01*
X14195476Y-6699476D01*
X14347857Y-6880428D02*
X14357381Y-6889952D01*
X14347857Y-6899476D01*
X14338333Y-6889952D01*
X14347857Y-6880428D01*
X14347857Y-6899476D01*
X14481190Y-6699476D02*
X14500238Y-6699476D01*
X14519286Y-6709000D01*
X14528809Y-6718524D01*
X14538333Y-6737571D01*
X14547857Y-6775667D01*
X14547857Y-6823286D01*
X14538333Y-6861381D01*
X14528809Y-6880428D01*
X14519286Y-6889952D01*
X14500238Y-6899476D01*
X14481190Y-6899476D01*
X14462143Y-6889952D01*
X14452619Y-6880428D01*
X14443095Y-6861381D01*
X14433571Y-6823286D01*
X14433571Y-6775667D01*
X14443095Y-6737571D01*
X14452619Y-6718524D01*
X14462143Y-6709000D01*
X14481190Y-6699476D01*
X14643095Y-6899476D02*
X14681190Y-6899476D01*
X14700238Y-6889952D01*
X14709762Y-6880428D01*
X14728809Y-6851857D01*
X14738333Y-6813762D01*
X14738333Y-6737571D01*
X14728809Y-6718524D01*
X14719286Y-6709000D01*
X14700238Y-6699476D01*
X14662143Y-6699476D01*
X14643095Y-6709000D01*
X14633571Y-6718524D01*
X14624048Y-6737571D01*
X14624048Y-6785190D01*
X14633571Y-6804238D01*
X14643095Y-6813762D01*
X14662143Y-6823286D01*
X14700238Y-6823286D01*
X14719286Y-6813762D01*
X14728809Y-6804238D01*
X14738333Y-6785190D01*
X14852619Y-6785190D02*
X14833571Y-6775667D01*
X14824048Y-6766143D01*
X14814524Y-6747095D01*
X14814524Y-6737571D01*
X14824048Y-6718524D01*
X14833571Y-6709000D01*
X14852619Y-6699476D01*
X14890714Y-6699476D01*
X14909762Y-6709000D01*
X14919286Y-6718524D01*
X14928809Y-6737571D01*
X14928809Y-6747095D01*
X14919286Y-6766143D01*
X14909762Y-6775667D01*
X14890714Y-6785190D01*
X14852619Y-6785190D01*
X14833571Y-6794714D01*
X14824048Y-6804238D01*
X14814524Y-6823286D01*
X14814524Y-6861381D01*
X14824048Y-6880428D01*
X14833571Y-6889952D01*
X14852619Y-6899476D01*
X14890714Y-6899476D01*
X14909762Y-6889952D01*
X14919286Y-6880428D01*
X14928809Y-6861381D01*
X14928809Y-6823286D01*
X14919286Y-6804238D01*
X14909762Y-6794714D01*
X14890714Y-6785190D01*
X15100238Y-6766143D02*
X15100238Y-6899476D01*
X15052619Y-6689952D02*
X15005000Y-6832809D01*
X15128809Y-6832809D01*
X15195476Y-6699476D02*
X15195476Y-6737571D01*
X15271667Y-6699476D02*
X15271667Y-6737571D01*
X15566905Y-6975667D02*
X15557381Y-6966143D01*
X15538333Y-6937571D01*
X15528809Y-6918524D01*
X15519286Y-6889952D01*
X15509762Y-6842333D01*
X15509762Y-6804238D01*
X15519286Y-6756619D01*
X15528809Y-6728048D01*
X15538333Y-6709000D01*
X15557381Y-6680428D01*
X15566905Y-6670905D01*
X15633571Y-6718524D02*
X15643095Y-6709000D01*
X15662143Y-6699476D01*
X15709762Y-6699476D01*
X15728809Y-6709000D01*
X15738333Y-6718524D01*
X15747857Y-6737571D01*
X15747857Y-6756619D01*
X15738333Y-6785190D01*
X15624048Y-6899476D01*
X15747857Y-6899476D01*
X15985952Y-6899476D02*
X15985952Y-6699476D01*
X16071667Y-6899476D02*
X16071667Y-6794714D01*
X16062143Y-6775667D01*
X16043095Y-6766143D01*
X16014524Y-6766143D01*
X15995476Y-6775667D01*
X15985952Y-6785190D01*
X16195476Y-6899476D02*
X16176428Y-6889952D01*
X16166905Y-6880428D01*
X16157381Y-6861381D01*
X16157381Y-6804238D01*
X16166905Y-6785190D01*
X16176428Y-6775667D01*
X16195476Y-6766143D01*
X16224048Y-6766143D01*
X16243095Y-6775667D01*
X16252619Y-6785190D01*
X16262143Y-6804238D01*
X16262143Y-6861381D01*
X16252619Y-6880428D01*
X16243095Y-6889952D01*
X16224048Y-6899476D01*
X16195476Y-6899476D01*
X16376428Y-6899476D02*
X16357381Y-6889952D01*
X16347857Y-6870905D01*
X16347857Y-6699476D01*
X16528809Y-6889952D02*
X16509762Y-6899476D01*
X16471667Y-6899476D01*
X16452619Y-6889952D01*
X16443095Y-6870905D01*
X16443095Y-6794714D01*
X16452619Y-6775667D01*
X16471667Y-6766143D01*
X16509762Y-6766143D01*
X16528809Y-6775667D01*
X16538333Y-6794714D01*
X16538333Y-6813762D01*
X16443095Y-6832809D01*
X16614524Y-6889952D02*
X16633571Y-6899476D01*
X16671667Y-6899476D01*
X16690714Y-6889952D01*
X16700238Y-6870905D01*
X16700238Y-6861381D01*
X16690714Y-6842333D01*
X16671667Y-6832809D01*
X16643095Y-6832809D01*
X16624048Y-6823286D01*
X16614524Y-6804238D01*
X16614524Y-6794714D01*
X16624048Y-6775667D01*
X16643095Y-6766143D01*
X16671667Y-6766143D01*
X16690714Y-6775667D01*
X16766905Y-6975667D02*
X16776428Y-6966143D01*
X16795476Y-6937571D01*
X16805000Y-6918524D01*
X16814524Y-6889952D01*
X16824048Y-6842333D01*
X16824048Y-6804238D01*
X16814524Y-6756619D01*
X16805000Y-6728048D01*
X16795476Y-6709000D01*
X16776428Y-6680428D01*
X16766905Y-6670905D01*
X17128810Y-6975667D02*
X17119286Y-6966143D01*
X17100238Y-6937571D01*
X17090714Y-6918524D01*
X17081190Y-6889952D01*
X17071667Y-6842333D01*
X17071667Y-6804238D01*
X17081190Y-6756619D01*
X17090714Y-6728048D01*
X17100238Y-6709000D01*
X17119286Y-6680428D01*
X17128810Y-6670905D01*
X17205000Y-6766143D02*
X17205000Y-6899476D01*
X17205000Y-6785190D02*
X17214524Y-6775667D01*
X17233571Y-6766143D01*
X17262143Y-6766143D01*
X17281190Y-6775667D01*
X17290714Y-6794714D01*
X17290714Y-6899476D01*
X17414524Y-6899476D02*
X17395476Y-6889952D01*
X17385952Y-6880428D01*
X17376429Y-6861381D01*
X17376429Y-6804238D01*
X17385952Y-6785190D01*
X17395476Y-6775667D01*
X17414524Y-6766143D01*
X17443095Y-6766143D01*
X17462143Y-6775667D01*
X17471667Y-6785190D01*
X17481190Y-6804238D01*
X17481190Y-6861381D01*
X17471667Y-6880428D01*
X17462143Y-6889952D01*
X17443095Y-6899476D01*
X17414524Y-6899476D01*
X17538333Y-6766143D02*
X17614524Y-6766143D01*
X17566905Y-6699476D02*
X17566905Y-6870905D01*
X17576429Y-6889952D01*
X17595476Y-6899476D01*
X17614524Y-6899476D01*
X17833571Y-6766143D02*
X17833571Y-6966143D01*
X17833571Y-6775667D02*
X17852619Y-6766143D01*
X17890714Y-6766143D01*
X17909762Y-6775667D01*
X17919286Y-6785190D01*
X17928810Y-6804238D01*
X17928810Y-6861381D01*
X17919286Y-6880428D01*
X17909762Y-6889952D01*
X17890714Y-6899476D01*
X17852619Y-6899476D01*
X17833571Y-6889952D01*
X18043095Y-6899476D02*
X18024048Y-6889952D01*
X18014524Y-6870905D01*
X18014524Y-6699476D01*
X18205000Y-6899476D02*
X18205000Y-6794714D01*
X18195476Y-6775667D01*
X18176429Y-6766143D01*
X18138333Y-6766143D01*
X18119286Y-6775667D01*
X18205000Y-6889952D02*
X18185952Y-6899476D01*
X18138333Y-6899476D01*
X18119286Y-6889952D01*
X18109762Y-6870905D01*
X18109762Y-6851857D01*
X18119286Y-6832809D01*
X18138333Y-6823286D01*
X18185952Y-6823286D01*
X18205000Y-6813762D01*
X18271667Y-6766143D02*
X18347857Y-6766143D01*
X18300238Y-6699476D02*
X18300238Y-6870905D01*
X18309762Y-6889952D01*
X18328810Y-6899476D01*
X18347857Y-6899476D01*
X18490714Y-6889952D02*
X18471667Y-6899476D01*
X18433571Y-6899476D01*
X18414524Y-6889952D01*
X18405000Y-6870905D01*
X18405000Y-6794714D01*
X18414524Y-6775667D01*
X18433571Y-6766143D01*
X18471667Y-6766143D01*
X18490714Y-6775667D01*
X18500238Y-6794714D01*
X18500238Y-6813762D01*
X18405000Y-6832809D01*
X18671667Y-6899476D02*
X18671667Y-6699476D01*
X18671667Y-6889952D02*
X18652619Y-6899476D01*
X18614524Y-6899476D01*
X18595476Y-6889952D01*
X18585952Y-6880428D01*
X18576429Y-6861381D01*
X18576429Y-6804238D01*
X18585952Y-6785190D01*
X18595476Y-6775667D01*
X18614524Y-6766143D01*
X18652619Y-6766143D01*
X18671667Y-6775667D01*
X18747857Y-6975667D02*
X18757381Y-6966143D01*
X18776429Y-6937571D01*
X18785952Y-6918524D01*
X18795476Y-6889952D01*
X18805000Y-6842333D01*
X18805000Y-6804238D01*
X18795476Y-6756619D01*
X18785952Y-6728048D01*
X18776429Y-6709000D01*
X18757381Y-6680428D01*
X18747857Y-6670905D01*
X11895000Y-7029000D02*
X11895000Y-7229000D01*
X11795000Y-7129000D02*
X11995000Y-7129000D01*
X12233571Y-7019476D02*
X12357381Y-7019476D01*
X12290714Y-7095667D01*
X12319286Y-7095667D01*
X12338333Y-7105190D01*
X12347857Y-7114714D01*
X12357381Y-7133762D01*
X12357381Y-7181381D01*
X12347857Y-7200428D01*
X12338333Y-7209952D01*
X12319286Y-7219476D01*
X12262143Y-7219476D01*
X12243095Y-7209952D01*
X12233571Y-7200428D01*
X12443095Y-7200428D02*
X12452619Y-7209952D01*
X12443095Y-7219476D01*
X12433571Y-7209952D01*
X12443095Y-7200428D01*
X12443095Y-7219476D01*
X12528809Y-7038524D02*
X12538333Y-7029000D01*
X12557381Y-7019476D01*
X12605000Y-7019476D01*
X12624048Y-7029000D01*
X12633571Y-7038524D01*
X12643095Y-7057571D01*
X12643095Y-7076619D01*
X12633571Y-7105190D01*
X12519286Y-7219476D01*
X12643095Y-7219476D01*
X12766905Y-7019476D02*
X12785952Y-7019476D01*
X12805000Y-7029000D01*
X12814524Y-7038524D01*
X12824048Y-7057571D01*
X12833571Y-7095667D01*
X12833571Y-7143286D01*
X12824048Y-7181381D01*
X12814524Y-7200428D01*
X12805000Y-7209952D01*
X12785952Y-7219476D01*
X12766905Y-7219476D01*
X12747857Y-7209952D01*
X12738333Y-7200428D01*
X12728809Y-7181381D01*
X12719286Y-7143286D01*
X12719286Y-7095667D01*
X12728809Y-7057571D01*
X12738333Y-7038524D01*
X12747857Y-7029000D01*
X12766905Y-7019476D01*
X12957381Y-7019476D02*
X12976428Y-7019476D01*
X12995476Y-7029000D01*
X13005000Y-7038524D01*
X13014524Y-7057571D01*
X13024048Y-7095667D01*
X13024048Y-7143286D01*
X13014524Y-7181381D01*
X13005000Y-7200428D01*
X12995476Y-7209952D01*
X12976428Y-7219476D01*
X12957381Y-7219476D01*
X12938333Y-7209952D01*
X12928809Y-7200428D01*
X12919286Y-7181381D01*
X12909762Y-7143286D01*
X12909762Y-7095667D01*
X12919286Y-7057571D01*
X12928809Y-7038524D01*
X12938333Y-7029000D01*
X12957381Y-7019476D01*
X13109762Y-7219476D02*
X13109762Y-7086143D01*
X13109762Y-7105190D02*
X13119286Y-7095667D01*
X13138333Y-7086143D01*
X13166905Y-7086143D01*
X13185952Y-7095667D01*
X13195476Y-7114714D01*
X13195476Y-7219476D01*
X13195476Y-7114714D02*
X13205000Y-7095667D01*
X13224048Y-7086143D01*
X13252619Y-7086143D01*
X13271667Y-7095667D01*
X13281190Y-7114714D01*
X13281190Y-7219476D01*
X13376428Y-7219476D02*
X13376428Y-7086143D01*
X13376428Y-7105190D02*
X13385952Y-7095667D01*
X13405000Y-7086143D01*
X13433571Y-7086143D01*
X13452619Y-7095667D01*
X13462143Y-7114714D01*
X13462143Y-7219476D01*
X13462143Y-7114714D02*
X13471667Y-7095667D01*
X13490714Y-7086143D01*
X13519286Y-7086143D01*
X13538333Y-7095667D01*
X13547857Y-7114714D01*
X13547857Y-7219476D01*
X13938333Y-7009952D02*
X13766905Y-7267095D01*
X14195476Y-7019476D02*
X14214524Y-7019476D01*
X14233571Y-7029000D01*
X14243095Y-7038524D01*
X14252619Y-7057571D01*
X14262143Y-7095667D01*
X14262143Y-7143286D01*
X14252619Y-7181381D01*
X14243095Y-7200428D01*
X14233571Y-7209952D01*
X14214524Y-7219476D01*
X14195476Y-7219476D01*
X14176428Y-7209952D01*
X14166905Y-7200428D01*
X14157381Y-7181381D01*
X14147857Y-7143286D01*
X14147857Y-7095667D01*
X14157381Y-7057571D01*
X14166905Y-7038524D01*
X14176428Y-7029000D01*
X14195476Y-7019476D01*
X14347857Y-7200428D02*
X14357381Y-7209952D01*
X14347857Y-7219476D01*
X14338333Y-7209952D01*
X14347857Y-7200428D01*
X14347857Y-7219476D01*
X14547857Y-7219476D02*
X14433571Y-7219476D01*
X14490714Y-7219476D02*
X14490714Y-7019476D01*
X14471667Y-7048048D01*
X14452619Y-7067095D01*
X14433571Y-7076619D01*
X14624048Y-7038524D02*
X14633571Y-7029000D01*
X14652619Y-7019476D01*
X14700238Y-7019476D01*
X14719286Y-7029000D01*
X14728809Y-7038524D01*
X14738333Y-7057571D01*
X14738333Y-7076619D01*
X14728809Y-7105190D01*
X14614524Y-7219476D01*
X14738333Y-7219476D01*
X14909762Y-7019476D02*
X14871667Y-7019476D01*
X14852619Y-7029000D01*
X14843095Y-7038524D01*
X14824048Y-7067095D01*
X14814524Y-7105190D01*
X14814524Y-7181381D01*
X14824048Y-7200428D01*
X14833571Y-7209952D01*
X14852619Y-7219476D01*
X14890714Y-7219476D01*
X14909762Y-7209952D01*
X14919286Y-7200428D01*
X14928809Y-7181381D01*
X14928809Y-7133762D01*
X14919286Y-7114714D01*
X14909762Y-7105190D01*
X14890714Y-7095667D01*
X14852619Y-7095667D01*
X14833571Y-7105190D01*
X14824048Y-7114714D01*
X14814524Y-7133762D01*
X15052619Y-7019476D02*
X15071667Y-7019476D01*
X15090714Y-7029000D01*
X15100238Y-7038524D01*
X15109762Y-7057571D01*
X15119286Y-7095667D01*
X15119286Y-7143286D01*
X15109762Y-7181381D01*
X15100238Y-7200428D01*
X15090714Y-7209952D01*
X15071667Y-7219476D01*
X15052619Y-7219476D01*
X15033571Y-7209952D01*
X15024048Y-7200428D01*
X15014524Y-7181381D01*
X15005000Y-7143286D01*
X15005000Y-7095667D01*
X15014524Y-7057571D01*
X15024048Y-7038524D01*
X15033571Y-7029000D01*
X15052619Y-7019476D01*
X15195476Y-7019476D02*
X15195476Y-7057571D01*
X15271667Y-7019476D02*
X15271667Y-7057571D01*
X15566905Y-7295667D02*
X15557381Y-7286143D01*
X15538333Y-7257571D01*
X15528809Y-7238524D01*
X15519286Y-7209952D01*
X15509762Y-7162333D01*
X15509762Y-7124238D01*
X15519286Y-7076619D01*
X15528809Y-7048048D01*
X15538333Y-7029000D01*
X15557381Y-7000428D01*
X15566905Y-6990905D01*
X15633571Y-7038524D02*
X15643095Y-7029000D01*
X15662143Y-7019476D01*
X15709762Y-7019476D01*
X15728809Y-7029000D01*
X15738333Y-7038524D01*
X15747857Y-7057571D01*
X15747857Y-7076619D01*
X15738333Y-7105190D01*
X15624048Y-7219476D01*
X15747857Y-7219476D01*
X15985952Y-7219476D02*
X15985952Y-7019476D01*
X16071667Y-7219476D02*
X16071667Y-7114714D01*
X16062143Y-7095667D01*
X16043095Y-7086143D01*
X16014524Y-7086143D01*
X15995476Y-7095667D01*
X15985952Y-7105190D01*
X16195476Y-7219476D02*
X16176428Y-7209952D01*
X16166905Y-7200428D01*
X16157381Y-7181381D01*
X16157381Y-7124238D01*
X16166905Y-7105190D01*
X16176428Y-7095667D01*
X16195476Y-7086143D01*
X16224048Y-7086143D01*
X16243095Y-7095667D01*
X16252619Y-7105190D01*
X16262143Y-7124238D01*
X16262143Y-7181381D01*
X16252619Y-7200428D01*
X16243095Y-7209952D01*
X16224048Y-7219476D01*
X16195476Y-7219476D01*
X16376428Y-7219476D02*
X16357381Y-7209952D01*
X16347857Y-7190905D01*
X16347857Y-7019476D01*
X16528809Y-7209952D02*
X16509762Y-7219476D01*
X16471667Y-7219476D01*
X16452619Y-7209952D01*
X16443095Y-7190905D01*
X16443095Y-7114714D01*
X16452619Y-7095667D01*
X16471667Y-7086143D01*
X16509762Y-7086143D01*
X16528809Y-7095667D01*
X16538333Y-7114714D01*
X16538333Y-7133762D01*
X16443095Y-7152809D01*
X16614524Y-7209952D02*
X16633571Y-7219476D01*
X16671667Y-7219476D01*
X16690714Y-7209952D01*
X16700238Y-7190905D01*
X16700238Y-7181381D01*
X16690714Y-7162333D01*
X16671667Y-7152809D01*
X16643095Y-7152809D01*
X16624048Y-7143286D01*
X16614524Y-7124238D01*
X16614524Y-7114714D01*
X16624048Y-7095667D01*
X16643095Y-7086143D01*
X16671667Y-7086143D01*
X16690714Y-7095667D01*
X16766905Y-7295667D02*
X16776428Y-7286143D01*
X16795476Y-7257571D01*
X16805000Y-7238524D01*
X16814524Y-7209952D01*
X16824048Y-7162333D01*
X16824048Y-7124238D01*
X16814524Y-7076619D01*
X16805000Y-7048048D01*
X16795476Y-7029000D01*
X16776428Y-7000428D01*
X16766905Y-6990905D01*
X17128810Y-7295667D02*
X17119286Y-7286143D01*
X17100238Y-7257571D01*
X17090714Y-7238524D01*
X17081190Y-7209952D01*
X17071667Y-7162333D01*
X17071667Y-7124238D01*
X17081190Y-7076619D01*
X17090714Y-7048048D01*
X17100238Y-7029000D01*
X17119286Y-7000428D01*
X17128810Y-6990905D01*
X17205000Y-7086143D02*
X17205000Y-7219476D01*
X17205000Y-7105190D02*
X17214524Y-7095667D01*
X17233571Y-7086143D01*
X17262143Y-7086143D01*
X17281190Y-7095667D01*
X17290714Y-7114714D01*
X17290714Y-7219476D01*
X17414524Y-7219476D02*
X17395476Y-7209952D01*
X17385952Y-7200428D01*
X17376429Y-7181381D01*
X17376429Y-7124238D01*
X17385952Y-7105190D01*
X17395476Y-7095667D01*
X17414524Y-7086143D01*
X17443095Y-7086143D01*
X17462143Y-7095667D01*
X17471667Y-7105190D01*
X17481190Y-7124238D01*
X17481190Y-7181381D01*
X17471667Y-7200428D01*
X17462143Y-7209952D01*
X17443095Y-7219476D01*
X17414524Y-7219476D01*
X17538333Y-7086143D02*
X17614524Y-7086143D01*
X17566905Y-7019476D02*
X17566905Y-7190905D01*
X17576429Y-7209952D01*
X17595476Y-7219476D01*
X17614524Y-7219476D01*
X17833571Y-7086143D02*
X17833571Y-7286143D01*
X17833571Y-7095667D02*
X17852619Y-7086143D01*
X17890714Y-7086143D01*
X17909762Y-7095667D01*
X17919286Y-7105190D01*
X17928810Y-7124238D01*
X17928810Y-7181381D01*
X17919286Y-7200428D01*
X17909762Y-7209952D01*
X17890714Y-7219476D01*
X17852619Y-7219476D01*
X17833571Y-7209952D01*
X18043095Y-7219476D02*
X18024048Y-7209952D01*
X18014524Y-7190905D01*
X18014524Y-7019476D01*
X18205000Y-7219476D02*
X18205000Y-7114714D01*
X18195476Y-7095667D01*
X18176429Y-7086143D01*
X18138333Y-7086143D01*
X18119286Y-7095667D01*
X18205000Y-7209952D02*
X18185952Y-7219476D01*
X18138333Y-7219476D01*
X18119286Y-7209952D01*
X18109762Y-7190905D01*
X18109762Y-7171857D01*
X18119286Y-7152809D01*
X18138333Y-7143286D01*
X18185952Y-7143286D01*
X18205000Y-7133762D01*
X18271667Y-7086143D02*
X18347857Y-7086143D01*
X18300238Y-7019476D02*
X18300238Y-7190905D01*
X18309762Y-7209952D01*
X18328810Y-7219476D01*
X18347857Y-7219476D01*
X18490714Y-7209952D02*
X18471667Y-7219476D01*
X18433571Y-7219476D01*
X18414524Y-7209952D01*
X18405000Y-7190905D01*
X18405000Y-7114714D01*
X18414524Y-7095667D01*
X18433571Y-7086143D01*
X18471667Y-7086143D01*
X18490714Y-7095667D01*
X18500238Y-7114714D01*
X18500238Y-7133762D01*
X18405000Y-7152809D01*
X18671667Y-7219476D02*
X18671667Y-7019476D01*
X18671667Y-7209952D02*
X18652619Y-7219476D01*
X18614524Y-7219476D01*
X18595476Y-7209952D01*
X18585952Y-7200428D01*
X18576429Y-7181381D01*
X18576429Y-7124238D01*
X18585952Y-7105190D01*
X18595476Y-7095667D01*
X18614524Y-7086143D01*
X18652619Y-7086143D01*
X18671667Y-7095667D01*
X18747857Y-7295667D02*
X18757381Y-7286143D01*
X18776429Y-7257571D01*
X18785952Y-7238524D01*
X18795476Y-7209952D01*
X18805000Y-7162333D01*
X18805000Y-7124238D01*
X18795476Y-7076619D01*
X18785952Y-7048048D01*
X18776429Y-7029000D01*
X18757381Y-7000428D01*
X18747857Y-6990905D01*
M02*
