%TF.GenerationSoftware,KiCad,Pcbnew,6.0.2+dfsg-1*%
%TF.CreationDate,2022-08-15T18:10:52-04:00*%
%TF.ProjectId,titan_wheel,74697461-6e5f-4776-9865-656c2e6b6963,1*%
%TF.SameCoordinates,Original*%
%TF.FileFunction,Legend,Bot*%
%TF.FilePolarity,Positive*%
%FSLAX46Y46*%
G04 Gerber Fmt 4.6, Leading zero omitted, Abs format (unit mm)*
G04 Created by KiCad (PCBNEW 6.0.2+dfsg-1) date 2022-08-15 18:10:52*
%MOMM*%
%LPD*%
G01*
G04 APERTURE LIST*
%ADD10C,0.325000*%
%ADD11C,0.150000*%
%ADD12C,0.127000*%
%ADD13C,0.120000*%
%ADD14C,2.000000*%
%ADD15C,1.440000*%
%ADD16R,1.700000X1.700000*%
%ADD17O,1.700000X1.700000*%
%ADD18C,3.200000*%
%ADD19C,2.500000*%
%ADD20C,1.000000*%
%ADD21C,1.500000*%
%ADD22O,1.600000X1.200000*%
%ADD23O,1.200000X1.200000*%
G04 APERTURE END LIST*
D10*
X164662500Y-45000000D02*
G75*
G03*
X164662500Y-45000000I-162500J0D01*
G01*
X125162500Y-45000000D02*
G75*
G03*
X125162500Y-45000000I-162500J0D01*
G01*
D11*
X160249434Y-41202380D02*
X160820863Y-41202380D01*
X160535148Y-41202380D02*
X160410148Y-40202380D01*
X160523244Y-40345238D01*
X160630386Y-40440476D01*
X160731577Y-40488095D01*
X159755386Y-40297619D02*
X159701815Y-40250000D01*
X159600625Y-40202380D01*
X159362529Y-40202380D01*
X159273244Y-40250000D01*
X159231577Y-40297619D01*
X159195863Y-40392857D01*
X159207767Y-40488095D01*
X159273244Y-40630952D01*
X159916101Y-41202380D01*
X159297053Y-41202380D01*
X158868482Y-41202380D02*
X158785148Y-40535714D01*
X158797053Y-40630952D02*
X158743482Y-40583333D01*
X158642291Y-40535714D01*
X158499434Y-40535714D01*
X158410148Y-40583333D01*
X158374434Y-40678571D01*
X158439910Y-41202380D01*
X158374434Y-40678571D02*
X158314910Y-40583333D01*
X158213720Y-40535714D01*
X158070863Y-40535714D01*
X157981577Y-40583333D01*
X157945863Y-40678571D01*
X158011339Y-41202380D01*
X157535148Y-41202380D02*
X157451815Y-40535714D01*
X157463720Y-40630952D02*
X157410148Y-40583333D01*
X157308958Y-40535714D01*
X157166101Y-40535714D01*
X157076815Y-40583333D01*
X157041101Y-40678571D01*
X157106577Y-41202380D01*
X157041101Y-40678571D02*
X156981577Y-40583333D01*
X156880386Y-40535714D01*
X156737529Y-40535714D01*
X156648244Y-40583333D01*
X156612529Y-40678571D01*
X156678005Y-41202380D01*
X155011339Y-41202380D02*
X154886339Y-40202380D01*
X155005386Y-41154761D02*
X155106577Y-41202380D01*
X155297053Y-41202380D01*
X155386339Y-41154761D01*
X155428005Y-41107142D01*
X155463720Y-41011904D01*
X155428005Y-40726190D01*
X155368482Y-40630952D01*
X155314910Y-40583333D01*
X155213720Y-40535714D01*
X155023244Y-40535714D01*
X154933958Y-40583333D01*
X154535148Y-41202380D02*
X154451815Y-40535714D01*
X154475625Y-40726190D02*
X154416101Y-40630952D01*
X154362529Y-40583333D01*
X154261339Y-40535714D01*
X154166101Y-40535714D01*
X153916101Y-41202380D02*
X153832767Y-40535714D01*
X153791101Y-40202380D02*
X153844672Y-40250000D01*
X153803005Y-40297619D01*
X153749434Y-40250000D01*
X153791101Y-40202380D01*
X153803005Y-40297619D01*
X153297053Y-41202380D02*
X153386339Y-41154761D01*
X153422053Y-41059523D01*
X153314910Y-40202380D01*
X152773244Y-41202380D02*
X152862529Y-41154761D01*
X152898244Y-41059523D01*
X152791101Y-40202380D01*
X151689910Y-40535714D02*
X151308958Y-40535714D01*
X151630386Y-41202380D02*
X151523244Y-40345238D01*
X151463720Y-40250000D01*
X151362529Y-40202380D01*
X151267291Y-40202380D01*
X150916101Y-41202380D02*
X151005386Y-41154761D01*
X151047053Y-41107142D01*
X151082767Y-41011904D01*
X151047053Y-40726190D01*
X150987529Y-40630952D01*
X150933958Y-40583333D01*
X150832767Y-40535714D01*
X150689910Y-40535714D01*
X150600625Y-40583333D01*
X150558958Y-40630952D01*
X150523244Y-40726190D01*
X150558958Y-41011904D01*
X150618482Y-41107142D01*
X150672053Y-41154761D01*
X150773244Y-41202380D01*
X150916101Y-41202380D01*
X150154196Y-41202380D02*
X150070863Y-40535714D01*
X150094672Y-40726190D02*
X150035148Y-40630952D01*
X149981577Y-40583333D01*
X149880386Y-40535714D01*
X149785148Y-40535714D01*
X148832767Y-40535714D02*
X148451815Y-40535714D01*
X148648244Y-40202380D02*
X148755386Y-41059523D01*
X148719672Y-41154761D01*
X148630386Y-41202380D01*
X148535148Y-41202380D01*
X148201815Y-41202380D02*
X148076815Y-40202380D01*
X147773244Y-41202380D02*
X147707767Y-40678571D01*
X147743482Y-40583333D01*
X147832767Y-40535714D01*
X147975625Y-40535714D01*
X148076815Y-40583333D01*
X148130386Y-40630952D01*
X146910148Y-41154761D02*
X147011339Y-41202380D01*
X147201815Y-41202380D01*
X147291101Y-41154761D01*
X147326815Y-41059523D01*
X147279196Y-40678571D01*
X147219672Y-40583333D01*
X147118482Y-40535714D01*
X146928005Y-40535714D01*
X146838720Y-40583333D01*
X146803005Y-40678571D01*
X146814910Y-40773809D01*
X147303005Y-40869047D01*
X145719672Y-41154761D02*
X145630386Y-41202380D01*
X145439910Y-41202380D01*
X145338720Y-41154761D01*
X145279196Y-41059523D01*
X145273244Y-41011904D01*
X145308958Y-40916666D01*
X145398244Y-40869047D01*
X145541101Y-40869047D01*
X145630386Y-40821428D01*
X145666101Y-40726190D01*
X145660148Y-40678571D01*
X145600625Y-40583333D01*
X145499434Y-40535714D01*
X145356577Y-40535714D01*
X145267291Y-40583333D01*
X144481577Y-41154761D02*
X144582767Y-41202380D01*
X144773244Y-41202380D01*
X144862529Y-41154761D01*
X144898244Y-41059523D01*
X144850625Y-40678571D01*
X144791101Y-40583333D01*
X144689910Y-40535714D01*
X144499434Y-40535714D01*
X144410148Y-40583333D01*
X144374434Y-40678571D01*
X144386339Y-40773809D01*
X144874434Y-40869047D01*
X143928005Y-40535714D02*
X144011339Y-41202380D01*
X143939910Y-40630952D02*
X143886339Y-40583333D01*
X143785148Y-40535714D01*
X143642291Y-40535714D01*
X143553005Y-40583333D01*
X143517291Y-40678571D01*
X143582767Y-41202380D01*
X143148244Y-41154761D02*
X143058958Y-41202380D01*
X142868482Y-41202380D01*
X142767291Y-41154761D01*
X142707767Y-41059523D01*
X142701815Y-41011904D01*
X142737529Y-40916666D01*
X142826815Y-40869047D01*
X142969672Y-40869047D01*
X143058958Y-40821428D01*
X143094672Y-40726190D01*
X143088720Y-40678571D01*
X143029196Y-40583333D01*
X142928005Y-40535714D01*
X142785148Y-40535714D01*
X142695863Y-40583333D01*
X142154196Y-41202380D02*
X142243482Y-41154761D01*
X142285148Y-41107142D01*
X142320863Y-41011904D01*
X142285148Y-40726190D01*
X142225625Y-40630952D01*
X142172053Y-40583333D01*
X142070863Y-40535714D01*
X141928005Y-40535714D01*
X141838720Y-40583333D01*
X141797053Y-40630952D01*
X141761339Y-40726190D01*
X141797053Y-41011904D01*
X141856577Y-41107142D01*
X141910148Y-41154761D01*
X142011339Y-41202380D01*
X142154196Y-41202380D01*
X141392291Y-41202380D02*
X141308958Y-40535714D01*
X141332767Y-40726190D02*
X141273244Y-40630952D01*
X141219672Y-40583333D01*
X141118482Y-40535714D01*
X141023244Y-40535714D01*
X140814910Y-41154761D02*
X140725625Y-41202380D01*
X140535148Y-41202380D01*
X140433958Y-41154761D01*
X140374434Y-41059523D01*
X140368482Y-41011904D01*
X140404196Y-40916666D01*
X140493482Y-40869047D01*
X140636339Y-40869047D01*
X140725625Y-40821428D01*
X140761339Y-40726190D01*
X140755386Y-40678571D01*
X140695863Y-40583333D01*
X140594672Y-40535714D01*
X140451815Y-40535714D01*
X140362529Y-40583333D01*
X139058958Y-41202380D02*
X139148244Y-41154761D01*
X139189910Y-41107142D01*
X139225625Y-41011904D01*
X139189910Y-40726190D01*
X139130386Y-40630952D01*
X139076815Y-40583333D01*
X138975625Y-40535714D01*
X138832767Y-40535714D01*
X138743482Y-40583333D01*
X138701815Y-40630952D01*
X138666101Y-40726190D01*
X138701815Y-41011904D01*
X138761339Y-41107142D01*
X138814910Y-41154761D01*
X138916101Y-41202380D01*
X139058958Y-41202380D01*
X138213720Y-40535714D02*
X138297053Y-41202380D01*
X138225625Y-40630952D02*
X138172053Y-40583333D01*
X138070863Y-40535714D01*
X137928005Y-40535714D01*
X137838720Y-40583333D01*
X137803005Y-40678571D01*
X137868482Y-41202380D01*
X136201815Y-41202380D02*
X136076815Y-40202380D01*
X136195863Y-41154761D02*
X136297053Y-41202380D01*
X136487529Y-41202380D01*
X136576815Y-41154761D01*
X136618482Y-41107142D01*
X136654196Y-41011904D01*
X136618482Y-40726190D01*
X136558958Y-40630952D01*
X136505386Y-40583333D01*
X136404196Y-40535714D01*
X136213720Y-40535714D01*
X136124434Y-40583333D01*
X135582767Y-41202380D02*
X135672053Y-41154761D01*
X135713720Y-41107142D01*
X135749434Y-41011904D01*
X135713720Y-40726190D01*
X135654196Y-40630952D01*
X135600625Y-40583333D01*
X135499434Y-40535714D01*
X135356577Y-40535714D01*
X135267291Y-40583333D01*
X135225625Y-40630952D01*
X135189910Y-40726190D01*
X135225625Y-41011904D01*
X135285148Y-41107142D01*
X135338720Y-41154761D01*
X135439910Y-41202380D01*
X135582767Y-41202380D01*
X134880386Y-40535714D02*
X134499434Y-40535714D01*
X134695863Y-40202380D02*
X134803005Y-41059523D01*
X134767291Y-41154761D01*
X134678005Y-41202380D01*
X134582767Y-41202380D01*
X134291101Y-41154761D02*
X134201815Y-41202380D01*
X134011339Y-41202380D01*
X133910148Y-41154761D01*
X133850625Y-41059523D01*
X133844672Y-41011904D01*
X133880386Y-40916666D01*
X133969672Y-40869047D01*
X134112529Y-40869047D01*
X134201815Y-40821428D01*
X134237529Y-40726190D01*
X134231577Y-40678571D01*
X134172053Y-40583333D01*
X134070863Y-40535714D01*
X133928005Y-40535714D01*
X133838720Y-40583333D01*
X162869047Y-57202380D02*
X162869047Y-57916666D01*
X162916666Y-58059523D01*
X163011904Y-58154761D01*
X163154761Y-58202380D01*
X163250000Y-58202380D01*
X161916666Y-58202380D02*
X162392857Y-58202380D01*
X162392857Y-57202380D01*
X161011904Y-58107142D02*
X161059523Y-58154761D01*
X161202380Y-58202380D01*
X161297619Y-58202380D01*
X161440476Y-58154761D01*
X161535714Y-58059523D01*
X161583333Y-57964285D01*
X161630952Y-57773809D01*
X161630952Y-57630952D01*
X161583333Y-57440476D01*
X161535714Y-57345238D01*
X161440476Y-57250000D01*
X161297619Y-57202380D01*
X161202380Y-57202380D01*
X161059523Y-57250000D01*
X161011904Y-57297619D01*
X160297619Y-57202380D02*
X160297619Y-57916666D01*
X160345238Y-58059523D01*
X160440476Y-58154761D01*
X160583333Y-58202380D01*
X160678571Y-58202380D01*
X159345238Y-58202380D02*
X159821428Y-58202380D01*
X159821428Y-57202380D01*
X158440476Y-58107142D02*
X158488095Y-58154761D01*
X158630952Y-58202380D01*
X158726190Y-58202380D01*
X158869047Y-58154761D01*
X158964285Y-58059523D01*
X159011904Y-57964285D01*
X159059523Y-57773809D01*
X159059523Y-57630952D01*
X159011904Y-57440476D01*
X158964285Y-57345238D01*
X158869047Y-57250000D01*
X158726190Y-57202380D01*
X158630952Y-57202380D01*
X158488095Y-57250000D01*
X158440476Y-57297619D01*
X157726190Y-57202380D02*
X157726190Y-57916666D01*
X157773809Y-58059523D01*
X157869047Y-58154761D01*
X158011904Y-58202380D01*
X158107142Y-58202380D01*
X156773809Y-58202380D02*
X157250000Y-58202380D01*
X157250000Y-57202380D01*
X155869047Y-58107142D02*
X155916666Y-58154761D01*
X156059523Y-58202380D01*
X156154761Y-58202380D01*
X156297619Y-58154761D01*
X156392857Y-58059523D01*
X156440476Y-57964285D01*
X156488095Y-57773809D01*
X156488095Y-57630952D01*
X156440476Y-57440476D01*
X156392857Y-57345238D01*
X156297619Y-57250000D01*
X156154761Y-57202380D01*
X156059523Y-57202380D01*
X155916666Y-57250000D01*
X155869047Y-57297619D01*
X155154761Y-57202380D02*
X155154761Y-57916666D01*
X155202380Y-58059523D01*
X155297619Y-58154761D01*
X155440476Y-58202380D01*
X155535714Y-58202380D01*
X154202380Y-58202380D02*
X154678571Y-58202380D01*
X154678571Y-57202380D01*
X153297619Y-58107142D02*
X153345238Y-58154761D01*
X153488095Y-58202380D01*
X153583333Y-58202380D01*
X153726190Y-58154761D01*
X153821428Y-58059523D01*
X153869047Y-57964285D01*
X153916666Y-57773809D01*
X153916666Y-57630952D01*
X153869047Y-57440476D01*
X153821428Y-57345238D01*
X153726190Y-57250000D01*
X153583333Y-57202380D01*
X153488095Y-57202380D01*
X153345238Y-57250000D01*
X153297619Y-57297619D01*
X151023809Y-50452380D02*
X151023809Y-49452380D01*
X150690476Y-50166666D01*
X150357142Y-49452380D01*
X150357142Y-50452380D01*
X149976190Y-49452380D02*
X149357142Y-49452380D01*
X149690476Y-49833333D01*
X149547619Y-49833333D01*
X149452380Y-49880952D01*
X149404761Y-49928571D01*
X149357142Y-50023809D01*
X149357142Y-50261904D01*
X149404761Y-50357142D01*
X149452380Y-50404761D01*
X149547619Y-50452380D01*
X149833333Y-50452380D01*
X149928571Y-50404761D01*
X149976190Y-50357142D01*
X148166666Y-50452380D02*
X148166666Y-49785714D01*
X148166666Y-49880952D02*
X148119047Y-49833333D01*
X148023809Y-49785714D01*
X147880952Y-49785714D01*
X147785714Y-49833333D01*
X147738095Y-49928571D01*
X147738095Y-50452380D01*
X147738095Y-49928571D02*
X147690476Y-49833333D01*
X147595238Y-49785714D01*
X147452380Y-49785714D01*
X147357142Y-49833333D01*
X147309523Y-49928571D01*
X147309523Y-50452380D01*
X146690476Y-50452380D02*
X146785714Y-50404761D01*
X146833333Y-50357142D01*
X146880952Y-50261904D01*
X146880952Y-49976190D01*
X146833333Y-49880952D01*
X146785714Y-49833333D01*
X146690476Y-49785714D01*
X146547619Y-49785714D01*
X146452380Y-49833333D01*
X146404761Y-49880952D01*
X146357142Y-49976190D01*
X146357142Y-50261904D01*
X146404761Y-50357142D01*
X146452380Y-50404761D01*
X146547619Y-50452380D01*
X146690476Y-50452380D01*
X145500000Y-49785714D02*
X145500000Y-50452380D01*
X145928571Y-49785714D02*
X145928571Y-50309523D01*
X145880952Y-50404761D01*
X145785714Y-50452380D01*
X145642857Y-50452380D01*
X145547619Y-50404761D01*
X145500000Y-50357142D01*
X145023809Y-49785714D02*
X145023809Y-50452380D01*
X145023809Y-49880952D02*
X144976190Y-49833333D01*
X144880952Y-49785714D01*
X144738095Y-49785714D01*
X144642857Y-49833333D01*
X144595238Y-49928571D01*
X144595238Y-50452380D01*
X144261904Y-49785714D02*
X143880952Y-49785714D01*
X144119047Y-49452380D02*
X144119047Y-50309523D01*
X144071428Y-50404761D01*
X143976190Y-50452380D01*
X143880952Y-50452380D01*
X143547619Y-50452380D02*
X143547619Y-49785714D01*
X143547619Y-49452380D02*
X143595238Y-49500000D01*
X143547619Y-49547619D01*
X143500000Y-49500000D01*
X143547619Y-49452380D01*
X143547619Y-49547619D01*
X143071428Y-49785714D02*
X143071428Y-50452380D01*
X143071428Y-49880952D02*
X143023809Y-49833333D01*
X142928571Y-49785714D01*
X142785714Y-49785714D01*
X142690476Y-49833333D01*
X142642857Y-49928571D01*
X142642857Y-50452380D01*
X141738095Y-49785714D02*
X141738095Y-50595238D01*
X141785714Y-50690476D01*
X141833333Y-50738095D01*
X141928571Y-50785714D01*
X142071428Y-50785714D01*
X142166666Y-50738095D01*
X141738095Y-50404761D02*
X141833333Y-50452380D01*
X142023809Y-50452380D01*
X142119047Y-50404761D01*
X142166666Y-50357142D01*
X142214285Y-50261904D01*
X142214285Y-49976190D01*
X142166666Y-49880952D01*
X142119047Y-49833333D01*
X142023809Y-49785714D01*
X141833333Y-49785714D01*
X141738095Y-49833333D01*
X140500000Y-50452380D02*
X140500000Y-49452380D01*
X140071428Y-50452380D02*
X140071428Y-49928571D01*
X140119047Y-49833333D01*
X140214285Y-49785714D01*
X140357142Y-49785714D01*
X140452380Y-49833333D01*
X140500000Y-49880952D01*
X139452380Y-50452380D02*
X139547619Y-50404761D01*
X139595238Y-50357142D01*
X139642857Y-50261904D01*
X139642857Y-49976190D01*
X139595238Y-49880952D01*
X139547619Y-49833333D01*
X139452380Y-49785714D01*
X139309523Y-49785714D01*
X139214285Y-49833333D01*
X139166666Y-49880952D01*
X139119047Y-49976190D01*
X139119047Y-50261904D01*
X139166666Y-50357142D01*
X139214285Y-50404761D01*
X139309523Y-50452380D01*
X139452380Y-50452380D01*
X138547619Y-50452380D02*
X138642857Y-50404761D01*
X138690476Y-50309523D01*
X138690476Y-49452380D01*
X137785714Y-50404761D02*
X137880952Y-50452380D01*
X138071428Y-50452380D01*
X138166666Y-50404761D01*
X138214285Y-50309523D01*
X138214285Y-49928571D01*
X138166666Y-49833333D01*
X138071428Y-49785714D01*
X137880952Y-49785714D01*
X137785714Y-49833333D01*
X137738095Y-49928571D01*
X137738095Y-50023809D01*
X138214285Y-50119047D01*
X137357142Y-50404761D02*
X137261904Y-50452380D01*
X137071428Y-50452380D01*
X136976190Y-50404761D01*
X136928571Y-50309523D01*
X136928571Y-50261904D01*
X136976190Y-50166666D01*
X137071428Y-50119047D01*
X137214285Y-50119047D01*
X137309523Y-50071428D01*
X137357142Y-49976190D01*
X137357142Y-49928571D01*
X137309523Y-49833333D01*
X137214285Y-49785714D01*
X137071428Y-49785714D01*
X136976190Y-49833333D01*
X160200121Y-48234951D02*
X161012985Y-48234951D01*
X161108616Y-48282767D01*
X161156431Y-48330582D01*
X161204247Y-48426213D01*
X161204247Y-48617475D01*
X161156431Y-48713106D01*
X161108616Y-48760922D01*
X161012985Y-48808737D01*
X160200121Y-48808737D01*
X160295752Y-49239077D02*
X160247937Y-49286893D01*
X160200121Y-49382524D01*
X160200121Y-49621601D01*
X160247937Y-49717232D01*
X160295752Y-49765048D01*
X160391383Y-49812863D01*
X160487014Y-49812863D01*
X160630461Y-49765048D01*
X161204247Y-49191262D01*
X161204247Y-49812863D01*
X130261904Y-47452380D02*
X130261904Y-48261904D01*
X130214285Y-48357142D01*
X130166666Y-48404761D01*
X130071428Y-48452380D01*
X129880952Y-48452380D01*
X129785714Y-48404761D01*
X129738095Y-48357142D01*
X129690476Y-48261904D01*
X129690476Y-47452380D01*
X129309523Y-47452380D02*
X128690476Y-47452380D01*
X129023809Y-47833333D01*
X128880952Y-47833333D01*
X128785714Y-47880952D01*
X128738095Y-47928571D01*
X128690476Y-48023809D01*
X128690476Y-48261904D01*
X128738095Y-48357142D01*
X128785714Y-48404761D01*
X128880952Y-48452380D01*
X129166666Y-48452380D01*
X129261904Y-48404761D01*
X129309523Y-48357142D01*
D12*
X161550000Y-40900000D02*
X163100000Y-39350000D01*
X167450000Y-40900000D02*
X167450000Y-43330000D01*
X161550000Y-48500000D02*
X161550000Y-45670000D01*
X162700000Y-49650000D02*
X167450000Y-49650000D01*
X163100000Y-39350000D02*
X165900000Y-39350000D01*
X167450000Y-49650000D02*
X167450000Y-45670000D01*
X167450000Y-40900000D02*
X165900000Y-39350000D01*
X161550000Y-43330000D02*
X161550000Y-40900000D01*
D13*
X128888039Y-39334144D02*
X129665856Y-40111961D01*
X129665856Y-40111961D02*
X128774902Y-41002916D01*
X127997084Y-40225098D02*
X128888039Y-39334144D01*
X127997084Y-40225098D02*
G75*
G03*
X128774674Y-41002629I-2997084J-3774902D01*
G01*
%LPC*%
D14*
X157770000Y-43000000D03*
X155230000Y-43000000D03*
D15*
X150275000Y-54675000D03*
X147735000Y-52135000D03*
X145195000Y-54675000D03*
D16*
X122425000Y-56500000D03*
D17*
X124965000Y-56500000D03*
X127505000Y-56500000D03*
X130045000Y-56500000D03*
X132585000Y-56500000D03*
D18*
X154500000Y-49000000D03*
D14*
X132000000Y-41730000D03*
X132000000Y-44270000D03*
D15*
X142525000Y-54675000D03*
X139985000Y-52135000D03*
X137445000Y-54675000D03*
D14*
X135980000Y-43000000D03*
X138520000Y-43000000D03*
D18*
X133500000Y-49000000D03*
D14*
X152020000Y-43000000D03*
X149480000Y-43000000D03*
D16*
X122425000Y-52500000D03*
D17*
X124965000Y-52500000D03*
X127505000Y-52500000D03*
X130045000Y-52500000D03*
D19*
X166400000Y-44500000D03*
D20*
X162050000Y-49150000D03*
D19*
X162600000Y-44500000D03*
D21*
X165770000Y-41750000D03*
X163230000Y-41750000D03*
X165770000Y-47250000D03*
X163230000Y-47250000D03*
D22*
X127540000Y-44000000D03*
D23*
X125000000Y-46540000D03*
X122460000Y-44000000D03*
X125000000Y-41460000D03*
M02*
