M48
; DRILL file {KiCad 5.1.7-a382d34a8~88~ubuntu20.04.1} date Mon Feb  1 19:53:47 2021
; FORMAT={-:-/ absolute / inch / decimal}
; #@! TF.CreationDate,2021-02-01T19:53:47-05:00
; #@! TF.GenerationSoftware,Kicad,Pcbnew,5.1.7-a382d34a8~88~ubuntu20.04.1
; #@! TF.FileFunction,Plated,1,2,PTH
FMAT,2
INCH
T1C0.0157
T2C0.0276
T3C0.0300
T4C0.0315
T5C0.0394
T6C0.0433
%
G90
G05
T1
X4.1142Y-4.4685
X4.1225Y-4.5374
X4.1535Y-4.6654
X4.311Y-4.2746
X4.372Y-4.8228
X4.3898Y-4.6063
X4.4488Y-4.6063
X4.4882Y-4.4011
X4.6161Y-4.4685
X4.7835Y-4.2126
X4.7933Y-4.498
X4.8524Y-4.7146
X4.8917Y-4.498
X4.9016Y-4.7146
X4.9311Y-4.9508
X4.9606Y-4.9114
X4.9705Y-4.6457
X4.9803Y-4.2126
X4.9928Y-5.0984
X4.999Y-5.0443
X5.0Y-4.872
X5.0678Y-4.8928
X5.0704Y-5.2264
X5.0984Y-4.8622
X5.1068Y-4.7441
X5.1575Y-5.3642
X5.1693Y-4.685
X5.2067Y-5.2953
X5.2461Y-5.1476
X5.2515Y-5.297
X5.2549Y-4.4429
X5.2854Y-5.065
X5.2854Y-5.1083
X5.3051Y-4.4816
X5.3445Y-4.5866
X5.374Y-5.4838
X5.3937Y-4.6555
X5.3937Y-4.8031
X5.4232Y-5.2249
X5.4316Y-4.8622
X5.5998Y-5.1358
X5.7087Y-4.9764
X5.7382Y-4.9311
X5.8071Y-4.6063
X6.1811Y-4.7913
X6.3287Y-4.7933
T2
X5.311Y-5.628
X5.3425Y-5.6752
X5.374Y-5.628
X5.4055Y-5.6752
X5.437Y-5.628
T3
X5.9744Y-4.0701
X5.9744Y-4.1701
X5.9744Y-4.2701
X5.9744Y-4.3701
X5.9744Y-4.4701
X5.9744Y-4.5701
X5.9744Y-4.6701
X5.9744Y-4.7701
X5.9744Y-4.8701
X4.7933Y-5.7268
X4.7933Y-5.8268
X4.8933Y-5.7268
X4.8933Y-5.8268
X4.9933Y-5.7268
X4.9933Y-5.8268
X5.0933Y-5.7268
X5.0933Y-5.8268
T4
X5.9843Y-5.0839
X5.9843Y-5.1839
X5.9843Y-5.2839
X5.9843Y-5.3839
X5.3921Y-4.498
X5.4921Y-4.498
X5.5921Y-4.498
T5
X5.8071Y-5.1248
X5.8071Y-5.2248
X5.8071Y-5.3248
X5.8071Y-5.4248
X5.1772Y-4.2224
X5.2772Y-4.2224
X5.3772Y-4.2224
X5.4772Y-4.2224
X5.5772Y-4.2224
X5.6772Y-4.2224
X4.6949Y-4.311
X4.7949Y-4.311
X4.8949Y-4.311
X4.9949Y-4.311
X4.2567Y-3.8083
X4.2567Y-3.9083
X4.3567Y-3.8083
X4.3567Y-3.9083
X4.4567Y-3.8083
X4.4567Y-3.9083
X4.5567Y-3.8083
X4.5567Y-3.9083
X4.6567Y-3.8083
X4.6567Y-3.9083
X4.7567Y-3.8083
X4.7567Y-3.9083
X4.8567Y-3.8083
X4.8567Y-3.9083
X4.9567Y-3.8083
X4.9567Y-3.9083
X5.0567Y-3.8083
X5.0567Y-3.9083
X5.1567Y-3.8083
X5.1567Y-3.9083
X5.2567Y-3.8083
X5.2567Y-3.9083
X5.3567Y-3.8083
X5.3567Y-3.9083
X5.4567Y-3.8083
X5.4567Y-3.9083
X5.5567Y-3.8083
X5.5567Y-3.9083
X5.6567Y-3.8083
X5.6567Y-3.9083
X5.7567Y-3.8083
X5.7567Y-3.9083
X5.8567Y-3.8083
X5.8567Y-3.9083
X5.9567Y-3.8083
X5.9567Y-3.9083
X6.0567Y-3.8083
X6.0567Y-3.9083
X6.1567Y-3.8083
X6.1567Y-3.9083
X5.6102Y-4.8031
X5.6102Y-4.9031
X5.6102Y-5.0031
T6
X5.9252Y-5.5709
X5.9252Y-5.8268
X6.1024Y-5.5709
X6.1024Y-5.8268
X4.2815Y-5.6693
X4.2815Y-5.8465
X4.5374Y-5.6693
X4.5374Y-5.8465
X4.6752Y-5.0295
X4.6752Y-5.2854
X4.8524Y-5.0295
X4.8524Y-5.2854
T4
G00X4.252Y-4.7894
M15
G01X4.252Y-4.876
M16
G05
G00X4.3189Y-5.0217
M15
G01X4.4055Y-5.0217
M16
G05
G00X4.4803Y-4.7815
M15
G01X4.4803Y-4.8839
M16
G05
G00X5.2303Y-5.8051
M15
G01X5.2303Y-5.8484
M16
G05
G00X5.5177Y-5.8051
M15
G01X5.5177Y-5.8484
M16
G05
G00X4.25Y-5.3209
M15
G01X4.25Y-5.4075
M16
G05
G00X4.3169Y-5.5531
M15
G01X4.4035Y-5.5531
M16
G05
G00X4.4783Y-5.313
M15
G01X4.4783Y-5.4154
M16
G05
T0
M30
