G04 #@! TF.GenerationSoftware,KiCad,Pcbnew,6.0.2+dfsg-1*
G04 #@! TF.CreationDate,2022-08-15T18:06:50-04:00*
G04 #@! TF.ProjectId,titan_2022,74697461-6e5f-4323-9032-322e6b696361,1.2*
G04 #@! TF.SameCoordinates,Original*
G04 #@! TF.FileFunction,Legend,Bot*
G04 #@! TF.FilePolarity,Positive*
%FSLAX46Y46*%
G04 Gerber Fmt 4.6, Leading zero omitted, Abs format (unit mm)*
G04 Created by KiCad (PCBNEW 6.0.2+dfsg-1) date 2022-08-15 18:06:50*
%MOMM*%
%LPD*%
G01*
G04 APERTURE LIST*
G04 Aperture macros list*
%AMRoundRect*
0 Rectangle with rounded corners*
0 $1 Rounding radius*
0 $2 $3 $4 $5 $6 $7 $8 $9 X,Y pos of 4 corners*
0 Add a 4 corners polygon primitive as box body*
4,1,4,$2,$3,$4,$5,$6,$7,$8,$9,$2,$3,0*
0 Add four circle primitives for the rounded corners*
1,1,$1+$1,$2,$3*
1,1,$1+$1,$4,$5*
1,1,$1+$1,$6,$7*
1,1,$1+$1,$8,$9*
0 Add four rect primitives between the rounded corners*
20,1,$1+$1,$2,$3,$4,$5,0*
20,1,$1+$1,$4,$5,$6,$7,0*
20,1,$1+$1,$6,$7,$8,$9,0*
20,1,$1+$1,$8,$9,$2,$3,0*%
G04 Aperture macros list end*
%ADD10C,0.250000*%
%ADD11C,0.150000*%
%ADD12C,0.120000*%
%ADD13C,2.700000*%
%ADD14C,2.000000*%
%ADD15R,1.700000X1.700000*%
%ADD16O,1.700000X1.700000*%
%ADD17R,1.524000X1.524000*%
%ADD18C,1.524000*%
%ADD19C,1.208000*%
%ADD20O,1.700000X2.900000*%
%ADD21O,1.700000X2.980000*%
%ADD22R,1.800000X4.400000*%
%ADD23O,1.800000X4.000000*%
%ADD24O,4.000000X1.800000*%
%ADD25RoundRect,0.250000X0.620000X0.845000X-0.620000X0.845000X-0.620000X-0.845000X0.620000X-0.845000X0*%
%ADD26O,1.740000X2.190000*%
%ADD27RoundRect,0.249999X1.300001X-1.300001X1.300001X1.300001X-1.300001X1.300001X-1.300001X-1.300001X0*%
%ADD28C,3.100000*%
G04 APERTURE END LIST*
D10*
X148250000Y-69702380D02*
X148250000Y-68702380D01*
X148011904Y-68702380D01*
X147869047Y-68750000D01*
X147773809Y-68845238D01*
X147726190Y-68940476D01*
X147678571Y-69130952D01*
X147678571Y-69273809D01*
X147726190Y-69464285D01*
X147773809Y-69559523D01*
X147869047Y-69654761D01*
X148011904Y-69702380D01*
X148250000Y-69702380D01*
X146821428Y-69702380D02*
X146821428Y-69178571D01*
X146869047Y-69083333D01*
X146964285Y-69035714D01*
X147154761Y-69035714D01*
X147250000Y-69083333D01*
X146821428Y-69654761D02*
X146916666Y-69702380D01*
X147154761Y-69702380D01*
X147250000Y-69654761D01*
X147297619Y-69559523D01*
X147297619Y-69464285D01*
X147250000Y-69369047D01*
X147154761Y-69321428D01*
X146916666Y-69321428D01*
X146821428Y-69273809D01*
X146488095Y-69035714D02*
X146107142Y-69035714D01*
X146345238Y-68702380D02*
X146345238Y-69559523D01*
X146297619Y-69654761D01*
X146202380Y-69702380D01*
X146107142Y-69702380D01*
X145345238Y-69702380D02*
X145345238Y-69178571D01*
X145392857Y-69083333D01*
X145488095Y-69035714D01*
X145678571Y-69035714D01*
X145773809Y-69083333D01*
X145345238Y-69654761D02*
X145440476Y-69702380D01*
X145678571Y-69702380D01*
X145773809Y-69654761D01*
X145821428Y-69559523D01*
X145821428Y-69464285D01*
X145773809Y-69369047D01*
X145678571Y-69321428D01*
X145440476Y-69321428D01*
X145345238Y-69273809D01*
X143678571Y-69654761D02*
X143773809Y-69702380D01*
X143964285Y-69702380D01*
X144059523Y-69654761D01*
X144107142Y-69607142D01*
X144154761Y-69511904D01*
X144154761Y-69226190D01*
X144107142Y-69130952D01*
X144059523Y-69083333D01*
X143964285Y-69035714D01*
X143773809Y-69035714D01*
X143678571Y-69083333D01*
X143107142Y-69702380D02*
X143202380Y-69654761D01*
X143250000Y-69607142D01*
X143297619Y-69511904D01*
X143297619Y-69226190D01*
X143250000Y-69130952D01*
X143202380Y-69083333D01*
X143107142Y-69035714D01*
X142964285Y-69035714D01*
X142869047Y-69083333D01*
X142821428Y-69130952D01*
X142773809Y-69226190D01*
X142773809Y-69511904D01*
X142821428Y-69607142D01*
X142869047Y-69654761D01*
X142964285Y-69702380D01*
X143107142Y-69702380D01*
X142202380Y-69702380D02*
X142297619Y-69654761D01*
X142345238Y-69559523D01*
X142345238Y-68702380D01*
X141678571Y-69702380D02*
X141773809Y-69654761D01*
X141821428Y-69559523D01*
X141821428Y-68702380D01*
X140916666Y-69654761D02*
X141011904Y-69702380D01*
X141202380Y-69702380D01*
X141297619Y-69654761D01*
X141345238Y-69559523D01*
X141345238Y-69178571D01*
X141297619Y-69083333D01*
X141202380Y-69035714D01*
X141011904Y-69035714D01*
X140916666Y-69083333D01*
X140869047Y-69178571D01*
X140869047Y-69273809D01*
X141345238Y-69369047D01*
X140011904Y-69654761D02*
X140107142Y-69702380D01*
X140297619Y-69702380D01*
X140392857Y-69654761D01*
X140440476Y-69607142D01*
X140488095Y-69511904D01*
X140488095Y-69226190D01*
X140440476Y-69130952D01*
X140392857Y-69083333D01*
X140297619Y-69035714D01*
X140107142Y-69035714D01*
X140011904Y-69083333D01*
X139726190Y-69035714D02*
X139345238Y-69035714D01*
X139583333Y-68702380D02*
X139583333Y-69559523D01*
X139535714Y-69654761D01*
X139440476Y-69702380D01*
X139345238Y-69702380D01*
X138630952Y-69654761D02*
X138726190Y-69702380D01*
X138916666Y-69702380D01*
X139011904Y-69654761D01*
X139059523Y-69559523D01*
X139059523Y-69178571D01*
X139011904Y-69083333D01*
X138916666Y-69035714D01*
X138726190Y-69035714D01*
X138630952Y-69083333D01*
X138583333Y-69178571D01*
X138583333Y-69273809D01*
X139059523Y-69369047D01*
X137726190Y-69702380D02*
X137726190Y-68702380D01*
X137726190Y-69654761D02*
X137821428Y-69702380D01*
X138011904Y-69702380D01*
X138107142Y-69654761D01*
X138154761Y-69607142D01*
X138202380Y-69511904D01*
X138202380Y-69226190D01*
X138154761Y-69130952D01*
X138107142Y-69083333D01*
X138011904Y-69035714D01*
X137821428Y-69035714D01*
X137726190Y-69083333D01*
X137250000Y-69607142D02*
X137202380Y-69654761D01*
X137250000Y-69702380D01*
X137297619Y-69654761D01*
X137250000Y-69607142D01*
X137250000Y-69702380D01*
X137250000Y-69083333D02*
X137202380Y-69130952D01*
X137250000Y-69178571D01*
X137297619Y-69130952D01*
X137250000Y-69083333D01*
X137250000Y-69178571D01*
X124476190Y-84452380D02*
X123904761Y-84452380D01*
X124190476Y-85452380D02*
X124190476Y-84452380D01*
X123571428Y-85452380D02*
X123571428Y-84452380D01*
X123238095Y-84452380D02*
X122666666Y-84452380D01*
X122952380Y-85452380D02*
X122952380Y-84452380D01*
X122380952Y-85166666D02*
X121904761Y-85166666D01*
X122476190Y-85452380D02*
X122142857Y-84452380D01*
X121809523Y-85452380D01*
X121476190Y-85452380D02*
X121476190Y-84452380D01*
X120904761Y-85452380D01*
X120904761Y-84452380D01*
X119714285Y-84547619D02*
X119666666Y-84500000D01*
X119571428Y-84452380D01*
X119333333Y-84452380D01*
X119238095Y-84500000D01*
X119190476Y-84547619D01*
X119142857Y-84642857D01*
X119142857Y-84738095D01*
X119190476Y-84880952D01*
X119761904Y-85452380D01*
X119142857Y-85452380D01*
X118523809Y-84452380D02*
X118428571Y-84452380D01*
X118333333Y-84500000D01*
X118285714Y-84547619D01*
X118238095Y-84642857D01*
X118190476Y-84833333D01*
X118190476Y-85071428D01*
X118238095Y-85261904D01*
X118285714Y-85357142D01*
X118333333Y-85404761D01*
X118428571Y-85452380D01*
X118523809Y-85452380D01*
X118619047Y-85404761D01*
X118666666Y-85357142D01*
X118714285Y-85261904D01*
X118761904Y-85071428D01*
X118761904Y-84833333D01*
X118714285Y-84642857D01*
X118666666Y-84547619D01*
X118619047Y-84500000D01*
X118523809Y-84452380D01*
X117809523Y-84547619D02*
X117761904Y-84500000D01*
X117666666Y-84452380D01*
X117428571Y-84452380D01*
X117333333Y-84500000D01*
X117285714Y-84547619D01*
X117238095Y-84642857D01*
X117238095Y-84738095D01*
X117285714Y-84880952D01*
X117857142Y-85452380D01*
X117238095Y-85452380D01*
X116857142Y-84547619D02*
X116809523Y-84500000D01*
X116714285Y-84452380D01*
X116476190Y-84452380D01*
X116380952Y-84500000D01*
X116333333Y-84547619D01*
X116285714Y-84642857D01*
X116285714Y-84738095D01*
X116333333Y-84880952D01*
X116904761Y-85452380D01*
X116285714Y-85452380D01*
X114523809Y-85452380D02*
X114857142Y-84976190D01*
X115095238Y-85452380D02*
X115095238Y-84452380D01*
X114714285Y-84452380D01*
X114619047Y-84500000D01*
X114571428Y-84547619D01*
X114523809Y-84642857D01*
X114523809Y-84785714D01*
X114571428Y-84880952D01*
X114619047Y-84928571D01*
X114714285Y-84976190D01*
X115095238Y-84976190D01*
X114095238Y-85452380D02*
X114095238Y-84452380D01*
X113714285Y-84452380D01*
X113619047Y-84500000D01*
X113571428Y-84547619D01*
X113523809Y-84642857D01*
X113523809Y-84785714D01*
X113571428Y-84880952D01*
X113619047Y-84928571D01*
X113714285Y-84976190D01*
X114095238Y-84976190D01*
X113095238Y-85452380D02*
X113095238Y-84785714D01*
X113095238Y-84452380D02*
X113142857Y-84500000D01*
X113095238Y-84547619D01*
X113047619Y-84500000D01*
X113095238Y-84452380D01*
X113095238Y-84547619D01*
X111857142Y-85452380D02*
X111857142Y-84452380D01*
X111857142Y-84928571D02*
X111285714Y-84928571D01*
X111285714Y-85452380D02*
X111285714Y-84452380D01*
X110857142Y-85166666D02*
X110380952Y-85166666D01*
X110952380Y-85452380D02*
X110619047Y-84452380D01*
X110285714Y-85452380D01*
X110095238Y-84452380D02*
X109523809Y-84452380D01*
X109809523Y-85452380D02*
X109809523Y-84452380D01*
D11*
X146450119Y-59294761D02*
X146313214Y-59342380D01*
X146075119Y-59342380D01*
X145973928Y-59294761D01*
X145920357Y-59247142D01*
X145860833Y-59151904D01*
X145848928Y-59056666D01*
X145884642Y-58961428D01*
X145926309Y-58913809D01*
X146015595Y-58866190D01*
X146200119Y-58818571D01*
X146289404Y-58770952D01*
X146331071Y-58723333D01*
X146366785Y-58628095D01*
X146354880Y-58532857D01*
X146295357Y-58437619D01*
X146241785Y-58390000D01*
X146140595Y-58342380D01*
X145902500Y-58342380D01*
X145765595Y-58390000D01*
X145473928Y-58342380D02*
X144902500Y-58342380D01*
X145313214Y-59342380D02*
X145188214Y-58342380D01*
X144694166Y-59342380D02*
X144569166Y-58342380D01*
X144325119Y-59056666D01*
X143902500Y-58342380D01*
X144027500Y-59342380D01*
X143521547Y-58342380D02*
X142902500Y-58342380D01*
X143283452Y-58723333D01*
X143140595Y-58723333D01*
X143051309Y-58770952D01*
X143009642Y-58818571D01*
X142973928Y-58913809D01*
X143003690Y-59151904D01*
X143063214Y-59247142D01*
X143116785Y-59294761D01*
X143217976Y-59342380D01*
X143503690Y-59342380D01*
X143592976Y-59294761D01*
X143634642Y-59247142D01*
X142533452Y-58437619D02*
X142479880Y-58390000D01*
X142378690Y-58342380D01*
X142140595Y-58342380D01*
X142051309Y-58390000D01*
X142009642Y-58437619D01*
X141973928Y-58532857D01*
X141985833Y-58628095D01*
X142051309Y-58770952D01*
X142694166Y-59342380D01*
X142075119Y-59342380D01*
X140450119Y-59294761D02*
X140551309Y-59342380D01*
X140741785Y-59342380D01*
X140831071Y-59294761D01*
X140872738Y-59247142D01*
X140908452Y-59151904D01*
X140872738Y-58866190D01*
X140813214Y-58770952D01*
X140759642Y-58723333D01*
X140658452Y-58675714D01*
X140467976Y-58675714D01*
X140378690Y-58723333D01*
X139640595Y-59294761D02*
X139741785Y-59342380D01*
X139932261Y-59342380D01*
X140021547Y-59294761D01*
X140057261Y-59199523D01*
X140009642Y-58818571D01*
X139950119Y-58723333D01*
X139848928Y-58675714D01*
X139658452Y-58675714D01*
X139569166Y-58723333D01*
X139533452Y-58818571D01*
X139545357Y-58913809D01*
X140033452Y-59009047D01*
X139087023Y-58675714D02*
X139170357Y-59342380D01*
X139098928Y-58770952D02*
X139045357Y-58723333D01*
X138944166Y-58675714D01*
X138801309Y-58675714D01*
X138712023Y-58723333D01*
X138676309Y-58818571D01*
X138741785Y-59342380D01*
X138325119Y-58675714D02*
X137944166Y-58675714D01*
X138140595Y-58342380D02*
X138247738Y-59199523D01*
X138212023Y-59294761D01*
X138122738Y-59342380D01*
X138027500Y-59342380D01*
X137307261Y-59294761D02*
X137408452Y-59342380D01*
X137598928Y-59342380D01*
X137688214Y-59294761D01*
X137723928Y-59199523D01*
X137676309Y-58818571D01*
X137616785Y-58723333D01*
X137515595Y-58675714D01*
X137325119Y-58675714D01*
X137235833Y-58723333D01*
X137200119Y-58818571D01*
X137212023Y-58913809D01*
X137700119Y-59009047D01*
X136837023Y-59342380D02*
X136753690Y-58675714D01*
X136777500Y-58866190D02*
X136717976Y-58770952D01*
X136664404Y-58723333D01*
X136563214Y-58675714D01*
X136467976Y-58675714D01*
X135831071Y-59294761D02*
X135932261Y-59342380D01*
X136122738Y-59342380D01*
X136212023Y-59294761D01*
X136247738Y-59199523D01*
X136200119Y-58818571D01*
X136140595Y-58723333D01*
X136039404Y-58675714D01*
X135848928Y-58675714D01*
X135759642Y-58723333D01*
X135723928Y-58818571D01*
X135735833Y-58913809D01*
X136223928Y-59009047D01*
X134932261Y-59342380D02*
X134807261Y-58342380D01*
X134926309Y-59294761D02*
X135027500Y-59342380D01*
X135217976Y-59342380D01*
X135307261Y-59294761D01*
X135348928Y-59247142D01*
X135384642Y-59151904D01*
X135348928Y-58866190D01*
X135289404Y-58770952D01*
X135235833Y-58723333D01*
X135134642Y-58675714D01*
X134944166Y-58675714D01*
X134854880Y-58723333D01*
X133694166Y-59342380D02*
X133569166Y-58342380D01*
X133628690Y-58818571D02*
X133057261Y-58818571D01*
X133122738Y-59342380D02*
X132997738Y-58342380D01*
X132658452Y-59056666D02*
X132182261Y-59056666D01*
X132789404Y-59342380D02*
X132331071Y-58342380D01*
X132122738Y-59342380D01*
X131807261Y-58342380D02*
X131235833Y-58342380D01*
X131646547Y-59342380D02*
X131521547Y-58342380D01*
X130325119Y-58675714D02*
X129944166Y-58675714D01*
X130265595Y-59342380D02*
X130158452Y-58485238D01*
X130098928Y-58390000D01*
X129997738Y-58342380D01*
X129902500Y-58342380D01*
X129551309Y-59342380D02*
X129640595Y-59294761D01*
X129682261Y-59247142D01*
X129717976Y-59151904D01*
X129682261Y-58866190D01*
X129622738Y-58770952D01*
X129569166Y-58723333D01*
X129467976Y-58675714D01*
X129325119Y-58675714D01*
X129235833Y-58723333D01*
X129194166Y-58770952D01*
X129158452Y-58866190D01*
X129194166Y-59151904D01*
X129253690Y-59247142D01*
X129307261Y-59294761D01*
X129408452Y-59342380D01*
X129551309Y-59342380D01*
X128789404Y-59342380D02*
X128706071Y-58675714D01*
X128729880Y-58866190D02*
X128670357Y-58770952D01*
X128616785Y-58723333D01*
X128515595Y-58675714D01*
X128420357Y-58675714D01*
X127426309Y-58342380D02*
X126854880Y-58342380D01*
X127265595Y-59342380D02*
X127140595Y-58342380D01*
X126646547Y-59342380D02*
X126521547Y-58342380D01*
X126188214Y-58342380D02*
X125616785Y-58342380D01*
X126027500Y-59342380D02*
X125902500Y-58342380D01*
X125420357Y-59056666D02*
X124944166Y-59056666D01*
X125551309Y-59342380D02*
X125092976Y-58342380D01*
X124884642Y-59342380D01*
X124551309Y-59342380D02*
X124426309Y-58342380D01*
X123979880Y-59342380D01*
X123854880Y-58342380D01*
X123491785Y-59247142D02*
X123450119Y-59294761D01*
X123503690Y-59342380D01*
X123545357Y-59294761D01*
X123491785Y-59247142D01*
X123503690Y-59342380D01*
X122265595Y-59342380D02*
X122140595Y-58342380D01*
X121759642Y-58342380D01*
X121670357Y-58390000D01*
X121628690Y-58437619D01*
X121592976Y-58532857D01*
X121610833Y-58675714D01*
X121670357Y-58770952D01*
X121723928Y-58818571D01*
X121825119Y-58866190D01*
X122206071Y-58866190D01*
X121265595Y-59342380D02*
X121182261Y-58675714D01*
X121206071Y-58866190D02*
X121146547Y-58770952D01*
X121092976Y-58723333D01*
X120991785Y-58675714D01*
X120896547Y-58675714D01*
X120503690Y-59342380D02*
X120592976Y-59294761D01*
X120634642Y-59247142D01*
X120670357Y-59151904D01*
X120634642Y-58866190D01*
X120575119Y-58770952D01*
X120521547Y-58723333D01*
X120420357Y-58675714D01*
X120277500Y-58675714D01*
X120188214Y-58723333D01*
X120146547Y-58770952D01*
X120110833Y-58866190D01*
X120146547Y-59151904D01*
X120206071Y-59247142D01*
X120259642Y-59294761D01*
X120360833Y-59342380D01*
X120503690Y-59342380D01*
X119753690Y-58675714D02*
X119598928Y-59342380D01*
X119277500Y-58675714D01*
X118979880Y-59342380D02*
X118896547Y-58675714D01*
X118854880Y-58342380D02*
X118908452Y-58390000D01*
X118866785Y-58437619D01*
X118813214Y-58390000D01*
X118854880Y-58342380D01*
X118866785Y-58437619D01*
X118075119Y-59342380D02*
X117950119Y-58342380D01*
X118069166Y-59294761D02*
X118170357Y-59342380D01*
X118360833Y-59342380D01*
X118450119Y-59294761D01*
X118491785Y-59247142D01*
X118527500Y-59151904D01*
X118491785Y-58866190D01*
X118432261Y-58770952D01*
X118378690Y-58723333D01*
X118277500Y-58675714D01*
X118087023Y-58675714D01*
X117997738Y-58723333D01*
X117212023Y-59294761D02*
X117313214Y-59342380D01*
X117503690Y-59342380D01*
X117592976Y-59294761D01*
X117628690Y-59199523D01*
X117581071Y-58818571D01*
X117521547Y-58723333D01*
X117420357Y-58675714D01*
X117229880Y-58675714D01*
X117140595Y-58723333D01*
X117104880Y-58818571D01*
X117116785Y-58913809D01*
X117604880Y-59009047D01*
X116783452Y-59294761D02*
X116694166Y-59342380D01*
X116503690Y-59342380D01*
X116402500Y-59294761D01*
X116342976Y-59199523D01*
X116337023Y-59151904D01*
X116372738Y-59056666D01*
X116462023Y-59009047D01*
X116604880Y-59009047D01*
X116694166Y-58961428D01*
X116729880Y-58866190D01*
X116723928Y-58818571D01*
X116664404Y-58723333D01*
X116563214Y-58675714D01*
X116420357Y-58675714D01*
X116331071Y-58723333D01*
X115087023Y-58675714D02*
X115212023Y-59675714D01*
X115092976Y-58723333D02*
X114991785Y-58675714D01*
X114801309Y-58675714D01*
X114712023Y-58723333D01*
X114670357Y-58770952D01*
X114634642Y-58866190D01*
X114670357Y-59151904D01*
X114729880Y-59247142D01*
X114783452Y-59294761D01*
X114884642Y-59342380D01*
X115075119Y-59342380D01*
X115164404Y-59294761D01*
X114122738Y-59342380D02*
X114212023Y-59294761D01*
X114253690Y-59247142D01*
X114289404Y-59151904D01*
X114253690Y-58866190D01*
X114194166Y-58770952D01*
X114140595Y-58723333D01*
X114039404Y-58675714D01*
X113896547Y-58675714D01*
X113807261Y-58723333D01*
X113765595Y-58770952D01*
X113729880Y-58866190D01*
X113765595Y-59151904D01*
X113825119Y-59247142D01*
X113878690Y-59294761D01*
X113979880Y-59342380D01*
X114122738Y-59342380D01*
X113372738Y-58675714D02*
X113265595Y-59342380D01*
X113015595Y-58866190D01*
X112884642Y-59342380D01*
X112610833Y-58675714D01*
X111926309Y-59294761D02*
X112027500Y-59342380D01*
X112217976Y-59342380D01*
X112307261Y-59294761D01*
X112342976Y-59199523D01*
X112295357Y-58818571D01*
X112235833Y-58723333D01*
X112134642Y-58675714D01*
X111944166Y-58675714D01*
X111854880Y-58723333D01*
X111819166Y-58818571D01*
X111831071Y-58913809D01*
X112319166Y-59009047D01*
X111456071Y-59342380D02*
X111372738Y-58675714D01*
X111396547Y-58866190D02*
X111337023Y-58770952D01*
X111283452Y-58723333D01*
X111182261Y-58675714D01*
X111087023Y-58675714D01*
X110134642Y-58675714D02*
X109753690Y-58675714D01*
X110075119Y-59342380D02*
X109967976Y-58485238D01*
X109908452Y-58390000D01*
X109807261Y-58342380D01*
X109712023Y-58342380D01*
X109503690Y-59342380D02*
X109420357Y-58675714D01*
X109444166Y-58866190D02*
X109384642Y-58770952D01*
X109331071Y-58723333D01*
X109229880Y-58675714D01*
X109134642Y-58675714D01*
X108741785Y-59342380D02*
X108831071Y-59294761D01*
X108872738Y-59247142D01*
X108908452Y-59151904D01*
X108872738Y-58866190D01*
X108813214Y-58770952D01*
X108759642Y-58723333D01*
X108658452Y-58675714D01*
X108515595Y-58675714D01*
X108426309Y-58723333D01*
X108384642Y-58770952D01*
X108348928Y-58866190D01*
X108384642Y-59151904D01*
X108444166Y-59247142D01*
X108497738Y-59294761D01*
X108598928Y-59342380D01*
X108741785Y-59342380D01*
X107979880Y-59342380D02*
X107896547Y-58675714D01*
X107908452Y-58770952D02*
X107854880Y-58723333D01*
X107753690Y-58675714D01*
X107610833Y-58675714D01*
X107521547Y-58723333D01*
X107485833Y-58818571D01*
X107551309Y-59342380D01*
X107485833Y-58818571D02*
X107426309Y-58723333D01*
X107325119Y-58675714D01*
X107182261Y-58675714D01*
X107092976Y-58723333D01*
X107057261Y-58818571D01*
X107122738Y-59342380D01*
X105884642Y-59342380D02*
X105759642Y-58342380D01*
X105807261Y-58723333D02*
X105706071Y-58675714D01*
X105515595Y-58675714D01*
X105426309Y-58723333D01*
X105384642Y-58770952D01*
X105348928Y-58866190D01*
X105384642Y-59151904D01*
X105444166Y-59247142D01*
X105497738Y-59294761D01*
X105598928Y-59342380D01*
X105789404Y-59342380D01*
X105878690Y-59294761D01*
X104551309Y-59342380D02*
X104485833Y-58818571D01*
X104521547Y-58723333D01*
X104610833Y-58675714D01*
X104801309Y-58675714D01*
X104902500Y-58723333D01*
X104545357Y-59294761D02*
X104646547Y-59342380D01*
X104884642Y-59342380D01*
X104973928Y-59294761D01*
X105009642Y-59199523D01*
X104997738Y-59104285D01*
X104938214Y-59009047D01*
X104837023Y-58961428D01*
X104598928Y-58961428D01*
X104497738Y-58913809D01*
X104134642Y-58675714D02*
X103753690Y-58675714D01*
X103950119Y-58342380D02*
X104057261Y-59199523D01*
X104021547Y-59294761D01*
X103932261Y-59342380D01*
X103837023Y-59342380D01*
X103563214Y-58675714D02*
X103182261Y-58675714D01*
X103378690Y-58342380D02*
X103485833Y-59199523D01*
X103450119Y-59294761D01*
X103360833Y-59342380D01*
X103265595Y-59342380D01*
X102545357Y-59294761D02*
X102646547Y-59342380D01*
X102837023Y-59342380D01*
X102926309Y-59294761D01*
X102962023Y-59199523D01*
X102914404Y-58818571D01*
X102854880Y-58723333D01*
X102753690Y-58675714D01*
X102563214Y-58675714D01*
X102473928Y-58723333D01*
X102438214Y-58818571D01*
X102450119Y-58913809D01*
X102938214Y-59009047D01*
X102075119Y-59342380D02*
X101991785Y-58675714D01*
X102015595Y-58866190D02*
X101956071Y-58770952D01*
X101902500Y-58723333D01*
X101801309Y-58675714D01*
X101706071Y-58675714D01*
X101467976Y-58675714D02*
X101313214Y-59342380D01*
X100991785Y-58675714D02*
X101313214Y-59342380D01*
X101438214Y-59580476D01*
X101491785Y-59628095D01*
X101592976Y-59675714D01*
X99944166Y-58675714D02*
X99837023Y-59342380D01*
X99587023Y-58866190D01*
X99456071Y-59342380D01*
X99182261Y-58675714D01*
X98884642Y-59342380D02*
X98801309Y-58675714D01*
X98759642Y-58342380D02*
X98813214Y-58390000D01*
X98771547Y-58437619D01*
X98717976Y-58390000D01*
X98759642Y-58342380D01*
X98771547Y-58437619D01*
X98467976Y-58675714D02*
X98087023Y-58675714D01*
X98283452Y-58342380D02*
X98390595Y-59199523D01*
X98354880Y-59294761D01*
X98265595Y-59342380D01*
X98170357Y-59342380D01*
X97837023Y-59342380D02*
X97712023Y-58342380D01*
X97408452Y-59342380D02*
X97342976Y-58818571D01*
X97378690Y-58723333D01*
X97467976Y-58675714D01*
X97610833Y-58675714D01*
X97712023Y-58723333D01*
X97765595Y-58770952D01*
X146283452Y-59952380D02*
X146384642Y-60761904D01*
X146348928Y-60857142D01*
X146307261Y-60904761D01*
X146217976Y-60952380D01*
X146027500Y-60952380D01*
X145926309Y-60904761D01*
X145872738Y-60857142D01*
X145813214Y-60761904D01*
X145712023Y-59952380D01*
X145378690Y-59952380D02*
X145170357Y-60952380D01*
X144712023Y-59952380D01*
X144027500Y-60952380D02*
X144503690Y-60952380D01*
X144378690Y-59952380D01*
X143378690Y-59952380D02*
X143188214Y-59952380D01*
X143098928Y-60000000D01*
X143015595Y-60095238D01*
X142991785Y-60285714D01*
X143033452Y-60619047D01*
X143104880Y-60809523D01*
X143212023Y-60904761D01*
X143313214Y-60952380D01*
X143503690Y-60952380D01*
X143592976Y-60904761D01*
X143676309Y-60809523D01*
X143700119Y-60619047D01*
X143658452Y-60285714D01*
X143587023Y-60095238D01*
X143479880Y-60000000D01*
X143378690Y-59952380D01*
X141456071Y-60952380D02*
X141390595Y-60428571D01*
X141426309Y-60333333D01*
X141515595Y-60285714D01*
X141706071Y-60285714D01*
X141807261Y-60333333D01*
X141450119Y-60904761D02*
X141551309Y-60952380D01*
X141789404Y-60952380D01*
X141878690Y-60904761D01*
X141914404Y-60809523D01*
X141902500Y-60714285D01*
X141842976Y-60619047D01*
X141741785Y-60571428D01*
X141503690Y-60571428D01*
X141402500Y-60523809D01*
X140896547Y-60285714D02*
X140979880Y-60952380D01*
X140908452Y-60380952D02*
X140854880Y-60333333D01*
X140753690Y-60285714D01*
X140610833Y-60285714D01*
X140521547Y-60333333D01*
X140485833Y-60428571D01*
X140551309Y-60952380D01*
X139646547Y-60952380D02*
X139521547Y-59952380D01*
X139640595Y-60904761D02*
X139741785Y-60952380D01*
X139932261Y-60952380D01*
X140021547Y-60904761D01*
X140063214Y-60857142D01*
X140098928Y-60761904D01*
X140063214Y-60476190D01*
X140003690Y-60380952D01*
X139950119Y-60333333D01*
X139848928Y-60285714D01*
X139658452Y-60285714D01*
X139569166Y-60333333D01*
X138408452Y-60952380D02*
X138325119Y-60285714D01*
X138348928Y-60476190D02*
X138289404Y-60380952D01*
X138235833Y-60333333D01*
X138134642Y-60285714D01*
X138039404Y-60285714D01*
X137402500Y-60904761D02*
X137503690Y-60952380D01*
X137694166Y-60952380D01*
X137783452Y-60904761D01*
X137819166Y-60809523D01*
X137771547Y-60428571D01*
X137712023Y-60333333D01*
X137610833Y-60285714D01*
X137420357Y-60285714D01*
X137331071Y-60333333D01*
X137295357Y-60428571D01*
X137307261Y-60523809D01*
X137795357Y-60619047D01*
X136944166Y-60285714D02*
X136789404Y-60952380D01*
X136467976Y-60285714D01*
X135783452Y-60904761D02*
X135884642Y-60952380D01*
X136075119Y-60952380D01*
X136164404Y-60904761D01*
X136200119Y-60809523D01*
X136152500Y-60428571D01*
X136092976Y-60333333D01*
X135991785Y-60285714D01*
X135801309Y-60285714D01*
X135712023Y-60333333D01*
X135676309Y-60428571D01*
X135688214Y-60523809D01*
X136176309Y-60619047D01*
X135313214Y-60952380D02*
X135229880Y-60285714D01*
X135253690Y-60476190D02*
X135194166Y-60380952D01*
X135140595Y-60333333D01*
X135039404Y-60285714D01*
X134944166Y-60285714D01*
X134735833Y-60904761D02*
X134646547Y-60952380D01*
X134456071Y-60952380D01*
X134354880Y-60904761D01*
X134295357Y-60809523D01*
X134289404Y-60761904D01*
X134325119Y-60666666D01*
X134414404Y-60619047D01*
X134557261Y-60619047D01*
X134646547Y-60571428D01*
X134682261Y-60476190D01*
X134676309Y-60428571D01*
X134616785Y-60333333D01*
X134515595Y-60285714D01*
X134372738Y-60285714D01*
X134283452Y-60333333D01*
X133497738Y-60904761D02*
X133598928Y-60952380D01*
X133789404Y-60952380D01*
X133878690Y-60904761D01*
X133914404Y-60809523D01*
X133866785Y-60428571D01*
X133807261Y-60333333D01*
X133706071Y-60285714D01*
X133515595Y-60285714D01*
X133426309Y-60333333D01*
X133390595Y-60428571D01*
X133402500Y-60523809D01*
X133890595Y-60619047D01*
X132182261Y-60285714D02*
X132307261Y-61285714D01*
X132188214Y-60333333D02*
X132087023Y-60285714D01*
X131896547Y-60285714D01*
X131807261Y-60333333D01*
X131765595Y-60380952D01*
X131729880Y-60476190D01*
X131765595Y-60761904D01*
X131825119Y-60857142D01*
X131878690Y-60904761D01*
X131979880Y-60952380D01*
X132170357Y-60952380D01*
X132259642Y-60904761D01*
X131217976Y-60952380D02*
X131307261Y-60904761D01*
X131348928Y-60857142D01*
X131384642Y-60761904D01*
X131348928Y-60476190D01*
X131289404Y-60380952D01*
X131235833Y-60333333D01*
X131134642Y-60285714D01*
X130991785Y-60285714D01*
X130902500Y-60333333D01*
X130860833Y-60380952D01*
X130825119Y-60476190D01*
X130860833Y-60761904D01*
X130920357Y-60857142D01*
X130973928Y-60904761D01*
X131075119Y-60952380D01*
X131217976Y-60952380D01*
X130313214Y-60952380D02*
X130402500Y-60904761D01*
X130438214Y-60809523D01*
X130331071Y-59952380D01*
X129503690Y-60952380D02*
X129438214Y-60428571D01*
X129473928Y-60333333D01*
X129563214Y-60285714D01*
X129753690Y-60285714D01*
X129854880Y-60333333D01*
X129497738Y-60904761D02*
X129598928Y-60952380D01*
X129837023Y-60952380D01*
X129926309Y-60904761D01*
X129962023Y-60809523D01*
X129950119Y-60714285D01*
X129890595Y-60619047D01*
X129789404Y-60571428D01*
X129551309Y-60571428D01*
X129450119Y-60523809D01*
X129027500Y-60952380D02*
X128944166Y-60285714D01*
X128967976Y-60476190D02*
X128908452Y-60380952D01*
X128854880Y-60333333D01*
X128753690Y-60285714D01*
X128658452Y-60285714D01*
X128408452Y-60952380D02*
X128325119Y-60285714D01*
X128283452Y-59952380D02*
X128337023Y-60000000D01*
X128295357Y-60047619D01*
X128241785Y-60000000D01*
X128283452Y-59952380D01*
X128295357Y-60047619D01*
X127991785Y-60285714D02*
X127610833Y-60285714D01*
X127807261Y-59952380D02*
X127914404Y-60809523D01*
X127878690Y-60904761D01*
X127789404Y-60952380D01*
X127694166Y-60952380D01*
X127372738Y-60285714D02*
X127217976Y-60952380D01*
X126896547Y-60285714D02*
X127217976Y-60952380D01*
X127342976Y-61190476D01*
X127396547Y-61238095D01*
X127497738Y-61285714D01*
X125753690Y-60285714D02*
X125878690Y-61285714D01*
X125759642Y-60333333D02*
X125658452Y-60285714D01*
X125467976Y-60285714D01*
X125378690Y-60333333D01*
X125337023Y-60380952D01*
X125301309Y-60476190D01*
X125337023Y-60761904D01*
X125396547Y-60857142D01*
X125450119Y-60904761D01*
X125551309Y-60952380D01*
X125741785Y-60952380D01*
X125831071Y-60904761D01*
X124932261Y-60952380D02*
X124848928Y-60285714D01*
X124872738Y-60476190D02*
X124813214Y-60380952D01*
X124759642Y-60333333D01*
X124658452Y-60285714D01*
X124563214Y-60285714D01*
X124170357Y-60952380D02*
X124259642Y-60904761D01*
X124301309Y-60857142D01*
X124337023Y-60761904D01*
X124301309Y-60476190D01*
X124241785Y-60380952D01*
X124188214Y-60333333D01*
X124087023Y-60285714D01*
X123944166Y-60285714D01*
X123854880Y-60333333D01*
X123813214Y-60380952D01*
X123777500Y-60476190D01*
X123813214Y-60761904D01*
X123872738Y-60857142D01*
X123926309Y-60904761D01*
X124027500Y-60952380D01*
X124170357Y-60952380D01*
X123467976Y-60285714D02*
X123087023Y-60285714D01*
X123283452Y-59952380D02*
X123390595Y-60809523D01*
X123354880Y-60904761D01*
X123265595Y-60952380D01*
X123170357Y-60952380D01*
X122450119Y-60904761D02*
X122551309Y-60952380D01*
X122741785Y-60952380D01*
X122831071Y-60904761D01*
X122866785Y-60809523D01*
X122819166Y-60428571D01*
X122759642Y-60333333D01*
X122658452Y-60285714D01*
X122467976Y-60285714D01*
X122378690Y-60333333D01*
X122342976Y-60428571D01*
X122354880Y-60523809D01*
X122842976Y-60619047D01*
X121545357Y-60904761D02*
X121646547Y-60952380D01*
X121837023Y-60952380D01*
X121926309Y-60904761D01*
X121967976Y-60857142D01*
X122003690Y-60761904D01*
X121967976Y-60476190D01*
X121908452Y-60380952D01*
X121854880Y-60333333D01*
X121753690Y-60285714D01*
X121563214Y-60285714D01*
X121473928Y-60333333D01*
X121182261Y-60285714D02*
X120801309Y-60285714D01*
X120997738Y-59952380D02*
X121104880Y-60809523D01*
X121069166Y-60904761D01*
X120979880Y-60952380D01*
X120884642Y-60952380D01*
X120551309Y-60952380D02*
X120467976Y-60285714D01*
X120426309Y-59952380D02*
X120479880Y-60000000D01*
X120438214Y-60047619D01*
X120384642Y-60000000D01*
X120426309Y-59952380D01*
X120438214Y-60047619D01*
X119932261Y-60952380D02*
X120021547Y-60904761D01*
X120063214Y-60857142D01*
X120098928Y-60761904D01*
X120063214Y-60476190D01*
X120003690Y-60380952D01*
X119950119Y-60333333D01*
X119848928Y-60285714D01*
X119706071Y-60285714D01*
X119616785Y-60333333D01*
X119575119Y-60380952D01*
X119539404Y-60476190D01*
X119575119Y-60761904D01*
X119634642Y-60857142D01*
X119688214Y-60904761D01*
X119789404Y-60952380D01*
X119932261Y-60952380D01*
X119087023Y-60285714D02*
X119170357Y-60952380D01*
X119098928Y-60380952D02*
X119045357Y-60333333D01*
X118944166Y-60285714D01*
X118801309Y-60285714D01*
X118712023Y-60333333D01*
X118676309Y-60428571D01*
X118741785Y-60952380D01*
X118253690Y-60857142D02*
X118212023Y-60904761D01*
X118265595Y-60952380D01*
X118307261Y-60904761D01*
X118253690Y-60857142D01*
X118265595Y-60952380D01*
X117039404Y-60666666D02*
X116563214Y-60666666D01*
X117170357Y-60952380D02*
X116712023Y-59952380D01*
X116503690Y-60952380D01*
X116027500Y-60952380D02*
X116116785Y-60904761D01*
X116152500Y-60809523D01*
X116045357Y-59952380D01*
X115503690Y-60952380D02*
X115592976Y-60904761D01*
X115628690Y-60809523D01*
X115521547Y-59952380D01*
X113932261Y-60952380D02*
X113807261Y-59952380D01*
X113926309Y-60904761D02*
X114027500Y-60952380D01*
X114217976Y-60952380D01*
X114307261Y-60904761D01*
X114348928Y-60857142D01*
X114384642Y-60761904D01*
X114348928Y-60476190D01*
X114289404Y-60380952D01*
X114235833Y-60333333D01*
X114134642Y-60285714D01*
X113944166Y-60285714D01*
X113854880Y-60333333D01*
X113027500Y-60952380D02*
X112962023Y-60428571D01*
X112997738Y-60333333D01*
X113087023Y-60285714D01*
X113277500Y-60285714D01*
X113378690Y-60333333D01*
X113021547Y-60904761D02*
X113122738Y-60952380D01*
X113360833Y-60952380D01*
X113450119Y-60904761D01*
X113485833Y-60809523D01*
X113473928Y-60714285D01*
X113414404Y-60619047D01*
X113313214Y-60571428D01*
X113075119Y-60571428D01*
X112973928Y-60523809D01*
X112610833Y-60285714D02*
X112229880Y-60285714D01*
X112426309Y-59952380D02*
X112533452Y-60809523D01*
X112497738Y-60904761D01*
X112408452Y-60952380D01*
X112313214Y-60952380D01*
X111551309Y-60952380D02*
X111485833Y-60428571D01*
X111521547Y-60333333D01*
X111610833Y-60285714D01*
X111801309Y-60285714D01*
X111902500Y-60333333D01*
X111545357Y-60904761D02*
X111646547Y-60952380D01*
X111884642Y-60952380D01*
X111973928Y-60904761D01*
X112009642Y-60809523D01*
X111997738Y-60714285D01*
X111938214Y-60619047D01*
X111837023Y-60571428D01*
X111598928Y-60571428D01*
X111497738Y-60523809D01*
X110170357Y-60952380D02*
X110259642Y-60904761D01*
X110301309Y-60857142D01*
X110337023Y-60761904D01*
X110301309Y-60476190D01*
X110241785Y-60380952D01*
X110188214Y-60333333D01*
X110087023Y-60285714D01*
X109944166Y-60285714D01*
X109854880Y-60333333D01*
X109813214Y-60380952D01*
X109777500Y-60476190D01*
X109813214Y-60761904D01*
X109872738Y-60857142D01*
X109926309Y-60904761D01*
X110027500Y-60952380D01*
X110170357Y-60952380D01*
X109325119Y-60285714D02*
X109408452Y-60952380D01*
X109337023Y-60380952D02*
X109283452Y-60333333D01*
X109182261Y-60285714D01*
X109039404Y-60285714D01*
X108950119Y-60333333D01*
X108914404Y-60428571D01*
X108979880Y-60952380D01*
X107759642Y-59952380D02*
X107188214Y-59952380D01*
X107598928Y-60952380D02*
X107473928Y-59952380D01*
X106979880Y-60952380D02*
X106854880Y-59952380D01*
X106521547Y-59952380D02*
X105950119Y-59952380D01*
X106360833Y-60952380D02*
X106235833Y-59952380D01*
X105753690Y-60666666D02*
X105277500Y-60666666D01*
X105884642Y-60952380D02*
X105426309Y-59952380D01*
X105217976Y-60952380D01*
X104884642Y-60952380D02*
X104759642Y-59952380D01*
X104313214Y-60952380D01*
X104188214Y-59952380D01*
X102991785Y-60285714D02*
X103116785Y-61285714D01*
X102997738Y-60333333D02*
X102896547Y-60285714D01*
X102706071Y-60285714D01*
X102616785Y-60333333D01*
X102575119Y-60380952D01*
X102539404Y-60476190D01*
X102575119Y-60761904D01*
X102634642Y-60857142D01*
X102688214Y-60904761D01*
X102789404Y-60952380D01*
X102979880Y-60952380D01*
X103069166Y-60904761D01*
X101741785Y-60952380D02*
X101676309Y-60428571D01*
X101712023Y-60333333D01*
X101801309Y-60285714D01*
X101991785Y-60285714D01*
X102092976Y-60333333D01*
X101735833Y-60904761D02*
X101837023Y-60952380D01*
X102075119Y-60952380D01*
X102164404Y-60904761D01*
X102200119Y-60809523D01*
X102188214Y-60714285D01*
X102128690Y-60619047D01*
X102027500Y-60571428D01*
X101789404Y-60571428D01*
X101688214Y-60523809D01*
X101307261Y-60904761D02*
X101217976Y-60952380D01*
X101027500Y-60952380D01*
X100926309Y-60904761D01*
X100866785Y-60809523D01*
X100860833Y-60761904D01*
X100896547Y-60666666D01*
X100985833Y-60619047D01*
X101128690Y-60619047D01*
X101217976Y-60571428D01*
X101253690Y-60476190D01*
X101247738Y-60428571D01*
X101188214Y-60333333D01*
X101087023Y-60285714D01*
X100944166Y-60285714D01*
X100854880Y-60333333D01*
X100497738Y-60904761D02*
X100408452Y-60952380D01*
X100217976Y-60952380D01*
X100116785Y-60904761D01*
X100057261Y-60809523D01*
X100051309Y-60761904D01*
X100087023Y-60666666D01*
X100176309Y-60619047D01*
X100319166Y-60619047D01*
X100408452Y-60571428D01*
X100444166Y-60476190D01*
X100438214Y-60428571D01*
X100378690Y-60333333D01*
X100277500Y-60285714D01*
X100134642Y-60285714D01*
X100045357Y-60333333D01*
X99259642Y-60904761D02*
X99360833Y-60952380D01*
X99551309Y-60952380D01*
X99640595Y-60904761D01*
X99676309Y-60809523D01*
X99628690Y-60428571D01*
X99569166Y-60333333D01*
X99467976Y-60285714D01*
X99277500Y-60285714D01*
X99188214Y-60333333D01*
X99152500Y-60428571D01*
X99164404Y-60523809D01*
X99652500Y-60619047D01*
X98831071Y-60904761D02*
X98741785Y-60952380D01*
X98551309Y-60952380D01*
X98450119Y-60904761D01*
X98390595Y-60809523D01*
X98384642Y-60761904D01*
X98420357Y-60666666D01*
X98509642Y-60619047D01*
X98652500Y-60619047D01*
X98741785Y-60571428D01*
X98777500Y-60476190D01*
X98771547Y-60428571D01*
X98712023Y-60333333D01*
X98610833Y-60285714D01*
X98467976Y-60285714D01*
X98378690Y-60333333D01*
X146467976Y-61895714D02*
X146087023Y-61895714D01*
X146283452Y-61562380D02*
X146390595Y-62419523D01*
X146354880Y-62514761D01*
X146265595Y-62562380D01*
X146170357Y-62562380D01*
X145837023Y-62562380D02*
X145712023Y-61562380D01*
X145408452Y-62562380D02*
X145342976Y-62038571D01*
X145378690Y-61943333D01*
X145467976Y-61895714D01*
X145610833Y-61895714D01*
X145712023Y-61943333D01*
X145765595Y-61990952D01*
X144932261Y-62562380D02*
X144848928Y-61895714D01*
X144872738Y-62086190D02*
X144813214Y-61990952D01*
X144759642Y-61943333D01*
X144658452Y-61895714D01*
X144563214Y-61895714D01*
X144170357Y-62562380D02*
X144259642Y-62514761D01*
X144301309Y-62467142D01*
X144337023Y-62371904D01*
X144301309Y-62086190D01*
X144241785Y-61990952D01*
X144188214Y-61943333D01*
X144087023Y-61895714D01*
X143944166Y-61895714D01*
X143854880Y-61943333D01*
X143813214Y-61990952D01*
X143777500Y-62086190D01*
X143813214Y-62371904D01*
X143872738Y-62467142D01*
X143926309Y-62514761D01*
X144027500Y-62562380D01*
X144170357Y-62562380D01*
X142896547Y-61895714D02*
X142979880Y-62562380D01*
X143325119Y-61895714D02*
X143390595Y-62419523D01*
X143354880Y-62514761D01*
X143265595Y-62562380D01*
X143122738Y-62562380D01*
X143021547Y-62514761D01*
X142967976Y-62467142D01*
X141991785Y-61895714D02*
X142092976Y-62705238D01*
X142152500Y-62800476D01*
X142206071Y-62848095D01*
X142307261Y-62895714D01*
X142450119Y-62895714D01*
X142539404Y-62848095D01*
X142069166Y-62514761D02*
X142170357Y-62562380D01*
X142360833Y-62562380D01*
X142450119Y-62514761D01*
X142491785Y-62467142D01*
X142527500Y-62371904D01*
X142491785Y-62086190D01*
X142432261Y-61990952D01*
X142378690Y-61943333D01*
X142277500Y-61895714D01*
X142087023Y-61895714D01*
X141997738Y-61943333D01*
X141598928Y-62562380D02*
X141473928Y-61562380D01*
X141170357Y-62562380D02*
X141104880Y-62038571D01*
X141140595Y-61943333D01*
X141229880Y-61895714D01*
X141372738Y-61895714D01*
X141473928Y-61943333D01*
X141527500Y-61990952D01*
X139991785Y-61895714D02*
X139610833Y-61895714D01*
X139807261Y-61562380D02*
X139914404Y-62419523D01*
X139878690Y-62514761D01*
X139789404Y-62562380D01*
X139694166Y-62562380D01*
X139360833Y-62562380D02*
X139235833Y-61562380D01*
X138932261Y-62562380D02*
X138866785Y-62038571D01*
X138902500Y-61943333D01*
X138991785Y-61895714D01*
X139134642Y-61895714D01*
X139235833Y-61943333D01*
X139289404Y-61990952D01*
X138069166Y-62514761D02*
X138170357Y-62562380D01*
X138360833Y-62562380D01*
X138450119Y-62514761D01*
X138485833Y-62419523D01*
X138438214Y-62038571D01*
X138378690Y-61943333D01*
X138277500Y-61895714D01*
X138087023Y-61895714D01*
X137997738Y-61943333D01*
X137962023Y-62038571D01*
X137973928Y-62133809D01*
X138462023Y-62229047D01*
X136878690Y-62514761D02*
X136741785Y-62562380D01*
X136503690Y-62562380D01*
X136402500Y-62514761D01*
X136348928Y-62467142D01*
X136289404Y-62371904D01*
X136277500Y-62276666D01*
X136313214Y-62181428D01*
X136354880Y-62133809D01*
X136444166Y-62086190D01*
X136628690Y-62038571D01*
X136717976Y-61990952D01*
X136759642Y-61943333D01*
X136795357Y-61848095D01*
X136783452Y-61752857D01*
X136723928Y-61657619D01*
X136670357Y-61610000D01*
X136569166Y-61562380D01*
X136331071Y-61562380D01*
X136194166Y-61610000D01*
X135902500Y-61562380D02*
X135331071Y-61562380D01*
X135741785Y-62562380D02*
X135616785Y-61562380D01*
X135122738Y-62562380D02*
X134997738Y-61562380D01*
X134753690Y-62276666D01*
X134331071Y-61562380D01*
X134456071Y-62562380D01*
X133950119Y-61562380D02*
X133331071Y-61562380D01*
X133712023Y-61943333D01*
X133569166Y-61943333D01*
X133479880Y-61990952D01*
X133438214Y-62038571D01*
X133402500Y-62133809D01*
X133432261Y-62371904D01*
X133491785Y-62467142D01*
X133545357Y-62514761D01*
X133646547Y-62562380D01*
X133932261Y-62562380D01*
X134021547Y-62514761D01*
X134063214Y-62467142D01*
X132962023Y-61657619D02*
X132908452Y-61610000D01*
X132807261Y-61562380D01*
X132569166Y-61562380D01*
X132479880Y-61610000D01*
X132438214Y-61657619D01*
X132402500Y-61752857D01*
X132414404Y-61848095D01*
X132479880Y-61990952D01*
X133122738Y-62562380D01*
X132503690Y-62562380D01*
X131313214Y-62562380D02*
X131188214Y-61562380D01*
X131235833Y-61943333D02*
X131134642Y-61895714D01*
X130944166Y-61895714D01*
X130854880Y-61943333D01*
X130813214Y-61990952D01*
X130777500Y-62086190D01*
X130813214Y-62371904D01*
X130872738Y-62467142D01*
X130926309Y-62514761D01*
X131027500Y-62562380D01*
X131217976Y-62562380D01*
X131307261Y-62514761D01*
X130420357Y-61895714D02*
X130265595Y-62562380D01*
X129944166Y-61895714D02*
X130265595Y-62562380D01*
X130390595Y-62800476D01*
X130444166Y-62848095D01*
X130545357Y-62895714D01*
X128759642Y-61562380D02*
X128860833Y-62371904D01*
X128825119Y-62467142D01*
X128783452Y-62514761D01*
X128694166Y-62562380D01*
X128503690Y-62562380D01*
X128402500Y-62514761D01*
X128348928Y-62467142D01*
X128289404Y-62371904D01*
X128188214Y-61562380D01*
X127848928Y-62276666D02*
X127372738Y-62276666D01*
X127979880Y-62562380D02*
X127521547Y-61562380D01*
X127313214Y-62562380D01*
X126408452Y-62562380D02*
X126682261Y-62086190D01*
X126979880Y-62562380D02*
X126854880Y-61562380D01*
X126473928Y-61562380D01*
X126384642Y-61610000D01*
X126342976Y-61657619D01*
X126307261Y-61752857D01*
X126325119Y-61895714D01*
X126384642Y-61990952D01*
X126438214Y-62038571D01*
X126539404Y-62086190D01*
X126920357Y-62086190D01*
X125997738Y-61562380D02*
X125426309Y-61562380D01*
X125837023Y-62562380D02*
X125712023Y-61562380D01*
X125206071Y-62467142D02*
X125164404Y-62514761D01*
X125217976Y-62562380D01*
X125259642Y-62514761D01*
X125206071Y-62467142D01*
X125217976Y-62562380D01*
X123997738Y-61562380D02*
X123426309Y-61562380D01*
X123837023Y-62562380D02*
X123712023Y-61562380D01*
X122831071Y-62514761D02*
X122932261Y-62562380D01*
X123122738Y-62562380D01*
X123212023Y-62514761D01*
X123247738Y-62419523D01*
X123200119Y-62038571D01*
X123140595Y-61943333D01*
X123039404Y-61895714D01*
X122848928Y-61895714D01*
X122759642Y-61943333D01*
X122723928Y-62038571D01*
X122735833Y-62133809D01*
X123223928Y-62229047D01*
X122217976Y-62562380D02*
X122307261Y-62514761D01*
X122342976Y-62419523D01*
X122235833Y-61562380D01*
X121450119Y-62514761D02*
X121551309Y-62562380D01*
X121741785Y-62562380D01*
X121831071Y-62514761D01*
X121866785Y-62419523D01*
X121819166Y-62038571D01*
X121759642Y-61943333D01*
X121658452Y-61895714D01*
X121467976Y-61895714D01*
X121378690Y-61943333D01*
X121342976Y-62038571D01*
X121354880Y-62133809D01*
X121842976Y-62229047D01*
X120979880Y-62562380D02*
X120896547Y-61895714D01*
X120908452Y-61990952D02*
X120854880Y-61943333D01*
X120753690Y-61895714D01*
X120610833Y-61895714D01*
X120521547Y-61943333D01*
X120485833Y-62038571D01*
X120551309Y-62562380D01*
X120485833Y-62038571D02*
X120426309Y-61943333D01*
X120325119Y-61895714D01*
X120182261Y-61895714D01*
X120092976Y-61943333D01*
X120057261Y-62038571D01*
X120122738Y-62562380D01*
X119259642Y-62514761D02*
X119360833Y-62562380D01*
X119551309Y-62562380D01*
X119640595Y-62514761D01*
X119676309Y-62419523D01*
X119628690Y-62038571D01*
X119569166Y-61943333D01*
X119467976Y-61895714D01*
X119277500Y-61895714D01*
X119188214Y-61943333D01*
X119152500Y-62038571D01*
X119164404Y-62133809D01*
X119652500Y-62229047D01*
X118848928Y-61895714D02*
X118467976Y-61895714D01*
X118664404Y-61562380D02*
X118771547Y-62419523D01*
X118735833Y-62514761D01*
X118646547Y-62562380D01*
X118551309Y-62562380D01*
X118217976Y-62562380D02*
X118134642Y-61895714D01*
X118158452Y-62086190D02*
X118098928Y-61990952D01*
X118045357Y-61943333D01*
X117944166Y-61895714D01*
X117848928Y-61895714D01*
X117610833Y-61895714D02*
X117456071Y-62562380D01*
X117134642Y-61895714D02*
X117456071Y-62562380D01*
X117581071Y-62800476D01*
X117634642Y-62848095D01*
X117735833Y-62895714D01*
X115991785Y-61895714D02*
X116116785Y-62895714D01*
X115997738Y-61943333D02*
X115896547Y-61895714D01*
X115706071Y-61895714D01*
X115616785Y-61943333D01*
X115575119Y-61990952D01*
X115539404Y-62086190D01*
X115575119Y-62371904D01*
X115634642Y-62467142D01*
X115688214Y-62514761D01*
X115789404Y-62562380D01*
X115979880Y-62562380D01*
X116069166Y-62514761D01*
X115170357Y-62562380D02*
X115087023Y-61895714D01*
X115110833Y-62086190D02*
X115051309Y-61990952D01*
X114997738Y-61943333D01*
X114896547Y-61895714D01*
X114801309Y-61895714D01*
X114408452Y-62562380D02*
X114497738Y-62514761D01*
X114539404Y-62467142D01*
X114575119Y-62371904D01*
X114539404Y-62086190D01*
X114479880Y-61990952D01*
X114426309Y-61943333D01*
X114325119Y-61895714D01*
X114182261Y-61895714D01*
X114092976Y-61943333D01*
X114051309Y-61990952D01*
X114015595Y-62086190D01*
X114051309Y-62371904D01*
X114110833Y-62467142D01*
X114164404Y-62514761D01*
X114265595Y-62562380D01*
X114408452Y-62562380D01*
X113658452Y-61895714D02*
X113503690Y-62562380D01*
X113182261Y-61895714D01*
X112884642Y-62562380D02*
X112801309Y-61895714D01*
X112759642Y-61562380D02*
X112813214Y-61610000D01*
X112771547Y-61657619D01*
X112717976Y-61610000D01*
X112759642Y-61562380D01*
X112771547Y-61657619D01*
X111979880Y-62562380D02*
X111854880Y-61562380D01*
X111973928Y-62514761D02*
X112075119Y-62562380D01*
X112265595Y-62562380D01*
X112354880Y-62514761D01*
X112396547Y-62467142D01*
X112432261Y-62371904D01*
X112396547Y-62086190D01*
X112337023Y-61990952D01*
X112283452Y-61943333D01*
X112182261Y-61895714D01*
X111991785Y-61895714D01*
X111902500Y-61943333D01*
X111116785Y-62514761D02*
X111217976Y-62562380D01*
X111408452Y-62562380D01*
X111497738Y-62514761D01*
X111533452Y-62419523D01*
X111485833Y-62038571D01*
X111426309Y-61943333D01*
X111325119Y-61895714D01*
X111134642Y-61895714D01*
X111045357Y-61943333D01*
X111009642Y-62038571D01*
X111021547Y-62133809D01*
X111509642Y-62229047D01*
X110217976Y-62562380D02*
X110092976Y-61562380D01*
X110212023Y-62514761D02*
X110313214Y-62562380D01*
X110503690Y-62562380D01*
X110592976Y-62514761D01*
X110634642Y-62467142D01*
X110670357Y-62371904D01*
X110634642Y-62086190D01*
X110575119Y-61990952D01*
X110521547Y-61943333D01*
X110420357Y-61895714D01*
X110229880Y-61895714D01*
X110140595Y-61943333D01*
X108979880Y-62562380D02*
X108854880Y-61562380D01*
X108902500Y-61943333D02*
X108801309Y-61895714D01*
X108610833Y-61895714D01*
X108521547Y-61943333D01*
X108479880Y-61990952D01*
X108444166Y-62086190D01*
X108479880Y-62371904D01*
X108539404Y-62467142D01*
X108592976Y-62514761D01*
X108694166Y-62562380D01*
X108884642Y-62562380D01*
X108973928Y-62514761D01*
X108087023Y-61895714D02*
X107932261Y-62562380D01*
X107610833Y-61895714D02*
X107932261Y-62562380D01*
X108057261Y-62800476D01*
X108110833Y-62848095D01*
X108212023Y-62895714D01*
X106467976Y-61895714D02*
X106551309Y-62562380D01*
X106479880Y-61990952D02*
X106426309Y-61943333D01*
X106325119Y-61895714D01*
X106182261Y-61895714D01*
X106092976Y-61943333D01*
X106057261Y-62038571D01*
X106122738Y-62562380D01*
X105075119Y-62562380D02*
X105348928Y-62086190D01*
X105646547Y-62562380D02*
X105521547Y-61562380D01*
X105140595Y-61562380D01*
X105051309Y-61610000D01*
X105009642Y-61657619D01*
X104973928Y-61752857D01*
X104991785Y-61895714D01*
X105051309Y-61990952D01*
X105104880Y-62038571D01*
X105206071Y-62086190D01*
X105587023Y-62086190D01*
X104247738Y-62038571D02*
X104581071Y-62038571D01*
X104646547Y-62562380D02*
X104521547Y-61562380D01*
X104045357Y-61562380D01*
X103723928Y-61657619D02*
X103670357Y-61610000D01*
X103569166Y-61562380D01*
X103331071Y-61562380D01*
X103241785Y-61610000D01*
X103200119Y-61657619D01*
X103164404Y-61752857D01*
X103176309Y-61848095D01*
X103241785Y-61990952D01*
X103884642Y-62562380D01*
X103265595Y-62562380D01*
X102325119Y-61895714D02*
X102408452Y-62562380D01*
X102515595Y-61514761D02*
X102842976Y-62229047D01*
X102223928Y-62229047D01*
X101408452Y-62562380D02*
X101884642Y-62562380D01*
X101759642Y-61562380D01*
X100759642Y-61562380D02*
X100664404Y-61562380D01*
X100575119Y-61610000D01*
X100533452Y-61657619D01*
X100497738Y-61752857D01*
X100473928Y-61943333D01*
X100503690Y-62181428D01*
X100575119Y-62371904D01*
X100634642Y-62467142D01*
X100688214Y-62514761D01*
X100789404Y-62562380D01*
X100884642Y-62562380D01*
X100973928Y-62514761D01*
X101015595Y-62467142D01*
X101051309Y-62371904D01*
X101075119Y-62181428D01*
X101045357Y-61943333D01*
X100973928Y-61752857D01*
X100914404Y-61657619D01*
X100860833Y-61610000D01*
X100759642Y-61562380D01*
X99598928Y-62562380D02*
X100170357Y-62562380D01*
X99884642Y-62562380D02*
X99759642Y-61562380D01*
X99872738Y-61705238D01*
X99979880Y-61800476D01*
X100081071Y-61848095D01*
X98408452Y-62562380D02*
X98325119Y-61895714D01*
X98337023Y-61990952D02*
X98283452Y-61943333D01*
X98182261Y-61895714D01*
X98039404Y-61895714D01*
X97950119Y-61943333D01*
X97914404Y-62038571D01*
X97979880Y-62562380D01*
X97914404Y-62038571D02*
X97854880Y-61943333D01*
X97753690Y-61895714D01*
X97610833Y-61895714D01*
X97521547Y-61943333D01*
X97485833Y-62038571D01*
X97551309Y-62562380D01*
X96932261Y-62562380D02*
X97021547Y-62514761D01*
X97063214Y-62467142D01*
X97098928Y-62371904D01*
X97063214Y-62086190D01*
X97003690Y-61990952D01*
X96950119Y-61943333D01*
X96848928Y-61895714D01*
X96706071Y-61895714D01*
X96616785Y-61943333D01*
X96575119Y-61990952D01*
X96539404Y-62086190D01*
X96575119Y-62371904D01*
X96634642Y-62467142D01*
X96688214Y-62514761D01*
X96789404Y-62562380D01*
X96932261Y-62562380D01*
X95741785Y-62562380D02*
X95616785Y-61562380D01*
X95735833Y-62514761D02*
X95837023Y-62562380D01*
X96027500Y-62562380D01*
X96116785Y-62514761D01*
X96158452Y-62467142D01*
X96194166Y-62371904D01*
X96158452Y-62086190D01*
X96098928Y-61990952D01*
X96045357Y-61943333D01*
X95944166Y-61895714D01*
X95753690Y-61895714D01*
X95664404Y-61943333D01*
X94753690Y-61895714D02*
X94837023Y-62562380D01*
X95182261Y-61895714D02*
X95247738Y-62419523D01*
X95212023Y-62514761D01*
X95122738Y-62562380D01*
X94979880Y-62562380D01*
X94878690Y-62514761D01*
X94825119Y-62467142D01*
X94217976Y-62562380D02*
X94307261Y-62514761D01*
X94342976Y-62419523D01*
X94235833Y-61562380D01*
X93450119Y-62514761D02*
X93551309Y-62562380D01*
X93741785Y-62562380D01*
X93831071Y-62514761D01*
X93866785Y-62419523D01*
X93819166Y-62038571D01*
X93759642Y-61943333D01*
X93658452Y-61895714D01*
X93467976Y-61895714D01*
X93378690Y-61943333D01*
X93342976Y-62038571D01*
X93354880Y-62133809D01*
X93842976Y-62229047D01*
X92967976Y-62467142D02*
X92926309Y-62514761D01*
X92979880Y-62562380D01*
X93021547Y-62514761D01*
X92967976Y-62467142D01*
X92979880Y-62562380D01*
X123842976Y-86997142D02*
X123890595Y-87044761D01*
X124033452Y-87092380D01*
X124128690Y-87092380D01*
X124271547Y-87044761D01*
X124366785Y-86949523D01*
X124414404Y-86854285D01*
X124462023Y-86663809D01*
X124462023Y-86520952D01*
X124414404Y-86330476D01*
X124366785Y-86235238D01*
X124271547Y-86140000D01*
X124128690Y-86092380D01*
X124033452Y-86092380D01*
X123890595Y-86140000D01*
X123842976Y-86187619D01*
X123271547Y-87092380D02*
X123366785Y-87044761D01*
X123414404Y-86997142D01*
X123462023Y-86901904D01*
X123462023Y-86616190D01*
X123414404Y-86520952D01*
X123366785Y-86473333D01*
X123271547Y-86425714D01*
X123128690Y-86425714D01*
X123033452Y-86473333D01*
X122985833Y-86520952D01*
X122938214Y-86616190D01*
X122938214Y-86901904D01*
X122985833Y-86997142D01*
X123033452Y-87044761D01*
X123128690Y-87092380D01*
X123271547Y-87092380D01*
X122509642Y-87092380D02*
X122509642Y-86425714D01*
X122509642Y-86520952D02*
X122462023Y-86473333D01*
X122366785Y-86425714D01*
X122223928Y-86425714D01*
X122128690Y-86473333D01*
X122081071Y-86568571D01*
X122081071Y-87092380D01*
X122081071Y-86568571D02*
X122033452Y-86473333D01*
X121938214Y-86425714D01*
X121795357Y-86425714D01*
X121700119Y-86473333D01*
X121652500Y-86568571D01*
X121652500Y-87092380D01*
X121176309Y-86425714D02*
X121176309Y-87425714D01*
X121176309Y-86473333D02*
X121081071Y-86425714D01*
X120890595Y-86425714D01*
X120795357Y-86473333D01*
X120747738Y-86520952D01*
X120700119Y-86616190D01*
X120700119Y-86901904D01*
X120747738Y-86997142D01*
X120795357Y-87044761D01*
X120890595Y-87092380D01*
X121081071Y-87092380D01*
X121176309Y-87044761D01*
X120128690Y-87092380D02*
X120223928Y-87044761D01*
X120271547Y-86949523D01*
X120271547Y-86092380D01*
X119366785Y-87044761D02*
X119462023Y-87092380D01*
X119652500Y-87092380D01*
X119747738Y-87044761D01*
X119795357Y-86949523D01*
X119795357Y-86568571D01*
X119747738Y-86473333D01*
X119652500Y-86425714D01*
X119462023Y-86425714D01*
X119366785Y-86473333D01*
X119319166Y-86568571D01*
X119319166Y-86663809D01*
X119795357Y-86759047D01*
X119033452Y-86425714D02*
X118652500Y-86425714D01*
X118890595Y-86092380D02*
X118890595Y-86949523D01*
X118842976Y-87044761D01*
X118747738Y-87092380D01*
X118652500Y-87092380D01*
X117938214Y-87044761D02*
X118033452Y-87092380D01*
X118223928Y-87092380D01*
X118319166Y-87044761D01*
X118366785Y-86949523D01*
X118366785Y-86568571D01*
X118319166Y-86473333D01*
X118223928Y-86425714D01*
X118033452Y-86425714D01*
X117938214Y-86473333D01*
X117890595Y-86568571D01*
X117890595Y-86663809D01*
X118366785Y-86759047D01*
X116271547Y-87092380D02*
X116271547Y-86568571D01*
X116319166Y-86473333D01*
X116414404Y-86425714D01*
X116604880Y-86425714D01*
X116700119Y-86473333D01*
X116271547Y-87044761D02*
X116366785Y-87092380D01*
X116604880Y-87092380D01*
X116700119Y-87044761D01*
X116747738Y-86949523D01*
X116747738Y-86854285D01*
X116700119Y-86759047D01*
X116604880Y-86711428D01*
X116366785Y-86711428D01*
X116271547Y-86663809D01*
X115842976Y-87044761D02*
X115747738Y-87092380D01*
X115557261Y-87092380D01*
X115462023Y-87044761D01*
X115414404Y-86949523D01*
X115414404Y-86901904D01*
X115462023Y-86806666D01*
X115557261Y-86759047D01*
X115700119Y-86759047D01*
X115795357Y-86711428D01*
X115842976Y-86616190D01*
X115842976Y-86568571D01*
X115795357Y-86473333D01*
X115700119Y-86425714D01*
X115557261Y-86425714D01*
X115462023Y-86473333D01*
X115033452Y-87044761D02*
X114938214Y-87092380D01*
X114747738Y-87092380D01*
X114652500Y-87044761D01*
X114604880Y-86949523D01*
X114604880Y-86901904D01*
X114652500Y-86806666D01*
X114747738Y-86759047D01*
X114890595Y-86759047D01*
X114985833Y-86711428D01*
X115033452Y-86616190D01*
X115033452Y-86568571D01*
X114985833Y-86473333D01*
X114890595Y-86425714D01*
X114747738Y-86425714D01*
X114652500Y-86473333D01*
X113795357Y-87044761D02*
X113890595Y-87092380D01*
X114081071Y-87092380D01*
X114176309Y-87044761D01*
X114223928Y-86949523D01*
X114223928Y-86568571D01*
X114176309Y-86473333D01*
X114081071Y-86425714D01*
X113890595Y-86425714D01*
X113795357Y-86473333D01*
X113747738Y-86568571D01*
X113747738Y-86663809D01*
X114223928Y-86759047D01*
X113319166Y-87092380D02*
X113319166Y-86425714D01*
X113319166Y-86520952D02*
X113271547Y-86473333D01*
X113176309Y-86425714D01*
X113033452Y-86425714D01*
X112938214Y-86473333D01*
X112890595Y-86568571D01*
X112890595Y-87092380D01*
X112890595Y-86568571D02*
X112842976Y-86473333D01*
X112747738Y-86425714D01*
X112604880Y-86425714D01*
X112509642Y-86473333D01*
X112462023Y-86568571D01*
X112462023Y-87092380D01*
X111985833Y-87092380D02*
X111985833Y-86092380D01*
X111985833Y-86473333D02*
X111890595Y-86425714D01*
X111700119Y-86425714D01*
X111604880Y-86473333D01*
X111557261Y-86520952D01*
X111509642Y-86616190D01*
X111509642Y-86901904D01*
X111557261Y-86997142D01*
X111604880Y-87044761D01*
X111700119Y-87092380D01*
X111890595Y-87092380D01*
X111985833Y-87044761D01*
X110938214Y-87092380D02*
X111033452Y-87044761D01*
X111081071Y-86949523D01*
X111081071Y-86092380D01*
X110652500Y-86425714D02*
X110414404Y-87092380D01*
X110176309Y-86425714D02*
X110414404Y-87092380D01*
X110509642Y-87330476D01*
X110557261Y-87378095D01*
X110652500Y-87425714D01*
X109033452Y-86425714D02*
X109033452Y-87092380D01*
X109033452Y-86520952D02*
X108985833Y-86473333D01*
X108890595Y-86425714D01*
X108747738Y-86425714D01*
X108652500Y-86473333D01*
X108604880Y-86568571D01*
X108604880Y-87092380D01*
X107747738Y-87044761D02*
X107842976Y-87092380D01*
X108033452Y-87092380D01*
X108128690Y-87044761D01*
X108176309Y-86949523D01*
X108176309Y-86568571D01*
X108128690Y-86473333D01*
X108033452Y-86425714D01*
X107842976Y-86425714D01*
X107747738Y-86473333D01*
X107700119Y-86568571D01*
X107700119Y-86663809D01*
X108176309Y-86759047D01*
X106890595Y-87044761D02*
X106985833Y-87092380D01*
X107176309Y-87092380D01*
X107271547Y-87044761D01*
X107319166Y-86949523D01*
X107319166Y-86568571D01*
X107271547Y-86473333D01*
X107176309Y-86425714D01*
X106985833Y-86425714D01*
X106890595Y-86473333D01*
X106842976Y-86568571D01*
X106842976Y-86663809D01*
X107319166Y-86759047D01*
X105985833Y-87092380D02*
X105985833Y-86092380D01*
X105985833Y-87044761D02*
X106081071Y-87092380D01*
X106271547Y-87092380D01*
X106366785Y-87044761D01*
X106414404Y-86997142D01*
X106462023Y-86901904D01*
X106462023Y-86616190D01*
X106414404Y-86520952D01*
X106366785Y-86473333D01*
X106271547Y-86425714D01*
X106081071Y-86425714D01*
X105985833Y-86473333D01*
X105128690Y-87044761D02*
X105223928Y-87092380D01*
X105414404Y-87092380D01*
X105509642Y-87044761D01*
X105557261Y-86949523D01*
X105557261Y-86568571D01*
X105509642Y-86473333D01*
X105414404Y-86425714D01*
X105223928Y-86425714D01*
X105128690Y-86473333D01*
X105081071Y-86568571D01*
X105081071Y-86663809D01*
X105557261Y-86759047D01*
X104223928Y-87092380D02*
X104223928Y-86092380D01*
X104223928Y-87044761D02*
X104319166Y-87092380D01*
X104509642Y-87092380D01*
X104604880Y-87044761D01*
X104652500Y-86997142D01*
X104700119Y-86901904D01*
X104700119Y-86616190D01*
X104652500Y-86520952D01*
X104604880Y-86473333D01*
X104509642Y-86425714D01*
X104319166Y-86425714D01*
X104223928Y-86473333D01*
X102842976Y-87092380D02*
X102938214Y-87044761D01*
X102985833Y-86997142D01*
X103033452Y-86901904D01*
X103033452Y-86616190D01*
X102985833Y-86520952D01*
X102938214Y-86473333D01*
X102842976Y-86425714D01*
X102700119Y-86425714D01*
X102604880Y-86473333D01*
X102557261Y-86520952D01*
X102509642Y-86616190D01*
X102509642Y-86901904D01*
X102557261Y-86997142D01*
X102604880Y-87044761D01*
X102700119Y-87092380D01*
X102842976Y-87092380D01*
X102081071Y-86425714D02*
X102081071Y-87092380D01*
X102081071Y-86520952D02*
X102033452Y-86473333D01*
X101938214Y-86425714D01*
X101795357Y-86425714D01*
X101700119Y-86473333D01*
X101652500Y-86568571D01*
X101652500Y-87092380D01*
X101033452Y-87092380D02*
X101128690Y-87044761D01*
X101176309Y-86949523D01*
X101176309Y-86092380D01*
X100747738Y-86425714D02*
X100509642Y-87092380D01*
X100271547Y-86425714D02*
X100509642Y-87092380D01*
X100604880Y-87330476D01*
X100652500Y-87378095D01*
X100747738Y-87425714D01*
X99271547Y-86425714D02*
X98890595Y-86425714D01*
X99128690Y-87092380D02*
X99128690Y-86235238D01*
X99081071Y-86140000D01*
X98985833Y-86092380D01*
X98890595Y-86092380D01*
X98414404Y-87092380D02*
X98509642Y-87044761D01*
X98557261Y-86997142D01*
X98604880Y-86901904D01*
X98604880Y-86616190D01*
X98557261Y-86520952D01*
X98509642Y-86473333D01*
X98414404Y-86425714D01*
X98271547Y-86425714D01*
X98176309Y-86473333D01*
X98128690Y-86520952D01*
X98081071Y-86616190D01*
X98081071Y-86901904D01*
X98128690Y-86997142D01*
X98176309Y-87044761D01*
X98271547Y-87092380D01*
X98414404Y-87092380D01*
X97652500Y-87092380D02*
X97652500Y-86425714D01*
X97652500Y-86616190D02*
X97604880Y-86520952D01*
X97557261Y-86473333D01*
X97462023Y-86425714D01*
X97366785Y-86425714D01*
X96271547Y-87092380D02*
X96271547Y-86425714D01*
X96271547Y-86520952D02*
X96223928Y-86473333D01*
X96128690Y-86425714D01*
X95985833Y-86425714D01*
X95890595Y-86473333D01*
X95842976Y-86568571D01*
X95842976Y-87092380D01*
X95842976Y-86568571D02*
X95795357Y-86473333D01*
X95700119Y-86425714D01*
X95557261Y-86425714D01*
X95462023Y-86473333D01*
X95414404Y-86568571D01*
X95414404Y-87092380D01*
X94509642Y-87092380D02*
X94509642Y-86568571D01*
X94557261Y-86473333D01*
X94652500Y-86425714D01*
X94842976Y-86425714D01*
X94938214Y-86473333D01*
X94509642Y-87044761D02*
X94604880Y-87092380D01*
X94842976Y-87092380D01*
X94938214Y-87044761D01*
X94985833Y-86949523D01*
X94985833Y-86854285D01*
X94938214Y-86759047D01*
X94842976Y-86711428D01*
X94604880Y-86711428D01*
X94509642Y-86663809D01*
X94033452Y-87092380D02*
X94033452Y-86425714D01*
X94033452Y-86092380D02*
X94081071Y-86140000D01*
X94033452Y-86187619D01*
X93985833Y-86140000D01*
X94033452Y-86092380D01*
X94033452Y-86187619D01*
X93557261Y-86425714D02*
X93557261Y-87092380D01*
X93557261Y-86520952D02*
X93509642Y-86473333D01*
X93414404Y-86425714D01*
X93271547Y-86425714D01*
X93176309Y-86473333D01*
X93128690Y-86568571D01*
X93128690Y-87092380D01*
X124462023Y-88654761D02*
X124366785Y-88702380D01*
X124176309Y-88702380D01*
X124081071Y-88654761D01*
X124033452Y-88559523D01*
X124033452Y-88511904D01*
X124081071Y-88416666D01*
X124176309Y-88369047D01*
X124319166Y-88369047D01*
X124414404Y-88321428D01*
X124462023Y-88226190D01*
X124462023Y-88178571D01*
X124414404Y-88083333D01*
X124319166Y-88035714D01*
X124176309Y-88035714D01*
X124081071Y-88083333D01*
X123176309Y-88654761D02*
X123271547Y-88702380D01*
X123462023Y-88702380D01*
X123557261Y-88654761D01*
X123604880Y-88607142D01*
X123652500Y-88511904D01*
X123652500Y-88226190D01*
X123604880Y-88130952D01*
X123557261Y-88083333D01*
X123462023Y-88035714D01*
X123271547Y-88035714D01*
X123176309Y-88083333D01*
X122747738Y-88702380D02*
X122747738Y-88035714D01*
X122747738Y-88226190D02*
X122700119Y-88130952D01*
X122652500Y-88083333D01*
X122557261Y-88035714D01*
X122462023Y-88035714D01*
X121747738Y-88654761D02*
X121842976Y-88702380D01*
X122033452Y-88702380D01*
X122128690Y-88654761D01*
X122176309Y-88559523D01*
X122176309Y-88178571D01*
X122128690Y-88083333D01*
X122033452Y-88035714D01*
X121842976Y-88035714D01*
X121747738Y-88083333D01*
X121700119Y-88178571D01*
X121700119Y-88273809D01*
X122176309Y-88369047D01*
X120890595Y-88654761D02*
X120985833Y-88702380D01*
X121176309Y-88702380D01*
X121271547Y-88654761D01*
X121319166Y-88559523D01*
X121319166Y-88178571D01*
X121271547Y-88083333D01*
X121176309Y-88035714D01*
X120985833Y-88035714D01*
X120890595Y-88083333D01*
X120842976Y-88178571D01*
X120842976Y-88273809D01*
X121319166Y-88369047D01*
X120414404Y-88035714D02*
X120414404Y-88702380D01*
X120414404Y-88130952D02*
X120366785Y-88083333D01*
X120271547Y-88035714D01*
X120128690Y-88035714D01*
X120033452Y-88083333D01*
X119985833Y-88178571D01*
X119985833Y-88702380D01*
X119509642Y-88607142D02*
X119462023Y-88654761D01*
X119509642Y-88702380D01*
X119557261Y-88654761D01*
X119509642Y-88607142D01*
X119509642Y-88702380D01*
X118081071Y-87702380D02*
X117890595Y-87702380D01*
X117795357Y-87750000D01*
X117700119Y-87845238D01*
X117652499Y-88035714D01*
X117652499Y-88369047D01*
X117700119Y-88559523D01*
X117795357Y-88654761D01*
X117890595Y-88702380D01*
X118081071Y-88702380D01*
X118176309Y-88654761D01*
X118271547Y-88559523D01*
X118319166Y-88369047D01*
X118319166Y-88035714D01*
X118271547Y-87845238D01*
X118176309Y-87750000D01*
X118081071Y-87702380D01*
X117223928Y-88035714D02*
X117223928Y-88702380D01*
X117223928Y-88130952D02*
X117176309Y-88083333D01*
X117081071Y-88035714D01*
X116938214Y-88035714D01*
X116842976Y-88083333D01*
X116795357Y-88178571D01*
X116795357Y-88702380D01*
X116176309Y-88702380D02*
X116271547Y-88654761D01*
X116319166Y-88559523D01*
X116319166Y-87702380D01*
X115890595Y-88035714D02*
X115652500Y-88702380D01*
X115414404Y-88035714D02*
X115652500Y-88702380D01*
X115747738Y-88940476D01*
X115795357Y-88988095D01*
X115890595Y-89035714D01*
X114271547Y-88035714D02*
X114271547Y-89035714D01*
X114271547Y-88083333D02*
X114176309Y-88035714D01*
X113985833Y-88035714D01*
X113890595Y-88083333D01*
X113842976Y-88130952D01*
X113795357Y-88226190D01*
X113795357Y-88511904D01*
X113842976Y-88607142D01*
X113890595Y-88654761D01*
X113985833Y-88702380D01*
X114176309Y-88702380D01*
X114271547Y-88654761D01*
X113223928Y-88702380D02*
X113319166Y-88654761D01*
X113366785Y-88607142D01*
X113414404Y-88511904D01*
X113414404Y-88226190D01*
X113366785Y-88130952D01*
X113319166Y-88083333D01*
X113223928Y-88035714D01*
X113081071Y-88035714D01*
X112985833Y-88083333D01*
X112938214Y-88130952D01*
X112890595Y-88226190D01*
X112890595Y-88511904D01*
X112938214Y-88607142D01*
X112985833Y-88654761D01*
X113081071Y-88702380D01*
X113223928Y-88702380D01*
X112557261Y-88035714D02*
X112366785Y-88702380D01*
X112176309Y-88226190D01*
X111985833Y-88702380D01*
X111795357Y-88035714D01*
X111033452Y-88654761D02*
X111128690Y-88702380D01*
X111319166Y-88702380D01*
X111414404Y-88654761D01*
X111462023Y-88559523D01*
X111462023Y-88178571D01*
X111414404Y-88083333D01*
X111319166Y-88035714D01*
X111128690Y-88035714D01*
X111033452Y-88083333D01*
X110985833Y-88178571D01*
X110985833Y-88273809D01*
X111462023Y-88369047D01*
X110557261Y-88702380D02*
X110557261Y-88035714D01*
X110557261Y-88226190D02*
X110509642Y-88130952D01*
X110462023Y-88083333D01*
X110366785Y-88035714D01*
X110271547Y-88035714D01*
X109223928Y-88654761D02*
X109128690Y-88702380D01*
X108938214Y-88702380D01*
X108842976Y-88654761D01*
X108795357Y-88559523D01*
X108795357Y-88511904D01*
X108842976Y-88416666D01*
X108938214Y-88369047D01*
X109081071Y-88369047D01*
X109176309Y-88321428D01*
X109223928Y-88226190D01*
X109223928Y-88178571D01*
X109176309Y-88083333D01*
X109081071Y-88035714D01*
X108938214Y-88035714D01*
X108842976Y-88083333D01*
X107938214Y-88035714D02*
X107938214Y-88702380D01*
X108366785Y-88035714D02*
X108366785Y-88559523D01*
X108319166Y-88654761D01*
X108223928Y-88702380D01*
X108081071Y-88702380D01*
X107985833Y-88654761D01*
X107938214Y-88607142D01*
X107462023Y-88035714D02*
X107462023Y-89035714D01*
X107462023Y-88083333D02*
X107366785Y-88035714D01*
X107176309Y-88035714D01*
X107081071Y-88083333D01*
X107033452Y-88130952D01*
X106985833Y-88226190D01*
X106985833Y-88511904D01*
X107033452Y-88607142D01*
X107081071Y-88654761D01*
X107176309Y-88702380D01*
X107366785Y-88702380D01*
X107462023Y-88654761D01*
X106557261Y-88035714D02*
X106557261Y-89035714D01*
X106557261Y-88083333D02*
X106462023Y-88035714D01*
X106271547Y-88035714D01*
X106176309Y-88083333D01*
X106128690Y-88130952D01*
X106081071Y-88226190D01*
X106081071Y-88511904D01*
X106128690Y-88607142D01*
X106176309Y-88654761D01*
X106271547Y-88702380D01*
X106462023Y-88702380D01*
X106557261Y-88654761D01*
X105509642Y-88702380D02*
X105604880Y-88654761D01*
X105652500Y-88559523D01*
X105652500Y-87702380D01*
X105223928Y-88035714D02*
X104985833Y-88702380D01*
X104747738Y-88035714D02*
X104985833Y-88702380D01*
X105081071Y-88940476D01*
X105128690Y-88988095D01*
X105223928Y-89035714D01*
X103176309Y-88702380D02*
X103176309Y-88178571D01*
X103223928Y-88083333D01*
X103319166Y-88035714D01*
X103509642Y-88035714D01*
X103604880Y-88083333D01*
X103176309Y-88654761D02*
X103271547Y-88702380D01*
X103509642Y-88702380D01*
X103604880Y-88654761D01*
X103652500Y-88559523D01*
X103652500Y-88464285D01*
X103604880Y-88369047D01*
X103509642Y-88321428D01*
X103271547Y-88321428D01*
X103176309Y-88273809D01*
X102700119Y-88035714D02*
X102700119Y-88702380D01*
X102700119Y-88130952D02*
X102652500Y-88083333D01*
X102557261Y-88035714D01*
X102414404Y-88035714D01*
X102319166Y-88083333D01*
X102271547Y-88178571D01*
X102271547Y-88702380D01*
X101366785Y-88702380D02*
X101366785Y-87702380D01*
X101366785Y-88654761D02*
X101462023Y-88702380D01*
X101652500Y-88702380D01*
X101747738Y-88654761D01*
X101795357Y-88607142D01*
X101842976Y-88511904D01*
X101842976Y-88226190D01*
X101795357Y-88130952D01*
X101747738Y-88083333D01*
X101652500Y-88035714D01*
X101462023Y-88035714D01*
X101366785Y-88083333D01*
X100176309Y-87702380D02*
X100176309Y-87892857D01*
X99795357Y-87702380D02*
X99795357Y-87892857D01*
X99414404Y-88654761D02*
X99271547Y-88702380D01*
X99033452Y-88702380D01*
X98938214Y-88654761D01*
X98890595Y-88607142D01*
X98842976Y-88511904D01*
X98842976Y-88416666D01*
X98890595Y-88321428D01*
X98938214Y-88273809D01*
X99033452Y-88226190D01*
X99223928Y-88178571D01*
X99319166Y-88130952D01*
X99366785Y-88083333D01*
X99414404Y-87988095D01*
X99414404Y-87892857D01*
X99366785Y-87797619D01*
X99319166Y-87750000D01*
X99223928Y-87702380D01*
X98985833Y-87702380D01*
X98842976Y-87750000D01*
X98414404Y-88178571D02*
X98081071Y-88178571D01*
X97938214Y-88702380D02*
X98414404Y-88702380D01*
X98414404Y-87702380D01*
X97938214Y-87702380D01*
X96938214Y-88607142D02*
X96985833Y-88654761D01*
X97128690Y-88702380D01*
X97223928Y-88702380D01*
X97366785Y-88654761D01*
X97462023Y-88559523D01*
X97509642Y-88464285D01*
X97557261Y-88273809D01*
X97557261Y-88130952D01*
X97509642Y-87940476D01*
X97462023Y-87845238D01*
X97366785Y-87750000D01*
X97223928Y-87702380D01*
X97128690Y-87702380D01*
X96985833Y-87750000D01*
X96938214Y-87797619D01*
X96404880Y-88011904D02*
X96252500Y-88011904D01*
X96176309Y-88050000D01*
X96100119Y-88126190D01*
X96062023Y-88278571D01*
X96062023Y-88545238D01*
X96100119Y-88697619D01*
X96176309Y-88773809D01*
X96252500Y-88811904D01*
X96404880Y-88811904D01*
X96481071Y-88773809D01*
X96557261Y-88697619D01*
X96595357Y-88545238D01*
X96595357Y-88278571D01*
X96557261Y-88126190D01*
X96481071Y-88050000D01*
X96404880Y-88011904D01*
X95719166Y-88011904D02*
X95719166Y-88659523D01*
X95681071Y-88735714D01*
X95642976Y-88773809D01*
X95566785Y-88811904D01*
X95414404Y-88811904D01*
X95338214Y-88773809D01*
X95300119Y-88735714D01*
X95262023Y-88659523D01*
X95262023Y-88011904D01*
X94995357Y-88011904D02*
X94538214Y-88011904D01*
X94766785Y-88811904D02*
X94766785Y-88011904D01*
X94271547Y-87702380D02*
X94271547Y-87892857D01*
X93890595Y-87702380D02*
X93890595Y-87892857D01*
X124414404Y-90312380D02*
X124414404Y-89312380D01*
X123985833Y-90312380D02*
X123985833Y-89788571D01*
X124033452Y-89693333D01*
X124128690Y-89645714D01*
X124271547Y-89645714D01*
X124366785Y-89693333D01*
X124414404Y-89740952D01*
X123128690Y-90264761D02*
X123223928Y-90312380D01*
X123414404Y-90312380D01*
X123509642Y-90264761D01*
X123557261Y-90169523D01*
X123557261Y-89788571D01*
X123509642Y-89693333D01*
X123414404Y-89645714D01*
X123223928Y-89645714D01*
X123128690Y-89693333D01*
X123081071Y-89788571D01*
X123081071Y-89883809D01*
X123557261Y-89979047D01*
X122223928Y-90312380D02*
X122223928Y-89788571D01*
X122271547Y-89693333D01*
X122366785Y-89645714D01*
X122557261Y-89645714D01*
X122652500Y-89693333D01*
X122223928Y-90264761D02*
X122319166Y-90312380D01*
X122557261Y-90312380D01*
X122652500Y-90264761D01*
X122700119Y-90169523D01*
X122700119Y-90074285D01*
X122652500Y-89979047D01*
X122557261Y-89931428D01*
X122319166Y-89931428D01*
X122223928Y-89883809D01*
X121319166Y-90312380D02*
X121319166Y-89312380D01*
X121319166Y-90264761D02*
X121414404Y-90312380D01*
X121604880Y-90312380D01*
X121700119Y-90264761D01*
X121747738Y-90217142D01*
X121795357Y-90121904D01*
X121795357Y-89836190D01*
X121747738Y-89740952D01*
X121700119Y-89693333D01*
X121604880Y-89645714D01*
X121414404Y-89645714D01*
X121319166Y-89693333D01*
X120462023Y-90264761D02*
X120557261Y-90312380D01*
X120747738Y-90312380D01*
X120842976Y-90264761D01*
X120890595Y-90169523D01*
X120890595Y-89788571D01*
X120842976Y-89693333D01*
X120747738Y-89645714D01*
X120557261Y-89645714D01*
X120462023Y-89693333D01*
X120414404Y-89788571D01*
X120414404Y-89883809D01*
X120890595Y-89979047D01*
X119985833Y-90312380D02*
X119985833Y-89645714D01*
X119985833Y-89836190D02*
X119938214Y-89740952D01*
X119890595Y-89693333D01*
X119795357Y-89645714D01*
X119700119Y-89645714D01*
X118604880Y-89645714D02*
X118604880Y-90312380D01*
X118604880Y-89740952D02*
X118557261Y-89693333D01*
X118462023Y-89645714D01*
X118319166Y-89645714D01*
X118223928Y-89693333D01*
X118176309Y-89788571D01*
X118176309Y-90312380D01*
X117319166Y-90264761D02*
X117414404Y-90312380D01*
X117604880Y-90312380D01*
X117700119Y-90264761D01*
X117747738Y-90169523D01*
X117747738Y-89788571D01*
X117700119Y-89693333D01*
X117604880Y-89645714D01*
X117414404Y-89645714D01*
X117319166Y-89693333D01*
X117271547Y-89788571D01*
X117271547Y-89883809D01*
X117747738Y-89979047D01*
X116462023Y-90264761D02*
X116557261Y-90312380D01*
X116747738Y-90312380D01*
X116842976Y-90264761D01*
X116890595Y-90169523D01*
X116890595Y-89788571D01*
X116842976Y-89693333D01*
X116747738Y-89645714D01*
X116557261Y-89645714D01*
X116462023Y-89693333D01*
X116414404Y-89788571D01*
X116414404Y-89883809D01*
X116890595Y-89979047D01*
X115557261Y-90312380D02*
X115557261Y-89312380D01*
X115557261Y-90264761D02*
X115652500Y-90312380D01*
X115842976Y-90312380D01*
X115938214Y-90264761D01*
X115985833Y-90217142D01*
X116033452Y-90121904D01*
X116033452Y-89836190D01*
X115985833Y-89740952D01*
X115938214Y-89693333D01*
X115842976Y-89645714D01*
X115652500Y-89645714D01*
X115557261Y-89693333D01*
X114700119Y-90264761D02*
X114795357Y-90312380D01*
X114985833Y-90312380D01*
X115081071Y-90264761D01*
X115128690Y-90169523D01*
X115128690Y-89788571D01*
X115081071Y-89693333D01*
X114985833Y-89645714D01*
X114795357Y-89645714D01*
X114700119Y-89693333D01*
X114652500Y-89788571D01*
X114652500Y-89883809D01*
X115128690Y-89979047D01*
X113795357Y-90312380D02*
X113795357Y-89312380D01*
X113795357Y-90264761D02*
X113890595Y-90312380D01*
X114081071Y-90312380D01*
X114176309Y-90264761D01*
X114223928Y-90217142D01*
X114271547Y-90121904D01*
X114271547Y-89836190D01*
X114223928Y-89740952D01*
X114176309Y-89693333D01*
X114081071Y-89645714D01*
X113890595Y-89645714D01*
X113795357Y-89693333D01*
X112414404Y-90312380D02*
X112509642Y-90264761D01*
X112557261Y-90217142D01*
X112604880Y-90121904D01*
X112604880Y-89836190D01*
X112557261Y-89740952D01*
X112509642Y-89693333D01*
X112414404Y-89645714D01*
X112271547Y-89645714D01*
X112176309Y-89693333D01*
X112128690Y-89740952D01*
X112081071Y-89836190D01*
X112081071Y-90121904D01*
X112128690Y-90217142D01*
X112176309Y-90264761D01*
X112271547Y-90312380D01*
X112414404Y-90312380D01*
X111652500Y-89645714D02*
X111652500Y-90312380D01*
X111652500Y-89740952D02*
X111604880Y-89693333D01*
X111509642Y-89645714D01*
X111366785Y-89645714D01*
X111271547Y-89693333D01*
X111223928Y-89788571D01*
X111223928Y-90312380D01*
X110033452Y-90264761D02*
X109938214Y-90312380D01*
X109747738Y-90312380D01*
X109652500Y-90264761D01*
X109604880Y-90169523D01*
X109604880Y-90121904D01*
X109652500Y-90026666D01*
X109747738Y-89979047D01*
X109890595Y-89979047D01*
X109985833Y-89931428D01*
X110033452Y-89836190D01*
X110033452Y-89788571D01*
X109985833Y-89693333D01*
X109890595Y-89645714D01*
X109747738Y-89645714D01*
X109652500Y-89693333D01*
X108795357Y-90264761D02*
X108890595Y-90312380D01*
X109081071Y-90312380D01*
X109176309Y-90264761D01*
X109223928Y-90169523D01*
X109223928Y-89788571D01*
X109176309Y-89693333D01*
X109081071Y-89645714D01*
X108890595Y-89645714D01*
X108795357Y-89693333D01*
X108747738Y-89788571D01*
X108747738Y-89883809D01*
X109223928Y-89979047D01*
X107890595Y-90264761D02*
X107985833Y-90312380D01*
X108176309Y-90312380D01*
X108271547Y-90264761D01*
X108319166Y-90217142D01*
X108366785Y-90121904D01*
X108366785Y-89836190D01*
X108319166Y-89740952D01*
X108271547Y-89693333D01*
X108176309Y-89645714D01*
X107985833Y-89645714D01*
X107890595Y-89693333D01*
X107319166Y-90312380D02*
X107414404Y-90264761D01*
X107462023Y-90217142D01*
X107509642Y-90121904D01*
X107509642Y-89836190D01*
X107462023Y-89740952D01*
X107414404Y-89693333D01*
X107319166Y-89645714D01*
X107176309Y-89645714D01*
X107081071Y-89693333D01*
X107033452Y-89740952D01*
X106985833Y-89836190D01*
X106985833Y-90121904D01*
X107033452Y-90217142D01*
X107081071Y-90264761D01*
X107176309Y-90312380D01*
X107319166Y-90312380D01*
X106557261Y-89645714D02*
X106557261Y-90312380D01*
X106557261Y-89740952D02*
X106509642Y-89693333D01*
X106414404Y-89645714D01*
X106271547Y-89645714D01*
X106176309Y-89693333D01*
X106128690Y-89788571D01*
X106128690Y-90312380D01*
X105223928Y-90312380D02*
X105223928Y-89312380D01*
X105223928Y-90264761D02*
X105319166Y-90312380D01*
X105509642Y-90312380D01*
X105604880Y-90264761D01*
X105652500Y-90217142D01*
X105700119Y-90121904D01*
X105700119Y-89836190D01*
X105652500Y-89740952D01*
X105604880Y-89693333D01*
X105509642Y-89645714D01*
X105319166Y-89645714D01*
X105223928Y-89693333D01*
X104319166Y-90312380D02*
X104319166Y-89788571D01*
X104366785Y-89693333D01*
X104462023Y-89645714D01*
X104652500Y-89645714D01*
X104747738Y-89693333D01*
X104319166Y-90264761D02*
X104414404Y-90312380D01*
X104652500Y-90312380D01*
X104747738Y-90264761D01*
X104795357Y-90169523D01*
X104795357Y-90074285D01*
X104747738Y-89979047D01*
X104652500Y-89931428D01*
X104414404Y-89931428D01*
X104319166Y-89883809D01*
X103842976Y-90312380D02*
X103842976Y-89645714D01*
X103842976Y-89836190D02*
X103795357Y-89740952D01*
X103747738Y-89693333D01*
X103652500Y-89645714D01*
X103557261Y-89645714D01*
X103319166Y-89645714D02*
X103081071Y-90312380D01*
X102842976Y-89645714D02*
X103081071Y-90312380D01*
X103176309Y-90550476D01*
X103223928Y-90598095D01*
X103319166Y-90645714D01*
X101700119Y-90312380D02*
X101700119Y-89312380D01*
X101700119Y-89788571D02*
X101128690Y-89788571D01*
X101128690Y-90312380D02*
X101128690Y-89312380D01*
X100700119Y-90026666D02*
X100223928Y-90026666D01*
X100795357Y-90312380D02*
X100462023Y-89312380D01*
X100128690Y-90312380D01*
X99938214Y-89312380D02*
X99366785Y-89312380D01*
X99652500Y-90312380D02*
X99652500Y-89312380D01*
X99033452Y-90217142D02*
X98985833Y-90264761D01*
X99033452Y-90312380D01*
X99081071Y-90264761D01*
X99033452Y-90217142D01*
X99033452Y-90312380D01*
X106119047Y-104452380D02*
X106119047Y-105166666D01*
X106166666Y-105309523D01*
X106261904Y-105404761D01*
X106404761Y-105452380D01*
X106500000Y-105452380D01*
X105166666Y-105452380D02*
X105642857Y-105452380D01*
X105642857Y-104452380D01*
X104261904Y-105357142D02*
X104309523Y-105404761D01*
X104452380Y-105452380D01*
X104547619Y-105452380D01*
X104690476Y-105404761D01*
X104785714Y-105309523D01*
X104833333Y-105214285D01*
X104880952Y-105023809D01*
X104880952Y-104880952D01*
X104833333Y-104690476D01*
X104785714Y-104595238D01*
X104690476Y-104500000D01*
X104547619Y-104452380D01*
X104452380Y-104452380D01*
X104309523Y-104500000D01*
X104261904Y-104547619D01*
X103547619Y-104452380D02*
X103547619Y-105166666D01*
X103595238Y-105309523D01*
X103690476Y-105404761D01*
X103833333Y-105452380D01*
X103928571Y-105452380D01*
X102595238Y-105452380D02*
X103071428Y-105452380D01*
X103071428Y-104452380D01*
X101690476Y-105357142D02*
X101738095Y-105404761D01*
X101880952Y-105452380D01*
X101976190Y-105452380D01*
X102119047Y-105404761D01*
X102214285Y-105309523D01*
X102261904Y-105214285D01*
X102309523Y-105023809D01*
X102309523Y-104880952D01*
X102261904Y-104690476D01*
X102214285Y-104595238D01*
X102119047Y-104500000D01*
X101976190Y-104452380D01*
X101880952Y-104452380D01*
X101738095Y-104500000D01*
X101690476Y-104547619D01*
X100976190Y-104452380D02*
X100976190Y-105166666D01*
X101023809Y-105309523D01*
X101119047Y-105404761D01*
X101261904Y-105452380D01*
X101357142Y-105452380D01*
X100023809Y-105452380D02*
X100500000Y-105452380D01*
X100500000Y-104452380D01*
X99119047Y-105357142D02*
X99166666Y-105404761D01*
X99309523Y-105452380D01*
X99404761Y-105452380D01*
X99547619Y-105404761D01*
X99642857Y-105309523D01*
X99690476Y-105214285D01*
X99738095Y-105023809D01*
X99738095Y-104880952D01*
X99690476Y-104690476D01*
X99642857Y-104595238D01*
X99547619Y-104500000D01*
X99404761Y-104452380D01*
X99309523Y-104452380D01*
X99166666Y-104500000D01*
X99119047Y-104547619D01*
X98404761Y-104452380D02*
X98404761Y-105166666D01*
X98452380Y-105309523D01*
X98547619Y-105404761D01*
X98690476Y-105452380D01*
X98785714Y-105452380D01*
X97452380Y-105452380D02*
X97928571Y-105452380D01*
X97928571Y-104452380D01*
X96547619Y-105357142D02*
X96595238Y-105404761D01*
X96738095Y-105452380D01*
X96833333Y-105452380D01*
X96976190Y-105404761D01*
X97071428Y-105309523D01*
X97119047Y-105214285D01*
X97166666Y-105023809D01*
X97166666Y-104880952D01*
X97119047Y-104690476D01*
X97071428Y-104595238D01*
X96976190Y-104500000D01*
X96833333Y-104452380D01*
X96738095Y-104452380D01*
X96595238Y-104500000D01*
X96547619Y-104547619D01*
X147914404Y-70991428D02*
X147152500Y-70991428D01*
X145914404Y-70848571D02*
X145581071Y-70848571D01*
X145438214Y-71372380D02*
X145914404Y-71372380D01*
X145914404Y-70372380D01*
X145438214Y-70372380D01*
X145009642Y-70705714D02*
X145009642Y-71372380D01*
X145009642Y-70800952D02*
X144962023Y-70753333D01*
X144866785Y-70705714D01*
X144723928Y-70705714D01*
X144628690Y-70753333D01*
X144581071Y-70848571D01*
X144581071Y-71372380D01*
X143676309Y-71324761D02*
X143771547Y-71372380D01*
X143962023Y-71372380D01*
X144057261Y-71324761D01*
X144104880Y-71277142D01*
X144152500Y-71181904D01*
X144152500Y-70896190D01*
X144104880Y-70800952D01*
X144057261Y-70753333D01*
X143962023Y-70705714D01*
X143771547Y-70705714D01*
X143676309Y-70753333D01*
X143104880Y-71372380D02*
X143200119Y-71324761D01*
X143247738Y-71277142D01*
X143295357Y-71181904D01*
X143295357Y-70896190D01*
X143247738Y-70800952D01*
X143200119Y-70753333D01*
X143104880Y-70705714D01*
X142962023Y-70705714D01*
X142866785Y-70753333D01*
X142819166Y-70800952D01*
X142771547Y-70896190D01*
X142771547Y-71181904D01*
X142819166Y-71277142D01*
X142866785Y-71324761D01*
X142962023Y-71372380D01*
X143104880Y-71372380D01*
X141914404Y-71372380D02*
X141914404Y-70372380D01*
X141914404Y-71324761D02*
X142009642Y-71372380D01*
X142200119Y-71372380D01*
X142295357Y-71324761D01*
X142342976Y-71277142D01*
X142390595Y-71181904D01*
X142390595Y-70896190D01*
X142342976Y-70800952D01*
X142295357Y-70753333D01*
X142200119Y-70705714D01*
X142009642Y-70705714D01*
X141914404Y-70753333D01*
X141057261Y-71324761D02*
X141152500Y-71372380D01*
X141342976Y-71372380D01*
X141438214Y-71324761D01*
X141485833Y-71229523D01*
X141485833Y-70848571D01*
X141438214Y-70753333D01*
X141342976Y-70705714D01*
X141152500Y-70705714D01*
X141057261Y-70753333D01*
X141009642Y-70848571D01*
X141009642Y-70943809D01*
X141485833Y-71039047D01*
X140581071Y-71372380D02*
X140581071Y-70705714D01*
X140581071Y-70896190D02*
X140533452Y-70800952D01*
X140485833Y-70753333D01*
X140390595Y-70705714D01*
X140295357Y-70705714D01*
X139200119Y-71372380D02*
X139200119Y-70372380D01*
X139200119Y-70753333D02*
X139104880Y-70705714D01*
X138914404Y-70705714D01*
X138819166Y-70753333D01*
X138771547Y-70800952D01*
X138723928Y-70896190D01*
X138723928Y-71181904D01*
X138771547Y-71277142D01*
X138819166Y-71324761D01*
X138914404Y-71372380D01*
X139104880Y-71372380D01*
X139200119Y-71324761D01*
X137866785Y-71372380D02*
X137866785Y-70848571D01*
X137914404Y-70753333D01*
X138009642Y-70705714D01*
X138200119Y-70705714D01*
X138295357Y-70753333D01*
X137866785Y-71324761D02*
X137962023Y-71372380D01*
X138200119Y-71372380D01*
X138295357Y-71324761D01*
X138342976Y-71229523D01*
X138342976Y-71134285D01*
X138295357Y-71039047D01*
X138200119Y-70991428D01*
X137962023Y-70991428D01*
X137866785Y-70943809D01*
X137438214Y-71324761D02*
X137342976Y-71372380D01*
X137152500Y-71372380D01*
X137057261Y-71324761D01*
X137009642Y-71229523D01*
X137009642Y-71181904D01*
X137057261Y-71086666D01*
X137152500Y-71039047D01*
X137295357Y-71039047D01*
X137390595Y-70991428D01*
X137438214Y-70896190D01*
X137438214Y-70848571D01*
X137390595Y-70753333D01*
X137295357Y-70705714D01*
X137152500Y-70705714D01*
X137057261Y-70753333D01*
X136200119Y-71324761D02*
X136295357Y-71372380D01*
X136485833Y-71372380D01*
X136581071Y-71324761D01*
X136628690Y-71229523D01*
X136628690Y-70848571D01*
X136581071Y-70753333D01*
X136485833Y-70705714D01*
X136295357Y-70705714D01*
X136200119Y-70753333D01*
X136152500Y-70848571D01*
X136152500Y-70943809D01*
X136628690Y-71039047D01*
X135295357Y-71372380D02*
X135295357Y-70372380D01*
X135295357Y-71324761D02*
X135390595Y-71372380D01*
X135581071Y-71372380D01*
X135676309Y-71324761D01*
X135723928Y-71277142D01*
X135771547Y-71181904D01*
X135771547Y-70896190D01*
X135723928Y-70800952D01*
X135676309Y-70753333D01*
X135581071Y-70705714D01*
X135390595Y-70705714D01*
X135295357Y-70753333D01*
X134104880Y-71324761D02*
X134009642Y-71372380D01*
X133819166Y-71372380D01*
X133723928Y-71324761D01*
X133676309Y-71229523D01*
X133676309Y-71181904D01*
X133723928Y-71086666D01*
X133819166Y-71039047D01*
X133962023Y-71039047D01*
X134057261Y-70991428D01*
X134104880Y-70896190D01*
X134104880Y-70848571D01*
X134057261Y-70753333D01*
X133962023Y-70705714D01*
X133819166Y-70705714D01*
X133723928Y-70753333D01*
X133247738Y-70705714D02*
X133247738Y-71705714D01*
X133247738Y-70753333D02*
X133152500Y-70705714D01*
X132962023Y-70705714D01*
X132866785Y-70753333D01*
X132819166Y-70800952D01*
X132771547Y-70896190D01*
X132771547Y-71181904D01*
X132819166Y-71277142D01*
X132866785Y-71324761D01*
X132962023Y-71372380D01*
X133152500Y-71372380D01*
X133247738Y-71324761D01*
X131962023Y-71324761D02*
X132057261Y-71372380D01*
X132247738Y-71372380D01*
X132342976Y-71324761D01*
X132390595Y-71229523D01*
X132390595Y-70848571D01*
X132342976Y-70753333D01*
X132247738Y-70705714D01*
X132057261Y-70705714D01*
X131962023Y-70753333D01*
X131914404Y-70848571D01*
X131914404Y-70943809D01*
X132390595Y-71039047D01*
X131104880Y-71324761D02*
X131200119Y-71372380D01*
X131390595Y-71372380D01*
X131485833Y-71324761D01*
X131533452Y-71229523D01*
X131533452Y-70848571D01*
X131485833Y-70753333D01*
X131390595Y-70705714D01*
X131200119Y-70705714D01*
X131104880Y-70753333D01*
X131057261Y-70848571D01*
X131057261Y-70943809D01*
X131533452Y-71039047D01*
X130200119Y-71372380D02*
X130200119Y-70372380D01*
X130200119Y-71324761D02*
X130295357Y-71372380D01*
X130485833Y-71372380D01*
X130581071Y-71324761D01*
X130628690Y-71277142D01*
X130676309Y-71181904D01*
X130676309Y-70896190D01*
X130628690Y-70800952D01*
X130581071Y-70753333D01*
X130485833Y-70705714D01*
X130295357Y-70705714D01*
X130200119Y-70753333D01*
X129009642Y-70324761D02*
X129866785Y-71610476D01*
X128247738Y-71372380D02*
X128247738Y-70372380D01*
X128247738Y-71324761D02*
X128342976Y-71372380D01*
X128533452Y-71372380D01*
X128628690Y-71324761D01*
X128676309Y-71277142D01*
X128723928Y-71181904D01*
X128723928Y-70896190D01*
X128676309Y-70800952D01*
X128628690Y-70753333D01*
X128533452Y-70705714D01*
X128342976Y-70705714D01*
X128247738Y-70753333D01*
X127771547Y-71372380D02*
X127771547Y-70705714D01*
X127771547Y-70372380D02*
X127819166Y-70420000D01*
X127771547Y-70467619D01*
X127723928Y-70420000D01*
X127771547Y-70372380D01*
X127771547Y-70467619D01*
X127342976Y-71324761D02*
X127247738Y-71372380D01*
X127057261Y-71372380D01*
X126962023Y-71324761D01*
X126914404Y-71229523D01*
X126914404Y-71181904D01*
X126962023Y-71086666D01*
X127057261Y-71039047D01*
X127200119Y-71039047D01*
X127295357Y-70991428D01*
X127342976Y-70896190D01*
X127342976Y-70848571D01*
X127295357Y-70753333D01*
X127200119Y-70705714D01*
X127057261Y-70705714D01*
X126962023Y-70753333D01*
X126628690Y-70705714D02*
X126247738Y-70705714D01*
X126485833Y-70372380D02*
X126485833Y-71229523D01*
X126438214Y-71324761D01*
X126342976Y-71372380D01*
X126247738Y-71372380D01*
X125485833Y-71372380D02*
X125485833Y-70848571D01*
X125533452Y-70753333D01*
X125628690Y-70705714D01*
X125819166Y-70705714D01*
X125914404Y-70753333D01*
X125485833Y-71324761D02*
X125581071Y-71372380D01*
X125819166Y-71372380D01*
X125914404Y-71324761D01*
X125962023Y-71229523D01*
X125962023Y-71134285D01*
X125914404Y-71039047D01*
X125819166Y-70991428D01*
X125581071Y-70991428D01*
X125485833Y-70943809D01*
X125009642Y-70705714D02*
X125009642Y-71372380D01*
X125009642Y-70800952D02*
X124962023Y-70753333D01*
X124866785Y-70705714D01*
X124723928Y-70705714D01*
X124628690Y-70753333D01*
X124581071Y-70848571D01*
X124581071Y-71372380D01*
X123676309Y-71324761D02*
X123771547Y-71372380D01*
X123962023Y-71372380D01*
X124057261Y-71324761D01*
X124104880Y-71277142D01*
X124152500Y-71181904D01*
X124152500Y-70896190D01*
X124104880Y-70800952D01*
X124057261Y-70753333D01*
X123962023Y-70705714D01*
X123771547Y-70705714D01*
X123676309Y-70753333D01*
X122866785Y-71324761D02*
X122962023Y-71372380D01*
X123152500Y-71372380D01*
X123247738Y-71324761D01*
X123295357Y-71229523D01*
X123295357Y-70848571D01*
X123247738Y-70753333D01*
X123152500Y-70705714D01*
X122962023Y-70705714D01*
X122866785Y-70753333D01*
X122819166Y-70848571D01*
X122819166Y-70943809D01*
X123295357Y-71039047D01*
X147914404Y-72601428D02*
X147152500Y-72601428D01*
X145390595Y-72030000D02*
X145485833Y-71982380D01*
X145628690Y-71982380D01*
X145771547Y-72030000D01*
X145866785Y-72125238D01*
X145914404Y-72220476D01*
X145962023Y-72410952D01*
X145962023Y-72553809D01*
X145914404Y-72744285D01*
X145866785Y-72839523D01*
X145771547Y-72934761D01*
X145628690Y-72982380D01*
X145533452Y-72982380D01*
X145390595Y-72934761D01*
X145342976Y-72887142D01*
X145342976Y-72553809D01*
X145533452Y-72553809D01*
X144914404Y-72982380D02*
X144914404Y-71982380D01*
X144533452Y-71982380D01*
X144438214Y-72030000D01*
X144390595Y-72077619D01*
X144342976Y-72172857D01*
X144342976Y-72315714D01*
X144390595Y-72410952D01*
X144438214Y-72458571D01*
X144533452Y-72506190D01*
X144914404Y-72506190D01*
X143962023Y-72934761D02*
X143819166Y-72982380D01*
X143581071Y-72982380D01*
X143485833Y-72934761D01*
X143438214Y-72887142D01*
X143390595Y-72791904D01*
X143390595Y-72696666D01*
X143438214Y-72601428D01*
X143485833Y-72553809D01*
X143581071Y-72506190D01*
X143771547Y-72458571D01*
X143866785Y-72410952D01*
X143914404Y-72363333D01*
X143962023Y-72268095D01*
X143962023Y-72172857D01*
X143914404Y-72077619D01*
X143866785Y-72030000D01*
X143771547Y-71982380D01*
X143533452Y-71982380D01*
X143390595Y-72030000D01*
X142200119Y-72982380D02*
X142200119Y-71982380D01*
X142200119Y-72363333D02*
X142104880Y-72315714D01*
X141914404Y-72315714D01*
X141819166Y-72363333D01*
X141771547Y-72410952D01*
X141723928Y-72506190D01*
X141723928Y-72791904D01*
X141771547Y-72887142D01*
X141819166Y-72934761D01*
X141914404Y-72982380D01*
X142104880Y-72982380D01*
X142200119Y-72934761D01*
X140866785Y-72982380D02*
X140866785Y-72458571D01*
X140914404Y-72363333D01*
X141009642Y-72315714D01*
X141200119Y-72315714D01*
X141295357Y-72363333D01*
X140866785Y-72934761D02*
X140962023Y-72982380D01*
X141200119Y-72982380D01*
X141295357Y-72934761D01*
X141342976Y-72839523D01*
X141342976Y-72744285D01*
X141295357Y-72649047D01*
X141200119Y-72601428D01*
X140962023Y-72601428D01*
X140866785Y-72553809D01*
X140438214Y-72934761D02*
X140342976Y-72982380D01*
X140152500Y-72982380D01*
X140057261Y-72934761D01*
X140009642Y-72839523D01*
X140009642Y-72791904D01*
X140057261Y-72696666D01*
X140152500Y-72649047D01*
X140295357Y-72649047D01*
X140390595Y-72601428D01*
X140438214Y-72506190D01*
X140438214Y-72458571D01*
X140390595Y-72363333D01*
X140295357Y-72315714D01*
X140152500Y-72315714D01*
X140057261Y-72363333D01*
X139200119Y-72934761D02*
X139295357Y-72982380D01*
X139485833Y-72982380D01*
X139581071Y-72934761D01*
X139628690Y-72839523D01*
X139628690Y-72458571D01*
X139581071Y-72363333D01*
X139485833Y-72315714D01*
X139295357Y-72315714D01*
X139200119Y-72363333D01*
X139152500Y-72458571D01*
X139152500Y-72553809D01*
X139628690Y-72649047D01*
X138295357Y-72982380D02*
X138295357Y-71982380D01*
X138295357Y-72934761D02*
X138390595Y-72982380D01*
X138581071Y-72982380D01*
X138676309Y-72934761D01*
X138723928Y-72887142D01*
X138771547Y-72791904D01*
X138771547Y-72506190D01*
X138723928Y-72410952D01*
X138676309Y-72363333D01*
X138581071Y-72315714D01*
X138390595Y-72315714D01*
X138295357Y-72363333D01*
X137104880Y-72934761D02*
X137009642Y-72982380D01*
X136819166Y-72982380D01*
X136723928Y-72934761D01*
X136676309Y-72839523D01*
X136676309Y-72791904D01*
X136723928Y-72696666D01*
X136819166Y-72649047D01*
X136962023Y-72649047D01*
X137057261Y-72601428D01*
X137104880Y-72506190D01*
X137104880Y-72458571D01*
X137057261Y-72363333D01*
X136962023Y-72315714D01*
X136819166Y-72315714D01*
X136723928Y-72363333D01*
X136247738Y-72315714D02*
X136247738Y-73315714D01*
X136247738Y-72363333D02*
X136152500Y-72315714D01*
X135962023Y-72315714D01*
X135866785Y-72363333D01*
X135819166Y-72410952D01*
X135771547Y-72506190D01*
X135771547Y-72791904D01*
X135819166Y-72887142D01*
X135866785Y-72934761D01*
X135962023Y-72982380D01*
X136152500Y-72982380D01*
X136247738Y-72934761D01*
X134962023Y-72934761D02*
X135057261Y-72982380D01*
X135247738Y-72982380D01*
X135342976Y-72934761D01*
X135390595Y-72839523D01*
X135390595Y-72458571D01*
X135342976Y-72363333D01*
X135247738Y-72315714D01*
X135057261Y-72315714D01*
X134962023Y-72363333D01*
X134914404Y-72458571D01*
X134914404Y-72553809D01*
X135390595Y-72649047D01*
X134104880Y-72934761D02*
X134200119Y-72982380D01*
X134390595Y-72982380D01*
X134485833Y-72934761D01*
X134533452Y-72839523D01*
X134533452Y-72458571D01*
X134485833Y-72363333D01*
X134390595Y-72315714D01*
X134200119Y-72315714D01*
X134104880Y-72363333D01*
X134057261Y-72458571D01*
X134057261Y-72553809D01*
X134533452Y-72649047D01*
X133200119Y-72982380D02*
X133200119Y-71982380D01*
X133200119Y-72934761D02*
X133295357Y-72982380D01*
X133485833Y-72982380D01*
X133581071Y-72934761D01*
X133628690Y-72887142D01*
X133676309Y-72791904D01*
X133676309Y-72506190D01*
X133628690Y-72410952D01*
X133581071Y-72363333D01*
X133485833Y-72315714D01*
X133295357Y-72315714D01*
X133200119Y-72363333D01*
X132009642Y-71934761D02*
X132866785Y-73220476D01*
X131247738Y-72982380D02*
X131247738Y-71982380D01*
X131247738Y-72934761D02*
X131342976Y-72982380D01*
X131533452Y-72982380D01*
X131628690Y-72934761D01*
X131676309Y-72887142D01*
X131723928Y-72791904D01*
X131723928Y-72506190D01*
X131676309Y-72410952D01*
X131628690Y-72363333D01*
X131533452Y-72315714D01*
X131342976Y-72315714D01*
X131247738Y-72363333D01*
X130771547Y-72982380D02*
X130771547Y-72315714D01*
X130771547Y-71982380D02*
X130819166Y-72030000D01*
X130771547Y-72077619D01*
X130723928Y-72030000D01*
X130771547Y-71982380D01*
X130771547Y-72077619D01*
X130342976Y-72934761D02*
X130247738Y-72982380D01*
X130057261Y-72982380D01*
X129962023Y-72934761D01*
X129914404Y-72839523D01*
X129914404Y-72791904D01*
X129962023Y-72696666D01*
X130057261Y-72649047D01*
X130200119Y-72649047D01*
X130295357Y-72601428D01*
X130342976Y-72506190D01*
X130342976Y-72458571D01*
X130295357Y-72363333D01*
X130200119Y-72315714D01*
X130057261Y-72315714D01*
X129962023Y-72363333D01*
X129628690Y-72315714D02*
X129247738Y-72315714D01*
X129485833Y-71982380D02*
X129485833Y-72839523D01*
X129438214Y-72934761D01*
X129342976Y-72982380D01*
X129247738Y-72982380D01*
X128485833Y-72982380D02*
X128485833Y-72458571D01*
X128533452Y-72363333D01*
X128628690Y-72315714D01*
X128819166Y-72315714D01*
X128914404Y-72363333D01*
X128485833Y-72934761D02*
X128581071Y-72982380D01*
X128819166Y-72982380D01*
X128914404Y-72934761D01*
X128962023Y-72839523D01*
X128962023Y-72744285D01*
X128914404Y-72649047D01*
X128819166Y-72601428D01*
X128581071Y-72601428D01*
X128485833Y-72553809D01*
X128009642Y-72315714D02*
X128009642Y-72982380D01*
X128009642Y-72410952D02*
X127962023Y-72363333D01*
X127866785Y-72315714D01*
X127723928Y-72315714D01*
X127628690Y-72363333D01*
X127581071Y-72458571D01*
X127581071Y-72982380D01*
X126676309Y-72934761D02*
X126771547Y-72982380D01*
X126962023Y-72982380D01*
X127057261Y-72934761D01*
X127104880Y-72887142D01*
X127152500Y-72791904D01*
X127152500Y-72506190D01*
X127104880Y-72410952D01*
X127057261Y-72363333D01*
X126962023Y-72315714D01*
X126771547Y-72315714D01*
X126676309Y-72363333D01*
X125866785Y-72934761D02*
X125962023Y-72982380D01*
X126152500Y-72982380D01*
X126247738Y-72934761D01*
X126295357Y-72839523D01*
X126295357Y-72458571D01*
X126247738Y-72363333D01*
X126152500Y-72315714D01*
X125962023Y-72315714D01*
X125866785Y-72363333D01*
X125819166Y-72458571D01*
X125819166Y-72553809D01*
X126295357Y-72649047D01*
X147914404Y-74211428D02*
X147152500Y-74211428D01*
X145581071Y-74068571D02*
X145438214Y-74116190D01*
X145390595Y-74163809D01*
X145342976Y-74259047D01*
X145342976Y-74401904D01*
X145390595Y-74497142D01*
X145438214Y-74544761D01*
X145533452Y-74592380D01*
X145914404Y-74592380D01*
X145914404Y-73592380D01*
X145581071Y-73592380D01*
X145485833Y-73640000D01*
X145438214Y-73687619D01*
X145390595Y-73782857D01*
X145390595Y-73878095D01*
X145438214Y-73973333D01*
X145485833Y-74020952D01*
X145581071Y-74068571D01*
X145914404Y-74068571D01*
X144485833Y-74592380D02*
X144485833Y-74068571D01*
X144533452Y-73973333D01*
X144628690Y-73925714D01*
X144819166Y-73925714D01*
X144914404Y-73973333D01*
X144485833Y-74544761D02*
X144581071Y-74592380D01*
X144819166Y-74592380D01*
X144914404Y-74544761D01*
X144962023Y-74449523D01*
X144962023Y-74354285D01*
X144914404Y-74259047D01*
X144819166Y-74211428D01*
X144581071Y-74211428D01*
X144485833Y-74163809D01*
X144152500Y-73925714D02*
X143771547Y-73925714D01*
X144009642Y-73592380D02*
X144009642Y-74449523D01*
X143962023Y-74544761D01*
X143866785Y-74592380D01*
X143771547Y-74592380D01*
X143581071Y-73925714D02*
X143200119Y-73925714D01*
X143438214Y-73592380D02*
X143438214Y-74449523D01*
X143390595Y-74544761D01*
X143295357Y-74592380D01*
X143200119Y-74592380D01*
X142485833Y-74544761D02*
X142581071Y-74592380D01*
X142771547Y-74592380D01*
X142866785Y-74544761D01*
X142914404Y-74449523D01*
X142914404Y-74068571D01*
X142866785Y-73973333D01*
X142771547Y-73925714D01*
X142581071Y-73925714D01*
X142485833Y-73973333D01*
X142438214Y-74068571D01*
X142438214Y-74163809D01*
X142914404Y-74259047D01*
X142009642Y-74592380D02*
X142009642Y-73925714D01*
X142009642Y-74116190D02*
X141962023Y-74020952D01*
X141914404Y-73973333D01*
X141819166Y-73925714D01*
X141723928Y-73925714D01*
X141485833Y-73925714D02*
X141247738Y-74592380D01*
X141009642Y-73925714D02*
X141247738Y-74592380D01*
X141342976Y-74830476D01*
X141390595Y-74878095D01*
X141485833Y-74925714D01*
X139723928Y-74592380D02*
X139819166Y-74544761D01*
X139866785Y-74449523D01*
X139866785Y-73592380D01*
X138962023Y-74544761D02*
X139057261Y-74592380D01*
X139247738Y-74592380D01*
X139342976Y-74544761D01*
X139390595Y-74449523D01*
X139390595Y-74068571D01*
X139342976Y-73973333D01*
X139247738Y-73925714D01*
X139057261Y-73925714D01*
X138962023Y-73973333D01*
X138914404Y-74068571D01*
X138914404Y-74163809D01*
X139390595Y-74259047D01*
X138581071Y-73925714D02*
X138342976Y-74592380D01*
X138104880Y-73925714D01*
X137342976Y-74544761D02*
X137438214Y-74592380D01*
X137628690Y-74592380D01*
X137723928Y-74544761D01*
X137771547Y-74449523D01*
X137771547Y-74068571D01*
X137723928Y-73973333D01*
X137628690Y-73925714D01*
X137438214Y-73925714D01*
X137342976Y-73973333D01*
X137295357Y-74068571D01*
X137295357Y-74163809D01*
X137771547Y-74259047D01*
X136723928Y-74592380D02*
X136819166Y-74544761D01*
X136866785Y-74449523D01*
X136866785Y-73592380D01*
X136390595Y-74544761D02*
X136295357Y-74592380D01*
X136104880Y-74592380D01*
X136009642Y-74544761D01*
X135962023Y-74449523D01*
X135962023Y-74401904D01*
X136009642Y-74306666D01*
X136104880Y-74259047D01*
X136247738Y-74259047D01*
X136342976Y-74211428D01*
X136390595Y-74116190D01*
X136390595Y-74068571D01*
X136342976Y-73973333D01*
X136247738Y-73925714D01*
X136104880Y-73925714D01*
X136009642Y-73973333D01*
X147914404Y-75821428D02*
X147152500Y-75821428D01*
X145342976Y-76107142D02*
X145390595Y-76154761D01*
X145533452Y-76202380D01*
X145628690Y-76202380D01*
X145771547Y-76154761D01*
X145866785Y-76059523D01*
X145914404Y-75964285D01*
X145962023Y-75773809D01*
X145962023Y-75630952D01*
X145914404Y-75440476D01*
X145866785Y-75345238D01*
X145771547Y-75250000D01*
X145628690Y-75202380D01*
X145533452Y-75202380D01*
X145390595Y-75250000D01*
X145342976Y-75297619D01*
X144723928Y-75202380D02*
X144533452Y-75202380D01*
X144438214Y-75250000D01*
X144342976Y-75345238D01*
X144295357Y-75535714D01*
X144295357Y-75869047D01*
X144342976Y-76059523D01*
X144438214Y-76154761D01*
X144533452Y-76202380D01*
X144723928Y-76202380D01*
X144819166Y-76154761D01*
X144914404Y-76059523D01*
X144962023Y-75869047D01*
X144962023Y-75535714D01*
X144914404Y-75345238D01*
X144819166Y-75250000D01*
X144723928Y-75202380D01*
X143952500Y-75588095D02*
X143914404Y-75550000D01*
X143838214Y-75511904D01*
X143647738Y-75511904D01*
X143571547Y-75550000D01*
X143533452Y-75588095D01*
X143495357Y-75664285D01*
X143495357Y-75740476D01*
X143533452Y-75854761D01*
X143990595Y-76311904D01*
X143495357Y-76311904D01*
X142200119Y-76202380D02*
X142295357Y-76154761D01*
X142342976Y-76059523D01*
X142342976Y-75202380D01*
X141438214Y-76154761D02*
X141533452Y-76202380D01*
X141723928Y-76202380D01*
X141819166Y-76154761D01*
X141866785Y-76059523D01*
X141866785Y-75678571D01*
X141819166Y-75583333D01*
X141723928Y-75535714D01*
X141533452Y-75535714D01*
X141438214Y-75583333D01*
X141390595Y-75678571D01*
X141390595Y-75773809D01*
X141866785Y-75869047D01*
X141057261Y-75535714D02*
X140819166Y-76202380D01*
X140581071Y-75535714D01*
X139819166Y-76154761D02*
X139914404Y-76202380D01*
X140104880Y-76202380D01*
X140200119Y-76154761D01*
X140247738Y-76059523D01*
X140247738Y-75678571D01*
X140200119Y-75583333D01*
X140104880Y-75535714D01*
X139914404Y-75535714D01*
X139819166Y-75583333D01*
X139771547Y-75678571D01*
X139771547Y-75773809D01*
X140247738Y-75869047D01*
X139200119Y-76202380D02*
X139295357Y-76154761D01*
X139342976Y-76059523D01*
X139342976Y-75202380D01*
X138866785Y-76154761D02*
X138771547Y-76202380D01*
X138581071Y-76202380D01*
X138485833Y-76154761D01*
X138438214Y-76059523D01*
X138438214Y-76011904D01*
X138485833Y-75916666D01*
X138581071Y-75869047D01*
X138723928Y-75869047D01*
X138819166Y-75821428D01*
X138866785Y-75726190D01*
X138866785Y-75678571D01*
X138819166Y-75583333D01*
X138723928Y-75535714D01*
X138581071Y-75535714D01*
X138485833Y-75583333D01*
X147914404Y-77431428D02*
X147152500Y-77431428D01*
X145581071Y-77288571D02*
X145438214Y-77336190D01*
X145390595Y-77383809D01*
X145342976Y-77479047D01*
X145342976Y-77621904D01*
X145390595Y-77717142D01*
X145438214Y-77764761D01*
X145533452Y-77812380D01*
X145914404Y-77812380D01*
X145914404Y-76812380D01*
X145581071Y-76812380D01*
X145485833Y-76860000D01*
X145438214Y-76907619D01*
X145390595Y-77002857D01*
X145390595Y-77098095D01*
X145438214Y-77193333D01*
X145485833Y-77240952D01*
X145581071Y-77288571D01*
X145914404Y-77288571D01*
X144914404Y-77812380D02*
X144914404Y-77145714D01*
X144914404Y-77336190D02*
X144866785Y-77240952D01*
X144819166Y-77193333D01*
X144723928Y-77145714D01*
X144628690Y-77145714D01*
X143866785Y-77812380D02*
X143866785Y-77288571D01*
X143914404Y-77193333D01*
X144009642Y-77145714D01*
X144200119Y-77145714D01*
X144295357Y-77193333D01*
X143866785Y-77764761D02*
X143962023Y-77812380D01*
X144200119Y-77812380D01*
X144295357Y-77764761D01*
X144342976Y-77669523D01*
X144342976Y-77574285D01*
X144295357Y-77479047D01*
X144200119Y-77431428D01*
X143962023Y-77431428D01*
X143866785Y-77383809D01*
X143390595Y-77812380D02*
X143390595Y-76812380D01*
X143295357Y-77431428D02*
X143009642Y-77812380D01*
X143009642Y-77145714D02*
X143390595Y-77526666D01*
X142200119Y-77764761D02*
X142295357Y-77812380D01*
X142485833Y-77812380D01*
X142581071Y-77764761D01*
X142628690Y-77669523D01*
X142628690Y-77288571D01*
X142581071Y-77193333D01*
X142485833Y-77145714D01*
X142295357Y-77145714D01*
X142200119Y-77193333D01*
X142152500Y-77288571D01*
X142152500Y-77383809D01*
X142628690Y-77479047D01*
X141104880Y-77145714D02*
X140723928Y-77145714D01*
X140962023Y-76812380D02*
X140962023Y-77669523D01*
X140914404Y-77764761D01*
X140819166Y-77812380D01*
X140723928Y-77812380D01*
X140009642Y-77764761D02*
X140104880Y-77812380D01*
X140295357Y-77812380D01*
X140390595Y-77764761D01*
X140438214Y-77669523D01*
X140438214Y-77288571D01*
X140390595Y-77193333D01*
X140295357Y-77145714D01*
X140104880Y-77145714D01*
X140009642Y-77193333D01*
X139962023Y-77288571D01*
X139962023Y-77383809D01*
X140438214Y-77479047D01*
X139533452Y-77812380D02*
X139533452Y-77145714D01*
X139533452Y-77240952D02*
X139485833Y-77193333D01*
X139390595Y-77145714D01*
X139247738Y-77145714D01*
X139152500Y-77193333D01*
X139104880Y-77288571D01*
X139104880Y-77812380D01*
X139104880Y-77288571D02*
X139057261Y-77193333D01*
X138962023Y-77145714D01*
X138819166Y-77145714D01*
X138723928Y-77193333D01*
X138676309Y-77288571D01*
X138676309Y-77812380D01*
X138200119Y-77145714D02*
X138200119Y-78145714D01*
X138200119Y-77193333D02*
X138104880Y-77145714D01*
X137914404Y-77145714D01*
X137819166Y-77193333D01*
X137771547Y-77240952D01*
X137723928Y-77336190D01*
X137723928Y-77621904D01*
X137771547Y-77717142D01*
X137819166Y-77764761D01*
X137914404Y-77812380D01*
X138104880Y-77812380D01*
X138200119Y-77764761D01*
X136914404Y-77764761D02*
X137009642Y-77812380D01*
X137200119Y-77812380D01*
X137295357Y-77764761D01*
X137342976Y-77669523D01*
X137342976Y-77288571D01*
X137295357Y-77193333D01*
X137200119Y-77145714D01*
X137009642Y-77145714D01*
X136914404Y-77193333D01*
X136866785Y-77288571D01*
X136866785Y-77383809D01*
X137342976Y-77479047D01*
X136438214Y-77812380D02*
X136438214Y-77145714D01*
X136438214Y-77336190D02*
X136390595Y-77240952D01*
X136342976Y-77193333D01*
X136247738Y-77145714D01*
X136152500Y-77145714D01*
X135390595Y-77812380D02*
X135390595Y-77288571D01*
X135438214Y-77193333D01*
X135533452Y-77145714D01*
X135723928Y-77145714D01*
X135819166Y-77193333D01*
X135390595Y-77764761D02*
X135485833Y-77812380D01*
X135723928Y-77812380D01*
X135819166Y-77764761D01*
X135866785Y-77669523D01*
X135866785Y-77574285D01*
X135819166Y-77479047D01*
X135723928Y-77431428D01*
X135485833Y-77431428D01*
X135390595Y-77383809D01*
X135057261Y-77145714D02*
X134676309Y-77145714D01*
X134914404Y-76812380D02*
X134914404Y-77669523D01*
X134866785Y-77764761D01*
X134771547Y-77812380D01*
X134676309Y-77812380D01*
X133914404Y-77145714D02*
X133914404Y-77812380D01*
X134342976Y-77145714D02*
X134342976Y-77669523D01*
X134295357Y-77764761D01*
X134200119Y-77812380D01*
X134057261Y-77812380D01*
X133962023Y-77764761D01*
X133914404Y-77717142D01*
X133438214Y-77812380D02*
X133438214Y-77145714D01*
X133438214Y-77336190D02*
X133390595Y-77240952D01*
X133342976Y-77193333D01*
X133247738Y-77145714D01*
X133152500Y-77145714D01*
X132438214Y-77764761D02*
X132533452Y-77812380D01*
X132723928Y-77812380D01*
X132819166Y-77764761D01*
X132866785Y-77669523D01*
X132866785Y-77288571D01*
X132819166Y-77193333D01*
X132723928Y-77145714D01*
X132533452Y-77145714D01*
X132438214Y-77193333D01*
X132390595Y-77288571D01*
X132390595Y-77383809D01*
X132866785Y-77479047D01*
X132009642Y-77764761D02*
X131914404Y-77812380D01*
X131723928Y-77812380D01*
X131628690Y-77764761D01*
X131581071Y-77669523D01*
X131581071Y-77621904D01*
X131628690Y-77526666D01*
X131723928Y-77479047D01*
X131866785Y-77479047D01*
X131962023Y-77431428D01*
X132009642Y-77336190D01*
X132009642Y-77288571D01*
X131962023Y-77193333D01*
X131866785Y-77145714D01*
X131723928Y-77145714D01*
X131628690Y-77193333D01*
X147914404Y-79041428D02*
X147152500Y-79041428D01*
X145962023Y-79136666D02*
X145485833Y-79136666D01*
X146057261Y-79422380D02*
X145723928Y-78422380D01*
X145390595Y-79422380D01*
X145057261Y-79422380D02*
X145057261Y-78755714D01*
X145057261Y-78850952D02*
X145009642Y-78803333D01*
X144914404Y-78755714D01*
X144771547Y-78755714D01*
X144676309Y-78803333D01*
X144628690Y-78898571D01*
X144628690Y-79422380D01*
X144628690Y-78898571D02*
X144581071Y-78803333D01*
X144485833Y-78755714D01*
X144342976Y-78755714D01*
X144247738Y-78803333D01*
X144200119Y-78898571D01*
X144200119Y-79422380D01*
X143723928Y-79422380D02*
X143723928Y-78422380D01*
X143723928Y-78803333D02*
X143628690Y-78755714D01*
X143438214Y-78755714D01*
X143342976Y-78803333D01*
X143295357Y-78850952D01*
X143247738Y-78946190D01*
X143247738Y-79231904D01*
X143295357Y-79327142D01*
X143342976Y-79374761D01*
X143438214Y-79422380D01*
X143628690Y-79422380D01*
X143723928Y-79374761D01*
X142819166Y-79422380D02*
X142819166Y-78755714D01*
X142819166Y-78422380D02*
X142866785Y-78470000D01*
X142819166Y-78517619D01*
X142771547Y-78470000D01*
X142819166Y-78422380D01*
X142819166Y-78517619D01*
X141962023Y-79374761D02*
X142057261Y-79422380D01*
X142247738Y-79422380D01*
X142342976Y-79374761D01*
X142390595Y-79279523D01*
X142390595Y-78898571D01*
X142342976Y-78803333D01*
X142247738Y-78755714D01*
X142057261Y-78755714D01*
X141962023Y-78803333D01*
X141914404Y-78898571D01*
X141914404Y-78993809D01*
X142390595Y-79089047D01*
X141485833Y-78755714D02*
X141485833Y-79422380D01*
X141485833Y-78850952D02*
X141438214Y-78803333D01*
X141342976Y-78755714D01*
X141200119Y-78755714D01*
X141104880Y-78803333D01*
X141057261Y-78898571D01*
X141057261Y-79422380D01*
X140723928Y-78755714D02*
X140342976Y-78755714D01*
X140581071Y-78422380D02*
X140581071Y-79279523D01*
X140533452Y-79374761D01*
X140438214Y-79422380D01*
X140342976Y-79422380D01*
X139390595Y-78755714D02*
X139009642Y-78755714D01*
X139247738Y-78422380D02*
X139247738Y-79279523D01*
X139200119Y-79374761D01*
X139104880Y-79422380D01*
X139009642Y-79422380D01*
X138295357Y-79374761D02*
X138390595Y-79422380D01*
X138581071Y-79422380D01*
X138676309Y-79374761D01*
X138723928Y-79279523D01*
X138723928Y-78898571D01*
X138676309Y-78803333D01*
X138581071Y-78755714D01*
X138390595Y-78755714D01*
X138295357Y-78803333D01*
X138247738Y-78898571D01*
X138247738Y-78993809D01*
X138723928Y-79089047D01*
X137819166Y-79422380D02*
X137819166Y-78755714D01*
X137819166Y-78850952D02*
X137771547Y-78803333D01*
X137676309Y-78755714D01*
X137533452Y-78755714D01*
X137438214Y-78803333D01*
X137390595Y-78898571D01*
X137390595Y-79422380D01*
X137390595Y-78898571D02*
X137342976Y-78803333D01*
X137247738Y-78755714D01*
X137104880Y-78755714D01*
X137009642Y-78803333D01*
X136962023Y-78898571D01*
X136962023Y-79422380D01*
X136485833Y-78755714D02*
X136485833Y-79755714D01*
X136485833Y-78803333D02*
X136390595Y-78755714D01*
X136200119Y-78755714D01*
X136104880Y-78803333D01*
X136057261Y-78850952D01*
X136009642Y-78946190D01*
X136009642Y-79231904D01*
X136057261Y-79327142D01*
X136104880Y-79374761D01*
X136200119Y-79422380D01*
X136390595Y-79422380D01*
X136485833Y-79374761D01*
X135581071Y-79327142D02*
X135533452Y-79374761D01*
X135581071Y-79422380D01*
X135628690Y-79374761D01*
X135581071Y-79327142D01*
X135581071Y-79422380D01*
X133628690Y-78374761D02*
X134485833Y-79660476D01*
X132533452Y-79422380D02*
X132533452Y-78422380D01*
X132104880Y-79422380D02*
X132104880Y-78898571D01*
X132152500Y-78803333D01*
X132247738Y-78755714D01*
X132390595Y-78755714D01*
X132485833Y-78803333D01*
X132533452Y-78850952D01*
X131200119Y-78755714D02*
X131200119Y-79422380D01*
X131628690Y-78755714D02*
X131628690Y-79279523D01*
X131581071Y-79374761D01*
X131485833Y-79422380D01*
X131342976Y-79422380D01*
X131247738Y-79374761D01*
X131200119Y-79327142D01*
X130723928Y-79422380D02*
X130723928Y-78755714D01*
X130723928Y-78850952D02*
X130676309Y-78803333D01*
X130581071Y-78755714D01*
X130438214Y-78755714D01*
X130342976Y-78803333D01*
X130295357Y-78898571D01*
X130295357Y-79422380D01*
X130295357Y-78898571D02*
X130247738Y-78803333D01*
X130152500Y-78755714D01*
X130009642Y-78755714D01*
X129914404Y-78803333D01*
X129866785Y-78898571D01*
X129866785Y-79422380D01*
X129390595Y-79422380D02*
X129390595Y-78755714D01*
X129390595Y-78422380D02*
X129438214Y-78470000D01*
X129390595Y-78517619D01*
X129342976Y-78470000D01*
X129390595Y-78422380D01*
X129390595Y-78517619D01*
X128485833Y-79422380D02*
X128485833Y-78422380D01*
X128485833Y-79374761D02*
X128581071Y-79422380D01*
X128771547Y-79422380D01*
X128866785Y-79374761D01*
X128914404Y-79327142D01*
X128962023Y-79231904D01*
X128962023Y-78946190D01*
X128914404Y-78850952D01*
X128866785Y-78803333D01*
X128771547Y-78755714D01*
X128581071Y-78755714D01*
X128485833Y-78803333D01*
X128009642Y-79422380D02*
X128009642Y-78755714D01*
X128009642Y-78422380D02*
X128057261Y-78470000D01*
X128009642Y-78517619D01*
X127962023Y-78470000D01*
X128009642Y-78422380D01*
X128009642Y-78517619D01*
X127676309Y-78755714D02*
X127295357Y-78755714D01*
X127533452Y-78422380D02*
X127533452Y-79279523D01*
X127485833Y-79374761D01*
X127390595Y-79422380D01*
X127295357Y-79422380D01*
X127057261Y-78755714D02*
X126819166Y-79422380D01*
X126581071Y-78755714D02*
X126819166Y-79422380D01*
X126914404Y-79660476D01*
X126962023Y-79708095D01*
X127057261Y-79755714D01*
X147914404Y-80651428D02*
X147152500Y-80651428D01*
X145342976Y-81032380D02*
X145676309Y-80556190D01*
X145914404Y-81032380D02*
X145914404Y-80032380D01*
X145533452Y-80032380D01*
X145438214Y-80080000D01*
X145390595Y-80127619D01*
X145342976Y-80222857D01*
X145342976Y-80365714D01*
X145390595Y-80460952D01*
X145438214Y-80508571D01*
X145533452Y-80556190D01*
X145914404Y-80556190D01*
X144914404Y-81032380D02*
X144914404Y-80365714D01*
X144914404Y-80032380D02*
X144962023Y-80080000D01*
X144914404Y-80127619D01*
X144866785Y-80080000D01*
X144914404Y-80032380D01*
X144914404Y-80127619D01*
X144009642Y-81032380D02*
X144009642Y-80032380D01*
X144009642Y-80984761D02*
X144104880Y-81032380D01*
X144295357Y-81032380D01*
X144390595Y-80984761D01*
X144438214Y-80937142D01*
X144485833Y-80841904D01*
X144485833Y-80556190D01*
X144438214Y-80460952D01*
X144390595Y-80413333D01*
X144295357Y-80365714D01*
X144104880Y-80365714D01*
X144009642Y-80413333D01*
X143152500Y-80984761D02*
X143247738Y-81032380D01*
X143438214Y-81032380D01*
X143533452Y-80984761D01*
X143581071Y-80889523D01*
X143581071Y-80508571D01*
X143533452Y-80413333D01*
X143438214Y-80365714D01*
X143247738Y-80365714D01*
X143152500Y-80413333D01*
X143104880Y-80508571D01*
X143104880Y-80603809D01*
X143581071Y-80699047D01*
X142676309Y-81032380D02*
X142676309Y-80365714D01*
X142676309Y-80556190D02*
X142628690Y-80460952D01*
X142581071Y-80413333D01*
X142485833Y-80365714D01*
X142390595Y-80365714D01*
X140866785Y-80984761D02*
X140962023Y-81032380D01*
X141152500Y-81032380D01*
X141247738Y-80984761D01*
X141295357Y-80937142D01*
X141342976Y-80841904D01*
X141342976Y-80556190D01*
X141295357Y-80460952D01*
X141247738Y-80413333D01*
X141152500Y-80365714D01*
X140962023Y-80365714D01*
X140866785Y-80413333D01*
X140009642Y-81032380D02*
X140009642Y-80508571D01*
X140057261Y-80413333D01*
X140152500Y-80365714D01*
X140342976Y-80365714D01*
X140438214Y-80413333D01*
X140009642Y-80984761D02*
X140104880Y-81032380D01*
X140342976Y-81032380D01*
X140438214Y-80984761D01*
X140485833Y-80889523D01*
X140485833Y-80794285D01*
X140438214Y-80699047D01*
X140342976Y-80651428D01*
X140104880Y-80651428D01*
X140009642Y-80603809D01*
X139104880Y-81032380D02*
X139104880Y-80032380D01*
X139104880Y-80984761D02*
X139200119Y-81032380D01*
X139390595Y-81032380D01*
X139485833Y-80984761D01*
X139533452Y-80937142D01*
X139581071Y-80841904D01*
X139581071Y-80556190D01*
X139533452Y-80460952D01*
X139485833Y-80413333D01*
X139390595Y-80365714D01*
X139200119Y-80365714D01*
X139104880Y-80413333D01*
X138247738Y-80984761D02*
X138342976Y-81032380D01*
X138533452Y-81032380D01*
X138628690Y-80984761D01*
X138676309Y-80889523D01*
X138676309Y-80508571D01*
X138628690Y-80413333D01*
X138533452Y-80365714D01*
X138342976Y-80365714D01*
X138247738Y-80413333D01*
X138200119Y-80508571D01*
X138200119Y-80603809D01*
X138676309Y-80699047D01*
X137771547Y-80365714D02*
X137771547Y-81032380D01*
X137771547Y-80460952D02*
X137723928Y-80413333D01*
X137628690Y-80365714D01*
X137485833Y-80365714D01*
X137390595Y-80413333D01*
X137342976Y-80508571D01*
X137342976Y-81032380D01*
X136438214Y-80984761D02*
X136533452Y-81032380D01*
X136723928Y-81032380D01*
X136819166Y-80984761D01*
X136866785Y-80937142D01*
X136914404Y-80841904D01*
X136914404Y-80556190D01*
X136866785Y-80460952D01*
X136819166Y-80413333D01*
X136723928Y-80365714D01*
X136533452Y-80365714D01*
X136438214Y-80413333D01*
X135628690Y-80984761D02*
X135723928Y-81032380D01*
X135914404Y-81032380D01*
X136009642Y-80984761D01*
X136057261Y-80889523D01*
X136057261Y-80508571D01*
X136009642Y-80413333D01*
X135914404Y-80365714D01*
X135723928Y-80365714D01*
X135628690Y-80413333D01*
X135581071Y-80508571D01*
X135581071Y-80603809D01*
X136057261Y-80699047D01*
X135104880Y-80984761D02*
X135104880Y-81032380D01*
X135152500Y-81127619D01*
X135200119Y-81175238D01*
X133914404Y-81032380D02*
X133914404Y-80032380D01*
X133485833Y-81032380D02*
X133485833Y-80508571D01*
X133533452Y-80413333D01*
X133628690Y-80365714D01*
X133771547Y-80365714D01*
X133866785Y-80413333D01*
X133914404Y-80460952D01*
X132628690Y-80984761D02*
X132723928Y-81032380D01*
X132914404Y-81032380D01*
X133009642Y-80984761D01*
X133057261Y-80889523D01*
X133057261Y-80508571D01*
X133009642Y-80413333D01*
X132914404Y-80365714D01*
X132723928Y-80365714D01*
X132628690Y-80413333D01*
X132581071Y-80508571D01*
X132581071Y-80603809D01*
X133057261Y-80699047D01*
X131723928Y-81032380D02*
X131723928Y-80508571D01*
X131771547Y-80413333D01*
X131866785Y-80365714D01*
X132057261Y-80365714D01*
X132152500Y-80413333D01*
X131723928Y-80984761D02*
X131819166Y-81032380D01*
X132057261Y-81032380D01*
X132152500Y-80984761D01*
X132200119Y-80889523D01*
X132200119Y-80794285D01*
X132152500Y-80699047D01*
X132057261Y-80651428D01*
X131819166Y-80651428D01*
X131723928Y-80603809D01*
X131247738Y-81032380D02*
X131247738Y-80365714D01*
X131247738Y-80556190D02*
X131200119Y-80460952D01*
X131152500Y-80413333D01*
X131057261Y-80365714D01*
X130962023Y-80365714D01*
X130771547Y-80365714D02*
X130390595Y-80365714D01*
X130628690Y-80032380D02*
X130628690Y-80889523D01*
X130581071Y-80984761D01*
X130485833Y-81032380D01*
X130390595Y-81032380D01*
X129295357Y-81032380D02*
X129295357Y-80365714D01*
X129295357Y-80556190D02*
X129247738Y-80460952D01*
X129200119Y-80413333D01*
X129104880Y-80365714D01*
X129009642Y-80365714D01*
X128247738Y-81032380D02*
X128247738Y-80508571D01*
X128295357Y-80413333D01*
X128390595Y-80365714D01*
X128581071Y-80365714D01*
X128676309Y-80413333D01*
X128247738Y-80984761D02*
X128342976Y-81032380D01*
X128581071Y-81032380D01*
X128676309Y-80984761D01*
X128723928Y-80889523D01*
X128723928Y-80794285D01*
X128676309Y-80699047D01*
X128581071Y-80651428D01*
X128342976Y-80651428D01*
X128247738Y-80603809D01*
X127914404Y-80365714D02*
X127533452Y-80365714D01*
X127771547Y-80032380D02*
X127771547Y-80889523D01*
X127723928Y-80984761D01*
X127628690Y-81032380D01*
X127533452Y-81032380D01*
X126819166Y-80984761D02*
X126914404Y-81032380D01*
X127104880Y-81032380D01*
X127200119Y-80984761D01*
X127247738Y-80889523D01*
X127247738Y-80508571D01*
X127200119Y-80413333D01*
X127104880Y-80365714D01*
X126914404Y-80365714D01*
X126819166Y-80413333D01*
X126771547Y-80508571D01*
X126771547Y-80603809D01*
X127247738Y-80699047D01*
X126295357Y-80984761D02*
X126295357Y-81032380D01*
X126342976Y-81127619D01*
X126390595Y-81175238D01*
X125104880Y-80365714D02*
X125104880Y-81365714D01*
X125104880Y-80413333D02*
X125009642Y-80365714D01*
X124819166Y-80365714D01*
X124723928Y-80413333D01*
X124676309Y-80460952D01*
X124628690Y-80556190D01*
X124628690Y-80841904D01*
X124676309Y-80937142D01*
X124723928Y-80984761D01*
X124819166Y-81032380D01*
X125009642Y-81032380D01*
X125104880Y-80984761D01*
X124057261Y-81032380D02*
X124152500Y-80984761D01*
X124200119Y-80937142D01*
X124247738Y-80841904D01*
X124247738Y-80556190D01*
X124200119Y-80460952D01*
X124152500Y-80413333D01*
X124057261Y-80365714D01*
X123914404Y-80365714D01*
X123819166Y-80413333D01*
X123771547Y-80460952D01*
X123723928Y-80556190D01*
X123723928Y-80841904D01*
X123771547Y-80937142D01*
X123819166Y-80984761D01*
X123914404Y-81032380D01*
X124057261Y-81032380D01*
X123390595Y-80365714D02*
X123200119Y-81032380D01*
X123009642Y-80556190D01*
X122819166Y-81032380D01*
X122628690Y-80365714D01*
X121866785Y-80984761D02*
X121962023Y-81032380D01*
X122152500Y-81032380D01*
X122247738Y-80984761D01*
X122295357Y-80889523D01*
X122295357Y-80508571D01*
X122247738Y-80413333D01*
X122152500Y-80365714D01*
X121962023Y-80365714D01*
X121866785Y-80413333D01*
X121819166Y-80508571D01*
X121819166Y-80603809D01*
X122295357Y-80699047D01*
X121390595Y-81032380D02*
X121390595Y-80365714D01*
X121390595Y-80556190D02*
X121342976Y-80460952D01*
X121295357Y-80413333D01*
X121200119Y-80365714D01*
X121104880Y-80365714D01*
D12*
X96790000Y-55095000D02*
X96790000Y-56425000D01*
X96790000Y-51225000D02*
X147710000Y-51225000D01*
X96790000Y-56425000D02*
X98120000Y-56425000D01*
X96790000Y-53825000D02*
X99390000Y-53825000D01*
X99390000Y-56425000D02*
X147710000Y-56425000D01*
X99390000Y-53825000D02*
X99390000Y-56425000D01*
X96790000Y-51225000D02*
X96790000Y-53825000D01*
X147710000Y-51225000D02*
X147710000Y-56425000D01*
%LPC*%
D13*
X93250000Y-53825000D03*
X151250000Y-53825000D03*
X93250000Y-102825000D03*
X151250000Y-102825000D03*
D14*
X140250000Y-99075000D03*
X146750000Y-99075000D03*
X140250000Y-103575000D03*
X146750000Y-103575000D03*
D15*
X93750000Y-93575000D03*
D16*
X96290000Y-93575000D03*
X98830000Y-93575000D03*
D17*
X152500000Y-76325000D03*
D18*
X152500000Y-78865000D03*
X152500000Y-81405000D03*
X152500000Y-83945000D03*
X152500000Y-86485000D03*
X152500000Y-89025000D03*
D17*
X152500000Y-91565000D03*
D18*
X152500000Y-94105000D03*
X152500000Y-96645000D03*
D15*
X93750000Y-97325000D03*
D16*
X96290000Y-97325000D03*
X98830000Y-97325000D03*
D19*
X125900000Y-99325000D03*
X126700000Y-100525000D03*
X127500000Y-99325000D03*
X128300000Y-100525000D03*
X129100000Y-99325000D03*
D20*
X131150000Y-104375000D03*
D21*
X123850000Y-104375000D03*
D22*
X97750000Y-76975000D03*
D23*
X91950000Y-76975000D03*
D24*
X94750000Y-81775000D03*
D15*
X115725000Y-74575000D03*
D16*
X118265000Y-74575000D03*
X120805000Y-74575000D03*
D14*
X120500000Y-103575000D03*
X114000000Y-103575000D03*
X114000000Y-99075000D03*
X120500000Y-99075000D03*
D25*
X135250000Y-65575000D03*
D26*
X132710000Y-65575000D03*
X130170000Y-65575000D03*
X127630000Y-65575000D03*
D27*
X102000000Y-79825000D03*
D28*
X102000000Y-73825000D03*
D15*
X104750000Y-102650000D03*
D16*
X104750000Y-100110000D03*
X104750000Y-97570000D03*
X104750000Y-95030000D03*
X104750000Y-92490000D03*
D25*
X122560000Y-65555000D03*
D26*
X120020000Y-65555000D03*
X117480000Y-65555000D03*
X114940000Y-65555000D03*
D15*
X108000000Y-79100000D03*
D16*
X108000000Y-76560000D03*
X108000000Y-74020000D03*
D14*
X140250000Y-89325000D03*
X146750000Y-89325000D03*
X140250000Y-93825000D03*
X146750000Y-93825000D03*
D17*
X150000000Y-59700000D03*
D18*
X152540000Y-59700000D03*
X150000000Y-62240000D03*
X152540000Y-62240000D03*
X150000000Y-64780000D03*
X152540000Y-64780000D03*
X150000000Y-67320000D03*
X152540000Y-67320000D03*
D15*
X98120000Y-55095000D03*
D16*
X98120000Y-52555000D03*
X100660000Y-55095000D03*
X100660000Y-52555000D03*
X103200000Y-55095000D03*
X103200000Y-52555000D03*
X105740000Y-55095000D03*
X105740000Y-52555000D03*
X108280000Y-55095000D03*
X108280000Y-52555000D03*
X110820000Y-55095000D03*
X110820000Y-52555000D03*
X113360000Y-55095000D03*
X113360000Y-52555000D03*
X115900000Y-55095000D03*
X115900000Y-52555000D03*
X118440000Y-55095000D03*
X118440000Y-52555000D03*
X120980000Y-55095000D03*
X120980000Y-52555000D03*
X123520000Y-55095000D03*
X123520000Y-52555000D03*
X126060000Y-55095000D03*
X126060000Y-52555000D03*
X128600000Y-55095000D03*
X128600000Y-52555000D03*
X131140000Y-55095000D03*
X131140000Y-52555000D03*
X133680000Y-55095000D03*
X133680000Y-52555000D03*
X136220000Y-55095000D03*
X136220000Y-52555000D03*
X138760000Y-55095000D03*
X138760000Y-52555000D03*
X141300000Y-55095000D03*
X141300000Y-52555000D03*
X143840000Y-55095000D03*
X143840000Y-52555000D03*
X146380000Y-55095000D03*
X146380000Y-52555000D03*
M02*
