G04 #@! TF.GenerationSoftware,KiCad,Pcbnew,6.0.2+dfsg-1*
G04 #@! TF.CreationDate,2022-08-15T18:06:49-04:00*
G04 #@! TF.ProjectId,titan_2022,74697461-6e5f-4323-9032-322e6b696361,1.2*
G04 #@! TF.SameCoordinates,Original*
G04 #@! TF.FileFunction,Paste,Top*
G04 #@! TF.FilePolarity,Positive*
%FSLAX46Y46*%
G04 Gerber Fmt 4.6, Leading zero omitted, Abs format (unit mm)*
G04 Created by KiCad (PCBNEW 6.0.2+dfsg-1) date 2022-08-15 18:06:49*
%MOMM*%
%LPD*%
G01*
G04 APERTURE LIST*
G04 Aperture macros list*
%AMRoundRect*
0 Rectangle with rounded corners*
0 $1 Rounding radius*
0 $2 $3 $4 $5 $6 $7 $8 $9 X,Y pos of 4 corners*
0 Add a 4 corners polygon primitive as box body*
4,1,4,$2,$3,$4,$5,$6,$7,$8,$9,$2,$3,0*
0 Add four circle primitives for the rounded corners*
1,1,$1+$1,$2,$3*
1,1,$1+$1,$4,$5*
1,1,$1+$1,$6,$7*
1,1,$1+$1,$8,$9*
0 Add four rect primitives between the rounded corners*
20,1,$1+$1,$2,$3,$4,$5,0*
20,1,$1+$1,$4,$5,$6,$7,0*
20,1,$1+$1,$6,$7,$8,$9,0*
20,1,$1+$1,$8,$9,$2,$3,0*%
G04 Aperture macros list end*
%ADD10RoundRect,0.150000X-0.587500X-0.150000X0.587500X-0.150000X0.587500X0.150000X-0.587500X0.150000X0*%
%ADD11RoundRect,0.200000X0.200000X0.275000X-0.200000X0.275000X-0.200000X-0.275000X0.200000X-0.275000X0*%
%ADD12RoundRect,0.075000X0.075000X-0.662500X0.075000X0.662500X-0.075000X0.662500X-0.075000X-0.662500X0*%
%ADD13RoundRect,0.075000X0.662500X-0.075000X0.662500X0.075000X-0.662500X0.075000X-0.662500X-0.075000X0*%
%ADD14RoundRect,0.243750X0.243750X0.456250X-0.243750X0.456250X-0.243750X-0.456250X0.243750X-0.456250X0*%
%ADD15RoundRect,0.225000X-0.225000X-0.250000X0.225000X-0.250000X0.225000X0.250000X-0.225000X0.250000X0*%
%ADD16RoundRect,0.200000X-0.200000X-0.275000X0.200000X-0.275000X0.200000X0.275000X-0.200000X0.275000X0*%
%ADD17RoundRect,0.200000X0.275000X-0.200000X0.275000X0.200000X-0.275000X0.200000X-0.275000X-0.200000X0*%
%ADD18RoundRect,0.150000X-0.150000X0.587500X-0.150000X-0.587500X0.150000X-0.587500X0.150000X0.587500X0*%
%ADD19RoundRect,0.200000X-0.275000X0.200000X-0.275000X-0.200000X0.275000X-0.200000X0.275000X0.200000X0*%
%ADD20R,0.450000X0.600000*%
%ADD21RoundRect,0.250000X-0.475000X0.250000X-0.475000X-0.250000X0.475000X-0.250000X0.475000X0.250000X0*%
%ADD22RoundRect,0.225000X0.250000X-0.225000X0.250000X0.225000X-0.250000X0.225000X-0.250000X-0.225000X0*%
%ADD23RoundRect,0.225000X-0.250000X0.225000X-0.250000X-0.225000X0.250000X-0.225000X0.250000X0.225000X0*%
%ADD24R,1.500000X4.000000*%
%ADD25RoundRect,0.243750X-0.456250X0.243750X-0.456250X-0.243750X0.456250X-0.243750X0.456250X0.243750X0*%
%ADD26RoundRect,0.150000X-0.512500X-0.150000X0.512500X-0.150000X0.512500X0.150000X-0.512500X0.150000X0*%
%ADD27R,0.400000X1.900000*%
%ADD28RoundRect,0.243750X-0.243750X-0.456250X0.243750X-0.456250X0.243750X0.456250X-0.243750X0.456250X0*%
G04 APERTURE END LIST*
D10*
X145562500Y-83625000D03*
X145562500Y-85525000D03*
X147437500Y-84575000D03*
D11*
X142325000Y-82075000D03*
X140675000Y-82075000D03*
D12*
X121000000Y-85987500D03*
X121500000Y-85987500D03*
X122000000Y-85987500D03*
X122500000Y-85987500D03*
X123000000Y-85987500D03*
X123500000Y-85987500D03*
X124000000Y-85987500D03*
X124500000Y-85987500D03*
X125000000Y-85987500D03*
X125500000Y-85987500D03*
X126000000Y-85987500D03*
X126500000Y-85987500D03*
D13*
X127912500Y-84575000D03*
X127912500Y-84075000D03*
X127912500Y-83575000D03*
X127912500Y-83075000D03*
X127912500Y-82575000D03*
X127912500Y-82075000D03*
X127912500Y-81575000D03*
X127912500Y-81075000D03*
X127912500Y-80575000D03*
X127912500Y-80075000D03*
X127912500Y-79575000D03*
X127912500Y-79075000D03*
D12*
X126500000Y-77662500D03*
X126000000Y-77662500D03*
X125500000Y-77662500D03*
X125000000Y-77662500D03*
X124500000Y-77662500D03*
X124000000Y-77662500D03*
X123500000Y-77662500D03*
X123000000Y-77662500D03*
X122500000Y-77662500D03*
X122000000Y-77662500D03*
X121500000Y-77662500D03*
X121000000Y-77662500D03*
D13*
X119587500Y-79075000D03*
X119587500Y-79575000D03*
X119587500Y-80075000D03*
X119587500Y-80575000D03*
X119587500Y-81075000D03*
X119587500Y-81575000D03*
X119587500Y-82075000D03*
X119587500Y-82575000D03*
X119587500Y-83075000D03*
X119587500Y-83575000D03*
X119587500Y-84075000D03*
X119587500Y-84575000D03*
D14*
X131437500Y-72325000D03*
X129562500Y-72325000D03*
D15*
X118225000Y-77325000D03*
X119775000Y-77325000D03*
D10*
X145562500Y-80125000D03*
X145562500Y-82025000D03*
X147437500Y-81075000D03*
D16*
X95600000Y-86825000D03*
X97250000Y-86825000D03*
D17*
X128000000Y-89900000D03*
X128000000Y-88250000D03*
X111000000Y-78900000D03*
X111000000Y-77250000D03*
D10*
X109812500Y-57875000D03*
X109812500Y-59775000D03*
X111687500Y-58825000D03*
D14*
X131437500Y-70075000D03*
X129562500Y-70075000D03*
D11*
X135075000Y-72325000D03*
X133425000Y-72325000D03*
D18*
X96450000Y-67387500D03*
X94550000Y-67387500D03*
X95500000Y-69262500D03*
D16*
X107925000Y-66575000D03*
X109575000Y-66575000D03*
D19*
X129750000Y-92250000D03*
X129750000Y-93900000D03*
D16*
X140675000Y-85575000D03*
X142325000Y-85575000D03*
D15*
X117725000Y-86075000D03*
X119275000Y-86075000D03*
X92975000Y-65275000D03*
X94525000Y-65275000D03*
D11*
X128075000Y-59575000D03*
X126425000Y-59575000D03*
D20*
X92500000Y-67275000D03*
X92500000Y-69375000D03*
D21*
X91250000Y-61575000D03*
X91250000Y-63475000D03*
D17*
X101250000Y-65100000D03*
X101250000Y-63450000D03*
D11*
X102825000Y-67025000D03*
X101175000Y-67025000D03*
X112575000Y-95075000D03*
X110925000Y-95075000D03*
D14*
X131437500Y-74575000D03*
X129562500Y-74575000D03*
D11*
X135075000Y-74575000D03*
X133425000Y-74575000D03*
D16*
X140675000Y-83825000D03*
X142325000Y-83825000D03*
D21*
X93500000Y-61575000D03*
X93500000Y-63475000D03*
D22*
X103000000Y-65050000D03*
X103000000Y-63500000D03*
D10*
X130062500Y-57875000D03*
X130062500Y-59775000D03*
X131937500Y-58825000D03*
D19*
X131500000Y-92250000D03*
X131500000Y-93900000D03*
D11*
X112575000Y-92825000D03*
X110925000Y-92825000D03*
D23*
X101250000Y-60250000D03*
X101250000Y-61800000D03*
D22*
X126250000Y-89850000D03*
X126250000Y-88300000D03*
D11*
X135075000Y-70075000D03*
X133425000Y-70075000D03*
D23*
X128250000Y-76275000D03*
X128250000Y-77825000D03*
D24*
X99300000Y-59775000D03*
X95700000Y-59775000D03*
D11*
X104650000Y-57825000D03*
X103000000Y-57825000D03*
D25*
X103250000Y-59887500D03*
X103250000Y-61762500D03*
D17*
X116250000Y-80900000D03*
X116250000Y-79250000D03*
D19*
X127750000Y-94500000D03*
X127750000Y-96150000D03*
D26*
X96362500Y-63425000D03*
X96362500Y-64375000D03*
X96362500Y-65325000D03*
X98637500Y-65325000D03*
X98637500Y-64375000D03*
X98637500Y-63425000D03*
D10*
X113812500Y-57875000D03*
X113812500Y-59775000D03*
X115687500Y-58825000D03*
D27*
X122050000Y-88825000D03*
X123250000Y-88825000D03*
X124450000Y-88825000D03*
D11*
X109575000Y-64825000D03*
X107925000Y-64825000D03*
D16*
X90675000Y-70825000D03*
X92325000Y-70825000D03*
D11*
X106075000Y-68825000D03*
X104425000Y-68825000D03*
D10*
X91787500Y-84475000D03*
X91787500Y-86375000D03*
X93662500Y-85425000D03*
D11*
X102825000Y-68825000D03*
X101175000Y-68825000D03*
X119325000Y-57825000D03*
X117675000Y-57825000D03*
X119325000Y-59575000D03*
X117675000Y-59575000D03*
D28*
X95625000Y-84825000D03*
X97500000Y-84825000D03*
D16*
X126425000Y-57825000D03*
X128075000Y-57825000D03*
M02*
