%FSLAX45Y45*%
G04 Gerber Fmt 4.5, Leading zero omitted, Abs format (unit mm)*
G04 Created by KiCad (PCBNEW 6.0.2+dfsg-1) date 2022-08-15 18:06:53*
%MOMM*%
%LPD*%
G01*
G04 APERTURE LIST*
%TA.AperFunction,Profile*%
%ADD10C,0.100000*%
%TD*%
%ADD11C,0.200000*%
%ADD12C,0.270000*%
G04 APERTURE END LIST*
D10*
X13575000Y-8732500D02*
G75*
G03*
X13375000Y-8732500I-100000J0D01*
G01*
X15475000Y-5332500D02*
G75*
G03*
X15175000Y-5032500I-300000J0D01*
G01*
X15175000Y-5032500D02*
X9275000Y-5032500D01*
X13575000Y-8732500D02*
X13575000Y-10532500D01*
X9275000Y-10632500D02*
X13275000Y-10632500D01*
X9275000Y-5032500D02*
G75*
G03*
X8975000Y-5332500I0J-300000D01*
G01*
X13575000Y-10532500D02*
G75*
G03*
X13675000Y-10632500I100000J0D01*
G01*
X8975000Y-10332500D02*
G75*
G03*
X9275000Y-10632500I300000J0D01*
G01*
X15175000Y-10632500D02*
G75*
G03*
X15475000Y-10332500I0J300000D01*
G01*
X15475000Y-10332500D02*
X15475000Y-5332500D01*
X8975000Y-5332500D02*
X8975000Y-10332500D01*
X13675000Y-10632500D02*
X15175000Y-10632500D01*
X13275000Y-10632500D02*
G75*
G03*
X13375000Y-10532500I1J99999D01*
G01*
X13375000Y-10532500D02*
X13375000Y-8732500D01*
D11*
D12*
X9190000Y-5247500D02*
X9460000Y-5517500D01*
X9460000Y-5247500D02*
X9190000Y-5517500D01*
X9190000Y-10147500D02*
X9460000Y-10417500D01*
X9460000Y-10147500D02*
X9190000Y-10417500D01*
X14990000Y-5247500D02*
X15260000Y-5517500D01*
X15260000Y-5247500D02*
X14990000Y-5517500D01*
X14990000Y-10147500D02*
X15260000Y-10417500D01*
X15260000Y-10147500D02*
X14990000Y-10417500D01*
D11*
X9227619Y-10947976D02*
X9227619Y-10747976D01*
X9275238Y-10747976D01*
X9303810Y-10757500D01*
X9322857Y-10776548D01*
X9332381Y-10795595D01*
X9341905Y-10833690D01*
X9341905Y-10862262D01*
X9332381Y-10900357D01*
X9322857Y-10919405D01*
X9303810Y-10938452D01*
X9275238Y-10947976D01*
X9227619Y-10947976D01*
X9427619Y-10947976D02*
X9427619Y-10814643D01*
X9427619Y-10852738D02*
X9437143Y-10833690D01*
X9446667Y-10824167D01*
X9465714Y-10814643D01*
X9484762Y-10814643D01*
X9551429Y-10947976D02*
X9551429Y-10814643D01*
X9551429Y-10747976D02*
X9541905Y-10757500D01*
X9551429Y-10767024D01*
X9560952Y-10757500D01*
X9551429Y-10747976D01*
X9551429Y-10767024D01*
X9675238Y-10947976D02*
X9656190Y-10938452D01*
X9646667Y-10919405D01*
X9646667Y-10747976D01*
X9780000Y-10947976D02*
X9760952Y-10938452D01*
X9751429Y-10919405D01*
X9751429Y-10747976D01*
X10008571Y-10947976D02*
X10008571Y-10747976D01*
X10075238Y-10890833D01*
X10141905Y-10747976D01*
X10141905Y-10947976D01*
X10322857Y-10947976D02*
X10322857Y-10843214D01*
X10313333Y-10824167D01*
X10294286Y-10814643D01*
X10256190Y-10814643D01*
X10237143Y-10824167D01*
X10322857Y-10938452D02*
X10303810Y-10947976D01*
X10256190Y-10947976D01*
X10237143Y-10938452D01*
X10227619Y-10919405D01*
X10227619Y-10900357D01*
X10237143Y-10881310D01*
X10256190Y-10871786D01*
X10303810Y-10871786D01*
X10322857Y-10862262D01*
X10418095Y-10814643D02*
X10418095Y-11014643D01*
X10418095Y-10824167D02*
X10437143Y-10814643D01*
X10475238Y-10814643D01*
X10494286Y-10824167D01*
X10503810Y-10833690D01*
X10513333Y-10852738D01*
X10513333Y-10909881D01*
X10503810Y-10928929D01*
X10494286Y-10938452D01*
X10475238Y-10947976D01*
X10437143Y-10947976D01*
X10418095Y-10938452D01*
X10599048Y-10928929D02*
X10608571Y-10938452D01*
X10599048Y-10947976D01*
X10589524Y-10938452D01*
X10599048Y-10928929D01*
X10599048Y-10947976D01*
X10599048Y-10824167D02*
X10608571Y-10833690D01*
X10599048Y-10843214D01*
X10589524Y-10833690D01*
X10599048Y-10824167D01*
X10599048Y-10843214D01*
X8770000Y-11177500D02*
X8970000Y-11377500D01*
X8970000Y-11177500D02*
X8770000Y-11377500D01*
X9218095Y-11187024D02*
X9227619Y-11177500D01*
X9246667Y-11167976D01*
X9294286Y-11167976D01*
X9313333Y-11177500D01*
X9322857Y-11187024D01*
X9332381Y-11206071D01*
X9332381Y-11225119D01*
X9322857Y-11253690D01*
X9208571Y-11367976D01*
X9332381Y-11367976D01*
X9418095Y-11348928D02*
X9427619Y-11358452D01*
X9418095Y-11367976D01*
X9408571Y-11358452D01*
X9418095Y-11348928D01*
X9418095Y-11367976D01*
X9494286Y-11167976D02*
X9627619Y-11167976D01*
X9541905Y-11367976D01*
X9741905Y-11167976D02*
X9760952Y-11167976D01*
X9780000Y-11177500D01*
X9789524Y-11187024D01*
X9799048Y-11206071D01*
X9808571Y-11244167D01*
X9808571Y-11291786D01*
X9799048Y-11329881D01*
X9789524Y-11348928D01*
X9780000Y-11358452D01*
X9760952Y-11367976D01*
X9741905Y-11367976D01*
X9722857Y-11358452D01*
X9713333Y-11348928D01*
X9703810Y-11329881D01*
X9694286Y-11291786D01*
X9694286Y-11244167D01*
X9703810Y-11206071D01*
X9713333Y-11187024D01*
X9722857Y-11177500D01*
X9741905Y-11167976D01*
X9932381Y-11167976D02*
X9951429Y-11167976D01*
X9970476Y-11177500D01*
X9980000Y-11187024D01*
X9989524Y-11206071D01*
X9999048Y-11244167D01*
X9999048Y-11291786D01*
X9989524Y-11329881D01*
X9980000Y-11348928D01*
X9970476Y-11358452D01*
X9951429Y-11367976D01*
X9932381Y-11367976D01*
X9913333Y-11358452D01*
X9903810Y-11348928D01*
X9894286Y-11329881D01*
X9884762Y-11291786D01*
X9884762Y-11244167D01*
X9894286Y-11206071D01*
X9903810Y-11187024D01*
X9913333Y-11177500D01*
X9932381Y-11167976D01*
X10084762Y-11367976D02*
X10084762Y-11234643D01*
X10084762Y-11253690D02*
X10094286Y-11244167D01*
X10113333Y-11234643D01*
X10141905Y-11234643D01*
X10160952Y-11244167D01*
X10170476Y-11263214D01*
X10170476Y-11367976D01*
X10170476Y-11263214D02*
X10180000Y-11244167D01*
X10199048Y-11234643D01*
X10227619Y-11234643D01*
X10246667Y-11244167D01*
X10256190Y-11263214D01*
X10256190Y-11367976D01*
X10351429Y-11367976D02*
X10351429Y-11234643D01*
X10351429Y-11253690D02*
X10360952Y-11244167D01*
X10380000Y-11234643D01*
X10408571Y-11234643D01*
X10427619Y-11244167D01*
X10437143Y-11263214D01*
X10437143Y-11367976D01*
X10437143Y-11263214D02*
X10446667Y-11244167D01*
X10465714Y-11234643D01*
X10494286Y-11234643D01*
X10513333Y-11244167D01*
X10522857Y-11263214D01*
X10522857Y-11367976D01*
X10913333Y-11158452D02*
X10741905Y-11415595D01*
X11170476Y-11167976D02*
X11189524Y-11167976D01*
X11208571Y-11177500D01*
X11218095Y-11187024D01*
X11227619Y-11206071D01*
X11237143Y-11244167D01*
X11237143Y-11291786D01*
X11227619Y-11329881D01*
X11218095Y-11348928D01*
X11208571Y-11358452D01*
X11189524Y-11367976D01*
X11170476Y-11367976D01*
X11151429Y-11358452D01*
X11141905Y-11348928D01*
X11132381Y-11329881D01*
X11122857Y-11291786D01*
X11122857Y-11244167D01*
X11132381Y-11206071D01*
X11141905Y-11187024D01*
X11151429Y-11177500D01*
X11170476Y-11167976D01*
X11322857Y-11348928D02*
X11332381Y-11358452D01*
X11322857Y-11367976D01*
X11313333Y-11358452D01*
X11322857Y-11348928D01*
X11322857Y-11367976D01*
X11522857Y-11367976D02*
X11408571Y-11367976D01*
X11465714Y-11367976D02*
X11465714Y-11167976D01*
X11446667Y-11196548D01*
X11427619Y-11215595D01*
X11408571Y-11225119D01*
X11646667Y-11167976D02*
X11665714Y-11167976D01*
X11684762Y-11177500D01*
X11694286Y-11187024D01*
X11703809Y-11206071D01*
X11713333Y-11244167D01*
X11713333Y-11291786D01*
X11703809Y-11329881D01*
X11694286Y-11348928D01*
X11684762Y-11358452D01*
X11665714Y-11367976D01*
X11646667Y-11367976D01*
X11627619Y-11358452D01*
X11618095Y-11348928D01*
X11608571Y-11329881D01*
X11599048Y-11291786D01*
X11599048Y-11244167D01*
X11608571Y-11206071D01*
X11618095Y-11187024D01*
X11627619Y-11177500D01*
X11646667Y-11167976D01*
X11884762Y-11167976D02*
X11846667Y-11167976D01*
X11827619Y-11177500D01*
X11818095Y-11187024D01*
X11799048Y-11215595D01*
X11789524Y-11253690D01*
X11789524Y-11329881D01*
X11799048Y-11348928D01*
X11808571Y-11358452D01*
X11827619Y-11367976D01*
X11865714Y-11367976D01*
X11884762Y-11358452D01*
X11894286Y-11348928D01*
X11903809Y-11329881D01*
X11903809Y-11282262D01*
X11894286Y-11263214D01*
X11884762Y-11253690D01*
X11865714Y-11244167D01*
X11827619Y-11244167D01*
X11808571Y-11253690D01*
X11799048Y-11263214D01*
X11789524Y-11282262D01*
X11970476Y-11167976D02*
X12094286Y-11167976D01*
X12027619Y-11244167D01*
X12056190Y-11244167D01*
X12075238Y-11253690D01*
X12084762Y-11263214D01*
X12094286Y-11282262D01*
X12094286Y-11329881D01*
X12084762Y-11348928D01*
X12075238Y-11358452D01*
X12056190Y-11367976D01*
X11999048Y-11367976D01*
X11980000Y-11358452D01*
X11970476Y-11348928D01*
X12170476Y-11167976D02*
X12170476Y-11206071D01*
X12246667Y-11167976D02*
X12246667Y-11206071D01*
X12541905Y-11444167D02*
X12532381Y-11434643D01*
X12513333Y-11406071D01*
X12503809Y-11387024D01*
X12494286Y-11358452D01*
X12484762Y-11310833D01*
X12484762Y-11272738D01*
X12494286Y-11225119D01*
X12503809Y-11196548D01*
X12513333Y-11177500D01*
X12532381Y-11148929D01*
X12541905Y-11139405D01*
X12703809Y-11234643D02*
X12703809Y-11367976D01*
X12656190Y-11158452D02*
X12608571Y-11301309D01*
X12732381Y-11301309D01*
X12960952Y-11367976D02*
X12960952Y-11167976D01*
X13046667Y-11367976D02*
X13046667Y-11263214D01*
X13037143Y-11244167D01*
X13018095Y-11234643D01*
X12989524Y-11234643D01*
X12970476Y-11244167D01*
X12960952Y-11253690D01*
X13170476Y-11367976D02*
X13151428Y-11358452D01*
X13141905Y-11348928D01*
X13132381Y-11329881D01*
X13132381Y-11272738D01*
X13141905Y-11253690D01*
X13151428Y-11244167D01*
X13170476Y-11234643D01*
X13199048Y-11234643D01*
X13218095Y-11244167D01*
X13227619Y-11253690D01*
X13237143Y-11272738D01*
X13237143Y-11329881D01*
X13227619Y-11348928D01*
X13218095Y-11358452D01*
X13199048Y-11367976D01*
X13170476Y-11367976D01*
X13351428Y-11367976D02*
X13332381Y-11358452D01*
X13322857Y-11339405D01*
X13322857Y-11167976D01*
X13503809Y-11358452D02*
X13484762Y-11367976D01*
X13446667Y-11367976D01*
X13427619Y-11358452D01*
X13418095Y-11339405D01*
X13418095Y-11263214D01*
X13427619Y-11244167D01*
X13446667Y-11234643D01*
X13484762Y-11234643D01*
X13503809Y-11244167D01*
X13513333Y-11263214D01*
X13513333Y-11282262D01*
X13418095Y-11301309D01*
X13589524Y-11358452D02*
X13608571Y-11367976D01*
X13646667Y-11367976D01*
X13665714Y-11358452D01*
X13675238Y-11339405D01*
X13675238Y-11329881D01*
X13665714Y-11310833D01*
X13646667Y-11301309D01*
X13618095Y-11301309D01*
X13599048Y-11291786D01*
X13589524Y-11272738D01*
X13589524Y-11263214D01*
X13599048Y-11244167D01*
X13618095Y-11234643D01*
X13646667Y-11234643D01*
X13665714Y-11244167D01*
X13741905Y-11444167D02*
X13751428Y-11434643D01*
X13770476Y-11406071D01*
X13780000Y-11387024D01*
X13789524Y-11358452D01*
X13799048Y-11310833D01*
X13799048Y-11272738D01*
X13789524Y-11225119D01*
X13780000Y-11196548D01*
X13770476Y-11177500D01*
X13751428Y-11148929D01*
X13741905Y-11139405D01*
X14103809Y-11444167D02*
X14094286Y-11434643D01*
X14075238Y-11406071D01*
X14065714Y-11387024D01*
X14056190Y-11358452D01*
X14046667Y-11310833D01*
X14046667Y-11272738D01*
X14056190Y-11225119D01*
X14065714Y-11196548D01*
X14075238Y-11177500D01*
X14094286Y-11148929D01*
X14103809Y-11139405D01*
X14180000Y-11234643D02*
X14180000Y-11367976D01*
X14180000Y-11253690D02*
X14189524Y-11244167D01*
X14208571Y-11234643D01*
X14237143Y-11234643D01*
X14256190Y-11244167D01*
X14265714Y-11263214D01*
X14265714Y-11367976D01*
X14389524Y-11367976D02*
X14370476Y-11358452D01*
X14360952Y-11348928D01*
X14351428Y-11329881D01*
X14351428Y-11272738D01*
X14360952Y-11253690D01*
X14370476Y-11244167D01*
X14389524Y-11234643D01*
X14418095Y-11234643D01*
X14437143Y-11244167D01*
X14446667Y-11253690D01*
X14456190Y-11272738D01*
X14456190Y-11329881D01*
X14446667Y-11348928D01*
X14437143Y-11358452D01*
X14418095Y-11367976D01*
X14389524Y-11367976D01*
X14513333Y-11234643D02*
X14589524Y-11234643D01*
X14541905Y-11167976D02*
X14541905Y-11339405D01*
X14551428Y-11358452D01*
X14570476Y-11367976D01*
X14589524Y-11367976D01*
X14808571Y-11234643D02*
X14808571Y-11434643D01*
X14808571Y-11244167D02*
X14827619Y-11234643D01*
X14865714Y-11234643D01*
X14884762Y-11244167D01*
X14894286Y-11253690D01*
X14903809Y-11272738D01*
X14903809Y-11329881D01*
X14894286Y-11348928D01*
X14884762Y-11358452D01*
X14865714Y-11367976D01*
X14827619Y-11367976D01*
X14808571Y-11358452D01*
X15018095Y-11367976D02*
X14999048Y-11358452D01*
X14989524Y-11339405D01*
X14989524Y-11167976D01*
X15180000Y-11367976D02*
X15180000Y-11263214D01*
X15170476Y-11244167D01*
X15151428Y-11234643D01*
X15113333Y-11234643D01*
X15094286Y-11244167D01*
X15180000Y-11358452D02*
X15160952Y-11367976D01*
X15113333Y-11367976D01*
X15094286Y-11358452D01*
X15084762Y-11339405D01*
X15084762Y-11320357D01*
X15094286Y-11301309D01*
X15113333Y-11291786D01*
X15160952Y-11291786D01*
X15180000Y-11282262D01*
X15246667Y-11234643D02*
X15322857Y-11234643D01*
X15275238Y-11167976D02*
X15275238Y-11339405D01*
X15284762Y-11358452D01*
X15303809Y-11367976D01*
X15322857Y-11367976D01*
X15465714Y-11358452D02*
X15446667Y-11367976D01*
X15408571Y-11367976D01*
X15389524Y-11358452D01*
X15380000Y-11339405D01*
X15380000Y-11263214D01*
X15389524Y-11244167D01*
X15408571Y-11234643D01*
X15446667Y-11234643D01*
X15465714Y-11244167D01*
X15475238Y-11263214D01*
X15475238Y-11282262D01*
X15380000Y-11301309D01*
X15646667Y-11367976D02*
X15646667Y-11167976D01*
X15646667Y-11358452D02*
X15627619Y-11367976D01*
X15589524Y-11367976D01*
X15570476Y-11358452D01*
X15560952Y-11348928D01*
X15551428Y-11329881D01*
X15551428Y-11272738D01*
X15560952Y-11253690D01*
X15570476Y-11244167D01*
X15589524Y-11234643D01*
X15627619Y-11234643D01*
X15646667Y-11244167D01*
X15722857Y-11444167D02*
X15732381Y-11434643D01*
X15751428Y-11406071D01*
X15760952Y-11387024D01*
X15770476Y-11358452D01*
X15780000Y-11310833D01*
X15780000Y-11272738D01*
X15770476Y-11225119D01*
X15760952Y-11196548D01*
X15751428Y-11177500D01*
X15732381Y-11148929D01*
X15722857Y-11139405D01*
M02*
