M48
; DRILL file {KiCad 6.0.2+dfsg-1} date Mon 15 Aug 2022 06:06:54 PM
; FORMAT={-:-/ absolute / metric / decimal}
; #@! TF.CreationDate,2022-08-15T18:06:54-04:00
; #@! TF.GenerationSoftware,Kicad,Pcbnew,6.0.2+dfsg-1
; #@! TF.FileFunction,Plated,1,2,PTH
FMAT,2
METRIC
; #@! TA.AperFunction,Plated,PTH,ViaDrill
T1C0.400
; #@! TA.AperFunction,Plated,PTH,ComponentDrill
T2C0.700
; #@! TA.AperFunction,Plated,PTH,ComponentDrill
T3C0.762
; #@! TA.AperFunction,Plated,PTH,ComponentDrill
T4C0.800
; #@! TA.AperFunction,Plated,PTH,ComponentDrill
T5C1.000
; #@! TA.AperFunction,Plated,PTH,ComponentDrill
T6C1.100
; #@! TA.AperFunction,Plated,PTH,ComponentDrill
T7C1.190
; #@! TA.AperFunction,Plated,PTH,ComponentDrill
T8C2.100
%
G90
G05
T1
X91.25Y-61.575
X92.5Y-69.375
X95.625Y-84.825
X95.75Y-59.825
X96.45Y-67.388
X100.0Y-64.325
X101.175Y-68.825
X101.25Y-63.45
X102.825Y-68.825
X107.925Y-64.825
X109.575Y-66.575
X112.25Y-57.325
X112.575Y-92.825
X112.575Y-95.075
X113.812Y-59.775
X116.25Y-79.25
X116.5Y-83.825
X119.275Y-86.075
X119.775Y-77.325
X122.0Y-79.325
X123.28Y-70.295
X123.5Y-79.325
X124.0Y-72.325
X125.5Y-81.575
X126.25Y-82.825
X126.25Y-88.3
X127.75Y-96.15
X128.075Y-59.575
X128.25Y-77.825
X129.75Y-92.25
X130.0Y-59.825
X130.0Y-80.075
X131.25Y-78.825
X131.5Y-92.25
X138.75Y-87.0
X139.25Y-68.0
X140.675Y-82.075
X145.562Y-82.025
X145.562Y-85.525
X147.75Y-68.075
T2
X125.9Y-99.325
X126.7Y-100.525
X127.5Y-99.325
X128.3Y-100.525
X129.1Y-99.325
T3
X150.0Y-59.7
X150.0Y-62.24
X150.0Y-64.78
X150.0Y-67.32
X152.5Y-76.325
X152.5Y-78.865
X152.5Y-81.405
X152.5Y-83.945
X152.5Y-86.485
X152.5Y-89.025
X152.5Y-91.565
X152.5Y-94.105
X152.5Y-96.645
X152.54Y-59.7
X152.54Y-62.24
X152.54Y-64.78
X152.54Y-67.32
T5
X93.75Y-93.575
X93.75Y-97.325
X96.29Y-93.575
X96.29Y-97.325
X98.12Y-52.555
X98.12Y-55.095
X98.83Y-93.575
X98.83Y-97.325
X100.66Y-52.555
X100.66Y-55.095
X103.2Y-52.555
X103.2Y-55.095
X104.75Y-92.49
X104.75Y-95.03
X104.75Y-97.57
X104.75Y-100.11
X104.75Y-102.65
X105.74Y-52.555
X105.74Y-55.095
X108.0Y-74.02
X108.0Y-76.56
X108.0Y-79.1
X108.28Y-52.555
X108.28Y-55.095
X110.82Y-52.555
X110.82Y-55.095
X113.36Y-52.555
X113.36Y-55.095
X115.725Y-74.575
X115.9Y-52.555
X115.9Y-55.095
X118.265Y-74.575
X118.44Y-52.555
X118.44Y-55.095
X120.805Y-74.575
X120.98Y-52.555
X120.98Y-55.095
X123.52Y-52.555
X123.52Y-55.095
X126.06Y-52.555
X126.06Y-55.095
X128.6Y-52.555
X128.6Y-55.095
X131.14Y-52.555
X131.14Y-55.095
X133.68Y-52.555
X133.68Y-55.095
X136.22Y-52.555
X136.22Y-55.095
X138.76Y-52.555
X138.76Y-55.095
X141.3Y-52.555
X141.3Y-55.095
X143.84Y-52.555
X143.84Y-55.095
X146.38Y-52.555
X146.38Y-55.095
T6
X114.0Y-99.075
X114.0Y-103.575
X120.5Y-99.075
X120.5Y-103.575
X140.25Y-89.325
X140.25Y-93.825
X140.25Y-99.075
X140.25Y-103.575
X146.75Y-89.325
X146.75Y-93.825
X146.75Y-99.075
X146.75Y-103.575
T7
X114.94Y-65.555
X117.48Y-65.555
X120.02Y-65.555
X122.56Y-65.555
X127.63Y-65.575
X130.17Y-65.575
X132.71Y-65.575
X135.25Y-65.575
T8
X102.0Y-73.825
X102.0Y-79.825
T4
X91.95Y-75.875G85X91.95Y-78.075
G05
X93.65Y-81.775G85X95.85Y-81.775
G05
X97.75Y-75.675G85X97.75Y-78.275
G05
X123.85Y-103.825G85X123.85Y-104.925
G05
X131.15Y-103.825G85X131.15Y-104.925
G05
T0
M30
